<svg xmlns="http://www.w3.org/2000/svg" xmlns:xlink="http://www.w3.org/1999/xlink" width="121" height="121" viewBox="0 0 121 121">
  <defs>
    <clipPath id="clip-path">
      <rect id="Rectangle_400938" data-name="Rectangle 400938" width="121" height="121" transform="translate(0 0)" fill="none"/>
    </clipPath>
    <clipPath id="clip-path-2">
      <rect id="Rectangle_401073" data-name="Rectangle 401073" width="92.219" height="41.532" fill="#efb499"/>
    </clipPath>
  </defs>
  <g id="Group_1118916" data-name="Group 1118916" transform="translate(-11978 10708.232)">
    <g id="Group_1118559" data-name="Group 1118559" transform="translate(11590.332 -16721.232)">
      <rect id="Rectangle_401103" data-name="Rectangle 401103" width="121" height="121" transform="translate(387.668 6013)" fill="none"/>
      <g id="Group_1099348" data-name="Group 1099348" transform="translate(387.668 6013)">
        <g id="Group_1099282" data-name="Group 1099282">
          <g id="Group_1099281" data-name="Group 1099281" clip-path="url(#clip-path-2)">
            <path id="Path_873375" data-name="Path 873375" d="M74.8,9.1c-4.139,0-6.28-2.03-8.17-3.821-1.855-1.756-3.452-3.274-6.792-3.274s-4.937,1.517-6.792,3.274C51.161,7.072,49.023,9.1,44.881,9.1s-6.28-2.03-8.169-3.821C34.857,3.525,33.26,2.007,29.92,2.007s-4.937,1.517-6.789,3.274C21.241,7.072,19.1,9.1,14.962,9.1S8.679,7.072,6.789,5.281C4.937,3.525,3.34,2.007,0,2.007V0C4.139,0,6.28,2.033,8.17,3.821c1.855,1.759,3.452,3.274,6.792,3.274S19.9,5.58,21.75,3.824C23.637,2.033,25.781,0,29.92,0s6.283,2.033,8.17,3.821c1.855,1.759,3.452,3.274,6.792,3.274s4.937-1.514,6.792-3.274C53.56,2.033,55.7,0,59.843,0s6.283,2.033,8.17,3.821C69.867,5.58,71.464,7.094,74.8,7.094S79.742,5.58,81.6,3.821C83.483,2.033,85.624,0,89.766,0V2.007c-3.34,0-4.937,1.517-6.792,3.274C81.084,7.072,78.943,9.1,74.8,9.1" transform="translate(2.453 32.43)" fill="#efb499"/>
            <path id="Path_873376" data-name="Path 873376" d="M74.8,9.1c-4.139,0-6.283-2.03-8.17-3.824-1.855-1.756-3.452-3.27-6.792-3.27s-4.937,1.514-6.792,3.27C51.164,7.072,49.023,9.1,44.881,9.1s-6.283-2.03-8.17-3.824c-1.855-1.756-3.452-3.27-6.792-3.27s-4.937,1.517-6.789,3.27C21.241,7.072,19.1,9.1,14.962,9.1S8.679,7.072,6.789,5.278C4.937,3.522,3.34,2.007,0,2.007V0C4.139,0,6.283,2.03,8.17,3.821c1.855,1.759,3.452,3.274,6.792,3.274S19.9,5.58,21.75,3.821C23.637,2.03,25.781,0,29.92,0S36.2,2.03,38.093,3.821c1.852,1.759,3.449,3.274,6.789,3.274s4.937-1.514,6.792-3.274C53.56,2.03,55.7,0,59.843,0s6.283,2.03,8.17,3.821C69.867,5.58,71.464,7.094,74.8,7.094S79.742,5.58,81.6,3.821C83.486,2.03,85.627,0,89.769,0V2.007c-3.34,0-4.94,1.517-6.8,3.27C81.084,7.072,78.943,9.1,74.8,9.1" transform="translate(1.635 21.62)" fill="#efb499"/>
            <path id="Path_873377" data-name="Path 873377" d="M74.8,9.1c-4.139,0-6.283-2.03-8.169-3.824-1.855-1.756-3.452-3.27-6.792-3.27s-4.937,1.514-6.792,3.27C51.164,7.072,49.02,9.1,44.881,9.1s-6.283-2.03-8.17-3.824c-1.855-1.756-3.452-3.27-6.792-3.27s-4.937,1.517-6.789,3.27C21.241,7.072,19.1,9.1,14.962,9.1S8.678,7.072,6.789,5.278C4.937,3.522,3.34,2.007,0,2.007V0C4.139,0,6.283,2.03,8.169,3.821c1.851,1.759,3.452,3.274,6.792,3.274S19.9,5.58,21.75,3.821C23.637,2.03,25.781,0,29.92,0S36.2,2.03,38.093,3.821c1.852,1.759,3.449,3.274,6.789,3.274s4.937-1.514,6.792-3.274C53.56,2.03,55.7,0,59.843,0s6.283,2.03,8.17,3.821C69.867,5.58,71.464,7.094,74.8,7.094S79.742,5.58,81.6,3.821C83.486,2.03,85.624,0,89.769,0V2.007c-3.34,0-4.941,1.517-6.8,3.27C81.084,7.072,78.943,9.1,74.8,9.1" transform="translate(0.818 10.81)" fill="#efb499"/>
            <path id="Path_873378" data-name="Path 873378" d="M74.8,9.1c-4.139,0-6.28-2.03-8.17-3.821-1.855-1.756-3.452-3.27-6.792-3.27s-4.937,1.514-6.789,3.27C51.164,7.069,49.023,9.1,44.881,9.1s-6.28-2.03-8.169-3.821c-1.855-1.756-3.452-3.27-6.792-3.27s-4.937,1.514-6.789,3.267C21.245,7.069,19.1,9.1,14.962,9.1S8.678,7.069,6.789,5.278C4.937,3.522,3.34,2.007,0,2.007V0C4.139,0,6.283,2.03,8.17,3.821c1.855,1.756,3.452,3.27,6.792,3.27S19.9,5.577,21.75,3.821C23.64,2.03,25.781,0,29.92,0s6.28,2.03,8.173,3.821c1.852,1.756,3.449,3.27,6.789,3.27s4.937-1.514,6.792-3.27C53.563,2.03,55.7,0,59.843,0s6.28,2.03,8.17,3.821c1.855,1.756,3.452,3.27,6.792,3.27s4.937-1.514,6.792-3.27C83.486,2.03,85.627,0,89.769,0V2.007c-3.344,0-4.941,1.514-6.8,3.27C81.084,7.069,78.943,9.1,74.8,9.1" transform="translate(0 0.003)" fill="#efb499"/>
          </g>
        </g>
      </g>
      <circle id="Ellipse_11504" data-name="Ellipse 11504" cx="50.5" cy="50.5" r="50.5" transform="translate(402.668 6031)" fill="#ffce73"/>
      <circle id="Ellipse_11503" data-name="Ellipse 11503" cx="52.5" cy="52.5" r="52.5" transform="translate(395.668 6021)" fill="#f3f9ff"/>
    </g>
    <g id="Group_1118760" data-name="Group 1118760" transform="translate(12009.208 -10693.537)">
      <path id="Path_906239" data-name="Path 906239" d="M277.049,288.9a11.851,11.851,0,0,0,17.9,10.19,2.009,2.009,0,0,1,2.474.309l2.116,2.116,1.978-1.977-2.116-2.116a2.01,2.01,0,0,1-.309-2.474,11.849,11.849,0,1,0-22.039-6.048Z" transform="translate(-243.389 -228.152)" fill="#4eb1fc" fill-rule="evenodd"/>
      <path id="Path_906240" data-name="Path 906240" d="M277.049,288.9a11.44,11.44,0,0,0,17.372,9.666,2.01,2.01,0,0,1,2.474.309l.524.523h0l2.116,2.116,1.978-1.977-2.116-2.116-.524-.524a2.01,2.01,0,0,1-.309-2.474,11.548,11.548,0,1,0-21.514-5.524Z" transform="translate(-243.389 -228.151)" fill="#85caff" fill-rule="evenodd"/>
      <path id="Path_906241" data-name="Path 906241" d="M427.1,430.681l-6.9-6.9a1.225,1.225,0,0,1,0-1.729l1.855-1.855a1.225,1.225,0,0,1,1.729,0l6.9,6.9a2.535,2.535,0,0,1-3.584,3.584Z" transform="translate(-365.816 -350.578)" fill="#a34f41" fill-rule="evenodd"/>
      <path id="Path_906242" data-name="Path 906242" d="M428.466,420.872l.676-.676a1.225,1.225,0,0,1,1.729,0l6.9,6.9a1.8,1.8,0,1,1-2.405,2.405l-6.9-6.9a1.225,1.225,0,0,1,0-1.729Z" transform="translate(-372.907 -350.578)" fill="#c86f5c" fill-rule="evenodd"/>
      <circle id="Ellipse_11653" data-name="Ellipse 11653" cx="9.042" cy="9.042" r="9.042" transform="translate(34.641 67.679) rotate(-80.038)" fill="#4eb1fc"/>
      <circle id="Ellipse_11654" data-name="Ellipse 11654" cx="9.042" cy="9.042" r="9.042" transform="translate(36.017 52.187) rotate(-2.922)" fill="#e3f1ff"/>
      <path id="Path_906243" data-name="Path 906243" d="M314.748,302.194a9.041,9.041,0,1,1-6.487-2.744A9.007,9.007,0,0,1,314.748,302.194Z" transform="translate(-262.398 -247.358)" fill="#fff" fill-rule="evenodd"/>
      <path id="Path_906244" data-name="Path 906244" d="M120.473,195.628h2v4.236h-2Z" transform="translate(-109.142 -158.342)" fill="#a79ba7"/>
      <circle id="Ellipse_11655" data-name="Ellipse 11655" cx="11.806" cy="11.806" r="11.806" transform="translate(-6.822 60.469) rotate(-14.12)" fill="#f23353"/>
      <path id="Path_906245" data-name="Path 906245" d="M22.349,359.029a11.805,11.805,0,0,1,0-23.6,11.805,11.805,0,0,1,0,23.6Z" transform="translate(-15.239 -278.21)" fill="#ff5471" fill-rule="evenodd"/>
      <circle id="Ellipse_11656" data-name="Ellipse 11656" cx="7.811" cy="7.811" r="7.811" transform="translate(-1.681 62.917) rotate(-11.478)" fill="#f0e3df"/>
      <path id="Path_906246" data-name="Path 906246" d="M50.955,363.442a7.81,7.81,0,0,1,0,15.608,7.81,7.81,0,0,1,0-15.608Z" transform="translate(-43.116 -302.224)" fill="#fff" fill-rule="evenodd"/>
      <circle id="Ellipse_11657" data-name="Ellipse 11657" cx="3.793" cy="3.793" r="3.793" transform="translate(3.005 66.067) rotate(-11.895)" fill="#f23353"/>
      <path id="Path_906247" data-name="Path 906247" d="M75.371,391.672a3.793,3.793,0,1,1-3.452,3.778A3.794,3.794,0,0,1,75.371,391.672Z" transform="translate(-67.512 -326.428)" fill="#ff5471" fill-rule="evenodd"/>
      <path id="Path_906248" data-name="Path 906248" d="M88.442,369.294a1,1,0,1,1-1.412-1.412l7.248-7.248a1,1,0,1,1,1.412,1.412Z" transform="translate(-80.218 -299.567)" fill="#837683" fill-rule="evenodd"/>
      <path id="Path_906249" data-name="Path 906249" d="M87.119,369.373a1.042,1.042,0,0,1-.089-.079,1,1,0,0,1,0-1.411l7.248-7.248a.76.76,0,1,1,.86,1.2l-7.248,7.248a1,1,0,0,1-.771.29Z" transform="translate(-80.218 -299.567)" fill="#a79ba7" fill-rule="evenodd"/>
      <path id="Path_906250" data-name="Path 906250" d="M23.45,30.868H53.119V51.843H23.45Z" transform="translate(-25.955 -17.078)" fill="#eceff1"/>
      <rect id="Rectangle_409065" data-name="Rectangle 409065" width="33.234" height="2.84" rx="1.42" transform="translate(-4.288 10.95)" fill="#4eb1fc"/>
      <path id="Path_906251" data-name="Path 906251" d="M42.133,10.95H12.371a1.424,1.424,0,0,0-1.42,1.42,1.408,1.408,0,0,0,.221.759H42.133a1.089,1.089,0,1,0,0-2.179Z" transform="translate(-15.239)" fill="#85caff" fill-rule="evenodd"/>
      <rect id="Rectangle_409066" data-name="Rectangle 409066" width="33.234" height="2.84" rx="1.42" transform="translate(-4.288 34.765)" fill="#4eb1fc"/>
      <g id="Group_1118759" data-name="Group 1118759" transform="translate(1.059 16.682)">
        <path id="Path_906252" data-name="Path 906252" d="M114.275,223.037a2.2,2.2,0,1,0-2.2-2.2A2.2,2.2,0,0,0,114.275,223.037Z" transform="translate(-103.005 -194.759)" fill="#4eb1fc" fill-rule="evenodd"/>
        <path id="Path_906253" data-name="Path 906253" d="M113.867,223.227a2.2,2.2,0,1,1,1.788-2.157A2.2,2.2,0,0,1,113.867,223.227Z" transform="translate(-103.005 -194.987)" fill="#85caff" fill-rule="evenodd"/>
        <path id="Path_906254" data-name="Path 906254" d="M49.441,66.338a1,1,0,0,1-.853-1.517c3.276-5.389,7.076-5.9,10.427-6.36,3.07-.416,5.766-.782,8.215-4.616l-.84.24a1,1,0,0,1-.547-1.92l3.439-.98a1,1,0,0,1,1.265.837l.428,3.459a1,1,0,1,1-1.98.245l-.1-.785c-2.966,4.6-6.477,5.075-9.613,5.5-3.191.433-6.208.842-8.99,5.418a1,1,0,0,1-.852.48Z" transform="translate(-48.443 -51.146)" fill="#a79ba7" fill-rule="evenodd"/>
        <path id="Path_906255" data-name="Path 906255" d="M153.406,114.257a1.248,1.248,0,1,0,1.248,1.248A1.25,1.25,0,0,0,153.406,114.257Zm0,4.493a3.244,3.244,0,1,1,3.244-3.244A3.249,3.249,0,0,1,153.406,118.75Z" transform="translate(-135.656 -103.546)" fill="#4eb1fc" fill-rule="evenodd"/>
        <path id="Path_906256" data-name="Path 906256" d="M63.994,66.09a.99.99,0,0,1-.706-.292L62.14,64.65,60.99,65.8a1,1,0,0,1-1.41-1.412l1.148-1.148L59.58,62.09a1,1,0,1,1,1.41-1.412l1.15,1.148,1.148-1.148A1,1,0,0,1,64.7,62.09L63.55,63.238,64.7,64.386a1,1,0,0,1-.7,1.7Z" transform="translate(-57.74 -59.069)" fill="#ff5471" fill-rule="evenodd"/>
      </g>
      <path id="Path_906257" data-name="Path 906257" d="M223.8,30.868h1.1V51.843h-1.1Z" transform="translate(-197.735 -17.078)" fill="#d1d1d6"/>
      <path id="Path_906258" data-name="Path 906258" d="M72.607,84.939A1,1,0,0,1,72,83.147l.349-.267H65.256a1,1,0,0,1,0-2H72.35L72,80.618a1,1,0,1,1,1.212-1.587l2.7,2.059a1,1,0,0,1,0,1.586l-2.7,2.059a1,1,0,0,1-.606.2Zm16.91,22.239a1,1,0,0,1-.794-.392l-2.058-2.7a1,1,0,0,1,1.587-1.211l.267.349V96.133a1,1,0,1,1,2,0v7.094l.267-.349a1,1,0,0,1,1.588,1.211l-2.059,2.7a1,1,0,0,1-.793.392Zm-52.406,5.454a1,1,0,0,1-1-1V104.54l-.267.349a1,1,0,1,1-1.587-1.212l2.057-2.7a1,1,0,0,1,1.588,0l2.057,2.7a1,1,0,1,1-1.586,1.212l-.267-.349v7.094A1,1,0,0,1,37.111,112.632Zm23.446,20.387a1,1,0,0,1-.6-.2l-2.7-2.058a1,1,0,0,1,0-1.587l2.7-2.059a1,1,0,0,1,1.213,1.587l-.35.267h7.094a1,1,0,0,1,0,2H60.814l.35.266a1,1,0,0,1-.608,1.792Z" transform="translate(-35.046 -58.196)" fill="#a79ba7" fill-rule="evenodd"/>
      <path id="Path_906259" data-name="Path 906259" d="M42.133,177.95H12.371a1.424,1.424,0,0,0-1.42,1.42,1.408,1.408,0,0,0,.221.759H42.133a1.089,1.089,0,1,0,0-2.179Z" transform="translate(-15.239 -143.185)" fill="#85caff" fill-rule="evenodd"/>
      <path id="Path_906260" data-name="Path 906260" d="M361,25.319l1.3-.869a.523.523,0,0,1,.666.065l2.007,2.006a.523.523,0,0,1,.065.666l-.869,1.3,1.1,2.662,1.531.3a.523.523,0,0,1,.425.517V34.8a.523.523,0,0,1-.425.517l-1.531.3-1.1,2.662.869,1.3a.523.523,0,0,1-.065.666l-2.006,2.006a.523.523,0,0,1-.666.065l-1.3-.869-2.662,1.1-.3,1.531a.523.523,0,0,1-.517.425h-2.838a.523.523,0,0,1-.517-.425l-.3-1.531-2.662-1.1-1.3.869a.523.523,0,0,1-.666-.065l-2.006-2.006a.523.523,0,0,1-.065-.666l.869-1.3-1.1-2.662-1.531-.3a.523.523,0,0,1-.425-.517V31.965a.523.523,0,0,1,.425-.517l1.531-.3,1.1-2.662-.869-1.3a.523.523,0,0,1,.065-.666l2.007-2.006a.523.523,0,0,1,.666-.065l1.3.869,2.662-1.1.3-1.531a.523.523,0,0,1,.517-.425h2.838a.523.523,0,0,1,.517.425l.3,1.531,2.662,1.1Z" transform="translate(-301.634 -9.697)" fill="#fdc72e" fill-rule="evenodd"/>
      <path id="Path_906261" data-name="Path 906261" d="M361,25.321l.941-.631,2.139,2.139-1.111,1.656,1.1,2.662,1.956.386v3.7l-1.956.386-1.1,2.662,1.111,1.656-2.139,2.139-1.909-1.28-2.769,1.147-.5,2.561h-2.076a.523.523,0,0,1-.517-.425l-.3-1.531-3.653-1.513-1.309.878-1.669-1.669a.523.523,0,0,1-.065-.666l.869-1.3-1.1-2.662-1.531-.3a.523.523,0,0,1-.425-.517V31.966a.523.523,0,0,1,.425-.517l1.531-.3,1.1-2.662-.869-1.3a.523.523,0,0,1,.065-.666l1.669-1.669,1.309.878.991-.41,2.662-1.1.3-1.531a.523.523,0,0,1,.517-.425h2.076l.5,2.561,2.769,1.147.968-.649Z" transform="translate(-301.631 -9.699)" fill="#ffeb87" fill-rule="evenodd"/>
      <circle id="Ellipse_11658" data-name="Ellipse 11658" cx="5.894" cy="5.894" r="5.894" transform="translate(45.548 23.691) rotate(-45)" fill="#fdc72e"/>
      <circle id="Ellipse_11659" data-name="Ellipse 11659" cx="5.704" cy="5.704" r="5.704" transform="translate(48.766 17.982)" fill="#fff"/>
      <path id="Path_906262" data-name="Path 906262" d="M328.017,340.05a1.031,1.031,0,0,1-.13-.009,1,1,0,0,1-.734-.491l-2.007-3.475a1,1,0,1,1,1.729-1l1.355,2.348,5.085-5.085a1,1,0,0,1,1.412,1.411l-6,6.006a1,1,0,0,1-.706.293Z" transform="translate(-284.513 -275.308)" fill="#43f043" fill-rule="evenodd"/>
      <path id="Path_906263" data-name="Path 906263" d="M132.3,315.3v-5.443l5.17-5.17a.279.279,0,0,1,.477.2v4.769h4.769a.279.279,0,0,1,.2.477l-5.17,5.17Z" transform="translate(-119.28 -251.778)" fill="#fdb0a0" fill-rule="evenodd"/>
      <path id="Path_906264" data-name="Path 906264" d="M132.3,318.241V313l4.73-4.73v4.527h5.037a.274.274,0,0,1-.071.276l-5.17,5.17H132.3Z" transform="translate(-119.28 -254.918)" fill="#ffcec0" fill-rule="evenodd"/>
    </g>
  </g>
</svg>
