<svg xmlns="http://www.w3.org/2000/svg" xmlns:xlink="http://www.w3.org/1999/xlink" width="399" height="419" viewBox="0 0 399 419">
  <defs>
    <clipPath id="clip-path">
      <rect id="Rectangle_378415" data-name="Rectangle 378415" width="399" height="419" rx="20" fill="#d1e1dd"/>
    </clipPath>
    <clipPath id="clip-path-2">
      <rect id="Rectangle_377901" data-name="Rectangle 377901" width="505.629" height="437.592" rx="20" fill="#ffe9df"/>
    </clipPath>
    <clipPath id="clip-path-3">
      <rect id="Rectangle_377901-2" data-name="Rectangle 377901" width="507.545" height="460.313" rx="20" transform="translate(0)" fill="#ffe9df"/>
    </clipPath>
  </defs>
  <g id="Group_1118548" data-name="Group 1118548" transform="translate(-284.668 -5976)">
    <g id="Mask_Group_1073331" data-name="Mask Group 1073331" transform="translate(284.668 5976)" clip-path="url(#clip-path)">
      <g id="Group_1074341" data-name="Group 1074341" transform="translate(-34.141 -24)">
        <rect id="Rectangle_378306" data-name="Rectangle 378306" width="565.84" height="444.069" transform="translate(447.405 -30.106) rotate(90)" fill="none"/>
        <g id="Group_1074334" data-name="Group 1074334" transform="translate(437.592 0) rotate(90)">
          <g id="Mask_Group_154360" data-name="Mask Group 154360" transform="translate(0)" clip-path="url(#clip-path-2)">
            <rect id="Rectangle_378306-2" data-name="Rectangle 378306" width="444.36" height="462.569" transform="translate(497.012 437.216) rotate(180)" fill="none"/>
            <g id="Group_1074332" data-name="Group 1074332" transform="translate(-28.486 -35.862)">
              <g id="Group_154360" data-name="Group 154360" transform="translate(0)" clip-path="url(#clip-path-3)">
                <path id="Path_610761" data-name="Path 610761" d="M0,0H504.258V509.255H0Z" transform="translate(505.706 0.688) rotate(90)" fill="#ffe9df"/>
                <path id="Path_611367" data-name="Path 611367" d="M0,0H37.849V523.545H0Z" transform="translate(509.402 -18.366) rotate(90)" fill="#ffe9df"/>
                <rect id="Rectangle_378306-3" data-name="Rectangle 378306" width="478.048" height="486.825" transform="translate(475.61 458.14) rotate(180)" fill="none"/>
                <g id="Group_1074333" data-name="Group 1074333" transform="translate(-13.373 -13.677)">
                  <path id="Path_611368" data-name="Path 611368" d="M1.376,0l157.9,2.754,8.353,30.571L0,33.512Z" transform="translate(6.764)" fill="#ffe9df"/>
                  <path id="Path_611369" data-name="Path 611369" d="M1.376,0l174.01,2.456L167.362,32.04,0,33.512Z" transform="translate(0 449.096)" fill="#ffe9df"/>
                </g>
              </g>
            </g>
          </g>
        </g>
      </g>
      <path id="Path_873424" data-name="Path 873424" d="M382.142,473.856c0-28.418-38.431-63.208-64.79-63.208s-48.653,5.571-78.663,5.571-73.511-11.576-73.511-68.159c0-15,6.643-32.578,6.643-59.581S153.6,234.465,106.45,238.11s-57.656-23.79-57.656-48.653S81.587,97.941,5.536,36.5V473.856Z" transform="translate(363.189 -29.536) rotate(90)" fill="#fecab2" opacity="0.58"/>
    </g>
  </g>
</svg>
