<svg xmlns="http://www.w3.org/2000/svg" xmlns:xlink="http://www.w3.org/1999/xlink" width="139" height="139" viewBox="0 0 139 139">
  <defs>
    <clipPath id="clip-path">
      <rect id="Rectangle_400938" data-name="Rectangle 400938" width="139" height="139" transform="translate(-0.043 -0.043)" fill="none"/>
    </clipPath>
    <clipPath id="clip-path-2">
      <rect id="Rectangle_401073" data-name="Rectangle 401073" width="105.872" height="47.68" fill="#7d3a1b"/>
    </clipPath>
  </defs>
  <g id="Group_1118808" data-name="Group 1118808" transform="translate(-318.156 -794.437)">
    <g id="Group_1099388" data-name="Group 1099388" transform="translate(53.199 -4489.521)">
      <g id="Group_1099379" data-name="Group 1099379" transform="translate(265 5284)">
        <rect id="Rectangle_401103" data-name="Rectangle 401103" width="139" height="139" transform="translate(-0.043 -0.043)" fill="none"/>
        <g id="Group_1099348" data-name="Group 1099348" transform="translate(0)">
          <g id="Group_1099282" data-name="Group 1099282">
            <g id="Group_1099281" data-name="Group 1099281" clip-path="url(#clip-path-2)">
              <path id="Path_873375" data-name="Path 873375" d="M85.879,10.449c-4.752,0-7.21-2.33-9.379-4.386C74.371,4.047,72.538,2.3,68.7,2.3s-5.668,1.742-7.8,3.758c-2.17,2.056-4.624,4.386-9.379,4.386s-7.21-2.33-9.379-4.386C40.018,4.047,38.184,2.3,34.349,2.3s-5.668,1.742-7.794,3.758c-2.17,2.056-4.627,4.386-9.379,4.386S9.963,8.119,7.794,6.063C5.668,4.047,3.835,2.3,0,2.3V0C4.752,0,7.21,2.334,9.379,4.386c2.129,2.02,3.963,3.758,7.8,3.758s5.668-1.738,7.794-3.755C27.136,2.334,29.6,0,34.349,0s7.213,2.334,9.379,4.386c2.129,2.02,3.963,3.758,7.8,3.758s5.668-1.738,7.8-3.758C61.489,2.334,63.951,0,68.7,0s7.213,2.334,9.379,4.386c2.129,2.02,3.963,3.758,7.8,3.758s5.668-1.738,7.8-3.758C95.843,2.334,98.3,0,103.056,0V2.3c-3.835,0-5.668,1.742-7.8,3.758-2.169,2.056-4.627,4.386-9.379,4.386" transform="translate(2.816 37.231)" fill="#7d3a1b"/>
              <path id="Path_873376" data-name="Path 873376" d="M85.879,10.449c-4.752,0-7.213-2.33-9.379-4.39C74.371,4.043,72.538,2.3,68.7,2.3s-5.668,1.738-7.8,3.755c-2.166,2.06-4.624,4.39-9.379,4.39s-7.213-2.33-9.379-4.39C40.018,4.043,38.184,2.3,34.349,2.3s-5.668,1.742-7.794,3.755c-2.17,2.06-4.627,4.39-9.379,4.39s-7.213-2.33-9.383-4.39C5.668,4.043,3.835,2.3,0,2.3V0C4.752,0,7.213,2.33,9.379,4.386c2.129,2.02,3.963,3.758,7.8,3.758s5.668-1.738,7.794-3.758C27.136,2.33,29.6,0,34.349,0s7.213,2.33,9.383,4.386c2.126,2.02,3.959,3.758,7.794,3.758s5.668-1.738,7.8-3.758C61.489,2.33,63.951,0,68.7,0s7.213,2.33,9.379,4.386c2.129,2.02,3.963,3.758,7.8,3.758s5.668-1.738,7.8-3.758C95.846,2.33,98.3,0,103.059,0V2.3c-3.835,0-5.672,1.742-7.8,3.755-2.169,2.06-4.628,4.39-9.379,4.39" transform="translate(1.877 24.821)" fill="#7d3a1b"/>
              <path id="Path_873377" data-name="Path 873377" d="M85.879,10.449c-4.752,0-7.213-2.33-9.379-4.39C74.371,4.043,72.538,2.3,68.7,2.3s-5.668,1.738-7.8,3.755c-2.166,2.06-4.627,4.39-9.379,4.39s-7.213-2.33-9.379-4.39C40.018,4.043,38.184,2.3,34.349,2.3s-5.668,1.742-7.794,3.755c-2.169,2.06-4.627,4.39-9.379,4.39s-7.213-2.33-9.383-4.39C5.668,4.043,3.835,2.3,0,2.3V0C4.752,0,7.213,2.33,9.379,4.386c2.126,2.02,3.963,3.758,7.8,3.758s5.668-1.738,7.794-3.758C27.136,2.33,29.6,0,34.349,0s7.213,2.33,9.383,4.386c2.126,2.02,3.959,3.758,7.794,3.758s5.668-1.738,7.8-3.758C61.489,2.33,63.951,0,68.7,0s7.213,2.33,9.379,4.386c2.129,2.02,3.963,3.758,7.8,3.758s5.668-1.738,7.8-3.758C95.846,2.33,98.3,0,103.059,0V2.3c-3.835,0-5.672,1.742-7.8,3.755-2.169,2.06-4.627,4.39-9.379,4.39" transform="translate(0.939 12.41)" fill="#7d3a1b"/>
              <path id="Path_873378" data-name="Path 873378" d="M85.879,10.445c-4.752,0-7.21-2.33-9.379-4.386C74.371,4.043,72.538,2.3,68.7,2.3s-5.668,1.738-7.794,3.755c-2.169,2.056-4.627,4.386-9.383,4.386s-7.21-2.33-9.379-4.386C40.018,4.043,38.184,2.3,34.349,2.3s-5.668,1.738-7.794,3.751c-2.166,2.06-4.627,4.39-9.379,4.39S9.963,8.115,7.794,6.059C5.668,4.043,3.835,2.3,0,2.3V0C4.752,0,7.213,2.33,9.379,4.386c2.129,2.016,3.963,3.755,7.8,3.755S22.845,6.4,24.971,4.386C27.14,2.33,29.6,0,34.349,0s7.21,2.33,9.383,4.386c2.126,2.016,3.959,3.755,7.794,3.755s5.668-1.738,7.8-3.755C61.493,2.33,63.951,0,68.7,0s7.21,2.33,9.379,4.386c2.129,2.016,3.963,3.755,7.8,3.755s5.668-1.738,7.8-3.755C95.846,2.33,98.3,0,103.059,0V2.3c-3.839,0-5.672,1.738-7.8,3.755-2.169,2.056-4.627,4.386-9.379,4.386" transform="translate(0 0.004)" fill="#7d3a1b"/>
            </g>
          </g>
        </g>
        <path id="Path_873425" data-name="Path 873425" d="M57.977,0A57.977,57.977,0,1,1,0,57.977,57.977,57.977,0,0,1,57.977,0Z" transform="translate(17.221 20.665)" fill="#ffe2b7"/>
        <circle id="Ellipse_11503" data-name="Ellipse 11503" cx="60.5" cy="60.5" r="60.5" transform="translate(8.957 8.957)" fill="#fff"/>
      </g>
    </g>
    <g id="Group_1099390" data-name="Group 1099390" transform="translate(0.156 -5599.563)">
      <g id="Group_1099389" data-name="Group 1099389" transform="translate(347.893 6422.744)">
        <rect id="Rectangle_401104" data-name="Rectangle 401104" width="78" height="79" transform="translate(0.107 0.256)" fill="none"/>
      </g>
      <path id="Path_905980" data-name="Path 905980" d="M73.285,0H1.163A1.163,1.163,0,0,0,0,1.163V49.438A1.163,1.163,0,0,0,1.163,50.6H8.724v1.745a4.653,4.653,0,1,0,9.306,0V50.6h5.816v7.561a1.163,1.163,0,0,0,1.163,1.163h2.908a2.326,2.326,0,0,1,0,4.653H25.01a1.163,1.163,0,0,0-1.163,1.163v8.143a1.163,1.163,0,0,0,1.163,1.163H73.285a1.163,1.163,0,0,0,1.163-1.163V1.163A1.163,1.163,0,0,0,73.285,0ZM61.07,41.877a4.653,4.653,0,0,0-4.653,4.653v1.745H50.6v-6.4h1.745a4.653,4.653,0,1,0,0-9.306H50.6v-6.4h6.979a1.163,1.163,0,0,0,1.163-1.163V22.1a2.326,2.326,0,1,1,4.653,0V25.01a1.163,1.163,0,0,0,1.163,1.163h7.561v22.1h-6.4V46.53A4.653,4.653,0,0,0,61.07,41.877Zm-23.847,0a4.653,4.653,0,0,0-4.653,4.653v1.745h-6.4V40.714A1.163,1.163,0,0,0,25.01,39.55H22.1a2.326,2.326,0,1,1,0-4.653H25.01a1.163,1.163,0,0,0,1.163-1.163V26.173h7.561A1.163,1.163,0,0,0,34.9,25.01V22.1a2.326,2.326,0,1,1,4.653,0V25.01a1.163,1.163,0,0,0,1.163,1.163h7.561v7.561A1.163,1.163,0,0,0,49.438,34.9h2.908a2.326,2.326,0,1,1,0,4.653H49.438a1.163,1.163,0,0,0-1.163,1.163v7.561h-6.4V46.53A4.653,4.653,0,0,0,37.224,41.877ZM50.6,9.306V2.326h21.52v21.52h-6.4V22.1a4.653,4.653,0,0,0-9.306,0v1.745H50.6V16.285a1.163,1.163,0,0,0-1.163-1.163H46.53a2.326,2.326,0,1,1,0-4.653h2.908A1.163,1.163,0,0,0,50.6,9.306Zm-24.428,0V2.326h22.1V8.143H46.53a4.653,4.653,0,1,0,0,9.306h1.745v6.4h-6.4V22.1a4.653,4.653,0,1,0-9.306,0v1.745h-6.4V16.285a1.163,1.163,0,0,0-1.163-1.163H22.1a2.326,2.326,0,1,1,0-4.653H25.01A1.163,1.163,0,0,0,26.173,9.306ZM2.326,2.326h21.52V8.143H22.1a4.653,4.653,0,0,0,0,9.306h1.745v6.4H16.867A1.163,1.163,0,0,0,15.7,25.01v2.908a2.326,2.326,0,0,1-4.653,0V25.01a1.163,1.163,0,0,0-1.163-1.163H2.326ZM16.867,48.275A1.163,1.163,0,0,0,15.7,49.438v2.908a2.326,2.326,0,0,1-4.653,0V49.438a1.163,1.163,0,0,0-1.163-1.163H2.326v-22.1h6.4v1.745a4.653,4.653,0,1,0,9.306,0V26.173h5.816v6.4H22.1a4.653,4.653,0,1,0,0,9.306h1.745v6.4ZM48.275,65.142v6.979h-22.1V66.305h1.745a4.653,4.653,0,1,0,0-9.306H26.173V50.6h7.561A1.163,1.163,0,0,0,34.9,49.438V46.53a2.326,2.326,0,1,1,4.653,0v2.908A1.163,1.163,0,0,0,40.714,50.6h7.561v7.561a1.163,1.163,0,0,0,1.163,1.163h2.908a2.326,2.326,0,0,1,0,4.653H49.438A1.163,1.163,0,0,0,48.275,65.142Zm23.847,6.979H50.6V66.305h1.745a4.653,4.653,0,0,0,0-9.306H50.6V50.6h6.979a1.163,1.163,0,0,0,1.163-1.163V46.53a2.326,2.326,0,0,1,4.653,0v2.908A1.163,1.163,0,0,0,64.56,50.6h7.561Z" transform="translate(349.776 6425.766)" fill="#6a4d23"/>
    </g>
  </g>
</svg>
