<svg xmlns="http://www.w3.org/2000/svg" xmlns:xlink="http://www.w3.org/1999/xlink" width="90" height="90" viewBox="0 0 90 90">
  <defs>
    <clipPath id="clip-path">
      <rect id="Rectangle_409060" data-name="Rectangle 409060" width="43.812" height="56.402" fill="none"/>
    </clipPath>
  </defs>
  <g id="Group_1118819" data-name="Group 1118819" transform="translate(-830.156 -2313)">
    <g id="Group_1117142" data-name="Group 1117142" transform="translate(830.156 2313.397)">
      <g id="Ellipse_11510" data-name="Ellipse 11510" transform="translate(0 -0.397)" fill="#fff" stroke="#ffce73" stroke-width="5">
        <circle cx="45" cy="45" r="45" stroke="none"/>
        <circle cx="45" cy="45" r="42.5" fill="none"/>
      </g>
    </g>
    <g id="Group_1118665" data-name="Group 1118665" transform="translate(853.156 2330)">
      <g id="Group_1118664" data-name="Group 1118664" clip-path="url(#clip-path)">
        <path id="Path_906071" data-name="Path 906071" d="M18.083,50.451H46.138v-46H8.593A4.139,4.139,0,0,0,4.454,8.593v46" transform="translate(-3.39 -3.39)" fill="#6ab252"/>
        <path id="Path_906072" data-name="Path 906072" d="M46.138,205.331v-8.278H8.593a4.139,4.139,0,0,0,0,8.278Z" transform="translate(-3.39 -149.992)" fill="#d8d86f"/>
        <path id="Path_906073" data-name="Path 906073" d="M23.432,48.125a1.064,1.064,0,0,1-1.064-1.064v-46a1.064,1.064,0,1,1,2.127,0v46a1.064,1.064,0,0,1-1.064,1.064" transform="translate(-17.026)" fill="#3a2f49"/>
        <path id="Path_906074" data-name="Path 906074" d="M1.064,52.264A1.064,1.064,0,0,1,0,51.2V5.2A5.208,5.208,0,0,1,5.2,0H42.748a1.064,1.064,0,0,1,1.063,1.064v46a1.064,1.064,0,0,1-1.063,1.064H14.693a1.064,1.064,0,0,1,0-2.127H41.685V2.127H5.2A3.079,3.079,0,0,0,2.127,5.2v46a1.064,1.064,0,0,1-1.064,1.064" fill="#3a2f49"/>
        <path id="Path_906075" data-name="Path 906075" d="M42.748,203H5.2a5.2,5.2,0,0,1,0-10.405H42.748a1.064,1.064,0,0,1,1.064,1.064v8.278A1.064,1.064,0,0,1,42.748,203M5.2,194.726a3.075,3.075,0,1,0,0,6.15H41.684v-6.15Z" transform="translate(0 -146.602)" fill="#3a2f49"/>
      </g>
    </g>
  </g>
</svg>
