<svg xmlns="http://www.w3.org/2000/svg" xmlns:xlink="http://www.w3.org/1999/xlink" width="129" height="128" viewBox="0 0 129 128">
  <defs>
    <clipPath id="clip-path">
      <rect id="Rectangle_400938" data-name="Rectangle 400938" width="120" height="120" fill="none"/>
    </clipPath>
    <clipPath id="clip-path-2">
      <rect id="Rectangle_400938-2" data-name="Rectangle 400938" width="113" height="113" transform="translate(0.211 0.211)" fill="none"/>
    </clipPath>
    <clipPath id="clip-path-3">
      <rect id="Rectangle_401073" data-name="Rectangle 401073" width="86.443" height="38.93" fill="#7d3a1b"/>
    </clipPath>
  </defs>
  <g id="Group_1118906" data-name="Group 1118906" transform="translate(-375.867 -2541)">
    <g id="Group_1118798" data-name="Group 1118798" transform="translate(0 -96)">
      <g id="Grupo_108927" data-name="Grupo 108927" transform="translate(-14.133 -1830)">
        <path id="Rectángulo_36179" data-name="Rectángulo 36179" d="M0,0H129V128H0Z" transform="translate(390 4467)" fill="#feebcf"/>
      </g>
      <g id="Group_1099431" data-name="Group 1099431" transform="translate(118.656 -2639.211)">
        <g id="Group_1099379" data-name="Group 1099379" transform="translate(265 5284)">
          <rect id="Rectangle_401103" data-name="Rectangle 401103" width="113" height="113" transform="translate(0.211 0.211)" fill="none"/>
          <g id="Group_1099348" data-name="Group 1099348">
            <g id="Group_1099282" data-name="Group 1099282">
              <g id="Group_1099281" data-name="Group 1099281" clip-path="url(#clip-path-3)">
                <path id="Path_873375" data-name="Path 873375" d="M70.12,8.532c-3.88,0-5.887-1.9-7.658-3.581C60.723,3.3,59.226,1.882,56.1,1.882S51.467,3.3,49.728,4.95c-1.771,1.679-3.775,3.581-7.658,3.581s-5.886-1.9-7.658-3.581C32.674,3.3,31.177,1.882,28.046,1.882S23.418,3.3,21.682,4.95C19.911,6.629,17.9,8.532,14.024,8.532S8.135,6.629,6.364,4.95C4.628,3.3,3.131,1.882,0,1.882V0C3.88,0,5.887,1.906,7.658,3.581,9.4,5.23,10.893,6.65,14.024,6.65s4.628-1.419,6.364-3.066C22.157,1.906,24.166,0,28.046,0s5.89,1.906,7.658,3.581C37.442,5.23,38.939,6.65,42.07,6.65S46.7,5.23,48.437,3.581C50.205,1.906,52.215,0,56.1,0s5.89,1.906,7.658,3.581C65.491,5.23,66.988,6.65,70.12,6.65s4.628-1.419,6.367-3.069C78.255,1.906,80.261,0,84.144,0V1.882c-3.131,0-4.628,1.422-6.367,3.069C76.006,6.629,74,8.532,70.12,8.532" transform="translate(2.299 30.399)" fill="#7d3a1b"/>
                <path id="Path_873376" data-name="Path 873376" d="M70.12,8.532c-3.88,0-5.889-1.9-7.658-3.584C60.723,3.3,59.226,1.882,56.1,1.882S51.467,3.3,49.728,4.947c-1.768,1.682-3.775,3.584-7.658,3.584s-5.889-1.9-7.658-3.584C32.674,3.3,31.177,1.882,28.046,1.882S23.418,3.3,21.682,4.947C19.911,6.629,17.9,8.532,14.025,8.532s-5.889-1.9-7.661-3.584C4.628,3.3,3.131,1.882,0,1.882V0C3.88,0,5.889,1.9,7.658,3.581,9.4,5.23,10.893,6.65,14.025,6.65s4.628-1.419,6.364-3.069C22.157,1.9,24.166,0,28.046,0s5.889,1.9,7.661,3.581C37.442,5.23,38.939,6.65,42.071,6.65S46.7,5.23,48.437,3.581C50.206,1.9,52.215,0,56.1,0s5.89,1.9,7.658,3.581C65.491,5.23,66.988,6.65,70.12,6.65s4.628-1.419,6.367-3.069C78.257,1.9,80.264,0,84.147,0V1.882c-3.131,0-4.631,1.422-6.37,3.066C76.006,6.629,74,8.532,70.12,8.532" transform="translate(1.533 20.266)" fill="#7d3a1b"/>
                <path id="Path_873377" data-name="Path 873377" d="M70.119,8.532c-3.88,0-5.889-1.9-7.658-3.584C60.723,3.3,59.226,1.882,56.1,1.882S51.467,3.3,49.728,4.947C47.96,6.629,45.95,8.532,42.071,8.532s-5.89-1.9-7.658-3.584C32.674,3.3,31.177,1.882,28.046,1.882S23.418,3.3,21.682,4.947C19.911,6.629,17.9,8.532,14.025,8.532s-5.89-1.9-7.661-3.584C4.628,3.3,3.131,1.882,0,1.882V0C3.88,0,5.889,1.9,7.658,3.581,9.393,5.23,10.893,6.65,14.025,6.65s4.628-1.419,6.364-3.069C22.156,1.9,24.166,0,28.046,0s5.89,1.9,7.661,3.581C37.442,5.23,38.939,6.65,42.071,6.65S46.7,5.23,48.437,3.581C50.205,1.9,52.215,0,56.1,0s5.889,1.9,7.658,3.581C65.491,5.23,66.988,6.65,70.119,6.65s4.628-1.419,6.367-3.069C78.257,1.9,80.261,0,84.147,0V1.882c-3.131,0-4.631,1.422-6.37,3.066C76.006,6.629,74,8.532,70.119,8.532" transform="translate(0.766 10.133)" fill="#7d3a1b"/>
                <path id="Path_873378" data-name="Path 873378" d="M70.12,8.529c-3.88,0-5.887-1.9-7.658-3.581C60.723,3.3,59.226,1.882,56.095,1.882S51.467,3.3,49.731,4.947C47.96,6.626,45.953,8.529,42.07,8.529s-5.887-1.9-7.658-3.581C32.674,3.3,31.177,1.882,28.046,1.882S23.418,3.3,21.682,4.944C19.914,6.626,17.9,8.529,14.024,8.529s-5.89-1.9-7.661-3.581C4.628,3.3,3.131,1.882,0,1.882V0C3.88,0,5.89,1.9,7.658,3.581,9.4,5.228,10.893,6.647,14.024,6.647s4.628-1.419,6.364-3.066C22.159,1.9,24.166,0,28.046,0s5.887,1.9,7.661,3.581c1.736,1.646,3.233,3.066,6.364,3.066S46.7,5.228,48.437,3.581C50.208,1.9,52.215,0,56.095,0s5.887,1.9,7.658,3.581c1.739,1.646,3.236,3.066,6.367,3.066s4.628-1.419,6.367-3.066C78.257,1.9,80.264,0,84.147,0V1.882c-3.134,0-4.631,1.419-6.37,3.066C76.006,6.626,74,8.529,70.12,8.529" transform="translate(0 0.003)" fill="#7d3a1b"/>
              </g>
            </g>
          </g>
          <path id="Path_873425" data-name="Path 873425" d="M47.337,0A47.337,47.337,0,1,1,0,47.337,47.337,47.337,0,0,1,47.337,0Z" transform="translate(14.061 16.873)" fill="#7d3a1b"/>
          <circle id="Ellipse_11503" data-name="Ellipse 11503" cx="49.5" cy="49.5" r="49.5" transform="translate(7.211 7.211)" fill="#fff"/>
        </g>
      </g>
      <g id="Group_1118644" data-name="Group 1118644" transform="translate(391.258 2652)">
        <circle id="Ellipse_11646" data-name="Ellipse 11646" cx="35.15" cy="35.15" r="35.15" transform="translate(15 15.442)" fill="#fff"/>
        <circle id="Ellipse_11647" data-name="Ellipse 11647" cx="35.15" cy="35.15" r="35.15" transform="translate(15 15.442)" fill="#f4f6f8"/>
        <path id="Path_905892" data-name="Path 905892" d="M213.786,387.924a35.4,35.4,0,0,1-5.751-.659V370.613a1.174,1.174,0,0,1,1.175-1.175h3.4a1.175,1.175,0,0,1,1.175,1.175Z" transform="translate(-164.586 -302.201)" fill="#fdcd56" fill-rule="evenodd"/>
        <path id="Path_905893" data-name="Path 905893" d="M146.894,353.6a35.162,35.162,0,0,1-5.751-2.475V332.388a1.174,1.174,0,0,1,1.175-1.175h3.4a1.174,1.174,0,0,1,1.175,1.175Z" transform="translate(-107.552 -269.61)" fill="#c6ea94" fill-rule="evenodd"/>
        <path id="Path_905894" data-name="Path 905894" d="M80,315.929a35.612,35.612,0,0,1-5.751-5.28V294.163a1.175,1.175,0,0,1,1.175-1.175h3.4A1.175,1.175,0,0,1,80,294.163Z" transform="translate(-50.519 -237.018)" fill="#a4d4ff" fill-rule="evenodd"/>
        <path id="Path_905895" data-name="Path 905895" d="M69.581,39.28a22.316,22.316,0,0,0-8.119-8.119,22.185,22.185,0,0,0-22.182,0,22.314,22.314,0,0,0-8.12,8.12,22.066,22.066,0,0,0-2.971,11.091H15a35.186,35.186,0,0,1,4.738-17.686A35.583,35.583,0,0,1,32.687,19.738a35.375,35.375,0,0,1,35.371,0A35.584,35.584,0,0,1,81,32.684a35.186,35.186,0,0,1,4.739,17.687H72.553A22.066,22.066,0,0,0,69.581,39.28Z" transform="translate(0 0)" fill="#c6ea94" fill-rule="evenodd"/>
        <path id="Path_905896" data-name="Path 905896" d="M385.346,141.589l11.422-6.6a35.186,35.186,0,0,1,4.739,17.687H388.317A22.066,22.066,0,0,0,385.346,141.589Z" transform="translate(-315.765 -102.309)" fill="#eb5463" fill-rule="evenodd"/>
        <path id="Path_905897" data-name="Path 905897" d="M330.259,58.576l6.595-11.422A35.584,35.584,0,0,1,349.8,60.1l-11.422,6.6a22.316,22.316,0,0,0-8.119-8.119Z" transform="translate(-268.796 -27.415)" fill="#f76c82" fill-rule="evenodd"/>
        <path id="Path_905898" data-name="Path 905898" d="M266.092,31.161A22.066,22.066,0,0,0,255,28.189V15a35.186,35.186,0,0,1,17.687,4.739Z" transform="translate(-204.629 0)" fill="#f5b945" fill-rule="evenodd"/>
        <path id="Path_905899" data-name="Path 905899" d="M135.009,19.737A35.187,35.187,0,0,1,152.693,15V28.189A22.065,22.065,0,0,0,141.6,31.16Z" transform="translate(-102.322 0)" fill="#fdcd56" fill-rule="evenodd"/>
        <path id="Path_905900" data-name="Path 905900" d="M58.573,66.687,47.151,60.093A35.583,35.583,0,0,1,60.1,47.145l6.594,11.423A22.314,22.314,0,0,0,58.573,66.687Z" transform="translate(-27.413 -27.407)" fill="#afe269" fill-rule="evenodd"/>
        <path id="Path_905901" data-name="Path 905901" d="M313.266,304.692c-.56,2.372-2.257,6.442-7.35,10.936-7.929,7-13.935,7.291-13.935,7.291a1.032,1.032,0,0,1-.121-2.06s5.437-.379,12.691-6.779c4.805-4.24,6.277-8,6.726-9.977l-2.6,1.366a1.032,1.032,0,0,1-.96-1.827l4.829-2.538a1.032,1.032,0,0,1,1.393.433l2.538,4.828a1.032,1.032,0,1,1-1.826.96Z" transform="translate(-235.229 -243.838)" fill="#c6ea94" fill-rule="evenodd"/>
        <path id="Path_905902" data-name="Path 905902" d="M15.015,250.063Q15,249.549,15,249.032T15.015,248H85.727q.015.514.015,1.032t-.015,1.032Z" transform="translate(0 -198.661)" fill="#e4e8eb" fill-rule="evenodd"/>
        <g id="Group_1118643" data-name="Group 1118643" transform="translate(47.497 36.315)">
          <path id="Path_905903" data-name="Path 905903" d="M254.689,160.193a1.032,1.032,0,0,1,1.842.93l-6.579,13.024a1.032,1.032,0,0,1-1.842-.93Z" transform="translate(-246.157 -159.626)" fill="#a9b0bb" fill-rule="evenodd"/>
          <circle id="Ellipse_11648" data-name="Ellipse 11648" cx="2.874" cy="2.874" r="2.874" transform="translate(0 11.182)" fill="#a9b0bb"/>
        </g>
      </g>
    </g>
  </g>
</svg>
