<svg xmlns="http://www.w3.org/2000/svg" xmlns:xlink="http://www.w3.org/1999/xlink" width="120" height="120" viewBox="0 0 120 120">
  <defs>
    <clipPath id="clip-path">
      <rect id="Rectangle_400938" data-name="Rectangle 400938" width="120" height="120" transform="translate(0 0)" fill="none"/>
    </clipPath>
    <clipPath id="clip-path-2">
      <rect id="Rectangle_401073" data-name="Rectangle 401073" width="92.219" height="41.532" fill="#7d3a1b"/>
    </clipPath>
  </defs>
  <g id="Group_1118906" data-name="Group 1118906" transform="translate(-180.203 -998)">
    <g id="Group_1099349" data-name="Group 1099349" transform="translate(-207.465 -5015)">
      <rect id="Rectangle_401103" data-name="Rectangle 401103" width="120" height="120" transform="translate(387.668 6013)" fill="none"/>
      <g id="Group_1099348" data-name="Group 1099348" transform="translate(387.668 6013)">
        <g id="Group_1099282" data-name="Group 1099282">
          <g id="Group_1099281" data-name="Group 1099281" clip-path="url(#clip-path-2)">
            <path id="Path_873375" data-name="Path 873375" d="M74.8,9.1c-4.139,0-6.28-2.03-8.17-3.821-1.855-1.756-3.452-3.274-6.792-3.274s-4.937,1.517-6.792,3.274C51.161,7.072,49.023,9.1,44.881,9.1s-6.28-2.03-8.169-3.821C34.857,3.525,33.26,2.007,29.92,2.007s-4.937,1.517-6.789,3.274C21.241,7.072,19.1,9.1,14.962,9.1S8.679,7.072,6.789,5.281C4.937,3.525,3.34,2.007,0,2.007V0C4.139,0,6.28,2.033,8.17,3.821c1.855,1.759,3.452,3.274,6.792,3.274S19.9,5.58,21.75,3.824C23.637,2.033,25.781,0,29.92,0s6.283,2.033,8.17,3.821c1.855,1.759,3.452,3.274,6.792,3.274s4.937-1.514,6.792-3.274C53.56,2.033,55.7,0,59.843,0s6.283,2.033,8.17,3.821C69.867,5.58,71.464,7.094,74.8,7.094S79.742,5.58,81.6,3.821C83.483,2.033,85.624,0,89.766,0V2.007c-3.34,0-4.937,1.517-6.792,3.274C81.084,7.072,78.943,9.1,74.8,9.1" transform="translate(2.453 32.43)" fill="#7d3a1b"/>
            <path id="Path_873376" data-name="Path 873376" d="M74.8,9.1c-4.139,0-6.283-2.03-8.17-3.824-1.855-1.756-3.452-3.27-6.792-3.27s-4.937,1.514-6.792,3.27C51.164,7.072,49.023,9.1,44.881,9.1s-6.283-2.03-8.17-3.824c-1.855-1.756-3.452-3.27-6.792-3.27s-4.937,1.517-6.789,3.27C21.241,7.072,19.1,9.1,14.962,9.1S8.679,7.072,6.789,5.278C4.937,3.522,3.34,2.007,0,2.007V0C4.139,0,6.283,2.03,8.17,3.821c1.855,1.759,3.452,3.274,6.792,3.274S19.9,5.58,21.75,3.821C23.637,2.03,25.781,0,29.92,0S36.2,2.03,38.093,3.821c1.852,1.759,3.449,3.274,6.789,3.274s4.937-1.514,6.792-3.274C53.56,2.03,55.7,0,59.843,0s6.283,2.03,8.17,3.821C69.867,5.58,71.464,7.094,74.8,7.094S79.742,5.58,81.6,3.821C83.486,2.03,85.627,0,89.769,0V2.007c-3.34,0-4.94,1.517-6.8,3.27C81.084,7.072,78.943,9.1,74.8,9.1" transform="translate(1.635 21.62)" fill="#7d3a1b"/>
            <path id="Path_873377" data-name="Path 873377" d="M74.8,9.1c-4.139,0-6.283-2.03-8.169-3.824-1.855-1.756-3.452-3.27-6.792-3.27s-4.937,1.514-6.792,3.27C51.164,7.072,49.02,9.1,44.881,9.1s-6.283-2.03-8.17-3.824c-1.855-1.756-3.452-3.27-6.792-3.27s-4.937,1.517-6.789,3.27C21.241,7.072,19.1,9.1,14.962,9.1S8.678,7.072,6.789,5.278C4.937,3.522,3.34,2.007,0,2.007V0C4.139,0,6.283,2.03,8.169,3.821c1.851,1.759,3.452,3.274,6.792,3.274S19.9,5.58,21.75,3.821C23.637,2.03,25.781,0,29.92,0S36.2,2.03,38.093,3.821c1.852,1.759,3.449,3.274,6.789,3.274s4.937-1.514,6.792-3.274C53.56,2.03,55.7,0,59.843,0s6.283,2.03,8.17,3.821C69.867,5.58,71.464,7.094,74.8,7.094S79.742,5.58,81.6,3.821C83.486,2.03,85.624,0,89.769,0V2.007c-3.34,0-4.941,1.517-6.8,3.27C81.084,7.072,78.943,9.1,74.8,9.1" transform="translate(0.818 10.81)" fill="#7d3a1b"/>
            <path id="Path_873378" data-name="Path 873378" d="M74.8,9.1c-4.139,0-6.28-2.03-8.17-3.821-1.855-1.756-3.452-3.27-6.792-3.27s-4.937,1.514-6.789,3.27C51.164,7.069,49.023,9.1,44.881,9.1s-6.28-2.03-8.169-3.821c-1.855-1.756-3.452-3.27-6.792-3.27s-4.937,1.514-6.789,3.267C21.245,7.069,19.1,9.1,14.962,9.1S8.678,7.069,6.789,5.278C4.937,3.522,3.34,2.007,0,2.007V0C4.139,0,6.283,2.03,8.17,3.821c1.855,1.756,3.452,3.27,6.792,3.27S19.9,5.577,21.75,3.821C23.64,2.03,25.781,0,29.92,0s6.28,2.03,8.173,3.821c1.852,1.756,3.449,3.27,6.789,3.27s4.937-1.514,6.792-3.27C53.563,2.03,55.7,0,59.843,0s6.28,2.03,8.17,3.821c1.855,1.756,3.452,3.27,6.792,3.27s4.937-1.514,6.792-3.27C83.486,2.03,85.627,0,89.769,0V2.007c-3.344,0-4.941,1.514-6.8,3.27C81.084,7.069,78.943,9.1,74.8,9.1" transform="translate(0 0.003)" fill="#7d3a1b"/>
          </g>
        </g>
      </g>
      <circle id="Ellipse_11504" data-name="Ellipse 11504" cx="50" cy="50" r="50" transform="translate(402.668 6031)" fill="#efb499"/>
      <circle id="Ellipse_11503" data-name="Ellipse 11503" cx="52" cy="52" r="52" transform="translate(395.668 6021)" fill="#f3f9ff"/>
    </g>
    <g id="Group_1118589" data-name="Group 1118589" transform="translate(200.807 1015.88)">
      <g id="Group_1118587" data-name="Group 1118587" transform="translate(24.04 25.152)">
        <path id="Path_905811" data-name="Path 905811" d="M223.517,387.616a1.115,1.115,0,0,0-1.115,1.115v8.539a1.115,1.115,0,0,0,2.23,0v-8.539A1.115,1.115,0,0,0,223.517,387.616Z" transform="translate(-213.377 -355.14)" fill="#45d987"/>
        <path id="Path_905812" data-name="Path 905812" d="M162.815,387.616a1.115,1.115,0,0,0-1.115,1.115v8.539a1.115,1.115,0,0,0,2.23,0v-8.539A1.115,1.115,0,0,0,162.815,387.616Z" transform="translate(-161.7 -355.14)" fill="#45d987"/>
        <path id="Path_905813" data-name="Path 905813" d="M193.167,391.224a1.115,1.115,0,0,0-1.115,1.115v13.4a1.115,1.115,0,0,0,2.23,0v-13.4A1.115,1.115,0,0,0,193.167,391.224Z" transform="translate(-187.539 -358.211)" fill="#45d987"/>
        <path id="Path_905814" data-name="Path 905814" d="M390.562,171.406H399.1a1.115,1.115,0,0,0,0-2.23h-8.539a1.115,1.115,0,1,0,0,2.23Z" transform="translate(-355.587 -169.176)" fill="#45d987"/>
        <path id="Path_905815" data-name="Path 905815" d="M399.1,229.878h-8.539a1.115,1.115,0,1,0,0,2.23H399.1a1.115,1.115,0,1,0,0-2.23Z" transform="translate(-355.586 -220.853)" fill="#45d987"/>
        <path id="Path_905816" data-name="Path 905816" d="M406.533,199.526H392.861a1.115,1.115,0,0,0,0,2.23h13.672a1.115,1.115,0,0,0,0-2.23Z" transform="translate(-357.544 -195.014)" fill="#45d987"/>
      </g>
      <path id="Path_905817" data-name="Path 905817" d="M376.88,383.378,361.5,368a.919.919,0,0,1,0-1.3l5.2-5.2a.919.919,0,0,1,1.3,0l15.379,15.379a.919.919,0,0,1,0,1.3l-5.2,5.2A.919.919,0,0,1,376.88,383.378Z" transform="translate(-307.527 -307.527)" fill="#f78e36"/>
      <path id="Path_905818" data-name="Path 905818" d="M379.4,361.5l-3.249,3.249a.919.919,0,0,1,1.3,0l15.379,15.379a.919.919,0,0,1,0,1.3l3.249-3.249a.919.919,0,0,0,0-1.3L380.7,361.5A.919.919,0,0,0,379.4,361.5Z" transform="translate(-320.232 -307.527)" fill="#f86f1b"/>
      <path id="Path_905819" data-name="Path 905819" d="M0,0H4.595V10.015H0Z" transform="translate(47.857 51.117) rotate(-45)" fill="#4380a0"/>
      <path id="Path_905820" data-name="Path 905820" d="M0,0H9.19V4.595H0Z" transform="translate(56.832 63.342) rotate(-45)" fill="#7be492"/>
      <path id="Path_905821" data-name="Path 905821" d="M0,0H4.595V4.595H0Z" transform="translate(60.081 60.094) rotate(-45)" fill="#45d987"/>
      <circle id="Ellipse_11638" data-name="Ellipse 11638" cx="29.866" cy="29.866" r="29.866" transform="translate(0 0)" fill="#43809f"/>
      <path id="Path_905822" data-name="Path 905822" d="M187.729,0q-1.159,0-2.3.087a29.868,29.868,0,0,1,0,59.558q1.137.087,2.3.087a29.866,29.866,0,0,0,0-59.733Z" transform="translate(-157.863 0)" fill="#3a7190"/>
      <circle id="Ellipse_11639" data-name="Ellipse 11639" cx="25.271" cy="25.271" r="25.271" transform="translate(4.595 4.595)" fill="#f3f3f3"/>
      <path id="Path_905823" data-name="Path 905823" d="M187.729,30.905c-.775,0-1.54.037-2.3.106a25.27,25.27,0,0,1,0,50.332c.757.069,1.523.106,2.3.106a25.271,25.271,0,0,0,0-50.543Z" transform="translate(-157.863 -26.31)" fill="#e4e4e4"/>
      <g id="Group_1118588" data-name="Group 1118588" transform="translate(16.465 10.491)">
        <path id="Path_905824" data-name="Path 905824" d="M119.934,123.8h-9.19V110.327a.613.613,0,0,1,.613-.613h7.964a.613.613,0,0,1,.613.613Z" transform="translate(-110.744 -103.894)" fill="#29cef6"/>
        <path id="Path_905825" data-name="Path 905825" d="M141.65,109.714V123.8h4.595V110.327a.613.613,0,0,0-.613-.613Z" transform="translate(-137.055 -103.894)" fill="#22b5ed"/>
        <path id="Path_905826" data-name="Path 905826" d="M243.556,157.132h-9.19v-7.658a.613.613,0,0,1,.613-.613h7.964a.613.613,0,0,1,.613.613Z" transform="translate(-215.987 -137.221)" fill="#7be492"/>
        <path id="Path_905827" data-name="Path 905827" d="M265.272,148.861v8.271h4.595v-7.658a.613.613,0,0,0-.613-.613Z" transform="translate(-242.298 -137.221)" fill="#45d987"/>
        <path id="Path_905828" data-name="Path 905828" d="M181.745,90.478h-9.19V71.18a.613.613,0,0,1,.613-.613h7.964a.613.613,0,0,1,.613.613Z" transform="translate(-163.365 -70.567)" fill="#f78e36"/>
        <path id="Path_905829" data-name="Path 905829" d="M203.461,70.567V90.478h4.595V71.18a.613.613,0,0,0-.613-.613Z" transform="translate(-189.676 -70.567)" fill="#f86f1b"/>
      </g>
      <path id="Path_905830" data-name="Path 905830" d="M119.233,196.991H86.292a1.115,1.115,0,1,0,0,2.23h32.941a1.115,1.115,0,0,0,0-2.23Z" transform="translate(-72.513 -167.704)" fill="#43809f"/>
      <path id="Path_905831" data-name="Path 905831" d="M137.889,237.772h-5.431l-2.465-6.3a1.115,1.115,0,0,0-2.084.019l-3.39,9.14-2.377-6.738a1.115,1.115,0,0,0-2.025-.173l-2.263,4.053h-5.413a1.115,1.115,0,1,0,0,2.23h6.068a1.115,1.115,0,0,0,.974-.571l1.378-2.469,2.581,7.316a1.115,1.115,0,0,0,1.043.744h.009a1.115,1.115,0,0,0,1.045-.727l3.444-9.286,1.676,4.285A1.115,1.115,0,0,0,131.7,240h6.192a1.115,1.115,0,0,0,0-2.23Z" transform="translate(-94.775 -196.454)" fill="#29cef6"/>
    </g>
  </g>
</svg>
