<svg xmlns="http://www.w3.org/2000/svg" width="70" height="70" viewBox="0 0 70 70">
  <g id="Group_1071455" data-name="Group 1071455" transform="translate(-269 -958)">
    <circle id="Ellipse_5614" data-name="Ellipse 5614" cx="35" cy="35" r="35" transform="translate(269 958)" fill="#fff"/>
    <g id="_x32_0" transform="translate(276.664 965.872)">
      <path id="Path_905959" data-name="Path 905959" d="M35.571,15h-25A3.571,3.571,0,0,0,7,18.571V34.643H39.143V18.571A3.571,3.571,0,0,0,35.571,15ZM20.888,27.65a.893.893,0,1,1-.991,1.486L14.54,25.565a.893.893,0,0,1,0-1.486L19.9,20.508a.893.893,0,1,1,.991,1.486l-4.243,2.829ZM31.6,25.564l-5.357,3.571a.893.893,0,1,1-.991-1.486L29.5,24.821l-4.243-2.829a.893.893,0,1,1,.991-1.486L31.6,24.078a.893.893,0,0,1,0,1.486Z" transform="translate(3.928 10.214)" fill="#6a4d23"/>
      <path id="Path_905960" data-name="Path 905960" d="M9.143,14.571a3.571,3.571,0,1,0-5.357,3.074V28.857a1.785,1.785,0,0,0,1.786,1.786H9.143V27.071H7.357V17.646A3.56,3.56,0,0,0,9.143,14.571Z" transform="translate(0 7.071)" fill="#6a4d23"/>
      <path id="Path_905961" data-name="Path 905961" d="M17.571,2a3.56,3.56,0,0,0-1.786,6.646V23.428h3.571V8.646A3.56,3.56,0,0,0,17.571,2Z" transform="translate(9.428)" fill="#6a4d23"/>
      <path id="Path_905962" data-name="Path 905962" d="M33.143,14.571a3.571,3.571,0,1,0-5.357,3.074v9.425H26v3.571h3.571a1.785,1.785,0,0,0,1.786-1.786V17.646A3.56,3.56,0,0,0,33.143,14.571Z" transform="translate(18.857 7.071)" fill="#6a4d23"/>
      <path id="Path_905963" data-name="Path 905963" d="M16.714,14.5H11.357V8.646a3.571,3.571,0,1,0-3.571,0v7.64a1.785,1.785,0,0,0,1.786,1.786h5.357v5.357H18.5V16.286A1.785,1.785,0,0,0,16.714,14.5Z" transform="translate(3.143)" fill="#6a4d23"/>
      <path id="Path_905964" data-name="Path 905964" d="M31.5,5.571a3.571,3.571,0,1,0-5.357,3.074V14.5H20.786A1.785,1.785,0,0,0,19,16.286v7.143h3.571V18.071h5.357a1.785,1.785,0,0,0,1.786-1.786V8.646A3.56,3.56,0,0,0,31.5,5.571Z" transform="translate(13.357)" fill="#6a4d23"/>
      <path id="Path_905965" data-name="Path 905965" d="M38.928,32.357H10.357A5.357,5.357,0,0,1,5,27H44.285A5.357,5.357,0,0,1,38.928,32.357Z" transform="translate(2.357 19.642)" fill="#6a4d23"/>
    </g>
  </g>
</svg>
