<svg xmlns="http://www.w3.org/2000/svg" width="70" height="70" viewBox="0 0 70 70">
  <g id="Group_1072265" data-name="Group 1072265" transform="translate(-269 -958)">
    <circle id="Ellipse_5614" data-name="Ellipse 5614" cx="35" cy="35" r="35" transform="translate(269 958)" fill="#fff"/>
    <g id="Group_1118650" data-name="Group 1118650" transform="translate(280.53 925.023)">
      <path id="Path_905966" data-name="Path 905966" d="M229.309,433h-2.934a1.375,1.375,0,1,0,0,2.75h2.934a1.375,1.375,0,0,0,0-2.75Z" transform="translate(-204.372 -348.796)" fill="#6a4d23"/>
      <path id="Path_905967" data-name="Path 905967" d="M415.309,433h-2.934a1.375,1.375,0,1,0,0,2.75h2.934a1.375,1.375,0,1,0,0-2.75Z" transform="translate(-373.32 -348.796)" fill="#6a4d23"/>
      <path id="Path_905968" data-name="Path 905968" d="M43.309,433H40.375a1.375,1.375,0,0,0,0,2.75h2.934a1.375,1.375,0,0,0,0-2.75Z" transform="translate(-35.425 -348.796)" fill="#6a4d23"/>
      <path id="Path_905969" data-name="Path 905969" d="M24.6,211.883l-4.729-2.7a1.375,1.375,0,0,0-1.365,0l-4.547,2.6,5.25,2.9Z" transform="translate(-12.683 -145.331)" fill="#6a4d23"/>
      <path id="Path_905970" data-name="Path 905970" d="M86,280.2l4.441-2.538a1.375,1.375,0,0,0,.693-1.194v-8.431L86,270.7Z" transform="translate(-78.116 -198.955)" fill="#6a4d23"/>
      <path id="Path_905971" data-name="Path 905971" d="M5.134,268.716,0,265.877v8.629A1.375,1.375,0,0,0,.693,275.7l4.441,2.538Z" transform="translate(0 -196.994)" fill="#6a4d23"/>
      <path id="Path_905972" data-name="Path 905972" d="M394.6,51.883l-4.729-2.7a1.375,1.375,0,0,0-1.365,0l-4.547,2.6,5.25,2.9Z" transform="translate(-348.762)" fill="#6a4d23"/>
      <path id="Path_905973" data-name="Path 905973" d="M456,110.7v24.166l4.441-2.538a1.375,1.375,0,0,0,.693-1.194v-23.1Z" transform="translate(-414.194 -53.623)" fill="#6a4d23"/>
      <path id="Path_905974" data-name="Path 905974" d="M375.134,108.716,370,105.877v23.3a1.375,1.375,0,0,0,.693,1.194l4.441,2.538Z" transform="translate(-336.079 -51.663)" fill="#6a4d23"/>
      <path id="Path_905975" data-name="Path 905975" d="M209.6,131.883l-4.729-2.7a1.375,1.375,0,0,0-1.365,0l-4.547,2.6,5.25,2.9Z" transform="translate(-180.722 -72.666)" fill="#6a4d23"/>
      <path id="Path_905976" data-name="Path 905976" d="M271,207.532l4.441-2.538a1.375,1.375,0,0,0,.693-1.194V188.035L271,190.7Z" transform="translate(-246.155 -126.289)" fill="#6a4d23"/>
      <path id="Path_905977" data-name="Path 905977" d="M190.134,188.716,185,185.877V201.84a1.375,1.375,0,0,0,.693,1.194l4.441,2.538Z" transform="translate(-168.039 -124.328)" fill="#6a4d23"/>
    </g>
  </g>
</svg>
