<svg xmlns="http://www.w3.org/2000/svg" xmlns:xlink="http://www.w3.org/1999/xlink" width="250.625" height="387.999" viewBox="0 0 250.625 387.999">
  <defs>
    <clipPath id="clip-path">
      <rect id="Rectangle_409074" data-name="Rectangle 409074" width="135.002" height="175.072" fill="none"/>
    </clipPath>
    <clipPath id="clip-path-2">
      <rect id="Rectangle_409073" data-name="Rectangle 409073" width="204.368" height="387.999" transform="translate(0 0)" fill="none"/>
    </clipPath>
    <clipPath id="clip-path-3">
      <rect id="Rectangle_409080" data-name="Rectangle 409080" width="85.575" height="129.564" fill="none"/>
    </clipPath>
    <clipPath id="clip-path-4">
      <rect id="Rectangle_409079" data-name="Rectangle 409079" width="85.574" height="129.564" fill="none"/>
    </clipPath>
    <clipPath id="clip-path-5">
      <rect id="Rectangle_409077" data-name="Rectangle 409077" width="77.141" height="52.004" fill="none"/>
    </clipPath>
  </defs>
  <g id="Group_1118832" data-name="Group 1118832" transform="translate(-1025.956 -1525)">
    <g id="Group_1118824" data-name="Group 1118824" transform="translate(1141.578 1678)">
      <g id="Group_1118823" data-name="Group 1118823" clip-path="url(#clip-path)">
        <path id="Path_906350" data-name="Path 906350" d="M132.229,69.219a21.068,21.068,0,0,1-4.052,6.1A3.7,3.7,0,0,0,127.3,76.5a4.476,4.476,0,0,0-.1,1.749c.134,3.634-2.467,7.244-1.316,10.693.717,2.148,2.836,3.972,2.438,6.2s-3.178,3.5-3.376,5.752a1.671,1.671,0,0,0,.179.988c.375.647,1.225.79,1.89,1.131a5.087,5.087,0,0,1,2.237,3.279,16,16,0,0,0,1.281,3.862c.835,1.4,2.275,2.323,3.325,3.572s1.642,3.22.574,4.453c-1.247,1.439-3.8.63-4.814-.983s-1-3.635-1.185-5.531a3.3,3.3,0,0,0-.563-1.792c-.9-1.116-2.725-.717-3.912.091s-2.253,1.958-3.677,2.149c-1.833.246-3.466-1.193-5.3-1.453a6.148,6.148,0,0,0-4.216,1.047c-2.593,1.795-6.653-1.581-9.122.382-.991.788-1.294,2.183-1.69,3.319a6.889,6.889,0,0,0-.447,2.331c.033,3.276,2.439,3.806,4.539,3.818a10.612,10.612,0,0,1,3.9.364c1.223.486,2.225,1.866,1.751,3.093a2.643,2.643,0,0,1-.988,1.159c-1.642,1.153-3.8,1.109-5.778,1.46-2.277.4-4.846,1.9-4.254,4.5a3.38,3.38,0,0,0,.956,1.644c1.866,1.818,4.488,1.816,6.68,2.882a1.96,1.96,0,0,1,1.141,1.806c-.09,1.813-2.9,1.838-3.592,3.413-.581,1.33.692,2.665,1.268,4,.746,1.728.293,3.713-.18,5.535-1.97,7.6-4.093,15.161-6.229,22.718a1.272,1.272,0,0,1-1.938.722,5.051,5.051,0,0,0-2.612-.929c-.764-.043-1.587.078-2.1-.878a2.64,2.64,0,0,1-.063-2.2l2.6-6.609a11.025,11.025,0,0,0,.971-3.672,3.734,3.734,0,0,0-1.543-3.3c-1.341-.827-3.073-.371-4.634-.587-2.991-.415-5.743-3.333-8.552-2.225a9.283,9.283,0,0,0-1.9,1.218,11.71,11.71,0,0,1-10.108,1.626,10.045,10.045,0,0,1-5.939-4.765c-.988-1.884-1.316-4.171-2.811-5.684-1.27-1.285-3.123-1.747-4.752-2.53a5.569,5.569,0,0,1-2.943-3.666c-.747-2.937-2.39-6.47-5.488-7.063-1.463-.28-3.178.112-4.306-.861-.495-.427-.783-1.058-1.29-1.47-1.277-1.038-3.185-.258-4.8-.553-1.995-.364-3.323-2.317-5.223-3.028-3.049-1.142-6.481,1.2-9.638.409-2.408-.605-4.012-2.862-6.2-4.028-2.978-1.586-7.04-1.176-9.274-3.706-1.183-1.341-1.664-3.354-3.239-4.2-.506-.273-1.085-.394-1.58-.688-1.456-.864-1.7-3-.958-4.521A9.581,9.581,0,0,1,4,107.439a12.151,12.151,0,0,0,3.8-3.305c.524-.826.827-1.776,1.355-2.6,1.351-2.109,3.892-3.04,6.044-4.321,3.195-1.9,5.915-5.266,5.6-8.971a24.209,24.209,0,0,0-1.518-5.125,6.929,6.929,0,0,1,.474-5.322,16.774,16.774,0,0,0,2.031-5.237,5.8,5.8,0,0,0-1.645-5.27c-.484-.411-1.094-.763-1.272-1.372-.441-1.509,2.093-3.157,1.018-4.3a2.421,2.421,0,0,0-1.081-.507,5.013,5.013,0,0,1-2.769-6.811c.864-1.634,2.653-2.753,3.093-4.547.4-1.635-.451-3.376.2-5.021a2.021,2.021,0,0,1,1.485-1.3c2.15-.356,3.051,3.4,5.312,3.052a2.114,2.114,0,0,0,1.548-1.252c1.052-2.337-1-4.759-.362-7.073a5.635,5.635,0,0,1,2.4-2.853,22.991,22.991,0,0,1,5.739-2.963c1.663-.579,3.572-1.1,4.416-2.65.6-1.093.5-2.464,1.1-3.553.625-1.123,1.891-1.759,2.58-2.843.957-1.5.625-3.554,1.551-5.076,1.148-1.889,3.695-2.239,5.9-2.393l9.04-.628a6.889,6.889,0,0,0,2.784-.589,12.518,12.518,0,0,0,2.216-1.9c2.5-2.215,6.138-2.564,9.041-4.222,2.7-1.543,4.626-4.132,7.045-6.088C83.6.4,87.171-.913,89.9.775a2.832,2.832,0,0,1,1.38,1.81C91.63,4.471,89.5,5.7,87.789,6.51a60.565,60.565,0,0,0-10.842,7.241c-2.368,1.841-4.848,3.828-5.89,6.641.643,2.947-.853,5.924-2.805,8.223a14.174,14.174,0,0,0-2.12,2.613,2.491,2.491,0,0,0,.421,3.074c1.449,1.063,4.117-.333,5.017,1.221a3.589,3.589,0,0,1,.276,1.58,5.64,5.64,0,0,0,2.325,4.139c.929.66,2.187,1.209,2.336,2.34a3.034,3.034,0,0,1-.422,1.646c-.851,1.795-1.677,4.08-.411,5.611a11.149,11.149,0,0,0,1.856,1.436c1.268,1,2.013,2.613,3.422,3.407A6.948,6.948,0,0,0,85.3,56.1c2.863-.387,5.735-1.042,8.61-.756s5.851,1.753,6.972,4.415c.49,1.166.735,2.652,1.892,3.162a21.417,21.417,0,0,0,2.276.364c1.382.439,2,2.166,3.357,2.691,1.526.592,3.2-.592,4.826-.409a11.752,11.752,0,0,1,2.618.965c3.62,1.333,7.465-1.111,11.306-1.47a5.452,5.452,0,0,1,3.877.88c1.07.836,1.734,2.027,1.191,3.272" fill="#ffd878"/>
      </g>
    </g>
    <g id="Group_1118822" data-name="Group 1118822" transform="translate(1025.956 1525.001)">
      <g id="Group_1118821" data-name="Group 1118821" transform="translate(0 0)" clip-path="url(#clip-path-2)">
        <path id="Path_906302" data-name="Path 906302" d="M913.982,114.194q-.441.982-.823,2.017c-.3.82-.553,1.639-.78,2.457a4.689,4.689,0,0,1-3.107-4.406l0-.026c1.455.025,3.031.011,4.708-.043" transform="translate(-879.139 -92.903)" fill="#161615"/>
        <path id="Path_906303" data-name="Path 906303" d="M54.811,57.884c-1.3,3.035-1.611,5.4-.582,6.126,1.047.742,3.231-.378,5.719-2.7,1.239,3.167,2.723,5.122,3.989,4.906s2.018-2.552,2.137-5.951c3.116,1.364,5.548,1.7,6.29.649s-.378-3.232-2.7-5.72c3.167-1.239,5.122-2.723,4.906-3.988-.1-.558-.621-1.009-1.449-1.357.792-.009,1.591.016,2.395.081a24.815,24.815,0,0,1,11.108,3.6l-.017-.031.31.232c.456.292.892.606,1.324.925l.3.337c-2.508.981-4.056,2.156-3.885,3.158s2.021,1.6,4.712,1.692c-1.08,2.467-1.343,4.393-.514,4.98s2.559-.3,4.528-2.135c.981,2.508,2.156,4.056,3.158,3.885s1.6-2.02,1.692-4.712c2.467,1.08,4.393,1.343,4.98.514s-.3-2.559-2.135-4.529c2.508-.981,4.056-2.156,3.885-3.158a.968.968,0,0,0-.164-.382c.6-.039,1.2-.065,1.812-.061a23.844,23.844,0,0,1,19.462,9.783c-.9,1.655-1.437,4.44-1.559,7.923-5.011-2.193-8.923-2.728-10.116-1.044s.607,5.2,4.337,9.2c-5.094,1.993-8.239,4.38-7.892,6.415s4.1,3.246,9.572,3.438c-2.193,5.012-2.729,8.922-1.044,10.116s5.2-.607,9.2-4.337c1.993,5.094,4.38,8.239,6.415,7.891s3.246-4.1,3.438-9.571c3.247,1.421,6.017,2.132,7.9,2.008a20.486,20.486,0,0,1,3.98,12.713,20.807,20.807,0,0,1-1.64,7.483c-1.817.51-4.192,2.1-6.781,4.511-1.993-5.094-4.38-8.238-6.415-7.891s-3.246,4.1-3.437,9.571c-5.011-2.193-8.923-2.729-10.116-1.044s.607,5.2,4.337,9.2c-5.094,1.992-8.239,4.38-7.892,6.415s4.1,3.246,9.572,3.438c-2.193,5.011-2.729,8.922-1.044,10.116s5.2-.608,9.2-4.337a33.111,33.111,0,0,0,1.452,3.226,23.217,23.217,0,0,1-11.28,12.986,6.481,6.481,0,0,0-2.29-.41c.678-1.549.843-2.757.323-3.126s-1.606.188-2.843,1.34c-.616-1.574-1.354-2.546-1.983-2.439s-1,1.268-1.062,2.958c-1.549-.678-2.757-.843-3.126-.323s.188,1.606,1.34,2.843c-1.574.616-2.546,1.354-2.439,1.983l.059.149-.136.005a25.542,25.542,0,0,1-3.723-.319L50.005,66.244a21.873,21.873,0,0,1,4.806-8.36m43.538,67.592c-.546,1.248-.68,2.222-.26,2.519s1.294-.151,2.291-1.08c.5,1.269,1.091,2.052,1.6,1.965s.808-1.022.856-2.384c1.248.546,2.222.68,2.519.26s-.151-1.295-1.08-2.291c1.269-.5,2.052-1.091,1.965-1.6s-1.022-.808-2.384-.856c.546-1.248.68-2.222.26-2.519s-1.294.151-2.291,1.08c-.5-1.269-1.091-2.052-1.6-1.965s-.808,1.022-.856,2.384c-1.248-.546-2.222-.679-2.519-.26s.151,1.294,1.08,2.291c-1.269.5-2.052,1.091-1.965,1.6s1.022.808,2.384.856m-12.855-29.9c-1.08,2.467-1.343,4.392-.514,4.98s2.559-.3,4.529-2.135c.981,2.508,2.156,4.056,3.158,3.885s1.6-2.021,1.693-4.712c2.467,1.08,4.392,1.343,4.98.514s-.3-2.559-2.135-4.529c2.508-.981,4.056-2.156,3.885-3.158s-2.021-1.6-4.712-1.692c1.08-2.467,1.343-4.392.514-4.98s-2.559.3-4.528,2.135C91.381,83.381,90.206,81.833,89.2,82s-1.6,2.021-1.692,4.712c-2.467-1.08-4.393-1.343-4.98-.514s.3,2.559,2.135,4.529c-2.508.981-4.056,2.156-3.885,3.158s2.021,1.6,4.712,1.693" transform="translate(44.733 -40.557)" fill="#30998b"/>
        <path id="Path_906304" data-name="Path 906304" d="M607.2,1977.429c-2.1-.189-6.3-.123-14.591-.12-.132-1.629-.519-4.9-1.54-6.135.382-.075.751-.142,1.1-.2,3.983-.629,1.975-8.7.024-14.409H606.02c1.885,7.55,4.477,20.076,1.175,20.861" transform="translate(-514.609 -1591.784)" fill="#e98e63"/>
        <path id="Path_906305" data-name="Path 906305" d="M716.369,2048.733c-.908-.795,3.852-2.893,8.975-4.523.195.89.657,3.089.926,4.375-6.042-.048-8.73-.118-9.9.148" transform="translate(-655.441 -1663.087)" fill="#e98e63"/>
        <path id="Path_906306" data-name="Path 906306" d="M621.067,2039.034c1.759.158,2.054.495,2.054,1.2,0,1.564-1.437,1.089-17.291,1.089s-17.29.232-17.29-1.332c0-.5.15-.79.868-.953,1.171-.266,3.859-.2,9.9-.148-.269-1.286-.731-3.485-.926-4.375l-.054-.244c-.2-.9,3.227-1.511,5.555-1.96a1.077,1.077,0,0,1,1.051.471c1.021,1.232,1.408,4.507,1.54,6.135,8.292,0,12.491-.069,14.591.12" transform="translate(-528.48 -1653.39)" fill="#814c28"/>
        <path id="Path_906307" data-name="Path 906307" d="M473.2,2048.733c-.909-.795,3.852-2.893,8.975-4.523.2.89.657,3.089.926,4.375-6.042-.048-8.73-.118-9.9.148" transform="translate(-366.94 -1663.087)" fill="#e98e63"/>
        <path id="Path_906308" data-name="Path 906308" d="M364.031,1977.429c-2.1-.189-6.3-.123-14.591-.12-.132-1.629-.519-4.9-1.541-6.135.382-.075.751-.142,1.1-.2,3.983-.629,1.975-8.7.025-14.409h13.833c1.885,7.55,4.477,20.076,1.176,20.861" transform="translate(-226.108 -1591.784)" fill="#e98e63"/>
        <path id="Path_906309" data-name="Path 906309" d="M377.9,2039.034c1.759.158,2.054.495,2.054,1.2,0,1.564-1.437,1.089-17.291,1.089s-17.29.232-17.29-1.332c0-.5.15-.79.868-.953,1.17-.266,3.859-.2,9.9-.148-.269-1.286-.731-3.485-.926-4.375l-.054-.244c-.2-.9,3.227-1.511,5.555-1.96a1.076,1.076,0,0,1,1.051.471c1.021,1.232,1.409,4.507,1.541,6.135,8.293,0,12.491-.069,14.591.12" transform="translate(-239.979 -1653.39)" fill="#814c28"/>
        <path id="Path_906310" data-name="Path 906310" d="M363.164,1187.114a301.921,301.921,0,0,1-11.083-37.913,274.034,274.034,0,0,1-6.5-70.114q.443-11.1,1.9-22.128c4.18,15.057,13.491,19.4,30.43,19.4a48.549,48.549,0,0,0,14.894-1.89c-3.988,67.5,14.146,136.911,15.162,150.209H377.8a277.371,277.371,0,0,1-15.054-36.818.549.549,0,0,0,.417-.75" transform="translate(-267.988 -859.899)" fill="#814c28"/>
        <path id="Path_906311" data-name="Path 906311" d="M621.992,818.309c.547,3.6,1.052,6.731,1.476,9.281q-.856,2.871-1.635,5.764c-.213.046-.429.093-.634.14a30.811,30.811,0,0,0-3.071.864c-.322.111-.631.224-.912.339a10.4,10.4,0,0,0-1.115.529,5.144,5.144,0,0,0-.818.552,1.58,1.58,0,0,0-.674,1.16,117.037,117.037,0,0,0,1.919,22.154,256.62,256.62,0,0,0-.911,65.217,295.955,295.955,0,0,0,16.1,68.411c-.042,18.715.643,32.6,1.015,37.475H609.643c-43.022-86.58-12.934-180.292-.186-212.293,1.747,1.022,6.292,1.125,12.535.407" transform="translate(-537.861 -665.412)" fill="#814c28"/>
        <path id="Path_906312" data-name="Path 906312" d="M358.31,739.161a53.467,53.467,0,0,0,7.537-3.83,31.836,31.836,0,0,1-1.208,18.6c-1.025,3-1.958,6.051-2.823,9.138-.639-5.07-1.8-13.653-3.505-23.911" transform="translate(-229.137 -598.236)" fill="#814c28"/>
        <path id="Path_906313" data-name="Path 906313" d="M620.767,823.778c-.32-1.976-.673-4.211-1.044-6.652q1.647-.21,3.425-.488c-.833,2.368-1.632,4.746-2.381,7.14" transform="translate(-534.321 -664.384)" fill="#814c28"/>
        <path id="Path_906314" data-name="Path 906314" d="M409.929,765.533a171.52,171.52,0,0,0,20.989-6.915c1.949,11.761,3.179,21.292,3.719,25.747-.619-.094-1.253-.184-1.911-.27q-.638-.083-1.3-.16-1.324-.155-2.735-.288-.705-.067-1.43-.127c-4.351-.364-9.229-.568-14.382-.568s-10.031.2-14.382.568q-.725.06-1.43.127-1.41.133-2.735.288-.662.077-1.3.16c-.481.062-.95.128-1.41.194q-.453.065-.892.134l-.041-.229c-.2-1.15-.483-2.777-.814-4.759q1.54-5.156,3.343-10.234c5.03-.846,10.727-2.081,16.712-3.669" transform="translate(-302.958 -617.181)" fill="#814c28"/>
        <path id="Path_906315" data-name="Path 906315" d="M633.294,887.808q-.581.1-1.134.206c.233-.86.479-1.716.722-2.573.161.937.3,1.73.412,2.367" transform="translate(-546.786 -720.358)" fill="#814c28"/>
        <path id="Path_906316" data-name="Path 906316" d="M588,1038.832c.247,1.187.526,2.3.824,3.38q-1.462,11.008-1.9,22.128a274.025,274.025,0,0,0,6.5,70.114,301.871,301.871,0,0,0,11.083,37.913.549.549,0,0,1-.417.75.663.663,0,0,1-.817-.41l-.086-.247a295.962,295.962,0,0,1-16.1-68.411,256.624,256.624,0,0,1,.911-65.217" transform="translate(-509.33 -845.152)" fill="#592c16"/>
        <path id="Path_906317" data-name="Path 906317" d="M635.77,875.344l-.009,0c-.484.092-.944.188-1.393.286q.777-2.894,1.635-5.764c.179,1.077.344,2.051.49,2.9-.243.857-.49,1.713-.722,2.573" transform="translate(-550.396 -707.689)" fill="#592c16"/>
        <path id="Path_906318" data-name="Path 906318" d="M615.852,815.385q-1.8,5.077-3.343,10.234c-.054-.325-.106-.636-.163-.981-.1-.6-.2-1.225-.307-1.879.749-2.394,1.548-4.773,2.381-7.14q.706-.111,1.433-.234" transform="translate(-525.593 -663.364)" fill="#592c16"/>
        <path id="Path_906319" data-name="Path 906319" d="M345.182,640.8a108.113,108.113,0,0,0,11.559.308c2.216,8.106,3.235,13.5,3.235,13.5.264.994-.937,2.314-3.267,3.812a53.448,53.448,0,0,1-7.537,3.83c-1.1-6.622-2.43-13.938-3.99-21.455" transform="translate(-219.999 -521.328)" fill="#003c8a"/>
        <path id="Path_906320" data-name="Path 906320" d="M488.565,294.533c-.3-.758-1.537-.425-1.234.34,4.727,11.936,9.041,24.152,11.783,36.712a80.763,80.763,0,0,1,2.1,15.827c.066,4.008-.241,8.374-2.216,11.957-4.335,7.866-14.919,5.435-21.714,2.737-9.661-3.836-18.326-10.242-26.241-16.874a155.091,155.091,0,0,1-11.652-10.686l7.619-11.848c4.242,3.631,8.631,7.111,13.142,10.4a83.268,83.268,0,0,0,9.051,5.922c1.823.995,4.339,2.478,6.522,2.113,4.183-.7,1.994-8.641,1.439-11.1-2.486-11-6.8-21.742-11.236-32.086-.324-.755-1.426-.1-1.105.646,1.79,4.171,3.448,8.4,5.036,12.654A155.866,155.866,0,0,1,475.6,329c-.487-.395-.98-.78-1.45-1.2a38.871,38.871,0,0,1-11.981-19.58,100.044,100.044,0,0,1,1.288-12.926c1.016-5.774,2.655-10.291,4.957-12.881a7.106,7.106,0,0,1,5.509-2.632,8.466,8.466,0,0,1,1.087.072c3.021.39,5.92,2.224,8.681,5.265a51.466,51.466,0,0,1,7.754,12.29c4.807,10.066,8.847,23.369,12.125,36.966q.734,3.042,1.415,6.095-1.548-.183-3.088-.428a111,111,0,0,0-2.1-11.2,250.215,250.215,0,0,0-11.235-34.307" transform="translate(-382.541 -227.618)" fill="#003c8a"/>
        <path id="Path_906321" data-name="Path 906321" d="M410.57,289.3c-3.849-11.693-8.364-21.8-13.678-28.008-3.037-3.544-6.37-5.847-10.037-6.325a9.714,9.714,0,0,0-1.252-.083,8.4,8.4,0,0,0-6.468,3.064,21.139,21.139,0,0,0-4,8.036,69.142,69.142,0,0,0-2.256,13.626,43.728,43.728,0,0,1,6.4-28.859,35.11,35.11,0,0,1,10.659,3.883c20.547,11.4,32.946,42.2,39.195,62.809a96.314,96.314,0,0,1-11.12-.438c-2.112-9.469-4.588-19.026-7.441-27.706" transform="translate(-294.218 -203.999)" fill="#003c8a"/>
        <path id="Path_906322" data-name="Path 906322" d="M602.447,531.005a26.6,26.6,0,0,1-7.4-3.724c-1.358-.863-2.685-1.776-4-2.7-.208-3.261-.37-6.5-.475-9.679a43.888,43.888,0,0,0,9.167,10.14,54.766,54.766,0,0,0,5.477,3.856l-.026.3c-.225,1.723-1.063,2.231-2.74,1.809" transform="translate(-510.95 -418.901)" fill="#003c8a"/>
        <path id="Path_906323" data-name="Path 906323" d="M439.223,656.324a11.682,11.682,0,0,0,6.786-7.1,29.338,29.338,0,0,0,1.468-11.548q1.954.277,3.924.464c1.613,7.742,2.98,15.285,4.107,22.083a171.538,171.538,0,0,1-20.989,6.915c-5.984,1.588-11.682,2.822-16.712,3.669q-.726.122-1.433.234-1.78.28-3.424.488c-.515-3.385-1.064-7.167-1.615-11.235-.514-3.8-1.027-7.845-1.511-12.034a61.088,61.088,0,0,0,16.7,7.792c4.011,1.094,8.694,1.742,12.7.269" transform="translate(-327.547 -518.79)" fill="#003c8a"/>
        <path id="Path_906324" data-name="Path 906324" d="M741.64,142.154c.749,1.2-3.643,5.3-9.81,9.163s-11.774,6.029-12.523,4.833l-1.115-2.88L712.975,139.8a15.588,15.588,0,0,0,12-7.579.64.64,0,0,0-1.105-.646,14.255,14.255,0,0,1-10.935,6.952.639.639,0,0,0-.559.425,10.149,10.149,0,0,1-4.347-.576c-6.876-2.531-9.729-12.244-6.915-22.382.227-.818.479-1.637.78-2.457q.381-1.035.822-2.018c2.819-.09,5.923-.3,9.2-.614a4.663,4.663,0,0,0,6.311,1.118,4.7,4.7,0,0,0,4.34,2.9,4.653,4.653,0,0,0,2.035-.481,6.389,6.389,0,0,0,3.895,3.268,4.278,4.278,0,0,1,.759-.357,4.251,4.251,0,1,1,2.107,8.192l7.316,11.822,2.967,4.794Zm-35.214-28.46c-.411-.077-.859.475-1,1.232s.078,1.433.49,1.51.86-.475,1-1.232-.078-1.433-.49-1.51m4.095,2.114c-.44-.695-1.547-.052-1.1.646.475.75,1.012,2.063.1,2.732-.448.329-1.118.137-1.627.131a2.337,2.337,0,0,0-1.644.55,2.269,2.269,0,0,0-.164,3.114,2.8,2.8,0,0,0,3.342.641.645.645,0,0,0,.229-.876.662.662,0,0,0-.876-.23,1.388,1.388,0,0,1-1.967-.912.928.928,0,0,1,.442-.9,2.944,2.944,0,0,1,1.455-.065,2.392,2.392,0,0,0,2.426-1.627,3.741,3.741,0,0,0-.612-3.207m5.6-.542c-.408-.092-.877.442-1.047,1.193s.023,1.435.432,1.528.877-.442,1.047-1.193-.023-1.435-.432-1.528m.191,9.316a2.223,2.223,0,0,1-2.972,1,1.869,1.869,0,0,0-1.653,3.352,6.005,6.005,0,0,0,4.439.335l.1-.032a6.006,6.006,0,0,0,3.43-2.987,1.869,1.869,0,0,0-3.344-1.669m15.647-2.514c-.047.356.331.626.64.64a.649.649,0,0,0,.452-.188.7.7,0,0,0,.187-.452,3.152,3.152,0,0,0-2.931-3.5.64.64,0,0,0,0,1.28l.039,0,.1.018.216.056.181.064.04.019.1.051.046.028a3.034,3.034,0,0,0-.714.537,3.22,3.22,0,0,0-.746,1.271.64.64,0,0,0,.94.723.67.67,0,0,0,.294-.382l.042-.115a2.558,2.558,0,0,1,.257-.443,2.63,2.63,0,0,1,.354-.355,2.534,2.534,0,0,1,.414-.243l.047.144.051.228,0,.011v0l.009.116a2.573,2.573,0,0,1-.02.488" transform="translate(-667.87 -90.224)" fill="#e98e63"/>
        <path id="Path_906325" data-name="Path 906325" d="M888.035,127.357c-.141.757-.589,1.309-1,1.232s-.631-.753-.49-1.51.589-1.309,1-1.232.631.753.49,1.51" transform="translate(-848.989 -102.378)" fill="#620c0f"/>
        <path id="Path_906326" data-name="Path 906326" d="M835.181,136.986c-.408-.092-.6-.776-.432-1.528s.639-1.286,1.047-1.193.6.776.432,1.527-.639,1.286-1.047,1.193" transform="translate(-787.541 -109.224)" fill="#620c0f"/>
        <path id="Path_906327" data-name="Path 906327" d="M790,227.367a14.255,14.255,0,0,0,10.936-6.952.64.64,0,0,1,1.1.646,15.588,15.588,0,0,1-12,7.579l-.044.006c-.527.045-.709-.464-.559-.854a.639.639,0,0,1,.559-.425" transform="translate(-744.939 -179.069)" fill="#b62229"/>
        <path id="Path_906328" data-name="Path 906328" d="M866.447,140.745a2.944,2.944,0,0,0-1.455.065.928.928,0,0,0-.442.9,1.388,1.388,0,0,0,1.967.912.662.662,0,0,1,.875.23.644.644,0,0,1-.229.875,2.8,2.8,0,0,1-3.342-.641,2.269,2.269,0,0,1,.164-3.114,2.338,2.338,0,0,1,1.644-.55c.51.006,1.18.2,1.627-.131.912-.67.376-1.983-.1-2.733-.442-.7.665-1.341,1.105-.646a3.741,3.741,0,0,1,.612,3.206,2.391,2.391,0,0,1-2.426,1.627" transform="translate(-825.61 -110.329)" fill="#b62229"/>
        <path id="Path_906329" data-name="Path 906329" d="M826.327,181.436a6.006,6.006,0,0,1-3.431,2.987l-.1.032a6.005,6.005,0,0,1-4.439-.335,1.869,1.869,0,0,1,1.653-3.352,2.223,2.223,0,0,0,2.972-1,1.869,1.869,0,0,1,3.344,1.669" transform="translate(-774.536 -145.409)" fill="#fff"/>
        <path id="Path_906330" data-name="Path 906330" d="M659.27,276.926s6.925,31.465,12.344,32.452c5.276.962,12.751-25.559,15.482-36.005a35.318,35.318,0,0,1,2.427-8.69l1.115,2.88c.749,1.2,6.356-.968,12.523-4.833s10.559-7.967,9.809-9.163h0L710,248.771a37.254,37.254,0,0,1,7.225-.926,48.49,48.49,0,0,0,.246,47.575c.088,3.577.251,7.237.476,10.931-1.178-.853-2.351-1.712-3.508-2.593-3.565-2.714-7.067-5.525-10.461-8.451a.651.651,0,0,0-1.005.13l-1.286,2-2.853-1.427c.277-.427.55-.865.811-1.324,2.684-4.729,3.425-9.436,1.8-10.907l0,0c-5.378-4.409-10.617-7.58-11.286-6.763-.472.575,1.291,2.852,4.252,5.688-4.834-2.04-8.613-3.024-8.986-2.237s2.73,3.061,7.312,5.5c-4.552-1.15-7.932-1.5-8.176-.724-.258.815,3.044,2.619,7.825,4.39-4.539-.329-7.912-.083-8,.667-.083.708,2.783,1.656,6.877,2.377-1.786,3.979-2.1,7.582-.684,8.8h0l5.032,5.409-.929,1.445a.651.651,0,0,0,.1.775A156.1,156.1,0,0,0,710.7,323.329c3,2.361,6.124,4.709,9.381,6.875,1.034,9.079,2.212,17.516,3.248,24.33-6.243.717-10.788.615-12.535-.407a1.491,1.491,0,0,1-.759-.859,243.549,243.549,0,0,1-15.657-34.519c-7.416,14.814-16.375,25.067-25.82,19.425-18.05-10.781-23.651-55.89-23.651-55.89l1.858-.693,9.7-3.618Z" transform="translate(-639.201 -201.637)" fill="#003c8a"/>
        <path id="Path_906331" data-name="Path 906331" d="M1003.658,245.712c.448-.45,2.5.81,5.137,3.039-2.855-4.25-4.486-7.66-3.8-8.171.541-.4,2.393,1.1,4.739,3.684-1.7-3.863-2.5-6.74-1.826-7.1.779-.414,3.283,2.716,5.989,7.335-1.064-5.177-1.292-9.113-.443-9.326.99-.248,3.187,5.046,4.86,11.494.873,2.016.928,5.6-.023,9.472a25.135,25.135,0,0,1-.83,2.711l3.37,8.805-9.7,3.618-1.385-8.566.047-.04a18.217,18.217,0,0,1,.273-8.234c-4.19-4.2-7.052-8.082-6.413-8.724m11.305,2c.409-.076.532.754.583,1a16.74,16.74,0,0,1,.275,1.98,19.086,19.086,0,0,1-.109,4.025.644.644,0,0,0,.64.64.661.661,0,0,0,.64-.64,19.108,19.108,0,0,0,.012-4.951c-.16-1.228-.391-3.518-2.154-3.331a1.813,1.813,0,0,0-1.435,1.32,14.214,14.214,0,0,0-.508,2.371,32.819,32.819,0,0,0-.446,5.047.64.64,0,0,0,1.28,0,30.66,30.66,0,0,1,.3-4.082q.148-1.017.363-2.022c.065-.3.143-1.283.556-1.36" transform="translate(-1003.569 -191.324)" fill="#e98e63"/>
        <path id="Path_906332" data-name="Path 906332" d="M1024.848,300.212a30.67,30.67,0,0,0-.3,4.082.64.64,0,0,1-1.28,0,32.842,32.842,0,0,1,.447-5.047,14.25,14.25,0,0,1,.508-2.371,1.813,1.813,0,0,1,1.435-1.32c1.763-.187,1.994,2.1,2.154,3.331a19.094,19.094,0,0,1-.012,4.951.661.661,0,0,1-.64.64.643.643,0,0,1-.64-.64,19.118,19.118,0,0,0,.109-4.025,16.753,16.753,0,0,0-.275-1.98c-.051-.249-.174-1.079-.583-1s-.49,1.056-.556,1.36q-.215,1-.363,2.022" transform="translate(-1014.373 -240.444)" fill="#b62229"/>
        <path id="Path_906333" data-name="Path 906333" d="M359.725,962.041a4.658,4.658,0,1,0,5.808,0c1.07-13.71,9.788-24.4,20.387-24.4a16.574,16.574,0,0,1,9.7,3.24c-1.044,22.594-6.492,32.745-18.1,36.52a48.555,48.555,0,0,1-14.894,1.89c-16.938,0-26.25-4.347-30.429-19.4-.3-1.075-.577-2.193-.824-3.38a99.059,99.059,0,0,1-1.748-15.62,16.576,16.576,0,0,1,9.71-3.247c10.6,0,19.318,10.692,20.387,24.4" transform="translate(-252.708 -762.824)" fill="#d7906f"/>
        <path id="Path_906334" data-name="Path 906334" d="M290.2,231.245c-10.6,0-19.318,10.692-20.388,24.4a4.565,4.565,0,0,0-5.808,0c-1.07-13.711-9.788-24.4-20.387-24.4a16.576,16.576,0,0,0-9.71,3.247q-.137-3.109-.171-6.535a1.581,1.581,0,0,1,.674-1.16,5.162,5.162,0,0,1,.818-.551,10.445,10.445,0,0,1,1.116-.529c.281-.115.59-.228.912-.339a30.79,30.79,0,0,1,3.071-.864c.2-.048.421-.094.634-.14.449-.1.909-.194,1.393-.286h.009q.552-.105,1.134-.206c-.113-.638-.251-1.43-.412-2.368-.146-.852-.311-1.827-.49-2.9-.424-2.55-.928-5.679-1.476-9.281-1.035-6.815-2.214-15.252-3.247-24.33q.692.46,1.393.906c.484,4.188,1,8.236,1.511,12.034.55,4.068,1.1,7.85,1.615,11.235.371,2.441.724,4.676,1.044,6.652.106.654.209,1.283.307,1.879.057.345.109.656.163.981.331,1.983.611,3.609.814,4.759l.04.229q.439-.068.892-.134c.461-.067.929-.132,1.411-.194q.638-.083,1.3-.16,1.324-.155,2.735-.288.705-.066,1.43-.127c4.351-.364,9.229-.568,14.382-.568s10.031.2,14.382.568q.725.06,1.43.127,1.41.133,2.735.288.662.077,1.3.16c.658.085,1.292.176,1.911.27-.54-4.456-1.77-13.986-3.719-25.747-1.126-6.8-2.493-14.341-4.106-22.083q-1.97-.19-3.924-.464c-.014-.383-.029-.767-.049-1.146-.1-1.78-.291-3.552-.521-5.321q1.54.246,3.088.428-.683-3.048-1.415-6.094c-3.278-13.6-7.319-26.9-12.126-36.966a51.461,51.461,0,0,0-7.754-12.29c-2.761-3.041-5.659-4.876-8.681-5.265a8.462,8.462,0,0,0-1.087-.072,7.106,7.106,0,0,0-5.509,2.632c-2.3,2.59-3.941,7.107-4.957,12.881a100.053,100.053,0,0,0-1.288,12.926,38.87,38.87,0,0,0,11.981,19.58c.47.416.963.8,1.45,1.2.143.591.288,1.183.418,1.777a22.48,22.48,0,0,1,.782,6.839,54.794,54.794,0,0,1-5.478-3.856,43.9,43.9,0,0,1-9.167-10.14c.106,3.18.266,6.418.475,9.679q-.676-.477-1.344-.962c-.225-3.694-.388-7.354-.476-10.931a48.49,48.49,0,0,1-.246-47.575,45.637,45.637,0,0,1,8.334-10.9L233.552,75.7l10.381-6.339,7.788,12.755,60.372,98.873,6.578,10.773L308.291,198.1l-13.385-21.921c-.393.014-.787.019-1.181.029a108.114,108.114,0,0,1-11.558-.308c1.56,7.517,2.889,14.833,3.99,21.455,1.7,10.257,2.866,18.841,3.505,23.911q.188,1.492.315,2.557c.508.085,1.007.173,1.483.263q1.071.2,2.028.426a26.6,26.6,0,0,1,3.983,1.2,10.441,10.441,0,0,1,1.116.529,5.149,5.149,0,0,1,.817.551,1.581,1.581,0,0,1,.674,1.16q-.017,1.713-.062,3.345v.027q-.044,1.618-.115,3.158a16.574,16.574,0,0,0-9.7-3.242m1.7-61.371c-6.248-20.611-18.648-51.408-39.195-62.809l-5.98-9.794a37.722,37.722,0,0,0-4.679,5.911,43.73,43.73,0,0,0-6.4,28.859,69.156,69.156,0,0,1,2.256-13.626,21.14,21.14,0,0,1,4-8.037,8.4,8.4,0,0,1,6.468-3.064,9.684,9.684,0,0,1,1.252.083c3.667.478,7,2.781,10.037,6.325,5.315,6.212,9.829,16.315,13.678,28.008,2.853,8.679,5.329,18.236,7.441,27.705a96.269,96.269,0,0,0,11.12.439" transform="translate(-156.983 -56.431)" fill="#382018"/>
        <path id="Path_906335" data-name="Path 906335" d="M486.255,1062.933a4.71,4.71,0,1,1-2.9,1.043,4.614,4.614,0,0,1,2.9-1.043" transform="translate(-376.334 -864.759)" fill="#814c28"/>
        <path id="Path_906336" data-name="Path 906336" d="M763.9,428.193h0c-1.42-1.22-1.1-4.823.684-8.8-4.094-.721-6.961-1.668-6.877-2.377.088-.751,3.461-1,8-.667-4.781-1.772-8.083-3.576-7.825-4.391.245-.772,3.624-.426,8.176.724-4.582-2.438-7.683-4.719-7.312-5.5s4.152.2,8.986,2.237c-2.961-2.836-4.724-5.112-4.252-5.688.669-.817,5.908,2.354,11.286,6.763l0,0c1.627,1.471.886,6.178-1.8,10.907-.261.46-.534.9-.811,1.324L775,424.155l-6.075,9.447Z" transform="translate(-712.513 -328.354)" fill="#e98e63"/>
        <path id="Path_906337" data-name="Path 906337" d="M481.386,398.507a26.6,26.6,0,0,0,7.4,3.724c1.676.421,2.515-.086,2.74-1.809l.026-.3a22.475,22.475,0,0,0-.782-6.839c-.13-.594-.275-1.185-.418-1.777a155.892,155.892,0,0,0-5.74-17.746c-1.589-4.251-3.247-8.483-5.036-12.654-.321-.749.781-1.4,1.105-.646,4.438,10.344,8.75,21.089,11.235,32.086.555,2.455,2.744,10.4-1.439,11.1-2.182.365-4.7-1.118-6.522-2.113a83.253,83.253,0,0,1-9.051-5.921c-4.511-3.287-8.9-6.767-13.142-10.4l-7.619,11.848A155.065,155.065,0,0,0,465.8,407.74c7.914,6.633,16.58,13.038,26.241,16.874,6.795,2.7,17.378,5.129,21.714-2.737,1.975-3.583,2.282-7.949,2.216-11.958a80.762,80.762,0,0,0-2.1-15.827c-2.741-12.561-7.056-24.777-11.783-36.713-.3-.766.934-1.1,1.234-.34a250.216,250.216,0,0,1,11.235,34.307,110.945,110.945,0,0,1,2.1,11.2c.231,1.769.423,3.541.521,5.321.021.379.035.763.049,1.147a29.336,29.336,0,0,1-1.468,11.548,11.682,11.682,0,0,1-6.786,7.1c-4,1.473-8.686.825-12.7-.269a61.091,61.091,0,0,1-16.7-7.792q-.7-.448-1.393-.907c-3.257-2.166-6.384-4.514-9.381-6.875a156.107,156.107,0,0,1-15.918-14.224.651.651,0,0,1-.1-.775l.929-1.445,6.075-9.447,1.286-2a.651.651,0,0,1,1.005-.13c3.393,2.926,6.9,5.737,10.461,8.451,1.156.88,2.33,1.74,3.508,2.593q.67.485,1.344.962c1.316.928,2.643,1.84,4,2.7" transform="translate(-397.292 -290.126)" fill="#11264e"/>
        <path id="Path_906338" data-name="Path 906338" d="M67.914,148.639c-.192,5.467-1.4,9.224-3.438,9.571s-4.422-2.8-6.415-7.891c-4,3.73-7.514,5.531-9.2,4.337s-1.149-5.1,1.044-10.116c-5.467-.192-9.224-1.4-9.571-3.438s2.8-4.422,7.891-6.415c-3.73-4-5.531-7.514-4.337-9.2s5.105-1.149,10.117,1.044c.122-3.483.659-6.268,1.559-7.923a2.843,2.843,0,0,1,1.879-1.649c2.036-.347,4.423,2.8,6.415,7.891,4-3.73,7.514-5.531,9.2-4.337s1.149,5.1-1.044,10.116c5.467.192,9.225,1.4,9.571,3.438s-2.8,4.422-7.891,6.415c3.73,4,5.531,7.514,4.337,9.2a2.8,2.8,0,0,1-2.216.964c-1.883.124-4.653-.587-7.9-2.008" transform="translate(115.242 -95.134)" fill="#f3812e"/>
        <path id="Path_906339" data-name="Path 906339" d="M8.554,425.526C6.869,424.332,7.4,420.421,9.6,415.41c-5.467-.192-9.225-1.4-9.572-3.438s2.8-4.422,7.891-6.415c-3.73-4-5.531-7.514-4.337-9.2S8.686,395.209,13.7,397.4c.192-5.467,1.4-9.224,3.438-9.571s4.422,2.8,6.415,7.891c2.589-2.413,4.964-4,6.781-4.511a2.806,2.806,0,0,1,2.418.174c1.685,1.194,1.149,5.105-1.044,10.116,5.467.192,9.224,1.4,9.571,3.438s-2.8,4.423-7.891,6.415c3.73,4,5.531,7.514,4.337,9.2s-5.105,1.149-10.116-1.044c-.192,5.467-1.4,9.224-3.438,9.571-1.56.266-3.326-1.524-4.963-4.665a33.111,33.111,0,0,1-1.452-3.226c-4,3.73-7.514,5.531-9.2,4.337" transform="translate(163.066 -315.502)" fill="#d8003c"/>
        <path id="Path_906340" data-name="Path 906340" d="M481.82,10.652c.216,1.266-1.739,2.75-4.906,3.988,2.319,2.488,3.439,4.672,2.7,5.72s-3.174.714-6.29-.649c-.119,3.4-.872,5.735-2.137,5.951s-2.75-1.739-3.989-4.906c-2.488,2.319-4.672,3.439-5.719,2.7-1.029-.729-.72-3.091.582-6.126l.067-.164c-3.4-.119-5.735-.872-5.951-2.138s1.739-2.749,4.906-3.988c-2.319-2.488-3.439-4.672-2.7-5.719s3.174-.715,6.29.649c.119-3.4.872-5.735,2.137-5.951s2.75,1.739,3.989,4.906c2.488-2.319,4.672-3.439,5.719-2.7s.714,3.174-.649,6.29a13.4,13.4,0,0,1,4.5.78c.828.348,1.354.8,1.449,1.357" transform="translate(-362.514 0.001)" fill="#d8003c"/>
        <path id="Path_906341" data-name="Path 906341" d="M309.6,42.169c1.836,1.97,2.723,3.7,2.135,4.529s-2.513.565-4.98-.514c-.094,2.691-.69,4.541-1.692,4.712s-2.177-1.377-3.158-3.885c-1.97,1.836-3.7,2.723-4.528,2.135s-.565-2.513.514-4.98c-2.691-.094-4.541-.69-4.712-1.692s1.377-2.177,3.885-3.158l-.3-.337c-1.624-1.827-2.391-3.411-1.837-4.192.588-.829,2.513-.566,4.98.514.095-2.691.69-4.541,1.692-4.712s2.177,1.377,3.158,3.885c1.97-1.836,3.7-2.723,4.529-2.135s.566,2.513-.514,4.98c2.328.082,4.022.54,4.548,1.311a.969.969,0,0,1,.164.381c.171,1-1.377,2.177-3.885,3.158" transform="translate(-163.792 -24.875)" fill="#ffb200"/>
        <path id="Path_906342" data-name="Path 906342" d="M288.341,423.021c-.929-1-1.378-1.871-1.08-2.291s1.271-.286,2.519.26c.048-1.361.349-2.3.856-2.384s1.1.7,1.6,1.965c1-.929,1.871-1.377,2.291-1.08s.286,1.272-.26,2.519c1.361.048,2.3.349,2.384.856s-.7,1.1-1.965,1.6c.929,1,1.377,1.871,1.08,2.291s-1.271.286-2.519-.26c-.048,1.361-.349,2.3-.856,2.384s-1.1-.7-1.6-1.965c-1,.929-1.871,1.378-2.291,1.08s-.286-1.272.26-2.519c-1.362-.048-2.3-.349-2.384-.856s.7-1.1,1.965-1.6" transform="translate(-145.678 -340.556)" fill="#ffb200"/>
        <path id="Path_906343" data-name="Path 906343" d="M317.852,230.976c-1.836-1.97-2.723-3.7-2.135-4.529s2.513-.566,4.98.514c.095-2.691.69-4.541,1.692-4.712s2.177,1.377,3.158,3.885c1.97-1.836,3.7-2.723,4.528-2.135s.566,2.513-.514,4.98c2.691.095,4.541.69,4.712,1.692s-1.377,2.177-3.885,3.158c1.836,1.97,2.723,3.7,2.135,4.529s-2.513.566-4.98-.514c-.094,2.691-.69,4.541-1.692,4.712s-2.177-1.377-3.158-3.885c-1.97,1.836-3.7,2.723-4.529,2.135s-.565-2.513.514-4.98c-2.691-.095-4.541-.69-4.712-1.693s1.377-2.177,3.885-3.158" transform="translate(-188.452 -180.803)" fill="#003c8a"/>
        <path id="Path_906344" data-name="Path 906344" d="M177.844,634.4c-1.153-1.237-1.709-2.322-1.34-2.843s1.578-.355,3.126.323c.059-1.69.433-2.851,1.062-2.958s1.367.865,1.983,2.439c1.236-1.153,2.322-1.709,2.843-1.34s.355,1.578-.323,3.126a6.482,6.482,0,0,1,2.29.41c.381.17.623.387.668.653.107.629-.865,1.367-2.439,1.983,1.153,1.236,1.709,2.322,1.34,2.843s-1.578.355-3.126-.323c-.059,1.69-.433,2.851-1.062,2.958s-1.367-.865-1.982-2.439c-1.237,1.153-2.322,1.71-2.843,1.341s-.355-1.578.323-3.126c-1.549-.054-2.644-.376-2.9-.914l-.059-.149c-.107-.629.865-1.367,2.439-1.982" transform="translate(-16.493 -511.661)" fill="#003c8a"/>
        <path id="Path_906345" data-name="Path 906345" d="M744.185,99.892a4.278,4.278,0,0,0-.759.357,6.389,6.389,0,0,1-3.895-3.268,4.653,4.653,0,0,1-2.035.481,4.7,4.7,0,0,1-4.34-2.9,4.663,4.663,0,0,1-6.311-1.118c1.193-.116,2.4-.242,3.635-.389A126.211,126.211,0,0,0,749.6,89.448a6.374,6.374,0,0,1-2.093,10.664,4.228,4.228,0,0,0-3.325-.22" transform="translate(-682.806 -72.771)" fill="#161615"/>
        <path id="Path_906346" data-name="Path 906346" d="M710.407,58.844v-.008l.009,0a13.177,13.177,0,0,0-.006,2.05c.125,1.053,6.837,1.118,14.99.145s14.66-2.615,14.535-3.667a12.2,12.2,0,0,0-.45-1.935l.019.057c7.345-.071,12.278.707,12.461,2.237.144,1.213-2.729,2.67-7.491,4.048a126.206,126.206,0,0,1-19.123,3.611c-1.234.147-2.441.273-3.635.389-3.273.318-6.377.524-9.2.614-1.677.054-3.253.067-4.708.043-6.039-.1-9.968-.867-10.13-2.229-.192-1.608,4.932-3.643,12.725-5.357" transform="translate(-677.677 -45.096)" fill="#814c28"/>
        <path id="Path_906347" data-name="Path 906347" d="M781.494,16.022c-6.8.812-12.587.9-14.394.294.622-3.973,3.192-10.228,13.11-11.411s13.843,4.287,15.36,8c-1.588,1.014-7.247,2.3-14.077,3.112" transform="translate(-734.221 -3.856)" fill="#814c28"/>
        <path id="Path_906348" data-name="Path 906348" d="M791.785,51.773c.126,1.053-6.382,2.695-14.535,3.667s-14.864.908-14.99-.145a13.818,13.818,0,0,1,.145-3.331v0c1.807.6,7.591.518,14.394-.294,6.83-.815,12.488-2.1,14.077-3.112a13.771,13.771,0,0,1,.908,3.217" transform="translate(-729.527 -39.503)" fill="#161615"/>
        <path id="Path_906349" data-name="Path 906349" d="M747.821,154.894l0-.011-.051-.228-.047-.144a2.538,2.538,0,0,0-.414.243,2.607,2.607,0,0,0-.354.355,2.567,2.567,0,0,0-.257.443l-.041.115a.669.669,0,0,1-.294.382.64.64,0,0,1-.94-.722,3.223,3.223,0,0,1,.747-1.272,3.04,3.04,0,0,1,.714-.537l-.047-.028-.1-.051-.039-.019-.181-.064-.216-.056-.1-.018-.039,0a.654.654,0,0,1-.64-.64.647.647,0,0,1,.64-.64,3.152,3.152,0,0,1,2.931,3.5.705.705,0,0,1-.187.452.65.65,0,0,1-.453.188c-.309-.014-.687-.285-.64-.64a2.588,2.588,0,0,0,.02-.488l-.009-.116Z" transform="translate(-683.718 -123.659)" fill="#b62229"/>
      </g>
    </g>
    <g id="Group_1118831" data-name="Group 1118831" transform="translate(1164.385 1765.536)">
      <g id="Group_1118830" data-name="Group 1118830" clip-path="url(#clip-path-3)">
        <g id="Group_1118829" data-name="Group 1118829" transform="translate(0 -0.001)">
          <g id="Group_1118828" data-name="Group 1118828" clip-path="url(#clip-path-4)">
            <path id="Path_906351" data-name="Path 906351" d="M42.8,120.789l1.123-.906L15.528,51.768,11.366,41.81,7.075,31.492,1.439,17.978l-.1-.237a.678.678,0,0,0-.907-.374.683.683,0,0,0-.374.907Z" transform="translate(0 8.776)" fill="#37004d"/>
            <path id="Path_906352" data-name="Path 906352" d="M75.283,16.155,68.51,0,1.369,28.153,7.741,43.347s66.565-26.24,67.543-27.192" transform="translate(0.694 0.001)" fill="#ffb929"/>
            <rect id="Rectangle_409075" data-name="Rectangle 409075" width="72.804" height="25.862" transform="translate(8.434 43.347) rotate(-22.75)" fill="#475ecf"/>
            <g id="Group_1118827" data-name="Group 1118827" transform="translate(8.434 15.193)" opacity="0.38">
              <g id="Group_1118826" data-name="Group 1118826">
                <g id="Group_1118825" data-name="Group 1118825" clip-path="url(#clip-path-5)">
                  <rect id="Rectangle_409076" data-name="Rectangle 409076" width="72.804" height="25.862" transform="translate(0 28.154) rotate(-22.75)" fill="#37004d"/>
                </g>
              </g>
            </g>
            <rect id="Rectangle_409078" data-name="Rectangle 409078" width="72.803" height="12.577" transform="translate(13.572 55.599) rotate(-22.75)" fill="#fb5226"/>
          </g>
        </g>
      </g>
    </g>
  </g>
</svg>
