<svg xmlns="http://www.w3.org/2000/svg" xmlns:xlink="http://www.w3.org/1999/xlink" width="121" height="121" viewBox="0 0 121 121">
  <defs>
    <clipPath id="clip-path">
      <rect id="Rectangle_400938" data-name="Rectangle 400938" width="121" height="121" transform="translate(0 0)" fill="none"/>
    </clipPath>
    <clipPath id="clip-path-2">
      <rect id="Rectangle_401073" data-name="Rectangle 401073" width="92.219" height="41.532" fill="#efb499"/>
    </clipPath>
  </defs>
  <g id="Group_1118810" data-name="Group 1118810" transform="translate(-744.899 -991.768)">
    <g id="Group_1099379" data-name="Group 1099379" transform="translate(357.231 -5021.232)">
      <rect id="Rectangle_401103" data-name="Rectangle 401103" width="121" height="121" transform="translate(387.668 6013)" fill="none"/>
      <g id="Group_1099348" data-name="Group 1099348" transform="translate(387.668 6013)">
        <g id="Group_1099282" data-name="Group 1099282">
          <g id="Group_1099281" data-name="Group 1099281" clip-path="url(#clip-path-2)">
            <path id="Path_873375" data-name="Path 873375" d="M74.8,9.1c-4.139,0-6.28-2.03-8.17-3.821-1.855-1.756-3.452-3.274-6.792-3.274s-4.937,1.517-6.792,3.274C51.161,7.072,49.023,9.1,44.881,9.1s-6.28-2.03-8.169-3.821C34.857,3.525,33.26,2.007,29.92,2.007s-4.937,1.517-6.789,3.274C21.241,7.072,19.1,9.1,14.962,9.1S8.679,7.072,6.789,5.281C4.937,3.525,3.34,2.007,0,2.007V0C4.139,0,6.28,2.033,8.17,3.821c1.855,1.759,3.452,3.274,6.792,3.274S19.9,5.58,21.75,3.824C23.637,2.033,25.781,0,29.92,0s6.283,2.033,8.17,3.821c1.855,1.759,3.452,3.274,6.792,3.274s4.937-1.514,6.792-3.274C53.56,2.033,55.7,0,59.843,0s6.283,2.033,8.17,3.821C69.867,5.58,71.464,7.094,74.8,7.094S79.742,5.58,81.6,3.821C83.483,2.033,85.624,0,89.766,0V2.007c-3.34,0-4.937,1.517-6.792,3.274C81.084,7.072,78.943,9.1,74.8,9.1" transform="translate(2.453 32.43)" fill="#efb499"/>
            <path id="Path_873376" data-name="Path 873376" d="M74.8,9.1c-4.139,0-6.283-2.03-8.17-3.824-1.855-1.756-3.452-3.27-6.792-3.27s-4.937,1.514-6.792,3.27C51.164,7.072,49.023,9.1,44.881,9.1s-6.283-2.03-8.17-3.824c-1.855-1.756-3.452-3.27-6.792-3.27s-4.937,1.517-6.789,3.27C21.241,7.072,19.1,9.1,14.962,9.1S8.679,7.072,6.789,5.278C4.937,3.522,3.34,2.007,0,2.007V0C4.139,0,6.283,2.03,8.17,3.821c1.855,1.759,3.452,3.274,6.792,3.274S19.9,5.58,21.75,3.821C23.637,2.03,25.781,0,29.92,0S36.2,2.03,38.093,3.821c1.852,1.759,3.449,3.274,6.789,3.274s4.937-1.514,6.792-3.274C53.56,2.03,55.7,0,59.843,0s6.283,2.03,8.17,3.821C69.867,5.58,71.464,7.094,74.8,7.094S79.742,5.58,81.6,3.821C83.486,2.03,85.627,0,89.769,0V2.007c-3.34,0-4.94,1.517-6.8,3.27C81.084,7.072,78.943,9.1,74.8,9.1" transform="translate(1.635 21.62)" fill="#efb499"/>
            <path id="Path_873377" data-name="Path 873377" d="M74.8,9.1c-4.139,0-6.283-2.03-8.169-3.824-1.855-1.756-3.452-3.27-6.792-3.27s-4.937,1.514-6.792,3.27C51.164,7.072,49.02,9.1,44.881,9.1s-6.283-2.03-8.17-3.824c-1.855-1.756-3.452-3.27-6.792-3.27s-4.937,1.517-6.789,3.27C21.241,7.072,19.1,9.1,14.962,9.1S8.678,7.072,6.789,5.278C4.937,3.522,3.34,2.007,0,2.007V0C4.139,0,6.283,2.03,8.169,3.821c1.851,1.759,3.452,3.274,6.792,3.274S19.9,5.58,21.75,3.821C23.637,2.03,25.781,0,29.92,0S36.2,2.03,38.093,3.821c1.852,1.759,3.449,3.274,6.789,3.274s4.937-1.514,6.792-3.274C53.56,2.03,55.7,0,59.843,0s6.283,2.03,8.17,3.821C69.867,5.58,71.464,7.094,74.8,7.094S79.742,5.58,81.6,3.821C83.486,2.03,85.624,0,89.769,0V2.007c-3.34,0-4.941,1.517-6.8,3.27C81.084,7.072,78.943,9.1,74.8,9.1" transform="translate(0.818 10.81)" fill="#efb499"/>
            <path id="Path_873378" data-name="Path 873378" d="M74.8,9.1c-4.139,0-6.28-2.03-8.17-3.821-1.855-1.756-3.452-3.27-6.792-3.27s-4.937,1.514-6.789,3.27C51.164,7.069,49.023,9.1,44.881,9.1s-6.28-2.03-8.169-3.821c-1.855-1.756-3.452-3.27-6.792-3.27s-4.937,1.514-6.789,3.267C21.245,7.069,19.1,9.1,14.962,9.1S8.678,7.069,6.789,5.278C4.937,3.522,3.34,2.007,0,2.007V0C4.139,0,6.283,2.03,8.17,3.821c1.855,1.756,3.452,3.27,6.792,3.27S19.9,5.577,21.75,3.821C23.64,2.03,25.781,0,29.92,0s6.28,2.03,8.173,3.821c1.852,1.756,3.449,3.27,6.789,3.27s4.937-1.514,6.792-3.27C53.563,2.03,55.7,0,59.843,0s6.28,2.03,8.17,3.821c1.855,1.756,3.452,3.27,6.792,3.27s4.937-1.514,6.792-3.27C83.486,2.03,85.627,0,89.769,0V2.007c-3.344,0-4.941,1.514-6.8,3.27C81.084,7.069,78.943,9.1,74.8,9.1" transform="translate(0 0.003)" fill="#efb499"/>
          </g>
        </g>
      </g>
      <circle id="Ellipse_11504" data-name="Ellipse 11504" cx="50.5" cy="50.5" r="50.5" transform="translate(402.668 6031)" fill="#ffce73"/>
      <circle id="Ellipse_11503" data-name="Ellipse 11503" cx="52.5" cy="52.5" r="52.5" transform="translate(395.668 6021)" fill="#f3f9ff"/>
    </g>
    <g id="_x34_6" transform="translate(776.502 1020.095)">
      <g id="Group_1118736" data-name="Group 1118736" transform="translate(0.901 1.945)">
        <path id="Path_906187" data-name="Path 906187" d="M.9,9.775V55.554a4.84,4.84,0,0,0,4.838,4.838h43.1a4.832,4.832,0,0,0,4.838-4.838V9.775Z" transform="translate(-0.901 0.064)" fill="#deddff"/>
        <path id="Path_906188" data-name="Path 906188" d="M8.567,60.392H5.739A4.84,4.84,0,0,1,.9,55.554V9.775H3.729V55.554A4.84,4.84,0,0,0,8.567,60.392Z" transform="translate(-0.901 0.064)" fill="#c6c6f7"/>
        <g id="Group_1118733" data-name="Group 1118733" transform="translate(0)">
          <path id="Path_906189" data-name="Path 906189" d="M53.68,6.783v5.1H.9v-5.1A4.84,4.84,0,0,1,5.739,1.945h43.1A4.832,4.832,0,0,1,53.68,6.783Z" transform="translate(-0.901 -1.945)" fill="#5b5e8b"/>
        </g>
        <g id="Group_1118734" data-name="Group 1118734">
          <path id="Path_906190" data-name="Path 906190" d="M8.567,1.945A4.84,4.84,0,0,0,3.729,6.783v5.1H.9v-5.1A4.84,4.84,0,0,1,5.739,1.945Z" transform="translate(-0.901 -1.945)" fill="#312e4b"/>
        </g>
        <g id="Group_1118735" data-name="Group 1118735" transform="translate(5.049 3.187)">
          <circle id="Ellipse_11650" data-name="Ellipse 11650" cx="1.757" cy="1.757" r="1.757" transform="translate(0)" fill="#deddff"/>
          <circle id="Ellipse_11651" data-name="Ellipse 11651" cx="1.757" cy="1.757" r="1.757" transform="translate(5.446)" fill="#deddff"/>
          <circle id="Ellipse_11652" data-name="Ellipse 11652" cx="1.757" cy="1.757" r="1.757" transform="translate(10.894)" fill="#deddff"/>
          <path id="Path_906191" data-name="Path 906191" d="M42.555,6.131a1.2,1.2,0,0,1-1.194,1.194H25.767a1.2,1.2,0,0,1,0-2.4H41.362A1.2,1.2,0,0,1,42.555,6.131Z" transform="translate(0.125 -4.367)" fill="#deddff"/>
        </g>
      </g>
      <g id="Group_1118752" data-name="Group 1118752" transform="translate(5.931 16.806)">
        <g id="Group_1118741" data-name="Group 1118741" transform="translate(0 29.026)">
          <path id="Path_906192" data-name="Path 906192" d="M19.656,38.666v7.954a1.8,1.8,0,0,1-1.8,1.8H6.688a1.786,1.786,0,0,1-1.784-1.8V38.666a1.786,1.786,0,0,1,1.784-1.8H17.859A1.8,1.8,0,0,1,19.656,38.666Z" transform="translate(-4.904 -36.869)" fill="#65b9ff"/>
          <path id="Path_906193" data-name="Path 906193" d="M10.219,48.418H6.688a1.786,1.786,0,0,1-1.784-1.8V38.666a1.786,1.786,0,0,1,1.784-1.8h3.531a1.8,1.8,0,0,0-1.8,1.8v7.954A1.8,1.8,0,0,0,10.219,48.418Z" transform="translate(-4.904 -36.869)" fill="#3e7fff"/>
          <g id="Group_1118740" data-name="Group 1118740" transform="translate(19.375 1.544)">
            <g id="Group_1118737" data-name="Group 1118737">
              <path id="Path_906194" data-name="Path 906194" d="M42.915,39.6H21.073a.751.751,0,0,1,0-1.5H42.915a.751.751,0,1,1,0,1.5Z" transform="translate(-20.322 -38.098)" fill="#b5b5ea"/>
            </g>
            <g id="Group_1118738" data-name="Group 1118738" transform="translate(0 3.479)">
              <path id="Path_906195" data-name="Path 906195" d="M42.915,42.369H21.073a.751.751,0,0,1,0-1.5H42.915a.751.751,0,1,1,0,1.5Z" transform="translate(-20.322 -40.866)" fill="#b5b5ea"/>
            </g>
            <g id="Group_1118739" data-name="Group 1118739" transform="translate(0 6.958)">
              <path id="Path_906196" data-name="Path 906196" d="M31.427,45.137H21.073a.751.751,0,0,1,0-1.5H31.427a.751.751,0,1,1,0,1.5Z" transform="translate(-20.322 -43.635)" fill="#b5b5ea"/>
            </g>
          </g>
        </g>
        <g id="Group_1118746" data-name="Group 1118746" transform="translate(0 14.513)">
          <path id="Path_906197" data-name="Path 906197" d="M19.656,27.117v7.954a1.8,1.8,0,0,1-1.8,1.8H6.688a1.786,1.786,0,0,1-1.784-1.8V27.117a1.786,1.786,0,0,1,1.784-1.8H17.859A1.8,1.8,0,0,1,19.656,27.117Z" transform="translate(-4.904 -25.32)" fill="#e83d62"/>
          <path id="Path_906198" data-name="Path 906198" d="M10.219,36.868H6.688a1.786,1.786,0,0,1-1.784-1.8V27.117a1.786,1.786,0,0,1,1.784-1.8h3.531a1.8,1.8,0,0,0-1.8,1.8v7.954A1.8,1.8,0,0,0,10.219,36.868Z" transform="translate(-4.904 -25.32)" fill="#ce2955"/>
          <g id="Group_1118745" data-name="Group 1118745" transform="translate(19.375 1.544)">
            <g id="Group_1118742" data-name="Group 1118742">
              <path id="Path_906199" data-name="Path 906199" d="M42.915,28.051H21.073a.751.751,0,0,1,0-1.5H42.915a.751.751,0,1,1,0,1.5Z" transform="translate(-20.322 -26.549)" fill="#b5b5ea"/>
            </g>
            <g id="Group_1118743" data-name="Group 1118743" transform="translate(0 3.479)">
              <path id="Path_906200" data-name="Path 906200" d="M42.915,30.819H21.073a.751.751,0,0,1,0-1.5H42.915a.751.751,0,1,1,0,1.5Z" transform="translate(-20.322 -29.317)" fill="#b5b5ea"/>
            </g>
            <g id="Group_1118744" data-name="Group 1118744" transform="translate(0 6.958)">
              <path id="Path_906201" data-name="Path 906201" d="M31.427,33.588H21.073a.751.751,0,0,1,0-1.5H31.427a.751.751,0,1,1,0,1.5Z" transform="translate(-20.322 -32.086)" fill="#b5b5ea"/>
            </g>
          </g>
        </g>
        <g id="Group_1118751" data-name="Group 1118751" transform="translate(0)">
          <path id="Path_906202" data-name="Path 906202" d="M19.656,15.568v7.954a1.8,1.8,0,0,1-1.8,1.8H6.688a1.786,1.786,0,0,1-1.784-1.8V15.568a1.786,1.786,0,0,1,1.784-1.8H17.859A1.8,1.8,0,0,1,19.656,15.568Z" transform="translate(-4.904 -13.771)" fill="#46cc6b"/>
          <path id="Path_906203" data-name="Path 906203" d="M10.219,25.319H6.688a1.786,1.786,0,0,1-1.784-1.8V15.568a1.786,1.786,0,0,1,1.784-1.8h3.531a1.8,1.8,0,0,0-1.8,1.8v7.954A1.8,1.8,0,0,0,10.219,25.319Z" transform="translate(-4.904 -13.771)" fill="#179c5f"/>
          <g id="Group_1118750" data-name="Group 1118750" transform="translate(19.375 1.544)">
            <g id="Group_1118747" data-name="Group 1118747">
              <path id="Path_906204" data-name="Path 906204" d="M42.915,16.5H21.073a.751.751,0,0,1,0-1.5H42.915a.751.751,0,1,1,0,1.5Z" transform="translate(-20.322 -15)" fill="#b5b5ea"/>
            </g>
            <g id="Group_1118748" data-name="Group 1118748" transform="translate(0 3.479)">
              <path id="Path_906205" data-name="Path 906205" d="M42.915,19.27H21.073a.751.751,0,0,1,0-1.5H42.915a.751.751,0,1,1,0,1.5Z" transform="translate(-20.322 -17.768)" fill="#b5b5ea"/>
            </g>
            <g id="Group_1118749" data-name="Group 1118749" transform="translate(0 6.958)">
              <path id="Path_906206" data-name="Path 906206" d="M31.427,22.039H21.073a.751.751,0,0,1,0-1.5H31.427a.751.751,0,1,1,0,1.5Z" transform="translate(-20.322 -20.537)" fill="#b5b5ea"/>
            </g>
          </g>
        </g>
      </g>
      <g id="Group_1118755" data-name="Group 1118755" transform="translate(46.828 21.484)">
        <g id="Group_1118754" data-name="Group 1118754">
          <path id="Path_906207" data-name="Path 906207" d="M54.261,22.686,44.876,42.763a8.606,8.606,0,0,1-3.109,3.589l-2.923,1.9a.58.58,0,0,1-.893-.414l-.436-3.461a8.606,8.606,0,0,1,.732-4.7l9.385-20.075a3.654,3.654,0,0,1,4.852-1.777h0A3.654,3.654,0,0,1,54.261,22.686Z" transform="translate(-37.449 -17.494)" fill="#e83d62"/>
          <path id="Path_906208" data-name="Path 906208" d="M54.484,20.265a3.632,3.632,0,0,0-4.21,1.985L40.888,42.331a8.59,8.59,0,0,0-.729,4.687l.05.352-1.37.892a.591.591,0,0,1-.892-.415l-.427-3.468a8.652,8.652,0,0,1,.729-4.7l9.387-20.068a3.638,3.638,0,0,1,4.851-1.772A3.6,3.6,0,0,1,54.484,20.265Z" transform="translate(-37.448 -17.493)" fill="#ce2955"/>
          <path id="Path_906209" data-name="Path 906209" d="M44.283,39.069a8.594,8.594,0,0,1-2.517,2.516l-1.065.7-1.857,1.212a.583.583,0,0,1-.892-.414l-.279-2.2-.157-1.262a8.667,8.667,0,0,1,.3-3.547Z" transform="translate(-37.449 -12.727)" fill="#ffaf93"/>
          <path id="Path_906210" data-name="Path 906210" d="M0,0H2.256V7.307H0Z" transform="translate(8.723 5.299) rotate(-65.101)" fill="#deddff"/>
          <g id="Group_1118753" data-name="Group 1118753" transform="translate(0.224)">
            <path id="Path_906211" data-name="Path 906211" d="M51.471,24.612l.893-1.926a3.654,3.654,0,0,0-1.777-4.852h0a3.654,3.654,0,0,0-4.852,1.777l-.893,1.926Z" transform="translate(-35.775 -17.494)" fill="#5b5e8b"/>
            <path id="Path_906212" data-name="Path 906212" d="M40.655,41.323,38.8,42.534a.583.583,0,0,1-.892-.414l-.279-2.2a2.464,2.464,0,0,1,3.028,1.4Z" transform="translate(-37.627 -11.769)" fill="#5b5e8b"/>
          </g>
        </g>
      </g>
      <g id="Group_1118756" data-name="Group 1118756" transform="translate(10.588 20.44)">
        <path id="Path_906213" data-name="Path 906213" d="M14.626,16.9a.816.816,0,0,0-1.155,0L10.8,19.57l-.81-.781A.817.817,0,1,0,8.86,19.966L10.247,21.3a.817.817,0,0,0,1.144-.011l3.235-3.235A.816.816,0,0,0,14.626,16.9Z" transform="translate(-8.61 -16.663)" fill="#deddff"/>
        <path id="Path_906214" data-name="Path 906214" d="M14.626,28.217a.816.816,0,0,0-1.155,0L10.8,30.885l-.81-.781A.817.817,0,0,0,8.86,31.281l1.387,1.337a.817.817,0,0,0,1.144-.011l3.235-3.235A.816.816,0,0,0,14.626,28.217Z" transform="translate(-8.61 -13.759)" fill="#deddff"/>
        <path id="Path_906215" data-name="Path 906215" d="M14.626,39.533a.816.816,0,0,0-1.155,0L10.8,42.2l-.81-.781A.817.817,0,0,0,8.86,42.6l1.387,1.337a.817.817,0,0,0,1.144-.011l3.235-3.235A.816.816,0,0,0,14.626,39.533Z" transform="translate(-8.61 -10.855)" fill="#deddff"/>
      </g>
    </g>
  </g>
</svg>
