<svg xmlns="http://www.w3.org/2000/svg" xmlns:xlink="http://www.w3.org/1999/xlink" width="90" height="90" viewBox="0 0 90 90">
  <defs>
    <clipPath id="clip-path">
      <rect id="Rectangle_409064" data-name="Rectangle 409064" width="42.913" height="54.848" fill="none"/>
    </clipPath>
  </defs>
  <g id="Group_1118816" data-name="Group 1118816" transform="translate(-830.156 -1864)">
    <g id="Group_1117144" data-name="Group 1117144" transform="translate(830.156 1864.087)">
      <g id="Ellipse_11510" data-name="Ellipse 11510" transform="translate(0 -0.087)" fill="#fff" stroke="#ffce73" stroke-width="5">
        <circle cx="45" cy="45" r="45" stroke="none"/>
        <circle cx="45" cy="45" r="42.5" fill="none"/>
      </g>
    </g>
    <g id="Group_1118675" data-name="Group 1118675" transform="translate(854.156 1882)">
      <path id="Path_906108" data-name="Path 906108" d="M51.934,208.092v3.54H13.1v-6.075Z" transform="translate(-10.055 -157.818)" fill="#eef8ff"/>
      <path id="Path_906109" data-name="Path 906109" d="M13.1,52.955H51.934V4.454H13.1v48.5Z" transform="translate(-10.055 -3.42)" fill="#8acdff"/>
      <g id="Group_1118674" data-name="Group 1118674">
        <g id="Group_1118673" data-name="Group 1118673" clip-path="url(#clip-path)">
          <path id="Path_906110" data-name="Path 906110" d="M9.677,45.431A1.034,1.034,0,0,1,8.643,44.4V39.532a1.034,1.034,0,0,1,2.069,0V44.4a1.034,1.034,0,0,1-1.034,1.034" transform="translate(-6.636 -29.557)" fill="#3a2f49"/>
          <path id="Path_906111" data-name="Path 906111" d="M9.677,83.353a1.034,1.034,0,0,1-1.034-1.034V77.454a1.034,1.034,0,1,1,2.069,0v4.864a1.034,1.034,0,0,1-1.034,1.034" transform="translate(-6.636 -58.672)" fill="#3a2f49"/>
          <path id="Path_906112" data-name="Path 906112" d="M9.677,121.276a1.034,1.034,0,0,1-1.034-1.034v-4.865a1.034,1.034,0,0,1,2.069,0v4.865a1.034,1.034,0,0,1-1.034,1.034" transform="translate(-6.636 -87.788)" fill="#3a2f49"/>
          <path id="Path_906113" data-name="Path 906113" d="M9.677,159.2a1.034,1.034,0,0,1-1.034-1.034V153.3a1.034,1.034,0,0,1,2.069,0v4.865A1.034,1.034,0,0,1,9.677,159.2" transform="translate(-6.636 -116.905)" fill="#3a2f49"/>
          <path id="Path_906114" data-name="Path 906114" d="M9.677,197.327a1.034,1.034,0,0,1-1.034-1.034v-5.069a1.034,1.034,0,0,1,2.069,0v5.069a1.034,1.034,0,0,1-1.034,1.034" transform="translate(-6.636 -146.019)" fill="#3a2f49"/>
          <path id="Path_906115" data-name="Path 906115" d="M48.514,50.571H9.676a1.034,1.034,0,0,1,0-2.069h37.8V2.07H10.711V5.951a1.034,1.034,0,1,1-2.069,0V1.035A1.034,1.034,0,0,1,9.676,0H48.514a1.034,1.034,0,0,1,1.034,1.034v48.5a1.034,1.034,0,0,1-1.034,1.034" transform="translate(-6.635 -0.001)" fill="#3a2f49"/>
          <path id="Path_906116" data-name="Path 906116" d="M5.049,39.5H1.034a1.034,1.034,0,1,1,0-2.069H5.049a1.034,1.034,0,1,1,0,2.069" transform="translate(0 -28.738)" fill="#3a2f49"/>
          <path id="Path_906117" data-name="Path 906117" d="M5.049,77.6H1.034a1.034,1.034,0,0,1,0-2.069H5.049a1.034,1.034,0,0,1,0,2.069" transform="translate(0 -57.989)" fill="#3a2f49"/>
          <path id="Path_906118" data-name="Path 906118" d="M5.049,115.7H1.034a1.034,1.034,0,1,1,0-2.069H5.049a1.034,1.034,0,1,1,0,2.069" transform="translate(0 -87.241)" fill="#3a2f49"/>
          <path id="Path_906119" data-name="Path 906119" d="M5.049,153.8H1.034a1.034,1.034,0,1,1,0-2.069H5.049a1.034,1.034,0,1,1,0,2.069" transform="translate(0 -116.493)" fill="#3a2f49"/>
          <path id="Path_906120" data-name="Path 906120" d="M5.049,191.9H1.034a1.034,1.034,0,1,1,0-2.069H5.049a1.034,1.034,0,1,1,0,2.069" transform="translate(0 -145.743)" fill="#3a2f49"/>
          <path id="Path_906121" data-name="Path 906121" d="M78.77,40.566H66.175a1.034,1.034,0,0,1,0-2.069H78.77a1.034,1.034,0,1,1,0,2.069" transform="translate(-50.013 -29.556)" fill="#3a2f49"/>
          <path id="Path_906122" data-name="Path 906122" d="M73.078,67.332H55.545a1.034,1.034,0,1,1,0-2.069H73.078a1.034,1.034,0,0,1,0,2.069" transform="translate(-41.851 -50.106)" fill="#3a2f49"/>
          <path id="Path_906123" data-name="Path 906123" d="M48.514,209.247H9.676a1.035,1.035,0,0,1-1.034-1.034v-6.075a1.034,1.034,0,1,1,2.069,0v5.04H47.479v-2.506a1.034,1.034,0,0,1,2.069,0v3.54a1.034,1.034,0,0,1-1.034,1.034" transform="translate(-6.635 -154.399)" fill="#3a2f49"/>
        </g>
      </g>
    </g>
  </g>
</svg>
