<svg xmlns="http://www.w3.org/2000/svg" xmlns:xlink="http://www.w3.org/1999/xlink" width="121" height="121" viewBox="0 0 121 121">
  <defs>
    <clipPath id="clip-path">
      <rect id="Rectangle_400938" data-name="Rectangle 400938" width="121" height="121" transform="translate(0 0)" fill="none"/>
    </clipPath>
    <clipPath id="clip-path-2">
      <rect id="Rectangle_401073" data-name="Rectangle 401073" width="92.219" height="41.532" fill="#efb499"/>
    </clipPath>
  </defs>
  <g id="Group_1118779" data-name="Group 1118779" transform="translate(-745 -1894)">
    <g id="Group_1099379" data-name="Group 1099379" transform="translate(357.332 -4119)">
      <rect id="Rectangle_401103" data-name="Rectangle 401103" width="121" height="121" transform="translate(387.668 6013)" fill="none"/>
      <g id="Group_1099348" data-name="Group 1099348" transform="translate(387.668 6013)">
        <g id="Group_1099282" data-name="Group 1099282">
          <g id="Group_1099281" data-name="Group 1099281" clip-path="url(#clip-path-2)">
            <path id="Path_873375" data-name="Path 873375" d="M74.8,9.1c-4.139,0-6.28-2.03-8.17-3.821-1.855-1.756-3.452-3.274-6.792-3.274s-4.937,1.517-6.792,3.274C51.161,7.072,49.023,9.1,44.881,9.1s-6.28-2.03-8.169-3.821C34.857,3.525,33.26,2.007,29.92,2.007s-4.937,1.517-6.789,3.274C21.241,7.072,19.1,9.1,14.962,9.1S8.679,7.072,6.789,5.281C4.937,3.525,3.34,2.007,0,2.007V0C4.139,0,6.28,2.033,8.17,3.821c1.855,1.759,3.452,3.274,6.792,3.274S19.9,5.58,21.75,3.824C23.637,2.033,25.781,0,29.92,0s6.283,2.033,8.17,3.821c1.855,1.759,3.452,3.274,6.792,3.274s4.937-1.514,6.792-3.274C53.56,2.033,55.7,0,59.843,0s6.283,2.033,8.17,3.821C69.867,5.58,71.464,7.094,74.8,7.094S79.742,5.58,81.6,3.821C83.483,2.033,85.624,0,89.766,0V2.007c-3.34,0-4.937,1.517-6.792,3.274C81.084,7.072,78.943,9.1,74.8,9.1" transform="translate(2.453 32.43)" fill="#efb499"/>
            <path id="Path_873376" data-name="Path 873376" d="M74.8,9.1c-4.139,0-6.283-2.03-8.17-3.824-1.855-1.756-3.452-3.27-6.792-3.27s-4.937,1.514-6.792,3.27C51.164,7.072,49.023,9.1,44.881,9.1s-6.283-2.03-8.17-3.824c-1.855-1.756-3.452-3.27-6.792-3.27s-4.937,1.517-6.789,3.27C21.241,7.072,19.1,9.1,14.962,9.1S8.679,7.072,6.789,5.278C4.937,3.522,3.34,2.007,0,2.007V0C4.139,0,6.283,2.03,8.17,3.821c1.855,1.759,3.452,3.274,6.792,3.274S19.9,5.58,21.75,3.821C23.637,2.03,25.781,0,29.92,0S36.2,2.03,38.093,3.821c1.852,1.759,3.449,3.274,6.789,3.274s4.937-1.514,6.792-3.274C53.56,2.03,55.7,0,59.843,0s6.283,2.03,8.17,3.821C69.867,5.58,71.464,7.094,74.8,7.094S79.742,5.58,81.6,3.821C83.486,2.03,85.627,0,89.769,0V2.007c-3.34,0-4.94,1.517-6.8,3.27C81.084,7.072,78.943,9.1,74.8,9.1" transform="translate(1.635 21.62)" fill="#efb499"/>
            <path id="Path_873377" data-name="Path 873377" d="M74.8,9.1c-4.139,0-6.283-2.03-8.169-3.824-1.855-1.756-3.452-3.27-6.792-3.27s-4.937,1.514-6.792,3.27C51.164,7.072,49.02,9.1,44.881,9.1s-6.283-2.03-8.17-3.824c-1.855-1.756-3.452-3.27-6.792-3.27s-4.937,1.517-6.789,3.27C21.241,7.072,19.1,9.1,14.962,9.1S8.678,7.072,6.789,5.278C4.937,3.522,3.34,2.007,0,2.007V0C4.139,0,6.283,2.03,8.169,3.821c1.851,1.759,3.452,3.274,6.792,3.274S19.9,5.58,21.75,3.821C23.637,2.03,25.781,0,29.92,0S36.2,2.03,38.093,3.821c1.852,1.759,3.449,3.274,6.789,3.274s4.937-1.514,6.792-3.274C53.56,2.03,55.7,0,59.843,0s6.283,2.03,8.17,3.821C69.867,5.58,71.464,7.094,74.8,7.094S79.742,5.58,81.6,3.821C83.486,2.03,85.624,0,89.769,0V2.007c-3.34,0-4.941,1.517-6.8,3.27C81.084,7.072,78.943,9.1,74.8,9.1" transform="translate(0.818 10.81)" fill="#efb499"/>
            <path id="Path_873378" data-name="Path 873378" d="M74.8,9.1c-4.139,0-6.28-2.03-8.17-3.821-1.855-1.756-3.452-3.27-6.792-3.27s-4.937,1.514-6.789,3.27C51.164,7.069,49.023,9.1,44.881,9.1s-6.28-2.03-8.169-3.821c-1.855-1.756-3.452-3.27-6.792-3.27s-4.937,1.514-6.789,3.267C21.245,7.069,19.1,9.1,14.962,9.1S8.678,7.069,6.789,5.278C4.937,3.522,3.34,2.007,0,2.007V0C4.139,0,6.283,2.03,8.17,3.821c1.855,1.756,3.452,3.27,6.792,3.27S19.9,5.577,21.75,3.821C23.64,2.03,25.781,0,29.92,0s6.28,2.03,8.173,3.821c1.852,1.756,3.449,3.27,6.789,3.27s4.937-1.514,6.792-3.27C53.563,2.03,55.7,0,59.843,0s6.28,2.03,8.17,3.821c1.855,1.756,3.452,3.27,6.792,3.27s4.937-1.514,6.792-3.27C83.486,2.03,85.627,0,89.769,0V2.007c-3.344,0-4.941,1.514-6.8,3.27C81.084,7.069,78.943,9.1,74.8,9.1" transform="translate(0 0.003)" fill="#efb499"/>
          </g>
        </g>
      </g>
      <circle id="Ellipse_11504" data-name="Ellipse 11504" cx="50.5" cy="50.5" r="50.5" transform="translate(402.668 6031)" fill="#ffce73"/>
      <circle id="Ellipse_11503" data-name="Ellipse 11503" cx="52.5" cy="52.5" r="52.5" transform="translate(395.668 6021)" fill="#f3f9ff"/>
    </g>
    <g id="FLAT" transform="translate(710 1899.183)">
      <path id="Path_905706" data-name="Path 905706" d="M72,24V79.877l8.94,8.94h42.467V24Z" fill="#ccdcc2"/>
      <circle id="Ellipse_11634" data-name="Ellipse 11634" cx="9" cy="9" r="9" transform="translate(101 28.817)" fill="#8bb276"/>
      <path id="Path_905707" data-name="Path 905707" d="M118.528,56a11.175,11.175,0,0,0-11.175,11.175v1.118L104,75h3.353V81.7a2.235,2.235,0,0,0,2.235,2.235h3.353V94H123V83.939A22.893,22.893,0,0,0,129.7,67.751v-.575A11.175,11.175,0,0,0,118.528,56Z" transform="translate(-27.53 -27.53)" fill="#008cb7"/>
      <path id="Path_905708" data-name="Path 905708" d="M192,168h4.47v5.588H192Z" transform="translate(-103.237 -123.884)" fill="#ed9b85"/>
      <path id="Path_905709" data-name="Path 905709" d="M368,240h4.47v11.175H368Z" transform="translate(-254.651 -185.826)" fill="#00779c"/>
      <path id="Path_905710" data-name="Path 905710" d="M285,221.588,281.65,216h-.523a2.235,2.235,0,0,0-1.917,3.385l1.322,2.2h-4.173a2.235,2.235,0,0,0-2.218,2.512l.559,4.47a2.235,2.235,0,0,0,2.218,1.958h5.85L285,228.293h2.235v-6.705Z" transform="translate(-173.889 -165.179)" fill="#008cb7"/>
      <path id="Path_905711" data-name="Path 905711" d="M104,344h35.761v2.235H104Z" transform="translate(-27.53 -275.298)" fill="#abc79b"/>
      <path id="Path_905712" data-name="Path 905712" d="M104,384h33.526v2.235H104Z" transform="translate(-27.53 -309.711)" fill="#abc79b"/>
      <path id="Path_905713" data-name="Path 905713" d="M72,424l8.94,8.94V424Z" transform="translate(0 -344.123)" fill="#9cbd8a"/>
      <path id="Path_905714" data-name="Path 905714" d="M160,424h24.586v2.235H160Z" transform="translate(-75.707 -344.123)" fill="#abc79b"/>
      <path id="Path_905715" data-name="Path 905715" d="M364.3,166.06l-3.374,3.687L360,164.836l12.857-45.142a2.235,2.235,0,1,1,4.3,1.224Z" transform="translate(-247.769 -80.93)" fill="#f9b89b"/>
      <path id="Path_905716" data-name="Path 905716" d="M449.169,118.157a2.235,2.235,0,0,0-2.762,1.537l-.914,3.21,4.295,1.239.918-3.224A2.235,2.235,0,0,0,449.169,118.157Z" transform="translate(-321.319 -80.93)" fill="#e88977"/>
      <ellipse id="Ellipse_11635" data-name="Ellipse 11635" cx="6" cy="5.5" rx="6" ry="5.5" transform="translate(85 33.817)" fill="#f9b89b"/>
      <path id="Path_905717" data-name="Path 905717" d="M200,136h2.235v5.588H200Z" transform="translate(-110.119 -96.354)" fill="#ed9b85"/>
      <path id="Path_905718" data-name="Path 905718" d="M318.243,77.152l-7.758,7.758-2.562-2.562-1.581,1.581,3.353,3.353a1.118,1.118,0,0,0,1.581,0l8.262-8.262A8.96,8.96,0,0,0,318.243,77.152Z" transform="translate(-201.607 -45.727)" fill="#ccdcc2"/>
    </g>
  </g>
</svg>
