<svg xmlns="http://www.w3.org/2000/svg" xmlns:xlink="http://www.w3.org/1999/xlink" width="121" height="121" viewBox="0 0 121 121">
  <defs>
    <clipPath id="clip-path">
      <rect id="Rectangle_400938" data-name="Rectangle 400938" width="121" height="121" transform="translate(0 0)" fill="none"/>
    </clipPath>
    <clipPath id="clip-path-2">
      <rect id="Rectangle_401073" data-name="Rectangle 401073" width="92.219" height="41.532" fill="#efb499"/>
    </clipPath>
  </defs>
  <g id="Group_1118809" data-name="Group 1118809" transform="translate(-392.899 -991.768)">
    <g id="Group_1099349" data-name="Group 1099349" transform="translate(5.231 -5021.232)">
      <rect id="Rectangle_401103" data-name="Rectangle 401103" width="121" height="121" transform="translate(387.668 6013)" fill="none"/>
      <g id="Group_1099348" data-name="Group 1099348" transform="translate(387.668 6013)">
        <g id="Group_1099282" data-name="Group 1099282">
          <g id="Group_1099281" data-name="Group 1099281" clip-path="url(#clip-path-2)">
            <path id="Path_873375" data-name="Path 873375" d="M74.8,9.1c-4.139,0-6.28-2.03-8.17-3.821-1.855-1.756-3.452-3.274-6.792-3.274s-4.937,1.517-6.792,3.274C51.161,7.072,49.023,9.1,44.881,9.1s-6.28-2.03-8.169-3.821C34.857,3.525,33.26,2.007,29.92,2.007s-4.937,1.517-6.789,3.274C21.241,7.072,19.1,9.1,14.962,9.1S8.679,7.072,6.789,5.281C4.937,3.525,3.34,2.007,0,2.007V0C4.139,0,6.28,2.033,8.17,3.821c1.855,1.759,3.452,3.274,6.792,3.274S19.9,5.58,21.75,3.824C23.637,2.033,25.781,0,29.92,0s6.283,2.033,8.17,3.821c1.855,1.759,3.452,3.274,6.792,3.274s4.937-1.514,6.792-3.274C53.56,2.033,55.7,0,59.843,0s6.283,2.033,8.17,3.821C69.867,5.58,71.464,7.094,74.8,7.094S79.742,5.58,81.6,3.821C83.483,2.033,85.624,0,89.766,0V2.007c-3.34,0-4.937,1.517-6.792,3.274C81.084,7.072,78.943,9.1,74.8,9.1" transform="translate(2.453 32.43)" fill="#efb499"/>
            <path id="Path_873376" data-name="Path 873376" d="M74.8,9.1c-4.139,0-6.283-2.03-8.17-3.824-1.855-1.756-3.452-3.27-6.792-3.27s-4.937,1.514-6.792,3.27C51.164,7.072,49.023,9.1,44.881,9.1s-6.283-2.03-8.17-3.824c-1.855-1.756-3.452-3.27-6.792-3.27s-4.937,1.517-6.789,3.27C21.241,7.072,19.1,9.1,14.962,9.1S8.679,7.072,6.789,5.278C4.937,3.522,3.34,2.007,0,2.007V0C4.139,0,6.283,2.03,8.17,3.821c1.855,1.759,3.452,3.274,6.792,3.274S19.9,5.58,21.75,3.821C23.637,2.03,25.781,0,29.92,0S36.2,2.03,38.093,3.821c1.852,1.759,3.449,3.274,6.789,3.274s4.937-1.514,6.792-3.274C53.56,2.03,55.7,0,59.843,0s6.283,2.03,8.17,3.821C69.867,5.58,71.464,7.094,74.8,7.094S79.742,5.58,81.6,3.821C83.486,2.03,85.627,0,89.769,0V2.007c-3.34,0-4.94,1.517-6.8,3.27C81.084,7.072,78.943,9.1,74.8,9.1" transform="translate(1.635 21.62)" fill="#efb499"/>
            <path id="Path_873377" data-name="Path 873377" d="M74.8,9.1c-4.139,0-6.283-2.03-8.169-3.824-1.855-1.756-3.452-3.27-6.792-3.27s-4.937,1.514-6.792,3.27C51.164,7.072,49.02,9.1,44.881,9.1s-6.283-2.03-8.17-3.824c-1.855-1.756-3.452-3.27-6.792-3.27s-4.937,1.517-6.789,3.27C21.241,7.072,19.1,9.1,14.962,9.1S8.678,7.072,6.789,5.278C4.937,3.522,3.34,2.007,0,2.007V0C4.139,0,6.283,2.03,8.169,3.821c1.851,1.759,3.452,3.274,6.792,3.274S19.9,5.58,21.75,3.821C23.637,2.03,25.781,0,29.92,0S36.2,2.03,38.093,3.821c1.852,1.759,3.449,3.274,6.789,3.274s4.937-1.514,6.792-3.274C53.56,2.03,55.7,0,59.843,0s6.283,2.03,8.17,3.821C69.867,5.58,71.464,7.094,74.8,7.094S79.742,5.58,81.6,3.821C83.486,2.03,85.624,0,89.769,0V2.007c-3.34,0-4.941,1.517-6.8,3.27C81.084,7.072,78.943,9.1,74.8,9.1" transform="translate(0.818 10.81)" fill="#efb499"/>
            <path id="Path_873378" data-name="Path 873378" d="M74.8,9.1c-4.139,0-6.28-2.03-8.17-3.821-1.855-1.756-3.452-3.27-6.792-3.27s-4.937,1.514-6.789,3.27C51.164,7.069,49.023,9.1,44.881,9.1s-6.28-2.03-8.169-3.821c-1.855-1.756-3.452-3.27-6.792-3.27s-4.937,1.514-6.789,3.267C21.245,7.069,19.1,9.1,14.962,9.1S8.678,7.069,6.789,5.278C4.937,3.522,3.34,2.007,0,2.007V0C4.139,0,6.283,2.03,8.17,3.821c1.855,1.756,3.452,3.27,6.792,3.27S19.9,5.577,21.75,3.821C23.64,2.03,25.781,0,29.92,0s6.28,2.03,8.173,3.821c1.852,1.756,3.449,3.27,6.789,3.27s4.937-1.514,6.792-3.27C53.563,2.03,55.7,0,59.843,0s6.28,2.03,8.17,3.821c1.855,1.756,3.452,3.27,6.792,3.27s4.937-1.514,6.792-3.27C83.486,2.03,85.627,0,89.769,0V2.007c-3.344,0-4.941,1.514-6.8,3.27C81.084,7.069,78.943,9.1,74.8,9.1" transform="translate(0 0.003)" fill="#efb499"/>
          </g>
        </g>
      </g>
      <circle id="Ellipse_11504" data-name="Ellipse 11504" cx="50.5" cy="50.5" r="50.5" transform="translate(402.668 6031)" fill="#ffce73"/>
      <circle id="Ellipse_11503" data-name="Ellipse 11503" cx="52.5" cy="52.5" r="52.5" transform="translate(395.668 6021)" fill="#f3f9ff"/>
    </g>
    <g id="Group_1118571" data-name="Group 1118571" transform="translate(402.904 981.018)">
      <g id="Group_1118568" data-name="Group 1118568" transform="translate(45.547 57.374)">
        <path id="Path_905719" data-name="Path 905719" d="M223.235,350.882h3.954a1.01,1.01,0,0,1,1.008,1.008v9.647a1.01,1.01,0,0,1-1.008,1.008h-3.954a1.01,1.01,0,0,1-1.008-1.008V351.89A1.01,1.01,0,0,1,223.235,350.882Z" transform="translate(-222.227 -325.278)" fill="#fe646f" fill-rule="evenodd"/>
        <path id="Path_905720" data-name="Path 905720" d="M249.826,350.882h1.008a1.01,1.01,0,0,1,1.008,1.008v9.647a1.01,1.01,0,0,1-1.008,1.008h-1.008a1.01,1.01,0,0,0,1.008-1.008V351.89A1.01,1.01,0,0,0,249.826,350.882Z" transform="translate(-245.872 -325.278)" fill="#fd4755" fill-rule="evenodd"/>
        <path id="Path_905721" data-name="Path 905721" d="M300.6,299.294h3.954a1.01,1.01,0,0,1,1.008,1.008V317.34a1.01,1.01,0,0,1-1.008,1.008H300.6a1.01,1.01,0,0,1-1.008-1.008V300.3A1.01,1.01,0,0,1,300.6,299.294Z" transform="translate(-288.511 -281.081)" fill="#ffe177" fill-rule="evenodd"/>
        <path id="Path_905722" data-name="Path 905722" d="M327.2,299.294H328.2a1.01,1.01,0,0,1,1.008,1.008V317.34a1.01,1.01,0,0,1-1.008,1.008H327.2a1.01,1.01,0,0,0,1.008-1.008V300.3A1.01,1.01,0,0,0,327.2,299.294Z" transform="translate(-312.156 -281.081)" fill="#ffd064" fill-rule="evenodd"/>
        <path id="Path_905723" data-name="Path 905723" d="M377.972,316.66h3.954a1.01,1.01,0,0,1,1.008,1.008v14.55a1.01,1.01,0,0,1-1.008,1.008h-3.954a1.01,1.01,0,0,1-1.008-1.008v-14.55A1.01,1.01,0,0,1,377.972,316.66Z" transform="translate(-354.795 -295.959)" fill="#6cf5c2" fill-rule="evenodd"/>
        <path id="Path_905724" data-name="Path 905724" d="M404.563,316.66h1.008a1.01,1.01,0,0,1,1.008,1.008v14.55a1.009,1.009,0,0,1-1.008,1.008h-1.008a1.01,1.01,0,0,0,1.008-1.008v-14.55A1.01,1.01,0,0,0,404.563,316.66Z" transform="translate(-378.44 -295.959)" fill="#00e499" fill-rule="evenodd"/>
        <path id="Path_905725" data-name="Path 905725" d="M455.339,244.637h3.954a1.01,1.01,0,0,1,1.008,1.008v24.869a1.01,1.01,0,0,1-1.008,1.008h-3.954a1.01,1.01,0,0,1-1.008-1.008V245.645A1.01,1.01,0,0,1,455.339,244.637Z" transform="translate(-421.078 -234.254)" fill="#8ac9fe" fill-rule="evenodd"/>
        <path id="Path_905726" data-name="Path 905726" d="M481.931,244.637h1.008a1.01,1.01,0,0,1,1.008,1.008v24.869a1.01,1.01,0,0,1-1.008,1.008h-1.008a1.01,1.01,0,0,0,1.008-1.008V245.645A1.01,1.01,0,0,0,481.931,244.637Z" transform="translate(-444.724 -234.254)" fill="#60b7ff" fill-rule="evenodd"/>
        <path id="Path_905727" data-name="Path 905727" d="M236.934,190.43a1.142,1.142,0,1,1-1.406-1.8L246.612,180a1.141,1.141,0,0,1,1.056-.186v0l10.383,3.369,8.377-8.449-.455.04a1.146,1.146,0,1,1-.2-2.283l3.608-.316a1.146,1.146,0,0,1,1.228,1.337l-.395,3.53a1.144,1.144,0,1,1-2.274-.251l.043-.38-8.769,8.844a1.144,1.144,0,0,1-1.2.323l-10.477-3.4Z" transform="translate(-233.246 -172.167)" fill="#a79ba7" fill-rule="evenodd"/>
      </g>
      <g id="Group_1118569" data-name="Group 1118569" transform="translate(16.002 59.514)">
        <path id="Path_905728" data-name="Path 905728" d="M79.241,360.464a13.031,13.031,0,0,0,2.2,2.42l-5.977,5.859L73.186,366.4Z" transform="translate(-64.993 -335.626)" fill="#a79ba7" fill-rule="evenodd"/>
        <path id="Path_905729" data-name="Path 905729" d="M87.523,373.7a1.5,1.5,0,0,0,.651.873l-5.938,5.9-.727-.8Z" transform="translate(-72.124 -346.964)" fill="#837683" fill-rule="evenodd"/>
        <path id="Path_905730" data-name="Path 905730" d="M18.9,402.3l-2.568-2.647a1.181,1.181,0,0,1,.025-1.665l7.113-6.9a1.181,1.181,0,0,1,1.665.025l2.568,2.647a1.181,1.181,0,0,1-.025,1.665l-7.113,6.9A1.181,1.181,0,0,1,18.9,402.3Z" transform="translate(-16.003 -361.575)" fill="#f1ba84" fill-rule="evenodd"/>
        <path id="Path_905731" data-name="Path 905731" d="M27.711,414.273l-7.113,6.9a1.181,1.181,0,0,1-1.665-.025L16.364,418.5a1.17,1.17,0,0,1-.223-.326,1.182,1.182,0,0,0,.192,1.378L18.9,422.2a1.181,1.181,0,0,0,1.665.025l7.113-6.9a1.182,1.182,0,0,0,.249-1.339A1.166,1.166,0,0,1,27.711,414.273Z" transform="translate(-16.002 -381.479)" fill="#e3a76f" fill-rule="evenodd"/>
        <circle id="Ellipse_11636" data-name="Ellipse 11636" cx="12.953" cy="12.953" r="12.953" transform="translate(5.631 18.315) rotate(-45)" fill="#8ac9fe"/>
        <path id="Path_905732" data-name="Path 905732" d="M179.436,224.542a12.953,12.953,0,1,1,0,25.905q-.316,0-.629-.015a12.953,12.953,0,0,0,0-25.875Q179.12,224.542,179.436,224.542Z" transform="translate(-155.482 -219.178)" fill="#60b7ff" fill-rule="evenodd"/>
        <circle id="Ellipse_11637" data-name="Ellipse 11637" cx="9.836" cy="9.836" r="9.836" transform="translate(10.037 18.315) rotate(-45)" fill="#eceff1"/>
        <path id="Path_905733" data-name="Path 905733" d="M124.375,246.294c.224,0,.445.008.665.023a9.836,9.836,0,0,0,0,19.627c-.22.015-.441.023-.665.023a9.836,9.836,0,0,1,0-19.673Z" transform="translate(-100.422 -237.813)" fill="#d1d1d6" fill-rule="evenodd"/>
      </g>
      <g id="Group_1118570" data-name="Group 1118570" transform="translate(28.94 38.178)">
        <path id="Path_905734" data-name="Path 905734" d="M128.7,38.178a22.4,22.4,0,0,1,22.388,21.629.747.747,0,0,1-.747.772h-7.891a.746.746,0,0,1-.746-.707,13.024,13.024,0,0,0-26.01,0,.746.746,0,0,1-.745.707h-7.891a.747.747,0,0,1-.747-.772A22.4,22.4,0,0,1,128.7,38.178Z" transform="translate(-106.308 -38.178)" fill="#6cf5c2" fill-rule="evenodd"/>
        <path id="Path_905735" data-name="Path 905735" d="M127.146,49.377l8.122,4.689a13.018,13.018,0,0,1,11.281-6.511V38.178a22.391,22.391,0,0,0-19.4,11.2Z" transform="translate(-124.16 -38.178)" fill="#00e499" fill-rule="evenodd"/>
        <path id="Path_905736" data-name="Path 905736" d="M184.387,41.177l4.689,8.122a13.039,13.039,0,0,1,13.026,0l4.689-8.122a22.43,22.43,0,0,0-22.405,0Z" transform="translate(-173.201 -38.179)" fill="#ffe177" fill-rule="evenodd"/>
        <path id="Path_905737" data-name="Path 905737" d="M262.579,38.178v9.377a13.018,13.018,0,0,1,11.281,6.511l8.123-4.689a22.391,22.391,0,0,0-19.4-11.2Z" transform="translate(-240.19 -38.178)" fill="#ffd064" fill-rule="evenodd"/>
        <path id="Path_905738" data-name="Path 905738" d="M312.729,59.1l-4.689,8.122a13.087,13.087,0,0,1,4.768,4.768,12.95,12.95,0,0,1,1.724,5.806.746.746,0,0,0,.745.707h7.891a.747.747,0,0,0,.747-.772A22.28,22.28,0,0,0,320.93,67.3,22.509,22.509,0,0,0,312.729,59.1Z" transform="translate(-279.138 -56.106)" fill="#fe646f" fill-rule="evenodd"/>
        <path id="Path_905739" data-name="Path 905739" d="M349.442,116.345l-8.122,4.689a12.951,12.951,0,0,1,1.724,5.806.746.746,0,0,0,.745.707h7.891a.747.747,0,0,0,.747-.772,22.279,22.279,0,0,0-2.985-10.431Z" transform="translate(-307.65 -105.146)" fill="#fd4755" fill-rule="evenodd"/>
        <path id="Path_905740" data-name="Path 905740" d="M256.537,158.753a1.146,1.146,0,0,1-1.621-1.621l4.973-4.973a1.146,1.146,0,0,1,1.621,1.621Z" transform="translate(-233.338 -135.541)" fill="#9facba" fill-rule="evenodd"/>
        <path id="Path_905741" data-name="Path 905741" d="M246.718,181.324a2.653,2.653,0,1,0-2.653-2.653A2.658,2.658,0,0,0,246.718,181.324Z" transform="translate(-224.329 -156.271)" fill="#9facba" fill-rule="evenodd"/>
        <path id="Path_905742" data-name="Path 905742" d="M260.126,176.02a2.653,2.653,0,1,1-.41,5.274,2.653,2.653,0,0,0,0-5.242A2.675,2.675,0,0,1,260.126,176.02Z" transform="translate(-237.737 -156.272)" fill="#8d9ca8" fill-rule="evenodd"/>
      </g>
    </g>
  </g>
</svg>
