<svg xmlns="http://www.w3.org/2000/svg" xmlns:xlink="http://www.w3.org/1999/xlink" width="139" height="139" viewBox="0 0 139 139">
  <defs>
    <clipPath id="clip-path">
      <rect id="Rectangle_400938" data-name="Rectangle 400938" width="139" height="139" transform="translate(-0.043 -0.043)" fill="none"/>
    </clipPath>
    <clipPath id="clip-path-2">
      <rect id="Rectangle_401073" data-name="Rectangle 401073" width="105.872" height="47.68" fill="#7d3a1b"/>
    </clipPath>
  </defs>
  <g id="Group_1118806" data-name="Group 1118806" transform="translate(-1150.156 -794.437)">
    <rect id="Rectangle_401103" data-name="Rectangle 401103" width="139" height="139" transform="translate(1150.156 794.437)" fill="none"/>
    <g id="Group_1099348" data-name="Group 1099348" transform="translate(1150.199 794.479)">
      <g id="Group_1099282" data-name="Group 1099282">
        <g id="Group_1099281" data-name="Group 1099281" clip-path="url(#clip-path-2)">
          <path id="Path_873375" data-name="Path 873375" d="M85.879,10.449c-4.752,0-7.21-2.33-9.379-4.386C74.371,4.047,72.538,2.3,68.7,2.3s-5.668,1.742-7.8,3.758c-2.17,2.056-4.624,4.386-9.379,4.386s-7.21-2.33-9.379-4.386C40.018,4.047,38.184,2.3,34.349,2.3s-5.668,1.742-7.794,3.758c-2.17,2.056-4.627,4.386-9.379,4.386S9.963,8.119,7.794,6.063C5.668,4.047,3.835,2.3,0,2.3V0C4.752,0,7.21,2.334,9.379,4.386c2.129,2.02,3.963,3.758,7.8,3.758s5.668-1.738,7.794-3.755C27.136,2.334,29.6,0,34.349,0s7.213,2.334,9.379,4.386c2.129,2.02,3.963,3.758,7.8,3.758s5.668-1.738,7.8-3.758C61.489,2.334,63.951,0,68.7,0s7.213,2.334,9.379,4.386c2.129,2.02,3.963,3.758,7.8,3.758s5.668-1.738,7.8-3.758C95.843,2.334,98.3,0,103.056,0V2.3c-3.835,0-5.668,1.742-7.8,3.758-2.169,2.056-4.627,4.386-9.379,4.386" transform="translate(2.816 37.231)" fill="#7d3a1b"/>
          <path id="Path_873376" data-name="Path 873376" d="M85.879,10.449c-4.752,0-7.213-2.33-9.379-4.39C74.371,4.043,72.538,2.3,68.7,2.3s-5.668,1.738-7.8,3.755c-2.166,2.06-4.624,4.39-9.379,4.39s-7.213-2.33-9.379-4.39C40.018,4.043,38.184,2.3,34.349,2.3s-5.668,1.742-7.794,3.755c-2.17,2.06-4.627,4.39-9.379,4.39s-7.213-2.33-9.383-4.39C5.668,4.043,3.835,2.3,0,2.3V0C4.752,0,7.213,2.33,9.379,4.386c2.129,2.02,3.963,3.758,7.8,3.758s5.668-1.738,7.794-3.758C27.136,2.33,29.6,0,34.349,0s7.213,2.33,9.383,4.386c2.126,2.02,3.959,3.758,7.794,3.758s5.668-1.738,7.8-3.758C61.489,2.33,63.951,0,68.7,0s7.213,2.33,9.379,4.386c2.129,2.02,3.963,3.758,7.8,3.758s5.668-1.738,7.8-3.758C95.846,2.33,98.3,0,103.059,0V2.3c-3.835,0-5.672,1.742-7.8,3.755-2.169,2.06-4.628,4.39-9.379,4.39" transform="translate(1.877 24.821)" fill="#7d3a1b"/>
          <path id="Path_873377" data-name="Path 873377" d="M85.879,10.449c-4.752,0-7.213-2.33-9.379-4.39C74.371,4.043,72.538,2.3,68.7,2.3s-5.668,1.738-7.8,3.755c-2.166,2.06-4.627,4.39-9.379,4.39s-7.213-2.33-9.379-4.39C40.018,4.043,38.184,2.3,34.349,2.3s-5.668,1.742-7.794,3.755c-2.169,2.06-4.627,4.39-9.379,4.39s-7.213-2.33-9.383-4.39C5.668,4.043,3.835,2.3,0,2.3V0C4.752,0,7.213,2.33,9.379,4.386c2.126,2.02,3.963,3.758,7.8,3.758s5.668-1.738,7.794-3.758C27.136,2.33,29.6,0,34.349,0s7.213,2.33,9.383,4.386c2.126,2.02,3.959,3.758,7.794,3.758s5.668-1.738,7.8-3.758C61.489,2.33,63.951,0,68.7,0s7.213,2.33,9.379,4.386c2.129,2.02,3.963,3.758,7.8,3.758s5.668-1.738,7.8-3.758C95.846,2.33,98.3,0,103.059,0V2.3c-3.835,0-5.672,1.742-7.8,3.755-2.169,2.06-4.627,4.39-9.379,4.39" transform="translate(0.939 12.41)" fill="#7d3a1b"/>
          <path id="Path_873378" data-name="Path 873378" d="M85.879,10.445c-4.752,0-7.21-2.33-9.379-4.386C74.371,4.043,72.538,2.3,68.7,2.3s-5.668,1.738-7.794,3.755c-2.169,2.056-4.627,4.386-9.383,4.386s-7.21-2.33-9.379-4.386C40.018,4.043,38.184,2.3,34.349,2.3s-5.668,1.738-7.794,3.751c-2.166,2.06-4.627,4.39-9.379,4.39S9.963,8.115,7.794,6.059C5.668,4.043,3.835,2.3,0,2.3V0C4.752,0,7.213,2.33,9.379,4.386c2.129,2.016,3.963,3.755,7.8,3.755S22.845,6.4,24.971,4.386C27.14,2.33,29.6,0,34.349,0s7.21,2.33,9.383,4.386c2.126,2.016,3.959,3.755,7.794,3.755s5.668-1.738,7.8-3.755C61.493,2.33,63.951,0,68.7,0s7.21,2.33,9.379,4.386c2.129,2.016,3.963,3.755,7.8,3.755s5.668-1.738,7.8-3.755C95.846,2.33,98.3,0,103.059,0V2.3c-3.839,0-5.672,1.738-7.8,3.755-2.169,2.056-4.627,4.386-9.379,4.386" transform="translate(0 0.004)" fill="#7d3a1b"/>
        </g>
      </g>
    </g>
    <path id="Path_873425" data-name="Path 873425" d="M57.977,0A57.977,57.977,0,1,1,0,57.977,57.977,57.977,0,0,1,57.977,0Z" transform="translate(1167.42 815.145)" fill="#ffb937"/>
    <circle id="Ellipse_11503" data-name="Ellipse 11503" cx="60.5" cy="60.5" r="60.5" transform="translate(1159.156 803)" fill="#fff"/>
    <g id="OUTLINE" transform="translate(1166.697 810.54)">
      <path id="Path_906027" data-name="Path 906027" d="M221.075,18.493a35.434,35.434,0,0,1,3.611.185l.255-2.48a37.84,37.84,0,0,0-10.312.356l.427,2.456a35.241,35.241,0,0,1,6.018-.517Z" transform="translate(-167.686 0)" fill="#6a4d23"/>
      <path id="Path_906028" data-name="Path 906028" d="M32.933,63.562,31.47,61.544a37.419,37.419,0,0,0-11.6,46.876l2.233-1.107A34.926,34.926,0,0,1,32.933,63.562Z" transform="translate(0 -38.449)" fill="#6a4d23"/>
      <path id="Path_906029" data-name="Path 906029" d="M263.729,470.7l.084,2.491a37.323,37.323,0,0,0,10.315-1.814l-.773-2.37A34.833,34.833,0,0,1,263.729,470.7Z" transform="translate(-209.136 -382.43)" fill="#6a4d23"/>
      <path id="Path_906030" data-name="Path 906030" d="M112,248h2.493v28.666H112Z" transform="translate(-81.045 -195.856)" fill="#6a4d23"/>
      <path id="Path_906031" data-name="Path 906031" d="M160,248h2.493v28.666H160Z" transform="translate(-121.567 -195.856)" fill="#6a4d23"/>
      <path id="Path_906032" data-name="Path 906032" d="M208,248h2.493v28.666H208Z" transform="translate(-162.089 -195.856)" fill="#6a4d23"/>
      <path id="Path_906033" data-name="Path 906033" d="M130.6,54.593,108.133,43.788a3.743,3.743,0,0,0-4.99,1.749L96.4,59.544V47.159a6.239,6.239,0,0,0-6.232-6.232H85.188V20.985a4.985,4.985,0,1,0-9.971,0V40.927H70.232A6.239,6.239,0,0,0,64,47.159v32.4a6.242,6.242,0,0,0,4.108,5.859A3.739,3.739,0,1,0,75,85.8H85.4a3.739,3.739,0,1,0,6.894-.373,6.255,6.255,0,0,0,3.952-4.477l17.6,8.466a1.245,1.245,0,0,0,1.663-.583l15.667-32.572a1.246,1.246,0,0,0-.583-1.663Zm-24.082-8.682a1.239,1.239,0,0,1,.538.123L128.393,56.3l-1.081,2.246-21.34-10.265a1.248,1.248,0,0,1-.583-1.662h0A1.248,1.248,0,0,1,106.514,45.911ZM77.71,20.985a2.493,2.493,0,1,1,4.985,0V40.927H77.71ZM72.724,87.041A1.246,1.246,0,1,1,71.478,85.8,1.246,1.246,0,0,1,72.724,87.041Zm16.2,1.246a1.246,1.246,0,1,1,1.246-1.246,1.246,1.246,0,0,1-1.246,1.246ZM90.173,83.3H70.232a3.743,3.743,0,0,1-3.739-3.739v-32.4a3.743,3.743,0,0,1,3.739-3.739h4.985v6.232H77.71V43.42H82.7v6.232h2.493V43.42h4.985a3.743,3.743,0,0,1,3.739,3.739V64.727l-4.276,8.889a3.739,3.739,0,0,0,1.749,4.99L93.9,79.817A3.743,3.743,0,0,1,90.173,83.3Zm23.633,3.322L92.466,76.36a1.246,1.246,0,0,1-.583-1.664l11.979-24.9a3.721,3.721,0,0,0,1.03.733l21.34,10.265Z" transform="translate(-40.523 0)" fill="#6a4d23"/>
      <path id="Path_906034" data-name="Path 906034" d="M316.648,278.567a8.724,8.724,0,1,0,4.08,11.644A8.724,8.724,0,0,0,316.648,278.567Zm2.261,9.386-2.235-1.075a12.111,12.111,0,0,0,.724-4.3l-.007-.432A6.254,6.254,0,0,1,318.91,287.953Zm-7.748,2.449-.328.254-.006-.415a9.615,9.615,0,0,1,.493-3.173l2.013.969A9.616,9.616,0,0,1,311.162,290.4Zm1.239-5.581a9.615,9.615,0,0,1,2.172-2.366l.328-.254.006.415a9.615,9.615,0,0,1-.493,3.174Zm.477-4.624c.17,0,.34.009.51.023l-.34.264a12.115,12.115,0,0,0-2.907,3.249l-2.232-1.074A6.252,6.252,0,0,1,312.877,280.2Zm-6.054,4.707,2.235,1.075a12.113,12.113,0,0,0-.724,4.3l.007.436A6.244,6.244,0,0,1,306.823,284.9Zm5.523,7.733.341-.264a12.115,12.115,0,0,0,2.907-3.249l2.235,1.075A6.254,6.254,0,0,1,312.346,292.638Z" transform="translate(-243.252 -220.932)" fill="#6a4d23"/>
      <path id="Path_906035" data-name="Path 906035" d="M0,0H2.493V12.463H0Z" transform="translate(57.483 76.254) rotate(-64.332)" fill="#6a4d23"/>
      <path id="Path_906036" data-name="Path 906036" d="M238.692,110.81a3.9,3.9,0,0,0-5.5,0,1.4,1.4,0,0,1-1.976,0l-.312-.312a8.748,8.748,0,0,0-12.356,0A3.577,3.577,0,0,1,216,111.553v2.493a6.054,6.054,0,0,0,4.309-1.785,6.252,6.252,0,0,1,8.831,0l.312.312a3.9,3.9,0,0,0,5.5,0,1.4,1.4,0,0,1,1.976,0l2.3,2.3a25.136,25.136,0,0,0,16.8,7.39,34.824,34.824,0,0,1,1.024,6.341l2.487-.169a37.04,37.04,0,0,0-3.871-14.184l-2.228,1.119a34.754,34.754,0,0,1,1.826,4.35,22.653,22.653,0,0,1-14.272-6.609Z" transform="translate(-168.842 -77.62)" fill="#6a4d23"/>
      <path id="Path_906037" data-name="Path 906037" d="M288.6,22.049l20.759,12.686a3.728,3.728,0,0,0,4.594-.546l4.844-4.844a1.246,1.246,0,0,0,0-1.763L316.3,25.089a1.247,1.247,0,0,0-1.573-.156l-3.048,2.032-5.69-3.794,2.948-3.931a1.246,1.246,0,0,0-.116-1.629l-1.246-1.246a1.246,1.246,0,0,0-1.439-.233l-6.866,3.433-2.307-1.384a6.223,6.223,0,0,0-7.613.937l-.987.987a1.246,1.246,0,0,0,.231,1.945Zm7.085-1.731,2.894,1.736a1.247,1.247,0,0,0,1.2.046l6.246-3.123-2.815,3.753a1.246,1.246,0,0,0,.306,1.785l7.478,4.985a1.247,1.247,0,0,0,1.383,0l2.889-1.926.889.889-3.963,3.963a1.243,1.243,0,0,1-1.531.182l-19.4-11.858A3.733,3.733,0,0,1,295.682,20.318Z" transform="translate(-229.625 0)" fill="#6a4d23"/>
    </g>
    <g id="Group_1118805" data-name="Group 1118805" transform="translate(833.156 -5598.564)">
      <g id="Group_1099389" data-name="Group 1099389" transform="translate(347.893 6422.307)">
        <rect id="Rectangle_401104" data-name="Rectangle 401104" width="78" height="79" transform="translate(0.107 0.256)" fill="none"/>
      </g>
    </g>
  </g>
</svg>
