<svg xmlns="http://www.w3.org/2000/svg" xmlns:xlink="http://www.w3.org/1999/xlink" width="120" height="120" viewBox="0 0 120 120">
  <defs>
    <clipPath id="clip-path">
      <rect id="Rectangle_400938" data-name="Rectangle 400938" width="120" height="120" transform="translate(0 0)" fill="none"/>
    </clipPath>
    <clipPath id="clip-path-2">
      <rect id="Rectangle_401073" data-name="Rectangle 401073" width="92.219" height="41.532" fill="#7d3a1b"/>
    </clipPath>
  </defs>
  <g id="Group_1118908" data-name="Group 1118908" transform="translate(-495 -1213)">
    <g id="Group_1099349" data-name="Group 1099349" transform="translate(107.332 -4800)">
      <rect id="Rectangle_401103" data-name="Rectangle 401103" width="120" height="120" transform="translate(387.668 6013)" fill="none"/>
      <g id="Group_1099348" data-name="Group 1099348" transform="translate(387.668 6013)">
        <g id="Group_1099282" data-name="Group 1099282">
          <g id="Group_1099281" data-name="Group 1099281" clip-path="url(#clip-path-2)">
            <path id="Path_873375" data-name="Path 873375" d="M74.8,9.1c-4.139,0-6.28-2.03-8.17-3.821-1.855-1.756-3.452-3.274-6.792-3.274s-4.937,1.517-6.792,3.274C51.161,7.072,49.023,9.1,44.881,9.1s-6.28-2.03-8.169-3.821C34.857,3.525,33.26,2.007,29.92,2.007s-4.937,1.517-6.789,3.274C21.241,7.072,19.1,9.1,14.962,9.1S8.679,7.072,6.789,5.281C4.937,3.525,3.34,2.007,0,2.007V0C4.139,0,6.28,2.033,8.17,3.821c1.855,1.759,3.452,3.274,6.792,3.274S19.9,5.58,21.75,3.824C23.637,2.033,25.781,0,29.92,0s6.283,2.033,8.17,3.821c1.855,1.759,3.452,3.274,6.792,3.274s4.937-1.514,6.792-3.274C53.56,2.033,55.7,0,59.843,0s6.283,2.033,8.17,3.821C69.867,5.58,71.464,7.094,74.8,7.094S79.742,5.58,81.6,3.821C83.483,2.033,85.624,0,89.766,0V2.007c-3.34,0-4.937,1.517-6.792,3.274C81.084,7.072,78.943,9.1,74.8,9.1" transform="translate(2.453 32.43)" fill="#7d3a1b"/>
            <path id="Path_873376" data-name="Path 873376" d="M74.8,9.1c-4.139,0-6.283-2.03-8.17-3.824-1.855-1.756-3.452-3.27-6.792-3.27s-4.937,1.514-6.792,3.27C51.164,7.072,49.023,9.1,44.881,9.1s-6.283-2.03-8.17-3.824c-1.855-1.756-3.452-3.27-6.792-3.27s-4.937,1.517-6.789,3.27C21.241,7.072,19.1,9.1,14.962,9.1S8.679,7.072,6.789,5.278C4.937,3.522,3.34,2.007,0,2.007V0C4.139,0,6.283,2.03,8.17,3.821c1.855,1.759,3.452,3.274,6.792,3.274S19.9,5.58,21.75,3.821C23.637,2.03,25.781,0,29.92,0S36.2,2.03,38.093,3.821c1.852,1.759,3.449,3.274,6.789,3.274s4.937-1.514,6.792-3.274C53.56,2.03,55.7,0,59.843,0s6.283,2.03,8.17,3.821C69.867,5.58,71.464,7.094,74.8,7.094S79.742,5.58,81.6,3.821C83.486,2.03,85.627,0,89.769,0V2.007c-3.34,0-4.94,1.517-6.8,3.27C81.084,7.072,78.943,9.1,74.8,9.1" transform="translate(1.635 21.62)" fill="#7d3a1b"/>
            <path id="Path_873377" data-name="Path 873377" d="M74.8,9.1c-4.139,0-6.283-2.03-8.169-3.824-1.855-1.756-3.452-3.27-6.792-3.27s-4.937,1.514-6.792,3.27C51.164,7.072,49.02,9.1,44.881,9.1s-6.283-2.03-8.17-3.824c-1.855-1.756-3.452-3.27-6.792-3.27s-4.937,1.517-6.789,3.27C21.241,7.072,19.1,9.1,14.962,9.1S8.678,7.072,6.789,5.278C4.937,3.522,3.34,2.007,0,2.007V0C4.139,0,6.283,2.03,8.169,3.821c1.851,1.759,3.452,3.274,6.792,3.274S19.9,5.58,21.75,3.821C23.637,2.03,25.781,0,29.92,0S36.2,2.03,38.093,3.821c1.852,1.759,3.449,3.274,6.789,3.274s4.937-1.514,6.792-3.274C53.56,2.03,55.7,0,59.843,0s6.283,2.03,8.17,3.821C69.867,5.58,71.464,7.094,74.8,7.094S79.742,5.58,81.6,3.821C83.486,2.03,85.624,0,89.769,0V2.007c-3.34,0-4.941,1.517-6.8,3.27C81.084,7.072,78.943,9.1,74.8,9.1" transform="translate(0.818 10.81)" fill="#7d3a1b"/>
            <path id="Path_873378" data-name="Path 873378" d="M74.8,9.1c-4.139,0-6.28-2.03-8.17-3.821-1.855-1.756-3.452-3.27-6.792-3.27s-4.937,1.514-6.789,3.27C51.164,7.069,49.023,9.1,44.881,9.1s-6.28-2.03-8.169-3.821c-1.855-1.756-3.452-3.27-6.792-3.27s-4.937,1.514-6.789,3.267C21.245,7.069,19.1,9.1,14.962,9.1S8.678,7.069,6.789,5.278C4.937,3.522,3.34,2.007,0,2.007V0C4.139,0,6.283,2.03,8.17,3.821c1.855,1.756,3.452,3.27,6.792,3.27S19.9,5.577,21.75,3.821C23.64,2.03,25.781,0,29.92,0s6.28,2.03,8.173,3.821c1.852,1.756,3.449,3.27,6.789,3.27s4.937-1.514,6.792-3.27C53.563,2.03,55.7,0,59.843,0s6.28,2.03,8.17,3.821c1.855,1.756,3.452,3.27,6.792,3.27s4.937-1.514,6.792-3.27C83.486,2.03,85.627,0,89.769,0V2.007c-3.344,0-4.941,1.514-6.8,3.27C81.084,7.069,78.943,9.1,74.8,9.1" transform="translate(0 0.003)" fill="#7d3a1b"/>
          </g>
        </g>
      </g>
      <circle id="Ellipse_11504" data-name="Ellipse 11504" cx="50" cy="50" r="50" transform="translate(402.668 6031)" fill="#efb499"/>
      <circle id="Ellipse_11503" data-name="Ellipse 11503" cx="52" cy="52" r="52" transform="translate(395.668 6021)" fill="#f3f9ff"/>
    </g>
    <g id="Group_1118617" data-name="Group 1118617" transform="translate(519.975 1238.49)">
      <g id="Group_1118596" data-name="Group 1118596" transform="translate(0.007 34.508)">
        <path id="Path_905848" data-name="Path 905848" d="M17.261,290.5a17.2,17.2,0,0,0,12.506-5.4l5.177-19.136-14.057-9.975H17.261a17.256,17.256,0,0,0,0,34.512Z" transform="translate(-0.007 -255.986)" fill="#fec165" fill-rule="evenodd"/>
      </g>
      <g id="Group_1118597" data-name="Group 1118597" transform="translate(10.732 45.237)">
        <path id="Path_905849" data-name="Path 905849" d="M86.092,348.628a6.527,6.527,0,1,1,6.525-6.529A6.536,6.536,0,0,1,86.092,348.628Zm0-10.971a4.444,4.444,0,1,0,4.442,4.442A4.449,4.449,0,0,0,86.092,337.657Z" transform="translate(-79.563 -335.574)" fill="#2b4d66"/>
      </g>
      <g id="Group_1118598" data-name="Group 1118598" transform="translate(0.007 45.472)">
        <path id="Path_905850" data-name="Path 905850" d="M17.261,360.863a17.2,17.2,0,0,0,12.506-5.4l2.311-2.637-2.311-2.716A17.231,17.231,0,0,1,1.2,337.314,17.079,17.079,0,0,0,.007,343.6,17.306,17.306,0,0,0,17.261,360.863Z" transform="translate(-0.007 -337.314)" fill="#fdb441" fill-rule="evenodd"/>
      </g>
      <g id="Group_1118599" data-name="Group 1118599" transform="translate(35.404 34.508)">
        <path id="Path_905851" data-name="Path 905851" d="M296.208,273.239a17.309,17.309,0,0,0-17.258-17.254h-3.626c-3.488.6-8.881,2.733-12.738,13.6l2.019,5.072h.417a1.422,1.422,0,0,1,1.421,1.417V285.1a17.207,17.207,0,0,0,12.471,5.4h.075A17.309,17.309,0,0,0,296.208,273.239Z" transform="translate(-262.587 -255.985)" fill="#eb5468" fill-rule="evenodd"/>
      </g>
      <path id="Path_905852" data-name="Path 905852" d="M360.893,335.573h-6.058a1.042,1.042,0,0,0,0,2.083h1.974v9.93a1.042,1.042,0,0,0,2.083,0v-9.93h2a1.042,1.042,0,0,0,0-2.083Z" transform="translate(-306.094 -290.336)" fill="#2b4d66"/>
      <g id="Group_1118600" data-name="Group 1118600" transform="translate(37.25 45.472)">
        <path id="Path_905853" data-name="Path 905853" d="M278.292,351.122l-2.012,1.7,2.012,2.637a17.218,17.218,0,0,0,12.506,5.4h.039A17.309,17.309,0,0,0,308.055,343.6a17.082,17.082,0,0,0-1.2-6.291c.016.276.02.551.02.827C306.878,353.275,289.176,360.641,278.292,351.122Z" transform="translate(-276.28 -337.312)" fill="#e5384f" fill-rule="evenodd"/>
      </g>
      <g id="Group_1118601" data-name="Group 1118601" transform="translate(34.514 0)">
        <path id="Path_905854" data-name="Path 905854" d="M273.239,34.508a17.254,17.254,0,1,0-17.254-17.254V20.88c2.586,10.853,6.112,12.381,13.628,13.629h3.626Z" transform="translate(-255.985 0)" fill="#f5a96c" fill-rule="evenodd"/>
      </g>
      <g id="Group_1118602" data-name="Group 1118602" transform="translate(43.141 10.737)">
        <path id="Path_905855" data-name="Path 905855" d="M324.746,92.682h-.006a1.042,1.042,0,0,1-.979-.7l-3.728-10.857a1.042,1.042,0,0,1,1.97-.676l2.761,8.042,2.905-8.148a1.042,1.042,0,0,1,.981-.692h.007a1.042,1.042,0,0,1,.979.705l2.763,8.1,2.811-8.025a1.042,1.042,0,1,1,1.966.689l-3.807,10.869a1.042,1.042,0,0,1-.983.7h0a1.042,1.042,0,0,1-.982-.705l-2.772-8.126-2.9,8.139A1.041,1.041,0,0,1,324.746,92.682Z" transform="translate(-319.976 -79.647)" fill="#2b4d66"/>
      </g>
      <g id="Group_1118603" data-name="Group 1118603" transform="translate(45.257 14.475)">
        <path id="Path_905856" data-name="Path 905856" d="M342.185,127.408a17.306,17.306,0,0,0,17.258-17.254,17.508,17.508,0,0,0-.224-2.779,17.252,17.252,0,0,1-22.229,13.676c-2.338,3.063-1.4,5.1,1.571,6.358h3.626Z" transform="translate(-335.673 -107.375)" fill="#ea9a58" fill-rule="evenodd"/>
      </g>
      <g id="Group_1118604" data-name="Group 1118604" transform="translate(0.007)">
        <path id="Path_905857" data-name="Path 905857" d="M.007,17.29A17.3,17.3,0,0,0,17.261,34.508h3.625L34.514,20.88V17.254A17.254,17.254,0,0,0,.007,17.219v.071Z" transform="translate(-0.007)" fill="#3bc3a4" fill-rule="evenodd"/>
      </g>
      <g id="Group_1118605" data-name="Group 1118605" transform="translate(12.657 10.727)">
        <path id="Path_905858" data-name="Path 905858" d="M98.707,92.623a6.262,6.262,0,0,1-4.595-1.968,1.042,1.042,0,0,1,1.544-1.4,4.149,4.149,0,0,0,3.05,1.283,2.182,2.182,0,0,0,2.242-1.52c.133-.746-.468-1.423-1.649-1.858-1.691-.623-3.194-1.293-3.258-1.322a1.042,1.042,0,0,1-.144-.079,3.16,3.16,0,0,1-1.407-3.13,3.532,3.532,0,0,1,2.566-2.846,6.055,6.055,0,0,1,5.261,1.156,1.042,1.042,0,0,1-1.336,1.6,4,4,0,0,0-3.326-.76,1.457,1.457,0,0,0-1.1,1.148,1.083,1.083,0,0,0,.425,1.048c.34.15,1.642.715,3.042,1.231,2.577.948,3.229,2.78,2.98,4.178A4.25,4.25,0,0,1,98.707,92.623Z" transform="translate(-93.843 -79.571)" fill="#2b4d66"/>
      </g>
      <g id="Group_1118606" data-name="Group 1118606" transform="translate(0.007 14.475)">
        <path id="Path_905859" data-name="Path 905859" d="M20.886,127.409c2.256-1.327,2.933-3.445,1.575-6.358A17.252,17.252,0,0,1,.231,107.376a17.06,17.06,0,0,0-.224,2.744v.071a17.3,17.3,0,0,0,17.254,17.219h3.626Z" transform="translate(-0.007 -107.376)" fill="#00a887" fill-rule="evenodd"/>
      </g>
      <g id="Group_1118607" data-name="Group 1118607" transform="translate(31.605 46.436)">
        <path id="Path_905860" data-name="Path 905860" d="M234.406,352.6h5.818v-8.129a13.761,13.761,0,0,1-5.818,0Z" transform="translate(-234.406 -344.468)" fill="#eff6ff" fill-rule="evenodd"/>
      </g>
      <g id="Group_1118608" data-name="Group 1118608" transform="translate(34.522 46.436)">
        <path id="Path_905861" data-name="Path 905861" d="M258.945,352.6v-8.129a13.531,13.531,0,0,1-2.9.311V352.6h2.9Z" transform="translate(-256.044 -344.468)" fill="#d9eeff" fill-rule="evenodd"/>
      </g>
      <g id="Group_1118609" data-name="Group 1118609" transform="translate(26.118 26.111)">
        <path id="Path_905862" data-name="Path 905862" d="M210.493,202.094a8.4,8.4,0,1,0-8.4,8.4A8.4,8.4,0,0,0,210.493,202.094Z" transform="translate(-193.7 -193.697)" fill="#9fd4fe" fill-rule="evenodd"/>
      </g>
      <g id="Group_1118610" data-name="Group 1118610" transform="translate(20.886 20.88)">
        <path id="Path_905863" data-name="Path 905863" d="M182.146,168.516a13.612,13.612,0,1,0-10.719,13.318,13.628,13.628,0,0,0,10.719-13.318Zm-13.628-8.4a8.4,8.4,0,1,1-8.4,8.4,8.4,8.4,0,0,1,8.4-8.4Z" transform="translate(-154.89 -154.887)" fill="#375e7d" fill-rule="evenodd"/>
      </g>
      <g id="Group_1118611" data-name="Group 1118611" transform="translate(29.428 26.304)">
        <path id="Path_905864" data-name="Path 905864" d="M223.343,211.729a8.4,8.4,0,0,0,1.791-16.6,8.4,8.4,0,0,1-5.086,15.077c-.232,0-.461-.008-.689-.028a8.456,8.456,0,0,1-1.1-.165,8.313,8.313,0,0,0,5.086,1.716Z" transform="translate(-218.257 -195.128)" fill="#85beef" fill-rule="evenodd"/>
      </g>
      <g id="Group_1118612" data-name="Group 1118612" transform="translate(26.472 20.978)">
        <path id="Path_905865" data-name="Path 905865" d="M207.278,182.466a13.63,13.63,0,0,0-1.271-26.848,13.638,13.638,0,0,1,5.444,9.015,8.4,8.4,0,0,1-5,12.652,13.55,13.55,0,0,1-8.487,2.964,14.083,14.083,0,0,1-1.638-.094,13.564,13.564,0,0,0,7.487,2.61q.277.012.555.012A13.613,13.613,0,0,0,207.278,182.466Z" transform="translate(-196.326 -155.618)" fill="#2b4d66" fill-rule="evenodd"/>
      </g>
      <g id="Group_1118613" data-name="Group 1118613" transform="translate(29.767 53.18)">
        <path id="Path_905866" data-name="Path 905866" d="M220.768,399.573l4.976,2.134,4.519-2.134v-3.665a1.422,1.422,0,0,0-1.421-1.417h-6.653a1.425,1.425,0,0,0-1.421,1.417v3.665Z" transform="translate(-220.768 -394.491)" fill="#9fd4fe" fill-rule="evenodd"/>
      </g>
      <g id="Group_1118614" data-name="Group 1118614" transform="translate(29.767 58.262)">
        <path id="Path_905867" data-name="Path 905867" d="M225.516,442.714a4.761,4.761,0,0,0,4.747-4.748v-5.775h-9.495v5.775A4.76,4.76,0,0,0,225.516,442.714Z" transform="translate(-220.769 -432.191)" fill="#375e7d" fill-rule="evenodd"/>
      </g>
      <g id="Group_1118615" data-name="Group 1118615" transform="translate(34.939 53.18)">
        <path id="Path_905868" data-name="Path 905868" d="M263.461,399.573v-3.665a1.422,1.422,0,0,0-1.421-1.417h-2.9a1.425,1.425,0,0,1,1.421,1.417v5.035Z" transform="translate(-259.139 -394.491)" fill="#85beef" fill-rule="evenodd"/>
      </g>
      <g id="Group_1118616" data-name="Group 1118616" transform="translate(33.066 58.262)">
        <path id="Path_905869" data-name="Path 905869" d="M251.436,437.549v-5.358h-2.9v5.775a4.764,4.764,0,0,1-3.295,4.519,4.648,4.648,0,0,0,1.449.228,4.761,4.761,0,0,0,4.747-4.748v-.417Z" transform="translate(-245.24 -432.191)" fill="#2b4d66" fill-rule="evenodd"/>
      </g>
    </g>
  </g>
</svg>
