<svg xmlns="http://www.w3.org/2000/svg" xmlns:xlink="http://www.w3.org/1999/xlink" width="121" height="121" viewBox="0 0 121 121">
  <defs>
    <clipPath id="clip-path">
      <rect id="Rectangle_400938" data-name="Rectangle 400938" width="121" height="121" transform="translate(0 0)" fill="none"/>
    </clipPath>
    <clipPath id="clip-path-2">
      <rect id="Rectangle_401073" data-name="Rectangle 401073" width="92.219" height="41.532" fill="#efb499"/>
    </clipPath>
  </defs>
  <g id="Group_1118811" data-name="Group 1118811" transform="translate(-1095.899 -991.768)">
    <g id="Group_1099376" data-name="Group 1099376" transform="translate(708.231 -5021.232)">
      <rect id="Rectangle_401103" data-name="Rectangle 401103" width="121" height="121" transform="translate(387.668 6013)" fill="none"/>
      <g id="Group_1099348" data-name="Group 1099348" transform="translate(387.668 6013)">
        <g id="Group_1099282" data-name="Group 1099282">
          <g id="Group_1099281" data-name="Group 1099281" clip-path="url(#clip-path-2)">
            <path id="Path_873375" data-name="Path 873375" d="M74.8,9.1c-4.139,0-6.28-2.03-8.17-3.821-1.855-1.756-3.452-3.274-6.792-3.274s-4.937,1.517-6.792,3.274C51.161,7.072,49.023,9.1,44.881,9.1s-6.28-2.03-8.169-3.821C34.857,3.525,33.26,2.007,29.92,2.007s-4.937,1.517-6.789,3.274C21.241,7.072,19.1,9.1,14.962,9.1S8.679,7.072,6.789,5.281C4.937,3.525,3.34,2.007,0,2.007V0C4.139,0,6.28,2.033,8.17,3.821c1.855,1.759,3.452,3.274,6.792,3.274S19.9,5.58,21.75,3.824C23.637,2.033,25.781,0,29.92,0s6.283,2.033,8.17,3.821c1.855,1.759,3.452,3.274,6.792,3.274s4.937-1.514,6.792-3.274C53.56,2.033,55.7,0,59.843,0s6.283,2.033,8.17,3.821C69.867,5.58,71.464,7.094,74.8,7.094S79.742,5.58,81.6,3.821C83.483,2.033,85.624,0,89.766,0V2.007c-3.34,0-4.937,1.517-6.792,3.274C81.084,7.072,78.943,9.1,74.8,9.1" transform="translate(2.453 32.43)" fill="#efb499"/>
            <path id="Path_873376" data-name="Path 873376" d="M74.8,9.1c-4.139,0-6.283-2.03-8.17-3.824-1.855-1.756-3.452-3.27-6.792-3.27s-4.937,1.514-6.792,3.27C51.164,7.072,49.023,9.1,44.881,9.1s-6.283-2.03-8.17-3.824c-1.855-1.756-3.452-3.27-6.792-3.27s-4.937,1.517-6.789,3.27C21.241,7.072,19.1,9.1,14.962,9.1S8.679,7.072,6.789,5.278C4.937,3.522,3.34,2.007,0,2.007V0C4.139,0,6.283,2.03,8.17,3.821c1.855,1.759,3.452,3.274,6.792,3.274S19.9,5.58,21.75,3.821C23.637,2.03,25.781,0,29.92,0S36.2,2.03,38.093,3.821c1.852,1.759,3.449,3.274,6.789,3.274s4.937-1.514,6.792-3.274C53.56,2.03,55.7,0,59.843,0s6.283,2.03,8.17,3.821C69.867,5.58,71.464,7.094,74.8,7.094S79.742,5.58,81.6,3.821C83.486,2.03,85.627,0,89.769,0V2.007c-3.34,0-4.94,1.517-6.8,3.27C81.084,7.072,78.943,9.1,74.8,9.1" transform="translate(1.635 21.62)" fill="#efb499"/>
            <path id="Path_873377" data-name="Path 873377" d="M74.8,9.1c-4.139,0-6.283-2.03-8.169-3.824-1.855-1.756-3.452-3.27-6.792-3.27s-4.937,1.514-6.792,3.27C51.164,7.072,49.02,9.1,44.881,9.1s-6.283-2.03-8.17-3.824c-1.855-1.756-3.452-3.27-6.792-3.27s-4.937,1.517-6.789,3.27C21.241,7.072,19.1,9.1,14.962,9.1S8.678,7.072,6.789,5.278C4.937,3.522,3.34,2.007,0,2.007V0C4.139,0,6.283,2.03,8.169,3.821c1.851,1.759,3.452,3.274,6.792,3.274S19.9,5.58,21.75,3.821C23.637,2.03,25.781,0,29.92,0S36.2,2.03,38.093,3.821c1.852,1.759,3.449,3.274,6.789,3.274s4.937-1.514,6.792-3.274C53.56,2.03,55.7,0,59.843,0s6.283,2.03,8.17,3.821C69.867,5.58,71.464,7.094,74.8,7.094S79.742,5.58,81.6,3.821C83.486,2.03,85.624,0,89.769,0V2.007c-3.34,0-4.941,1.517-6.8,3.27C81.084,7.072,78.943,9.1,74.8,9.1" transform="translate(0.818 10.81)" fill="#efb499"/>
            <path id="Path_873378" data-name="Path 873378" d="M74.8,9.1c-4.139,0-6.28-2.03-8.17-3.821-1.855-1.756-3.452-3.27-6.792-3.27s-4.937,1.514-6.789,3.27C51.164,7.069,49.023,9.1,44.881,9.1s-6.28-2.03-8.169-3.821c-1.855-1.756-3.452-3.27-6.792-3.27s-4.937,1.514-6.789,3.267C21.245,7.069,19.1,9.1,14.962,9.1S8.678,7.069,6.789,5.278C4.937,3.522,3.34,2.007,0,2.007V0C4.139,0,6.283,2.03,8.17,3.821c1.855,1.756,3.452,3.27,6.792,3.27S19.9,5.577,21.75,3.821C23.64,2.03,25.781,0,29.92,0s6.28,2.03,8.173,3.821c1.852,1.756,3.449,3.27,6.789,3.27s4.937-1.514,6.792-3.27C53.563,2.03,55.7,0,59.843,0s6.28,2.03,8.17,3.821c1.855,1.756,3.452,3.27,6.792,3.27s4.937-1.514,6.792-3.27C83.486,2.03,85.627,0,89.769,0V2.007c-3.344,0-4.941,1.514-6.8,3.27C81.084,7.069,78.943,9.1,74.8,9.1" transform="translate(0 0.003)" fill="#efb499"/>
          </g>
        </g>
      </g>
      <circle id="Ellipse_11504" data-name="Ellipse 11504" cx="50.5" cy="50.5" r="50.5" transform="translate(402.668 6031)" fill="#ffce73"/>
      <circle id="Ellipse_11503" data-name="Ellipse 11503" cx="52.5" cy="52.5" r="52.5" transform="translate(395.668 6021)" fill="#f3f9ff"/>
    </g>
    <g id="Layer_x0020_1" transform="translate(1124.92 955.484)">
      <g id="_1810695528576" transform="translate(0.08 72.13)">
        <path id="Path_906216" data-name="Path 906216" d="M370.77,145.8a19.922,19.922,0,0,1,7.59,28.331l-7.912-1.272-9.688-9.091,5.96-10.7Z" transform="translate(-311.362 -135.71)" fill="#7dd63e" fill-rule="evenodd"/>
        <g id="Group_1118758" data-name="Group 1118758" transform="translate(0 0)">
          <path id="Path_906217" data-name="Path 906217" d="M41.573,110.306H3.1A3.022,3.022,0,0,1,.08,107.287V75.149A3.022,3.022,0,0,1,3.1,72.13H41.573a3.022,3.022,0,0,1,3.019,3.019v32.139A3.022,3.022,0,0,1,41.573,110.306Z" transform="translate(-0.08 -72.13)" fill="#488bd9" fill-rule="evenodd"/>
          <path id="Path_906218" data-name="Path 906218" d="M247.317,118.253h-5.095a.781.781,0,1,1,0-1.563h5.095a.781.781,0,0,1,0,1.563Z" transform="translate(-208.384 -110.587)" fill="#acd2fb" fill-rule="evenodd"/>
          <path id="Path_906219" data-name="Path 906219" d="M38.435,104.769a3.325,3.325,0,1,1,3.324-3.325A3.329,3.329,0,0,1,38.435,104.769Z" transform="translate(-30.312 -94.56)" fill="#4affa8" fill-rule="evenodd"/>
          <path id="Path_906220" data-name="Path 906220" d="M117.777,118.253h-5.095a.781.781,0,1,1,0-1.563h5.095a.781.781,0,0,1,0,1.563Z" transform="translate(-96.585 -110.587)" fill="#acd2fb" fill-rule="evenodd"/>
          <path id="Path_906221" data-name="Path 906221" d="M182.547,118.253h-5.1a.781.781,0,0,1,0-1.563h5.1a.781.781,0,0,1,0,1.563Z" transform="translate(-152.485 -110.587)" fill="#acd2fb" fill-rule="evenodd"/>
          <path id="Path_906222" data-name="Path 906222" d="M247.317,207.354h-5.095a.782.782,0,1,1,0-1.564h5.095a.782.782,0,0,1,0,1.564Z" transform="translate(-208.384 -187.484)" fill="#acd2fb" fill-rule="evenodd"/>
          <path id="Path_906223" data-name="Path 906223" d="M38.435,193.878a3.324,3.324,0,1,1,3.324-3.324A3.328,3.328,0,0,1,38.435,193.878Z" transform="translate(-30.312 -171.466)" fill="#4affa8" fill-rule="evenodd"/>
          <g id="Group_1118757" data-name="Group 1118757" transform="translate(15.315 18.306)">
            <path id="Path_906224" data-name="Path 906224" d="M117.777,207.354h-5.095a.782.782,0,1,1,0-1.564h5.095a.782.782,0,0,1,0,1.564Z" transform="translate(-111.9 -205.79)" fill="#acd2fb" fill-rule="evenodd"/>
            <path id="Path_906225" data-name="Path 906225" d="M182.547,207.354h-5.1a.782.782,0,0,1,0-1.564h5.1a.782.782,0,0,1,0,1.564Z" transform="translate(-167.799 -205.79)" fill="#acd2fb" fill-rule="evenodd"/>
            <path id="Path_906226" data-name="Path 906226" d="M117.777,296.473h-5.095a.781.781,0,1,1,0-1.563h5.095a.781.781,0,0,1,0,1.563Z" transform="translate(-111.9 -282.704)" fill="#acd2fb" fill-rule="evenodd"/>
            <path id="Path_906227" data-name="Path 906227" d="M182.547,296.473h-5.1a.781.781,0,0,1,0-1.563h5.1a.781.781,0,0,1,0,1.563Z" transform="translate(-167.799 -282.704)" fill="#acd2fb" fill-rule="evenodd"/>
            <path id="Path_906228" data-name="Path 906228" d="M247.317,296.473h-5.095a.781.781,0,1,1,0-1.563h5.095a.781.781,0,0,1,0,1.563Z" transform="translate(-223.698 -282.704)" fill="#acd2fb" fill-rule="evenodd"/>
          </g>
          <path id="Path_906229" data-name="Path 906229" d="M38.435,282.988a3.324,3.324,0,1,1,3.324-3.324A3.328,3.328,0,0,1,38.435,282.988Z" transform="translate(-30.312 -248.372)" fill="#4affa8" fill-rule="evenodd"/>
          <path id="Path_906230" data-name="Path 906230" d="M44.591,84.334V75.149a3.022,3.022,0,0,0-3.019-3.019H3.1A3.022,3.022,0,0,0,.08,75.149v9.186ZM11.527,79.014A3.325,3.325,0,1,1,8.2,75.69,3.328,3.328,0,0,1,11.527,79.014Zm27.486.782H33.918a.781.781,0,1,1,0-1.563h5.095a.781.781,0,0,1,0,1.563Zm-8.871,0h-5.1a.781.781,0,0,1,0-1.563h5.1a.781.781,0,0,1,0,1.563Zm-8.871,0H16.177a.781.781,0,1,1,0-1.563h5.095a.781.781,0,0,1,0,1.563Z" transform="translate(-0.08 -72.13)" fill="#529ffb" fill-rule="evenodd"/>
          <path id="Path_906231" data-name="Path 906231" d="M44.591,261.76H.08v9.186A3.022,3.022,0,0,0,3.1,273.964H41.573a3.022,3.022,0,0,0,3.019-3.019ZM30.142,266.3a.781.781,0,0,1,0,1.563h-5.1a.781.781,0,0,1,0-1.563Zm-8.09.781a.781.781,0,0,1-.781.782H16.177a.781.781,0,1,1,0-1.563h5.095A.78.78,0,0,1,22.052,267.081Zm-10.525,0A3.325,3.325,0,1,1,8.2,263.757a3.327,3.327,0,0,1,3.324,3.324Zm27.486-.781a.781.781,0,0,1,0,1.563H33.918a.781.781,0,1,1,0-1.563Z" transform="translate(-0.08 -235.789)" fill="#529ffb" fill-rule="evenodd"/>
        </g>
        <path id="Path_906232" data-name="Path 906232" d="M247.254,385.042h-5.432a.821.821,0,1,1,0-1.642h5.432a.821.821,0,1,1,0,1.642Z" transform="translate(-208.004 -340.769)" fill-rule="evenodd"/>
        <path id="Path_906233" data-name="Path 906233" d="M42.593,352.746H2.08a2,2,0,0,1-2-2v-9.824a2,2,0,0,1,2-2H33.71a.824.824,0,0,1,.709.408,18.364,18.364,0,0,0,9.63,8.027.82.82,0,0,1,.544.772v2.617A2,2,0,0,1,42.593,352.746Z" transform="translate(-0.08 -302.381)" fill="#488bd9" fill-rule="evenodd"/>
        <path id="Path_906234" data-name="Path 906234" d="M38.4,371.581a3.36,3.36,0,1,1,3.36-3.361A3.365,3.365,0,0,1,38.4,371.581Z" transform="translate(-30.252 -324.768)" fill="#4affa8" fill-rule="evenodd"/>
        <path id="Path_906235" data-name="Path 906235" d="M117.6,385.042h-5.085a.821.821,0,1,1,0-1.642H117.6a.821.821,0,1,1,0,1.642Z" transform="translate(-96.404 -340.769)" fill="#acd2fb" fill-rule="evenodd"/>
        <path id="Path_906236" data-name="Path 906236" d="M182.248,385.042h-5.087a.821.821,0,1,1,0-1.642h5.087a.821.821,0,0,1,0,1.642Z" transform="translate(-152.2 -340.769)" fill="#acd2fb" fill-rule="evenodd"/>
        <path id="Path_906237" data-name="Path 906237" d="M220.8,148.5a19.964,19.964,0,0,1,19.932-19.34c.168,0,.337,0,.505.005h.018c.166,0,.33.011.494.019h.012c.166.008.331.019.5.032h.008c.167.012.334.027.5.044h0c.16.016.322.036.482.056l.032,0c.156.019.314.041.468.066l.021,0c.159.025.316.051.474.078l.011,0h0q.234.043.468.09l.033.007c.151.032.3.063.449.1l.032.008c.149.034.3.071.446.11l.034.008c.145.037.289.077.433.118l.064.018.39.116.081.025c.127.041.255.082.381.125l.089.03c.121.041.24.084.359.126l.125.047c.105.038.211.079.316.121l.136.053c.1.041.207.084.31.126l.17.073c.084.037.168.073.252.111l.205.092.207.1.308.149.068.034c.121.062.242.123.362.186l-10.01,17.968-5.748,5.046Z" transform="translate(-190.571 -121.349)" fill="#ffdb46" fill-rule="evenodd"/>
        <path id="Path_906238" data-name="Path 906238" d="M240.671,290.911a19.962,19.962,0,0,1-19.941-19.94l.01-.6,19.169.907,17.6,10.364A19.941,19.941,0,0,1,240.671,290.911Z" transform="translate(-190.51 -243.219)" fill="#ff5959" fill-rule="evenodd"/>
      </g>
    </g>
  </g>
</svg>
