<svg xmlns="http://www.w3.org/2000/svg" xmlns:xlink="http://www.w3.org/1999/xlink" width="120" height="120" viewBox="0 0 120 120">
  <defs>
    <clipPath id="clip-path">
      <rect id="Rectangle_400938" data-name="Rectangle 400938" width="120" height="120" transform="translate(0 0)" fill="none"/>
    </clipPath>
    <clipPath id="clip-path-2">
      <rect id="Rectangle_401073" data-name="Rectangle 401073" width="92.219" height="41.532" fill="#7d3a1b"/>
    </clipPath>
  </defs>
  <g id="Group_1118907" data-name="Group 1118907" transform="translate(-810.203 -998)">
    <g id="Group_1099399" data-name="Group 1099399" transform="translate(422.535 -5015)">
      <rect id="Rectangle_401103" data-name="Rectangle 401103" width="120" height="120" transform="translate(387.668 6013)" fill="none"/>
      <g id="Group_1099348" data-name="Group 1099348" transform="translate(387.668 6013)">
        <g id="Group_1099282" data-name="Group 1099282">
          <g id="Group_1099281" data-name="Group 1099281" clip-path="url(#clip-path-2)">
            <path id="Path_873375" data-name="Path 873375" d="M74.8,9.1c-4.139,0-6.28-2.03-8.17-3.821-1.855-1.756-3.452-3.274-6.792-3.274s-4.937,1.517-6.792,3.274C51.161,7.072,49.023,9.1,44.881,9.1s-6.28-2.03-8.169-3.821C34.857,3.525,33.26,2.007,29.92,2.007s-4.937,1.517-6.789,3.274C21.241,7.072,19.1,9.1,14.962,9.1S8.679,7.072,6.789,5.281C4.937,3.525,3.34,2.007,0,2.007V0C4.139,0,6.28,2.033,8.17,3.821c1.855,1.759,3.452,3.274,6.792,3.274S19.9,5.58,21.75,3.824C23.637,2.033,25.781,0,29.92,0s6.283,2.033,8.17,3.821c1.855,1.759,3.452,3.274,6.792,3.274s4.937-1.514,6.792-3.274C53.56,2.033,55.7,0,59.843,0s6.283,2.033,8.17,3.821C69.867,5.58,71.464,7.094,74.8,7.094S79.742,5.58,81.6,3.821C83.483,2.033,85.624,0,89.766,0V2.007c-3.34,0-4.937,1.517-6.792,3.274C81.084,7.072,78.943,9.1,74.8,9.1" transform="translate(2.453 32.43)" fill="#7d3a1b"/>
            <path id="Path_873376" data-name="Path 873376" d="M74.8,9.1c-4.139,0-6.283-2.03-8.17-3.824-1.855-1.756-3.452-3.27-6.792-3.27s-4.937,1.514-6.792,3.27C51.164,7.072,49.023,9.1,44.881,9.1s-6.283-2.03-8.17-3.824c-1.855-1.756-3.452-3.27-6.792-3.27s-4.937,1.517-6.789,3.27C21.241,7.072,19.1,9.1,14.962,9.1S8.679,7.072,6.789,5.278C4.937,3.522,3.34,2.007,0,2.007V0C4.139,0,6.283,2.03,8.17,3.821c1.855,1.759,3.452,3.274,6.792,3.274S19.9,5.58,21.75,3.821C23.637,2.03,25.781,0,29.92,0S36.2,2.03,38.093,3.821c1.852,1.759,3.449,3.274,6.789,3.274s4.937-1.514,6.792-3.274C53.56,2.03,55.7,0,59.843,0s6.283,2.03,8.17,3.821C69.867,5.58,71.464,7.094,74.8,7.094S79.742,5.58,81.6,3.821C83.486,2.03,85.627,0,89.769,0V2.007c-3.34,0-4.94,1.517-6.8,3.27C81.084,7.072,78.943,9.1,74.8,9.1" transform="translate(1.635 21.62)" fill="#7d3a1b"/>
            <path id="Path_873377" data-name="Path 873377" d="M74.8,9.1c-4.139,0-6.283-2.03-8.169-3.824-1.855-1.756-3.452-3.27-6.792-3.27s-4.937,1.514-6.792,3.27C51.164,7.072,49.02,9.1,44.881,9.1s-6.283-2.03-8.17-3.824c-1.855-1.756-3.452-3.27-6.792-3.27s-4.937,1.517-6.789,3.27C21.241,7.072,19.1,9.1,14.962,9.1S8.678,7.072,6.789,5.278C4.937,3.522,3.34,2.007,0,2.007V0C4.139,0,6.283,2.03,8.169,3.821c1.851,1.759,3.452,3.274,6.792,3.274S19.9,5.58,21.75,3.821C23.637,2.03,25.781,0,29.92,0S36.2,2.03,38.093,3.821c1.852,1.759,3.449,3.274,6.789,3.274s4.937-1.514,6.792-3.274C53.56,2.03,55.7,0,59.843,0s6.283,2.03,8.17,3.821C69.867,5.58,71.464,7.094,74.8,7.094S79.742,5.58,81.6,3.821C83.486,2.03,85.624,0,89.769,0V2.007c-3.34,0-4.941,1.517-6.8,3.27C81.084,7.072,78.943,9.1,74.8,9.1" transform="translate(0.818 10.81)" fill="#7d3a1b"/>
            <path id="Path_873378" data-name="Path 873378" d="M74.8,9.1c-4.139,0-6.28-2.03-8.17-3.821-1.855-1.756-3.452-3.27-6.792-3.27s-4.937,1.514-6.789,3.27C51.164,7.069,49.023,9.1,44.881,9.1s-6.28-2.03-8.169-3.821c-1.855-1.756-3.452-3.27-6.792-3.27s-4.937,1.514-6.789,3.267C21.245,7.069,19.1,9.1,14.962,9.1S8.678,7.069,6.789,5.278C4.937,3.522,3.34,2.007,0,2.007V0C4.139,0,6.283,2.03,8.17,3.821c1.855,1.756,3.452,3.27,6.792,3.27S19.9,5.577,21.75,3.821C23.64,2.03,25.781,0,29.92,0s6.28,2.03,8.173,3.821c1.852,1.756,3.449,3.27,6.789,3.27s4.937-1.514,6.792-3.27C53.563,2.03,55.7,0,59.843,0s6.28,2.03,8.17,3.821c1.855,1.756,3.452,3.27,6.792,3.27s4.937-1.514,6.792-3.27C83.486,2.03,85.627,0,89.769,0V2.007c-3.344,0-4.941,1.514-6.8,3.27C81.084,7.069,78.943,9.1,74.8,9.1" transform="translate(0 0.003)" fill="#7d3a1b"/>
          </g>
        </g>
      </g>
      <circle id="Ellipse_11504" data-name="Ellipse 11504" cx="50" cy="50" r="50" transform="translate(402.668 6031)" fill="#efb499"/>
      <circle id="Ellipse_11503" data-name="Ellipse 11503" cx="52" cy="52" r="52" transform="translate(395.668 6021)" fill="#f3f9ff"/>
    </g>
    <g id="Group_1118595" data-name="Group 1118595" transform="translate(828.201 1014.27)">
      <g id="Group_1118590" data-name="Group 1118590" transform="translate(12.691 9.001)">
        <path id="Path_905832" data-name="Path 905832" d="M176.478,340.632l-22.965.294-5.1,8.755a.536.536,0,0,0,.463.807h32.414a.536.536,0,0,0,.463-.807Z" transform="translate(-132.027 -294.003)" fill="#003748" fill-rule="evenodd"/>
        <path id="Path_905833" data-name="Path 905833" d="M95.014,9a3.461,3.461,0,0,1,3.451,3.451V54a3.461,3.461,0,0,1-3.451,3.451H35.808A3.461,3.461,0,0,1,32.357,54V12.452A3.461,3.461,0,0,1,35.808,9Z" transform="translate(-32.357 -9.001)" fill="#e6f8ff" fill-rule="evenodd"/>
        <path id="Path_905834" data-name="Path 905834" d="M98.465,312.468H32.357V314.8a3.461,3.461,0,0,0,3.451,3.451H95.014a3.461,3.461,0,0,0,3.451-3.451v-2.327Z" transform="translate(-32.357 -269.799)" fill="#004960" fill-rule="evenodd"/>
      </g>
      <g id="Group_1118592" data-name="Group 1118592" transform="translate(43.833 22.622)">
        <path id="Path_905835" data-name="Path 905835" d="M372.223,207.27h3.128a.8.8,0,0,1,.8.8V219.92a.8.8,0,0,1-.8.8h-3.128a.8.8,0,0,1-.8-.8V208.073A.8.8,0,0,1,372.223,207.27Z" transform="translate(-354.888 -193.014)" fill="#ffda2d" fill-rule="evenodd"/>
        <path id="Path_905836" data-name="Path 905836" d="M313.434,179.322h3.128a.8.8,0,0,1,.8.8V195.9a.8.8,0,0,1-.8.8h-3.128a.8.8,0,0,1-.8-.8V180.125A.8.8,0,0,1,313.434,179.322Z" transform="translate(-304.365 -168.995)" fill="#72d561" fill-rule="evenodd"/>
        <path id="Path_905837" data-name="Path 905837" d="M254.645,244.309h3.128a.8.8,0,0,1,.8.8v6.639a.8.8,0,0,1-.8.8h-3.128a.8.8,0,0,1-.8-.8v-6.639A.8.8,0,0,1,254.645,244.309Z" transform="translate(-253.842 -224.845)" fill="#fc685b" fill-rule="evenodd"/>
        <g id="Group_1118591" data-name="Group 1118591" transform="translate(1.299)">
          <path id="Path_905838" data-name="Path 905838" d="M431.012,152.991h3.128a.8.8,0,0,1,.8.8v19.479a.8.8,0,0,1-.8.8h-3.128a.8.8,0,0,1-.8-.8V153.794A.8.8,0,0,1,431.012,152.991Z" transform="translate(-406.71 -146.367)" fill="#64b5f6" fill-rule="evenodd"/>
          <path id="Path_905839" data-name="Path 905839" d="M264.995,120.815a1.067,1.067,0,0,1-1.69-1.3l8.266-10.747a1.067,1.067,0,0,1,1.458-.221l7.546,5.057,6.009-5.548-.816-.038a1.068,1.068,0,0,1,.1-2.133l3.484.164a1.068,1.068,0,0,1,.989,1.309l-.614,3.378a1.066,1.066,0,0,1-2.1-.376l.079-.432-6.3,5.819h0a1.067,1.067,0,0,1-1.316.1l-7.436-4.983Z" transform="translate(-263.082 -105.878)" fill="#64b5f6" fill-rule="evenodd"/>
        </g>
      </g>
      <path id="Path_905840" data-name="Path 905840" d="M96.474,42.429a1.071,1.071,0,1,1,0-2.141h16.149a1.071,1.071,0,0,1,0,2.141ZM71.8,75.34a1.071,1.071,0,0,1,0-2.141H89.175a1.071,1.071,0,1,1,0,2.141Zm0-4.418a1.066,1.066,0,1,1,0-2.133H89.175a1.066,1.066,0,1,1,0,2.133Zm0-4.409a1.071,1.071,0,0,1,0-2.141H89.175a1.071,1.071,0,1,1,0,2.141ZM96.474,51.256a1.071,1.071,0,0,1,0-2.141h16.149a1.071,1.071,0,1,1,0,2.141Zm0-4.417a1.066,1.066,0,0,1,0-2.133h16.149a1.066,1.066,0,1,1,0,2.133Z" transform="translate(-52.641 -26.888)" fill="#8d9ca8" fill-rule="evenodd"/>
      <g id="Group_1118593" data-name="Group 1118593" transform="translate(14.64 10.806)">
        <circle id="Ellipse_11640" data-name="Ellipse 11640" cx="10.678" cy="10.678" r="10.678" transform="translate(0 20.522) rotate(-73.976)" fill="#64b5f6"/>
        <path id="Path_905841" data-name="Path 905841" d="M140.135,39.764V50.442l9.807,4.231a10.683,10.683,0,0,0-9.807-14.908Z" transform="translate(-126.929 -37.244)" fill="#ffda2d" fill-rule="evenodd"/>
        <path id="Path_905842" data-name="Path 905842" d="M110.753,119.936l-9.807-4.231-6.412,8.539a10.682,10.682,0,0,0,16.219-4.308Z" transform="translate(-87.74 -102.507)" fill="#72d561" fill-rule="evenodd"/>
        <path id="Path_905843" data-name="Path 905843" d="M112.745,92.794a4.481,4.481,0,1,0-4.481-4.481A4.49,4.49,0,0,0,112.745,92.794Z" transform="translate(-99.54 -75.115)" fill="#eff4f7" fill-rule="evenodd"/>
      </g>
      <g id="Group_1118594" data-name="Group 1118594" transform="translate(9.474 36.763)">
        <path id="Path_905844" data-name="Path 905844" d="M81.609,393.659,79.5,391.405l4.262-4.262,2.26,2.1Z" transform="translate(-69.654 -361.736)" fill="#8d9ca8" fill-rule="evenodd"/>
        <circle id="Ellipse_11641" data-name="Ellipse 11641" cx="12.92" cy="12.92" r="12.92" transform="translate(5.148 18.269) rotate(-45)" fill="#64b5f6"/>
        <path id="Path_905845" data-name="Path 905845" d="M117.33,268.046a9.611,9.611,0,1,0,9.611,9.611A9.611,9.611,0,0,0,117.33,268.046Z" transform="translate(-93.905 -259.385)" fill="#e6f8ff" fill-rule="evenodd"/>
        <path id="Path_905846" data-name="Path 905846" d="M19.869,407.782l2.806,2.806a.746.746,0,0,1,0,1.053l-8.547,8.547a2.728,2.728,0,0,1-3.858-3.858l8.547-8.547A.746.746,0,0,1,19.869,407.782Z" transform="translate(-9.474 -379.287)" fill="#c97629" fill-rule="evenodd"/>
        <path id="Path_905847" data-name="Path 905847" d="M67.807,411.641,65.848,413.6,61.99,409.74l1.958-1.958a.746.746,0,0,1,1.053,0l2.805,2.806A.746.746,0,0,1,67.807,411.641Z" transform="translate(-54.606 -379.286)" fill="#da8c36" fill-rule="evenodd"/>
      </g>
    </g>
  </g>
</svg>
