<svg xmlns="http://www.w3.org/2000/svg" xmlns:xlink="http://www.w3.org/1999/xlink" width="121" height="121" viewBox="0 0 121 121">
  <defs>
    <clipPath id="clip-path">
      <rect id="Rectangle_400938" data-name="Rectangle 400938" width="121" height="121" transform="translate(0 0)" fill="none"/>
    </clipPath>
    <clipPath id="clip-path-2">
      <rect id="Rectangle_401073" data-name="Rectangle 401073" width="92.219" height="41.532" fill="#efb499"/>
    </clipPath>
  </defs>
  <g id="Group_1118782" data-name="Group 1118782" transform="translate(7331 9793)">
    <g id="Group_1118375" data-name="Group 1118375" transform="translate(-7718.668 -15806)">
      <rect id="Rectangle_401103" data-name="Rectangle 401103" width="121" height="121" transform="translate(387.668 6013)" fill="none"/>
      <g id="Group_1099348" data-name="Group 1099348" transform="translate(387.668 6013)">
        <g id="Group_1099282" data-name="Group 1099282">
          <g id="Group_1099281" data-name="Group 1099281" clip-path="url(#clip-path-2)">
            <path id="Path_873375" data-name="Path 873375" d="M74.8,9.1c-4.139,0-6.28-2.03-8.17-3.821-1.855-1.756-3.452-3.274-6.792-3.274s-4.937,1.517-6.792,3.274C51.161,7.072,49.023,9.1,44.881,9.1s-6.28-2.03-8.169-3.821C34.857,3.525,33.26,2.007,29.92,2.007s-4.937,1.517-6.789,3.274C21.241,7.072,19.1,9.1,14.962,9.1S8.679,7.072,6.789,5.281C4.937,3.525,3.34,2.007,0,2.007V0C4.139,0,6.28,2.033,8.17,3.821c1.855,1.759,3.452,3.274,6.792,3.274S19.9,5.58,21.75,3.824C23.637,2.033,25.781,0,29.92,0s6.283,2.033,8.17,3.821c1.855,1.759,3.452,3.274,6.792,3.274s4.937-1.514,6.792-3.274C53.56,2.033,55.7,0,59.843,0s6.283,2.033,8.17,3.821C69.867,5.58,71.464,7.094,74.8,7.094S79.742,5.58,81.6,3.821C83.483,2.033,85.624,0,89.766,0V2.007c-3.34,0-4.937,1.517-6.792,3.274C81.084,7.072,78.943,9.1,74.8,9.1" transform="translate(2.453 32.43)" fill="#efb499"/>
            <path id="Path_873376" data-name="Path 873376" d="M74.8,9.1c-4.139,0-6.283-2.03-8.17-3.824-1.855-1.756-3.452-3.27-6.792-3.27s-4.937,1.514-6.792,3.27C51.164,7.072,49.023,9.1,44.881,9.1s-6.283-2.03-8.17-3.824c-1.855-1.756-3.452-3.27-6.792-3.27s-4.937,1.517-6.789,3.27C21.241,7.072,19.1,9.1,14.962,9.1S8.679,7.072,6.789,5.278C4.937,3.522,3.34,2.007,0,2.007V0C4.139,0,6.283,2.03,8.17,3.821c1.855,1.759,3.452,3.274,6.792,3.274S19.9,5.58,21.75,3.821C23.637,2.03,25.781,0,29.92,0S36.2,2.03,38.093,3.821c1.852,1.759,3.449,3.274,6.789,3.274s4.937-1.514,6.792-3.274C53.56,2.03,55.7,0,59.843,0s6.283,2.03,8.17,3.821C69.867,5.58,71.464,7.094,74.8,7.094S79.742,5.58,81.6,3.821C83.486,2.03,85.627,0,89.769,0V2.007c-3.34,0-4.94,1.517-6.8,3.27C81.084,7.072,78.943,9.1,74.8,9.1" transform="translate(1.635 21.62)" fill="#efb499"/>
            <path id="Path_873377" data-name="Path 873377" d="M74.8,9.1c-4.139,0-6.283-2.03-8.169-3.824-1.855-1.756-3.452-3.27-6.792-3.27s-4.937,1.514-6.792,3.27C51.164,7.072,49.02,9.1,44.881,9.1s-6.283-2.03-8.17-3.824c-1.855-1.756-3.452-3.27-6.792-3.27s-4.937,1.517-6.789,3.27C21.241,7.072,19.1,9.1,14.962,9.1S8.678,7.072,6.789,5.278C4.937,3.522,3.34,2.007,0,2.007V0C4.139,0,6.283,2.03,8.169,3.821c1.851,1.759,3.452,3.274,6.792,3.274S19.9,5.58,21.75,3.821C23.637,2.03,25.781,0,29.92,0S36.2,2.03,38.093,3.821c1.852,1.759,3.449,3.274,6.789,3.274s4.937-1.514,6.792-3.274C53.56,2.03,55.7,0,59.843,0s6.283,2.03,8.17,3.821C69.867,5.58,71.464,7.094,74.8,7.094S79.742,5.58,81.6,3.821C83.486,2.03,85.624,0,89.769,0V2.007c-3.34,0-4.941,1.517-6.8,3.27C81.084,7.072,78.943,9.1,74.8,9.1" transform="translate(0.818 10.81)" fill="#efb499"/>
            <path id="Path_873378" data-name="Path 873378" d="M74.8,9.1c-4.139,0-6.28-2.03-8.17-3.821-1.855-1.756-3.452-3.27-6.792-3.27s-4.937,1.514-6.789,3.27C51.164,7.069,49.023,9.1,44.881,9.1s-6.28-2.03-8.169-3.821c-1.855-1.756-3.452-3.27-6.792-3.27s-4.937,1.514-6.789,3.267C21.245,7.069,19.1,9.1,14.962,9.1S8.678,7.069,6.789,5.278C4.937,3.522,3.34,2.007,0,2.007V0C4.139,0,6.283,2.03,8.17,3.821c1.855,1.756,3.452,3.27,6.792,3.27S19.9,5.577,21.75,3.821C23.64,2.03,25.781,0,29.92,0s6.28,2.03,8.173,3.821c1.852,1.756,3.449,3.27,6.789,3.27s4.937-1.514,6.792-3.27C53.563,2.03,55.7,0,59.843,0s6.28,2.03,8.17,3.821c1.855,1.756,3.452,3.27,6.792,3.27s4.937-1.514,6.792-3.27C83.486,2.03,85.627,0,89.769,0V2.007c-3.344,0-4.941,1.514-6.8,3.27C81.084,7.069,78.943,9.1,74.8,9.1" transform="translate(0 0.003)" fill="#efb499"/>
          </g>
        </g>
      </g>
      <circle id="Ellipse_11504" data-name="Ellipse 11504" cx="50.5" cy="50.5" r="50.5" transform="translate(402.668 6031)" fill="#ffce73"/>
      <circle id="Ellipse_11503" data-name="Ellipse 11503" cx="52.5" cy="52.5" r="52.5" transform="translate(395.668 6021)" fill="#f3f9ff"/>
    </g>
    <g id="Group_1118582" data-name="Group 1118582" transform="translate(-7301.404 -9768)">
      <path id="Path_905774" data-name="Path 905774" d="M85.574,278.009V255.487a6.593,6.593,0,0,1,6.593-6.593h7.573a6.593,6.593,0,0,1,6.593,6.593l2.435,13.286-2.435,9.236Z" transform="translate(-74.919 -218.587)" fill="#e06a50"/>
      <path id="Path_905775" data-name="Path 905775" d="M132.964,132.79a6.093,6.093,0,0,1-12.186,0v-3.453a6.093,6.093,0,1,1,12.186,0Z" transform="translate(-105.836 -108.237)" fill="#e3a76f"/>
      <path id="Path_905776" data-name="Path 905776" d="M256,276.3V255.487a6.593,6.593,0,0,1,6.593-6.593h7.573a6.593,6.593,0,0,1,6.593,6.593V276.3Z" transform="translate(-224.592 -218.587)" fill="#9cd2fc"/>
      <path id="Path_905777" data-name="Path 905777" d="M303.39,132.79a6.093,6.093,0,1,1-12.186,0v-3.453a6.093,6.093,0,1,1,12.186,0Z" transform="translate(-255.51 -108.237)" fill="#864927"/>
      <path id="Path_905778" data-name="Path 905778" d="M21.028,415.528H.268V408.24a6.088,6.088,0,0,1,6.088-6.088h8.583a6.088,6.088,0,0,1,6.088,6.088l1.218,3.482Z" transform="translate(0 -353.183)" fill="#a0be28"/>
      <path id="Path_905779" data-name="Path 905779" d="M353.221,415.528h-20.76l-1.218-4.6,1.218-2.691a6.088,6.088,0,0,1,6.088-6.088h8.583a6.088,6.088,0,0,1,6.088,6.088Z" transform="translate(-290.674 -353.183)" fill="#738c28"/>
      <g id="Group_1118580" data-name="Group 1118580" transform="translate(15.243 1.918)">
        <g id="Group_1118578" data-name="Group 1118578" transform="translate(0 0)">
          <g id="Group_1118577" data-name="Group 1118577">
            <path id="Path_905780" data-name="Path 905780" d="M0,0H3.653V9.32H0Z" transform="translate(0 2.656) rotate(-46.62)" fill="#ffe477"/>
          </g>
        </g>
        <g id="Group_1118579" data-name="Group 1118579" transform="translate(23.063 0.017)">
          <path id="Path_905781" data-name="Path 905781" d="M0,0H9.32V3.653H0Z" transform="translate(0 6.403) rotate(-43.38)" fill="#ffb655"/>
        </g>
      </g>
      <path id="Path_905782" data-name="Path 905782" d="M241,0h1.827V8.07H241Z" transform="translate(-211.419)" fill="#ffe477"/>
      <g id="Group_1118581" data-name="Group 1118581" transform="translate(21.028)">
        <path id="Path_905783" data-name="Path 905783" d="M257.827,0H256l1.218,4.035L256,8.07h1.827Z" transform="translate(-245.62)" fill="#ffb655"/>
        <path id="Path_905784" data-name="Path 905784" d="M256,0V8.07l1.218-4.035Z" transform="translate(-245.62)" fill="#ffb655"/>
        <path id="Path_905785" data-name="Path 905785" d="M176.844,402.152a6.088,6.088,0,0,0-6.088,6.088v7.288h10.38l1.218-7.393-1.218-5.983Z" transform="translate(-170.756 -353.183)" fill="#ffb655"/>
      </g>
      <path id="Path_905786" data-name="Path 905786" d="M266.38,408.24a6.088,6.088,0,0,0-6.088-6.088H256v13.376h10.38Z" transform="translate(-224.592 -353.183)" fill="#e06a50"/>
      <path id="Path_905787" data-name="Path 905787" d="M241,0h1.827V8.07H241Z" transform="translate(-211.419)" fill="#ffe477"/>
      <path id="Path_905788" data-name="Path 905788" d="M257.827,0H256l1.218,4.035L256,8.07h1.827Z" transform="translate(-224.592)" fill="#ffb655"/>
      <path id="Path_905789" data-name="Path 905789" d="M256,0V8.07l1.218-4.035Z" transform="translate(-224.592)" fill="#ffb655"/>
      <path id="Path_905790" data-name="Path 905790" d="M47.658,286.048a6.093,6.093,0,1,1-12.186,0V282.6a6.093,6.093,0,1,1,12.186,0Z" transform="translate(-30.917 -242.833)" fill="#b35f30"/>
      <path id="Path_905791" data-name="Path 905791" d="M388.634,286.048a6.093,6.093,0,1,1-12.186,0V282.6a6.093,6.093,0,1,1,12.186,0Z" transform="translate(-330.374 -242.833)" fill="#e3a76f"/>
      <path id="Path_905792" data-name="Path 905792" d="M205.96,282.6v3.453a6.093,6.093,0,0,0,6.093,6.093l2.435-7.82-2.435-7.82a6.093,6.093,0,0,0-6.093,6.093Z" transform="translate(-180.646 -242.834)" fill="#b35f30"/>
      <path id="Path_905793" data-name="Path 905793" d="M256,276.5v15.639a6.093,6.093,0,0,0,6.093-6.093V282.6A6.093,6.093,0,0,0,256,276.5Z" transform="translate(-224.592 -242.833)" fill="#864927"/>
    </g>
  </g>
</svg>
