<svg xmlns="http://www.w3.org/2000/svg" xmlns:xlink="http://www.w3.org/1999/xlink" width="121" height="121" viewBox="0 0 121 121">
  <defs>
    <clipPath id="clip-path">
      <rect id="Rectangle_400938" data-name="Rectangle 400938" width="121" height="121" transform="translate(0 0)" fill="none"/>
    </clipPath>
    <clipPath id="clip-path-2">
      <rect id="Rectangle_401073" data-name="Rectangle 401073" width="92.219" height="41.532" fill="#efb499"/>
    </clipPath>
  </defs>
  <g id="Group_1118780" data-name="Group 1118780" transform="translate(-1096 -1894)">
    <g id="Group_1099376" data-name="Group 1099376" transform="translate(708.332 -4119)">
      <rect id="Rectangle_401103" data-name="Rectangle 401103" width="121" height="121" transform="translate(387.668 6013)" fill="none"/>
      <g id="Group_1099348" data-name="Group 1099348" transform="translate(387.668 6013)">
        <g id="Group_1099282" data-name="Group 1099282">
          <g id="Group_1099281" data-name="Group 1099281" clip-path="url(#clip-path-2)">
            <path id="Path_873375" data-name="Path 873375" d="M74.8,9.1c-4.139,0-6.28-2.03-8.17-3.821-1.855-1.756-3.452-3.274-6.792-3.274s-4.937,1.517-6.792,3.274C51.161,7.072,49.023,9.1,44.881,9.1s-6.28-2.03-8.169-3.821C34.857,3.525,33.26,2.007,29.92,2.007s-4.937,1.517-6.789,3.274C21.241,7.072,19.1,9.1,14.962,9.1S8.679,7.072,6.789,5.281C4.937,3.525,3.34,2.007,0,2.007V0C4.139,0,6.28,2.033,8.17,3.821c1.855,1.759,3.452,3.274,6.792,3.274S19.9,5.58,21.75,3.824C23.637,2.033,25.781,0,29.92,0s6.283,2.033,8.17,3.821c1.855,1.759,3.452,3.274,6.792,3.274s4.937-1.514,6.792-3.274C53.56,2.033,55.7,0,59.843,0s6.283,2.033,8.17,3.821C69.867,5.58,71.464,7.094,74.8,7.094S79.742,5.58,81.6,3.821C83.483,2.033,85.624,0,89.766,0V2.007c-3.34,0-4.937,1.517-6.792,3.274C81.084,7.072,78.943,9.1,74.8,9.1" transform="translate(2.453 32.43)" fill="#efb499"/>
            <path id="Path_873376" data-name="Path 873376" d="M74.8,9.1c-4.139,0-6.283-2.03-8.17-3.824-1.855-1.756-3.452-3.27-6.792-3.27s-4.937,1.514-6.792,3.27C51.164,7.072,49.023,9.1,44.881,9.1s-6.283-2.03-8.17-3.824c-1.855-1.756-3.452-3.27-6.792-3.27s-4.937,1.517-6.789,3.27C21.241,7.072,19.1,9.1,14.962,9.1S8.679,7.072,6.789,5.278C4.937,3.522,3.34,2.007,0,2.007V0C4.139,0,6.283,2.03,8.17,3.821c1.855,1.759,3.452,3.274,6.792,3.274S19.9,5.58,21.75,3.821C23.637,2.03,25.781,0,29.92,0S36.2,2.03,38.093,3.821c1.852,1.759,3.449,3.274,6.789,3.274s4.937-1.514,6.792-3.274C53.56,2.03,55.7,0,59.843,0s6.283,2.03,8.17,3.821C69.867,5.58,71.464,7.094,74.8,7.094S79.742,5.58,81.6,3.821C83.486,2.03,85.627,0,89.769,0V2.007c-3.34,0-4.94,1.517-6.8,3.27C81.084,7.072,78.943,9.1,74.8,9.1" transform="translate(1.635 21.62)" fill="#efb499"/>
            <path id="Path_873377" data-name="Path 873377" d="M74.8,9.1c-4.139,0-6.283-2.03-8.169-3.824-1.855-1.756-3.452-3.27-6.792-3.27s-4.937,1.514-6.792,3.27C51.164,7.072,49.02,9.1,44.881,9.1s-6.283-2.03-8.17-3.824c-1.855-1.756-3.452-3.27-6.792-3.27s-4.937,1.517-6.789,3.27C21.241,7.072,19.1,9.1,14.962,9.1S8.678,7.072,6.789,5.278C4.937,3.522,3.34,2.007,0,2.007V0C4.139,0,6.283,2.03,8.169,3.821c1.851,1.759,3.452,3.274,6.792,3.274S19.9,5.58,21.75,3.821C23.637,2.03,25.781,0,29.92,0S36.2,2.03,38.093,3.821c1.852,1.759,3.449,3.274,6.789,3.274s4.937-1.514,6.792-3.274C53.56,2.03,55.7,0,59.843,0s6.283,2.03,8.17,3.821C69.867,5.58,71.464,7.094,74.8,7.094S79.742,5.58,81.6,3.821C83.486,2.03,85.624,0,89.769,0V2.007c-3.34,0-4.941,1.517-6.8,3.27C81.084,7.072,78.943,9.1,74.8,9.1" transform="translate(0.818 10.81)" fill="#efb499"/>
            <path id="Path_873378" data-name="Path 873378" d="M74.8,9.1c-4.139,0-6.28-2.03-8.17-3.821-1.855-1.756-3.452-3.27-6.792-3.27s-4.937,1.514-6.789,3.27C51.164,7.069,49.023,9.1,44.881,9.1s-6.28-2.03-8.169-3.821c-1.855-1.756-3.452-3.27-6.792-3.27s-4.937,1.514-6.789,3.267C21.245,7.069,19.1,9.1,14.962,9.1S8.678,7.069,6.789,5.278C4.937,3.522,3.34,2.007,0,2.007V0C4.139,0,6.283,2.03,8.17,3.821c1.855,1.756,3.452,3.27,6.792,3.27S19.9,5.577,21.75,3.821C23.64,2.03,25.781,0,29.92,0s6.28,2.03,8.173,3.821c1.852,1.756,3.449,3.27,6.789,3.27s4.937-1.514,6.792-3.27C53.563,2.03,55.7,0,59.843,0s6.28,2.03,8.17,3.821c1.855,1.756,3.452,3.27,6.792,3.27s4.937-1.514,6.792-3.27C83.486,2.03,85.627,0,89.769,0V2.007c-3.344,0-4.941,1.514-6.8,3.27C81.084,7.069,78.943,9.1,74.8,9.1" transform="translate(0 0.003)" fill="#efb499"/>
          </g>
        </g>
      </g>
      <circle id="Ellipse_11504" data-name="Ellipse 11504" cx="50.5" cy="50.5" r="50.5" transform="translate(402.668 6031)" fill="#ffce73"/>
      <circle id="Ellipse_11503" data-name="Ellipse 11503" cx="52.5" cy="52.5" r="52.5" transform="translate(395.668 6021)" fill="#f3f9ff"/>
    </g>
    <g id="Group_1118571" data-name="Group 1118571" transform="translate(1105.998 1883.822)">
      <g id="Group_1118568" data-name="Group 1118568" transform="translate(45.827 57.556)">
        <path id="Path_905719" data-name="Path 905719" d="M223.244,350.882h3.992a1.019,1.019,0,0,1,1.017,1.017v9.739a1.019,1.019,0,0,1-1.017,1.017h-3.992a1.019,1.019,0,0,1-1.017-1.017V351.9A1.019,1.019,0,0,1,223.244,350.882Z" transform="translate(-222.227 -325.035)" fill="#fe646f" fill-rule="evenodd"/>
        <path id="Path_905720" data-name="Path 905720" d="M249.826,350.882h1.017a1.019,1.019,0,0,1,1.017,1.017v9.739a1.019,1.019,0,0,1-1.017,1.017h-1.017a1.019,1.019,0,0,0,1.017-1.017V351.9A1.019,1.019,0,0,0,249.826,350.882Z" transform="translate(-245.834 -325.035)" fill="#fd4755" fill-rule="evenodd"/>
        <path id="Path_905721" data-name="Path 905721" d="M300.612,299.294H304.6a1.019,1.019,0,0,1,1.017,1.017v17.2a1.019,1.019,0,0,1-1.017,1.017h-3.992a1.019,1.019,0,0,1-1.017-1.017v-17.2A1.019,1.019,0,0,1,300.612,299.294Z" transform="translate(-288.406 -280.908)" fill="#ffe177" fill-rule="evenodd"/>
        <path id="Path_905722" data-name="Path 905722" d="M327.2,299.294h1.017a1.019,1.019,0,0,1,1.017,1.017v17.2a1.019,1.019,0,0,1-1.017,1.017H327.2a1.019,1.019,0,0,0,1.017-1.017v-17.2A1.019,1.019,0,0,0,327.2,299.294Z" transform="translate(-312.014 -280.908)" fill="#ffd064" fill-rule="evenodd"/>
        <path id="Path_905723" data-name="Path 905723" d="M377.981,316.66h3.992a1.019,1.019,0,0,1,1.017,1.017v14.688a1.019,1.019,0,0,1-1.017,1.017h-3.992a1.019,1.019,0,0,1-1.017-1.017V317.677A1.019,1.019,0,0,1,377.981,316.66Z" transform="translate(-354.585 -295.763)" fill="#6cf5c2" fill-rule="evenodd"/>
        <path id="Path_905724" data-name="Path 905724" d="M404.563,316.66h1.017a1.019,1.019,0,0,1,1.017,1.017v14.688a1.019,1.019,0,0,1-1.017,1.017h-1.017a1.019,1.019,0,0,0,1.017-1.017V317.677A1.019,1.019,0,0,0,404.563,316.66Z" transform="translate(-378.193 -295.763)" fill="#00e499" fill-rule="evenodd"/>
        <path id="Path_905725" data-name="Path 905725" d="M455.348,244.637h3.992a1.019,1.019,0,0,1,1.017,1.017v25.1a1.019,1.019,0,0,1-1.017,1.017h-3.992a1.019,1.019,0,0,1-1.017-1.017v-25.1A1.019,1.019,0,0,1,455.348,244.637Z" transform="translate(-420.763 -234.156)" fill="#8ac9fe" fill-rule="evenodd"/>
        <path id="Path_905726" data-name="Path 905726" d="M481.931,244.637h1.017a1.019,1.019,0,0,1,1.017,1.017v25.1a1.019,1.019,0,0,1-1.017,1.017h-1.017a1.019,1.019,0,0,0,1.017-1.017v-25.1A1.019,1.019,0,0,0,481.931,244.637Z" transform="translate(-444.371 -234.156)" fill="#60b7ff" fill-rule="evenodd"/>
        <path id="Path_905727" data-name="Path 905727" d="M236.951,190.6a1.153,1.153,0,1,1-1.419-1.817l11.189-8.713a1.152,1.152,0,0,1,1.066-.188v0l10.482,3.4,8.457-8.529-.46.04a1.157,1.157,0,1,1-.2-2.3l3.643-.319a1.157,1.157,0,0,1,1.239,1.349l-.4,3.563a1.155,1.155,0,1,1-2.3-.253l.043-.384-8.852,8.927a1.155,1.155,0,0,1-1.216.326l-10.576-3.432Z" transform="translate(-233.229 -172.167)" fill="#a79ba7" fill-rule="evenodd"/>
      </g>
      <g id="Group_1118569" data-name="Group 1118569" transform="translate(16.002 59.716)">
        <path id="Path_905728" data-name="Path 905728" d="M79.3,360.464a13.154,13.154,0,0,0,2.219,2.443l-6.034,5.915-2.3-2.367Z" transform="translate(-64.916 -335.391)" fill="#a79ba7" fill-rule="evenodd"/>
        <path id="Path_905729" data-name="Path 905729" d="M87.58,373.7a1.516,1.516,0,0,0,.657.881l-5.994,5.954-.734-.8Z" transform="translate(-72.035 -346.711)" fill="#837683" fill-rule="evenodd"/>
        <path id="Path_905730" data-name="Path 905730" d="M18.929,402.407l-2.592-2.672a1.192,1.192,0,0,1,.025-1.681l7.18-6.968a1.192,1.192,0,0,1,1.681.025l2.592,2.672a1.192,1.192,0,0,1-.025,1.681l-7.181,6.968a1.192,1.192,0,0,1-1.681-.025Z" transform="translate(-16.003 -361.299)" fill="#f1ba84" fill-rule="evenodd"/>
        <path id="Path_905731" data-name="Path 905731" d="M27.822,414.275l-7.18,6.968a1.192,1.192,0,0,1-1.681-.025l-2.593-2.672a1.181,1.181,0,0,1-.225-.329,1.193,1.193,0,0,0,.194,1.391l2.593,2.672a1.192,1.192,0,0,0,1.681.025l7.18-6.968a1.193,1.193,0,0,0,.251-1.352A1.177,1.177,0,0,1,27.822,414.275Z" transform="translate(-16.002 -381.172)" fill="#e3a76f" fill-rule="evenodd"/>
        <circle id="Ellipse_11636" data-name="Ellipse 11636" cx="13.075" cy="13.075" r="13.075" transform="translate(5.684 18.489) rotate(-45)" fill="#8ac9fe"/>
        <path id="Path_905732" data-name="Path 905732" d="M179.442,224.542a13.075,13.075,0,1,1,0,26.151q-.319,0-.635-.016a13.075,13.075,0,0,0,0-26.12Q179.123,224.543,179.442,224.542Z" transform="translate(-155.261 -219.127)" fill="#60b7ff" fill-rule="evenodd"/>
        <circle id="Ellipse_11637" data-name="Ellipse 11637" cx="9.93" cy="9.93" r="9.93" transform="translate(10.132 18.489) rotate(-45)" fill="#eceff1"/>
        <path id="Path_905733" data-name="Path 905733" d="M124.469,246.294c.226,0,.449.008.671.023a9.929,9.929,0,0,0,0,19.813c-.222.015-.446.023-.671.023a9.93,9.93,0,0,1,0-19.859Z" transform="translate(-100.288 -237.733)" fill="#d1d1d6" fill-rule="evenodd"/>
      </g>
      <g id="Group_1118570" data-name="Group 1118570" transform="translate(29.062 38.178)">
        <path id="Path_905734" data-name="Path 905734" d="M128.908,38.178a22.614,22.614,0,0,1,22.6,21.834.754.754,0,0,1-.754.779h-7.966a.753.753,0,0,1-.753-.714,13.148,13.148,0,0,0-26.257,0,.753.753,0,0,1-.752.714h-7.966a.754.754,0,0,1-.754-.779A22.614,22.614,0,0,1,128.908,38.178Z" transform="translate(-106.308 -38.178)" fill="#6cf5c2" fill-rule="evenodd"/>
        <path id="Path_905735" data-name="Path 905735" d="M127.146,49.483l8.2,4.734a13.142,13.142,0,0,1,11.388-6.573V38.178a22.6,22.6,0,0,0-19.587,11.3Z" transform="translate(-124.132 -38.178)" fill="#00e499" fill-rule="evenodd"/>
        <path id="Path_905736" data-name="Path 905736" d="M184.387,41.205l4.734,8.2a13.163,13.163,0,0,1,13.15,0l4.734-8.2a22.642,22.642,0,0,0-22.617,0Z" transform="translate(-173.095 -38.179)" fill="#ffe177" fill-rule="evenodd"/>
        <path id="Path_905737" data-name="Path 905737" d="M262.579,38.178v9.466a13.142,13.142,0,0,1,11.388,6.573l8.2-4.734a22.6,22.6,0,0,0-19.587-11.3Z" transform="translate(-239.978 -38.178)" fill="#ffd064" fill-rule="evenodd"/>
        <path id="Path_905738" data-name="Path 905738" d="M312.774,59.1l-4.734,8.2a13.211,13.211,0,0,1,4.813,4.813,13.072,13.072,0,0,1,1.741,5.861.753.753,0,0,0,.753.714h7.966a.754.754,0,0,0,.754-.779,22.491,22.491,0,0,0-3.013-10.529A22.722,22.722,0,0,0,312.774,59.1Z" transform="translate(-278.864 -56.078)" fill="#fe646f" fill-rule="evenodd"/>
        <path id="Path_905739" data-name="Path 905739" d="M349.519,116.345l-8.2,4.734a13.073,13.073,0,0,1,1.741,5.861.753.753,0,0,0,.753.714h7.966a.754.754,0,0,0,.754-.779,22.49,22.49,0,0,0-3.013-10.529Z" transform="translate(-307.331 -105.04)" fill="#fd4755" fill-rule="evenodd"/>
        <path id="Path_905740" data-name="Path 905740" d="M256.556,158.818a1.157,1.157,0,0,1-1.636-1.636l5.02-5.02a1.157,1.157,0,0,1,1.636,1.636Z" transform="translate(-233.137 -135.387)" fill="#9facba" fill-rule="evenodd"/>
        <path id="Path_905741" data-name="Path 905741" d="M246.743,181.374a2.678,2.678,0,1,0-2.678-2.678A2.683,2.683,0,0,0,246.743,181.374Z" transform="translate(-224.142 -156.084)" fill="#9facba" fill-rule="evenodd"/>
        <path id="Path_905742" data-name="Path 905742" d="M260.13,176.02a2.678,2.678,0,1,1-.414,5.324,2.678,2.678,0,0,0,0-5.292A2.7,2.7,0,0,1,260.13,176.02Z" transform="translate(-237.529 -156.085)" fill="#8d9ca8" fill-rule="evenodd"/>
      </g>
    </g>
  </g>
</svg>
