<svg xmlns="http://www.w3.org/2000/svg" xmlns:xlink="http://www.w3.org/1999/xlink" width="120" height="120" viewBox="0 0 120 120">
  <defs>
    <clipPath id="clip-path">
      <rect id="Rectangle_400938" data-name="Rectangle 400938" width="120" height="120" transform="translate(0 0)" fill="none"/>
    </clipPath>
    <clipPath id="clip-path-2">
      <rect id="Rectangle_401073" data-name="Rectangle 401073" width="92.219" height="41.532" fill="#7d3a1b"/>
    </clipPath>
  </defs>
  <g id="Group_1118904" data-name="Group 1118904" transform="translate(-180.203 -783)">
    <g id="Group_1099349" data-name="Group 1099349" transform="translate(-207.465 -5230)">
      <rect id="Rectangle_401103" data-name="Rectangle 401103" width="120" height="120" transform="translate(387.668 6013)" fill="none"/>
      <g id="Group_1099348" data-name="Group 1099348" transform="translate(387.668 6013)">
        <g id="Group_1099282" data-name="Group 1099282">
          <g id="Group_1099281" data-name="Group 1099281" clip-path="url(#clip-path-2)">
            <path id="Path_873375" data-name="Path 873375" d="M74.8,9.1c-4.139,0-6.28-2.03-8.17-3.821-1.855-1.756-3.452-3.274-6.792-3.274s-4.937,1.517-6.792,3.274C51.161,7.072,49.023,9.1,44.881,9.1s-6.28-2.03-8.169-3.821C34.857,3.525,33.26,2.007,29.92,2.007s-4.937,1.517-6.789,3.274C21.241,7.072,19.1,9.1,14.962,9.1S8.679,7.072,6.789,5.281C4.937,3.525,3.34,2.007,0,2.007V0C4.139,0,6.28,2.033,8.17,3.821c1.855,1.759,3.452,3.274,6.792,3.274S19.9,5.58,21.75,3.824C23.637,2.033,25.781,0,29.92,0s6.283,2.033,8.17,3.821c1.855,1.759,3.452,3.274,6.792,3.274s4.937-1.514,6.792-3.274C53.56,2.033,55.7,0,59.843,0s6.283,2.033,8.17,3.821C69.867,5.58,71.464,7.094,74.8,7.094S79.742,5.58,81.6,3.821C83.483,2.033,85.624,0,89.766,0V2.007c-3.34,0-4.937,1.517-6.792,3.274C81.084,7.072,78.943,9.1,74.8,9.1" transform="translate(2.453 32.43)" fill="#7d3a1b"/>
            <path id="Path_873376" data-name="Path 873376" d="M74.8,9.1c-4.139,0-6.283-2.03-8.17-3.824-1.855-1.756-3.452-3.27-6.792-3.27s-4.937,1.514-6.792,3.27C51.164,7.072,49.023,9.1,44.881,9.1s-6.283-2.03-8.17-3.824c-1.855-1.756-3.452-3.27-6.792-3.27s-4.937,1.517-6.789,3.27C21.241,7.072,19.1,9.1,14.962,9.1S8.679,7.072,6.789,5.278C4.937,3.522,3.34,2.007,0,2.007V0C4.139,0,6.283,2.03,8.17,3.821c1.855,1.759,3.452,3.274,6.792,3.274S19.9,5.58,21.75,3.821C23.637,2.03,25.781,0,29.92,0S36.2,2.03,38.093,3.821c1.852,1.759,3.449,3.274,6.789,3.274s4.937-1.514,6.792-3.274C53.56,2.03,55.7,0,59.843,0s6.283,2.03,8.17,3.821C69.867,5.58,71.464,7.094,74.8,7.094S79.742,5.58,81.6,3.821C83.486,2.03,85.627,0,89.769,0V2.007c-3.34,0-4.94,1.517-6.8,3.27C81.084,7.072,78.943,9.1,74.8,9.1" transform="translate(1.635 21.62)" fill="#7d3a1b"/>
            <path id="Path_873377" data-name="Path 873377" d="M74.8,9.1c-4.139,0-6.283-2.03-8.169-3.824-1.855-1.756-3.452-3.27-6.792-3.27s-4.937,1.514-6.792,3.27C51.164,7.072,49.02,9.1,44.881,9.1s-6.283-2.03-8.17-3.824c-1.855-1.756-3.452-3.27-6.792-3.27s-4.937,1.517-6.789,3.27C21.241,7.072,19.1,9.1,14.962,9.1S8.678,7.072,6.789,5.278C4.937,3.522,3.34,2.007,0,2.007V0C4.139,0,6.283,2.03,8.169,3.821c1.851,1.759,3.452,3.274,6.792,3.274S19.9,5.58,21.75,3.821C23.637,2.03,25.781,0,29.92,0S36.2,2.03,38.093,3.821c1.852,1.759,3.449,3.274,6.789,3.274s4.937-1.514,6.792-3.274C53.56,2.03,55.7,0,59.843,0s6.283,2.03,8.17,3.821C69.867,5.58,71.464,7.094,74.8,7.094S79.742,5.58,81.6,3.821C83.486,2.03,85.624,0,89.769,0V2.007c-3.34,0-4.941,1.517-6.8,3.27C81.084,7.072,78.943,9.1,74.8,9.1" transform="translate(0.818 10.81)" fill="#7d3a1b"/>
            <path id="Path_873378" data-name="Path 873378" d="M74.8,9.1c-4.139,0-6.28-2.03-8.17-3.821-1.855-1.756-3.452-3.27-6.792-3.27s-4.937,1.514-6.789,3.27C51.164,7.069,49.023,9.1,44.881,9.1s-6.28-2.03-8.169-3.821c-1.855-1.756-3.452-3.27-6.792-3.27s-4.937,1.514-6.789,3.267C21.245,7.069,19.1,9.1,14.962,9.1S8.678,7.069,6.789,5.278C4.937,3.522,3.34,2.007,0,2.007V0C4.139,0,6.283,2.03,8.17,3.821c1.855,1.756,3.452,3.27,6.792,3.27S19.9,5.577,21.75,3.821C23.64,2.03,25.781,0,29.92,0s6.28,2.03,8.173,3.821c1.852,1.756,3.449,3.27,6.789,3.27s4.937-1.514,6.792-3.27C53.563,2.03,55.7,0,59.843,0s6.28,2.03,8.17,3.821c1.855,1.756,3.452,3.27,6.792,3.27s4.937-1.514,6.792-3.27C83.486,2.03,85.627,0,89.769,0V2.007c-3.344,0-4.941,1.514-6.8,3.27C81.084,7.069,78.943,9.1,74.8,9.1" transform="translate(0 0.003)" fill="#7d3a1b"/>
          </g>
        </g>
      </g>
      <circle id="Ellipse_11504" data-name="Ellipse 11504" cx="50" cy="50" r="50" transform="translate(402.668 6031)" fill="#efb499"/>
      <circle id="Ellipse_11503" data-name="Ellipse 11503" cx="52" cy="52" r="52" transform="translate(395.668 6021)" fill="#f3f9ff"/>
    </g>
    <g id="Group_1118586" data-name="Group 1118586" transform="translate(204.809 810.304)">
      <rect id="Rectangle_401104" data-name="Rectangle 401104" width="68" height="69" transform="translate(0.059 -0.804)" fill="none"/>
      <g id="FLAT" transform="translate(-23.941 -23.804)">
        <path id="Path_905690" data-name="Path 905690" d="M125.931,24V82.621L116.552,92H72V24Z" transform="translate(-40.966)" fill="#ccdcc2"/>
        <circle id="Ellipse_11633" data-name="Ellipse 11633" cx="11.5" cy="11.5" r="11.5" transform="translate(44 61)" fill="#008cb7"/>
        <path id="Path_905691" data-name="Path 905691" d="M385.379,424,376,433.379V424Z" transform="translate(-300.414 -341.379)" fill="#9cbd8a"/>
        <path id="Path_905692" data-name="Path 905692" d="M37.579,168.417l3.54,3.868.971-5.153L28.6,119.774a2.345,2.345,0,1,0-4.51,1.285Z" transform="translate(0 -80.285)" fill="#f9b89b"/>
        <path id="Path_905693" data-name="Path 905693" d="M200,56h16.414v2.345H200Z" transform="translate(-150.207 -27.31)" fill="#abc79b"/>
        <g id="Group_1118567" data-name="Group 1118567" transform="translate(38.069 33.379)">
          <path id="Path_905694" data-name="Path 905694" d="M120,224h39.862v2.345H120Z" transform="translate(-120 -204.069)" fill="#8bb276"/>
          <path id="Path_905695" data-name="Path 905695" d="M144,150.069V136h4.69v14.069" transform="translate(-140.483 -128.966)" fill="#8bb276"/>
          <path id="Path_905696" data-name="Path 905696" d="M208,136.414V120h4.69v16.414" transform="translate(-195.103 -115.31)" fill="#8bb276"/>
          <path id="Path_905697" data-name="Path 905697" d="M272,122.759V104h4.69v18.759" transform="translate(-249.724 -101.655)" fill="#8bb276"/>
          <path id="Path_905698" data-name="Path 905698" d="M336,88h4.69v21.1H336Z" transform="translate(-304.345 -88)" fill="#8bb276"/>
        </g>
        <path id="Path_905699" data-name="Path 905699" d="M362.759,210.759h-7.034l-5.862,5.862v-5.862h-3.517A2.345,2.345,0,0,1,344,208.414V194.345A2.345,2.345,0,0,1,346.345,192h16.414a2.345,2.345,0,0,1,2.345,2.345v14.069A2.345,2.345,0,0,1,362.759,210.759Z" transform="translate(-273.103 -143.379)" fill="#008cb7"/>
        <path id="Path_905700" data-name="Path 905700" d="M0,0H13.673V2.345H0Z" transform="matrix(0.515, -0.857, 0.857, 0.515, 76.934, 63.302)" fill="#62b8d3"/>
        <path id="Path_905701" data-name="Path 905701" d="M392,216h2.345v2.345H392Z" transform="translate(-314.069 -163.862)" fill="#62b8d3"/>
        <path id="Path_905702" data-name="Path 905702" d="M424,280h2.345v2.345H424Z" transform="translate(-341.379 -218.483)" fill="#62b8d3"/>
        <path id="Path_905703" data-name="Path 905703" d="M240,352h16.414v.4a16.012,16.012,0,0,1-4.69,11.322Z" transform="translate(-184.345 -279.931)" fill="#00779c"/>
        <path id="Path_905704" data-name="Path 905704" d="M28.6,119.774a2.345,2.345,0,0,0-4.51,1.285l.963,3.383,4.51-1.285Z" transform="translate(0 -80.285)" fill="#e88977"/>
        <path id="Path_905705" data-name="Path 905705" d="M182.5,278.526a11.7,11.7,0,0,0-2.048,1.141l5.235,9.423-7.623,7.623a11.8,11.8,0,0,0,1.658,1.658l8.248-8.248a1.172,1.172,0,0,0,.2-1.4Z" transform="translate(-131.484 -217.224)" fill="#00779c"/>
      </g>
    </g>
  </g>
</svg>
