<svg xmlns="http://www.w3.org/2000/svg" xmlns:xlink="http://www.w3.org/1999/xlink" width="121" height="121" viewBox="0 0 121 121">
  <defs>
    <clipPath id="clip-path">
      <rect id="Rectangle_400938" data-name="Rectangle 400938" width="121" height="121" transform="translate(0 0)" fill="none"/>
    </clipPath>
    <clipPath id="clip-path-2">
      <rect id="Rectangle_401073" data-name="Rectangle 401073" width="92.219" height="41.532" fill="#efb499"/>
    </clipPath>
  </defs>
  <g id="Group_1118917" data-name="Group 1118917" transform="translate(-12330 10708.232)">
    <g id="Group_1118561" data-name="Group 1118561" transform="translate(11942.332 -16721.232)">
      <rect id="Rectangle_401103" data-name="Rectangle 401103" width="121" height="121" transform="translate(387.668 6013)" fill="none"/>
      <g id="Group_1099348" data-name="Group 1099348" transform="translate(387.668 6013)">
        <g id="Group_1099282" data-name="Group 1099282">
          <g id="Group_1099281" data-name="Group 1099281" clip-path="url(#clip-path-2)">
            <path id="Path_873375" data-name="Path 873375" d="M74.8,9.1c-4.139,0-6.28-2.03-8.17-3.821-1.855-1.756-3.452-3.274-6.792-3.274s-4.937,1.517-6.792,3.274C51.161,7.072,49.023,9.1,44.881,9.1s-6.28-2.03-8.169-3.821C34.857,3.525,33.26,2.007,29.92,2.007s-4.937,1.517-6.789,3.274C21.241,7.072,19.1,9.1,14.962,9.1S8.679,7.072,6.789,5.281C4.937,3.525,3.34,2.007,0,2.007V0C4.139,0,6.28,2.033,8.17,3.821c1.855,1.759,3.452,3.274,6.792,3.274S19.9,5.58,21.75,3.824C23.637,2.033,25.781,0,29.92,0s6.283,2.033,8.17,3.821c1.855,1.759,3.452,3.274,6.792,3.274s4.937-1.514,6.792-3.274C53.56,2.033,55.7,0,59.843,0s6.283,2.033,8.17,3.821C69.867,5.58,71.464,7.094,74.8,7.094S79.742,5.58,81.6,3.821C83.483,2.033,85.624,0,89.766,0V2.007c-3.34,0-4.937,1.517-6.792,3.274C81.084,7.072,78.943,9.1,74.8,9.1" transform="translate(2.453 32.43)" fill="#efb499"/>
            <path id="Path_873376" data-name="Path 873376" d="M74.8,9.1c-4.139,0-6.283-2.03-8.17-3.824-1.855-1.756-3.452-3.27-6.792-3.27s-4.937,1.514-6.792,3.27C51.164,7.072,49.023,9.1,44.881,9.1s-6.283-2.03-8.17-3.824c-1.855-1.756-3.452-3.27-6.792-3.27s-4.937,1.517-6.789,3.27C21.241,7.072,19.1,9.1,14.962,9.1S8.679,7.072,6.789,5.278C4.937,3.522,3.34,2.007,0,2.007V0C4.139,0,6.283,2.03,8.17,3.821c1.855,1.759,3.452,3.274,6.792,3.274S19.9,5.58,21.75,3.821C23.637,2.03,25.781,0,29.92,0S36.2,2.03,38.093,3.821c1.852,1.759,3.449,3.274,6.789,3.274s4.937-1.514,6.792-3.274C53.56,2.03,55.7,0,59.843,0s6.283,2.03,8.17,3.821C69.867,5.58,71.464,7.094,74.8,7.094S79.742,5.58,81.6,3.821C83.486,2.03,85.627,0,89.769,0V2.007c-3.34,0-4.94,1.517-6.8,3.27C81.084,7.072,78.943,9.1,74.8,9.1" transform="translate(1.635 21.62)" fill="#efb499"/>
            <path id="Path_873377" data-name="Path 873377" d="M74.8,9.1c-4.139,0-6.283-2.03-8.169-3.824-1.855-1.756-3.452-3.27-6.792-3.27s-4.937,1.514-6.792,3.27C51.164,7.072,49.02,9.1,44.881,9.1s-6.283-2.03-8.17-3.824c-1.855-1.756-3.452-3.27-6.792-3.27s-4.937,1.517-6.789,3.27C21.241,7.072,19.1,9.1,14.962,9.1S8.678,7.072,6.789,5.278C4.937,3.522,3.34,2.007,0,2.007V0C4.139,0,6.283,2.03,8.169,3.821c1.851,1.759,3.452,3.274,6.792,3.274S19.9,5.58,21.75,3.821C23.637,2.03,25.781,0,29.92,0S36.2,2.03,38.093,3.821c1.852,1.759,3.449,3.274,6.789,3.274s4.937-1.514,6.792-3.274C53.56,2.03,55.7,0,59.843,0s6.283,2.03,8.17,3.821C69.867,5.58,71.464,7.094,74.8,7.094S79.742,5.58,81.6,3.821C83.486,2.03,85.624,0,89.769,0V2.007c-3.34,0-4.941,1.517-6.8,3.27C81.084,7.072,78.943,9.1,74.8,9.1" transform="translate(0.818 10.81)" fill="#efb499"/>
            <path id="Path_873378" data-name="Path 873378" d="M74.8,9.1c-4.139,0-6.28-2.03-8.17-3.821-1.855-1.756-3.452-3.27-6.792-3.27s-4.937,1.514-6.789,3.27C51.164,7.069,49.023,9.1,44.881,9.1s-6.28-2.03-8.169-3.821c-1.855-1.756-3.452-3.27-6.792-3.27s-4.937,1.514-6.789,3.267C21.245,7.069,19.1,9.1,14.962,9.1S8.678,7.069,6.789,5.278C4.937,3.522,3.34,2.007,0,2.007V0C4.139,0,6.283,2.03,8.17,3.821c1.855,1.756,3.452,3.27,6.792,3.27S19.9,5.577,21.75,3.821C23.64,2.03,25.781,0,29.92,0s6.28,2.03,8.173,3.821c1.852,1.756,3.449,3.27,6.789,3.27s4.937-1.514,6.792-3.27C53.563,2.03,55.7,0,59.843,0s6.28,2.03,8.17,3.821c1.855,1.756,3.452,3.27,6.792,3.27s4.937-1.514,6.792-3.27C83.486,2.03,85.627,0,89.769,0V2.007c-3.344,0-4.941,1.514-6.8,3.27C81.084,7.069,78.943,9.1,74.8,9.1" transform="translate(0 0.003)" fill="#efb499"/>
          </g>
        </g>
      </g>
      <circle id="Ellipse_11504" data-name="Ellipse 11504" cx="50.5" cy="50.5" r="50.5" transform="translate(402.668 6031)" fill="#ffce73"/>
      <circle id="Ellipse_11503" data-name="Ellipse 11503" cx="52.5" cy="52.5" r="52.5" transform="translate(395.668 6021)" fill="#f3f9ff"/>
    </g>
    <g id="Group_1118777" data-name="Group 1118777" transform="translate(12353.051 -10695.795)">
      <g id="Group_1118773" data-name="Group 1118773" transform="translate(0 14)">
        <path id="Path_906265" data-name="Path 906265" d="M199.688,25.272a10.922,10.922,0,0,0-9.637-10.846,11.389,11.389,0,0,0-1.284.078,10.768,10.768,0,0,0,0,21.535,11.457,11.457,0,0,0,1.237.084A10.922,10.922,0,0,0,199.688,25.272Z" transform="translate(-150.814 -14.351)" fill="#ffe07d"/>
        <path id="Path_906266" data-name="Path 906266" d="M22.688,25.217A10.922,10.922,0,0,0,12.93,14.358a11.513,11.513,0,0,0-1.162.092,10.768,10.768,0,0,0,0,21.535c.377,0,.749.134,1.116.1A10.922,10.922,0,0,0,22.688,25.217Z" transform="translate(-0.847 -14.296)" fill="#afefa5"/>
        <path id="Path_906267" data-name="Path 906267" d="M376.688,25.335a10.922,10.922,0,0,0-9.5-10.829,11.3,11.3,0,0,0-1.421.061,10.768,10.768,0,0,0,0,21.535,11.306,11.306,0,0,0,1.388.065,10.922,10.922,0,0,0,9.533-10.833Z" transform="translate(-300.78 -14.415)" fill="#ff7d91"/>
        <path id="Path_906268" data-name="Path 906268" d="M180.055,24.92a10.921,10.921,0,0,1,9.393-10.812,10.92,10.92,0,1,0,0,21.623A10.921,10.921,0,0,1,180.055,24.92Z" transform="translate(-149.967 -14)" fill="#ffd064"/>
        <path id="Path_906269" data-name="Path 906269" d="M3.055,24.92a10.921,10.921,0,0,1,9.393-10.812,10.92,10.92,0,1,0,0,21.623A10.921,10.921,0,0,1,3.055,24.92Z" transform="translate(0 -14)" fill="#8ce1a4"/>
        <path id="Path_906270" data-name="Path 906270" d="M357.055,24.92a10.921,10.921,0,0,1,9.393-10.812,10.92,10.92,0,1,0,0,21.623A10.921,10.921,0,0,1,357.055,24.92Z" transform="translate(-299.933 -14)" fill="#e15f78"/>
        <g id="Group_1118763" data-name="Group 1118763" transform="translate(6.72 6.415)">
          <g id="Group_1118761" data-name="Group 1118761">
            <path id="Path_906271" data-name="Path 906271" d="M45.145,59.818A1.145,1.145,0,0,1,44,58.673V57.145a1.145,1.145,0,0,1,2.291,0v1.527A1.145,1.145,0,0,1,45.145,59.818Z" transform="translate(-44 -56)" fill="#8ce1a4"/>
          </g>
          <g id="Group_1118762" data-name="Group 1118762" transform="translate(6.109)">
            <path id="Path_906272" data-name="Path 906272" d="M85.145,59.818A1.145,1.145,0,0,1,84,58.673V57.145a1.145,1.145,0,1,1,2.291,0v1.527A1.145,1.145,0,0,1,85.145,59.818Z" transform="translate(-84 -56)" fill="#8ce1a4"/>
          </g>
        </g>
        <g id="Group_1118764" data-name="Group 1118764" transform="translate(6.567 13.257)">
          <path id="Path_906273" data-name="Path 906273" d="M47.353,104.377a5.78,5.78,0,0,1-4-1.6,1.146,1.146,0,0,1,1.58-1.659,3.5,3.5,0,0,0,4.835,0,1.146,1.146,0,1,1,1.58,1.659A5.78,5.78,0,0,1,47.353,104.377Z" transform="translate(-43 -100.801)" fill="#8ce1a4"/>
        </g>
        <g id="Group_1118767" data-name="Group 1118767" transform="translate(33.754 6.415)">
          <g id="Group_1118765" data-name="Group 1118765">
            <path id="Path_906274" data-name="Path 906274" d="M222.145,59.818A1.145,1.145,0,0,1,221,58.673V57.145a1.145,1.145,0,1,1,2.291,0v1.527A1.145,1.145,0,0,1,222.145,59.818Z" transform="translate(-221 -56)" fill="#ffd064"/>
          </g>
          <g id="Group_1118766" data-name="Group 1118766" transform="translate(6.109)">
            <path id="Path_906275" data-name="Path 906275" d="M262.145,59.818A1.145,1.145,0,0,1,261,58.673V57.145a1.145,1.145,0,1,1,2.291,0v1.527A1.145,1.145,0,0,1,262.145,59.818Z" transform="translate(-261 -56)" fill="#ffd064"/>
          </g>
        </g>
        <g id="Group_1118768" data-name="Group 1118768" transform="translate(33.601 13.899)">
          <path id="Path_906276" data-name="Path 906276" d="M227.56,107.291h-6.415a1.145,1.145,0,1,1,0-2.291h6.415a1.145,1.145,0,0,1,0,2.291Z" transform="translate(-220 -105)" fill="#ffd064"/>
        </g>
        <g id="Group_1118771" data-name="Group 1118771" transform="translate(60.787 6.415)">
          <g id="Group_1118769" data-name="Group 1118769">
            <path id="Path_906277" data-name="Path 906277" d="M399.145,59.818A1.145,1.145,0,0,1,398,58.673V57.145a1.145,1.145,0,1,1,2.291,0v1.527A1.145,1.145,0,0,1,399.145,59.818Z" transform="translate(-398 -56)" fill="#e15f78"/>
          </g>
          <g id="Group_1118770" data-name="Group 1118770" transform="translate(6.109)">
            <path id="Path_906278" data-name="Path 906278" d="M439.145,59.818A1.145,1.145,0,0,1,438,58.673V57.145a1.145,1.145,0,1,1,2.291,0v1.527A1.145,1.145,0,0,1,439.145,59.818Z" transform="translate(-438 -56)" fill="#e15f78"/>
          </g>
        </g>
        <g id="Group_1118772" data-name="Group 1118772" transform="translate(60.634 13.255)">
          <path id="Path_906279" data-name="Path 906279" d="M404.56,104.361a1.143,1.143,0,0,1-.79-.316,3.5,3.5,0,0,0-4.835,0,1.146,1.146,0,0,1-1.58-1.659,5.79,5.79,0,0,1,7.995,0,1.145,1.145,0,0,1-.79,1.975Z" transform="translate(-397 -100.785)" fill="#e15f78"/>
        </g>
      </g>
      <path id="Path_906280" data-name="Path 906280" d="M112.153,187h3.818a.764.764,0,0,1,.764.764v1.527l-.153,1.375a.764.764,0,0,1-.764.764h-3.666L112,189.291Z" transform="translate(-94.894 -146.577)" fill="#f9f8f9"/>
      <path id="Path_906281" data-name="Path 906281" d="M112.153,204.291h3.818a.764.764,0,0,0,.764-.764V202h-4.582L112,203.181Z" transform="translate(-94.894 -159.286)" fill="#e8e8e8"/>
      <path id="Path_906282" data-name="Path 906282" d="M17.953,191.429H1.764A.764.764,0,0,1,1,190.666v-2.749a.764.764,0,0,1,.764-.764L3.138,187H18.106v2.291Z" transform="translate(-0.847 -146.577)" fill="#afefa5"/>
      <path id="Path_906283" data-name="Path 906283" d="M3.055,189.291a.764.764,0,0,1-.764-.764V187H.764a.764.764,0,0,0-.764.764v3.055a.764.764,0,0,0,.764.764H17.259v-2.291Z" transform="translate(0 -146.577)" fill="#8ce1a4"/>
      <path id="Path_906284" data-name="Path 906284" d="M247.653,187h10.157a.764.764,0,0,1,.764.764v1.527l-.153,1.375a.764.764,0,0,1-.764.764l-10,.153-.153-2.291Z" transform="translate(-209.699 -146.577)" fill="#f9f8f9"/>
      <path id="Path_906285" data-name="Path 906285" d="M247.653,204.291h10.157a.764.764,0,0,0,.764-.764V202h-10.92l-.153,1.145Z" transform="translate(-209.699 -159.286)" fill="#e8e8e8"/>
      <path id="Path_906286" data-name="Path 906286" d="M383.305,187h16.342a.764.764,0,0,1,.764.764v1.527l-.153,1.375a.764.764,0,0,1-.764.764h-16.19L383,189.291Z" transform="translate(-324.504 -146.577)" fill="#f9f8f9"/>
      <path id="Path_906287" data-name="Path 906287" d="M187.92,191.582H177.764a.764.764,0,0,1-.764-.764v-3.055a.764.764,0,0,1,.764-.764H187.92Z" transform="translate(-149.967 -146.577)" fill="#ffe07d"/>
      <path id="Path_906288" data-name="Path 906288" d="M383.305,204.291h16.342a.764.764,0,0,0,.764-.764V202H383.305L383,203.145Z" transform="translate(-324.504 -159.286)" fill="#e8e8e8"/>
      <path id="Path_906289" data-name="Path 906289" d="M359.429,191.429h-3.666a.764.764,0,0,1-.764-.764v-2.749a.764.764,0,0,1,.764-.764l1.375-.153h2.444v2.291Z" transform="translate(-300.78 -146.577)" fill="#ff7d91"/>
      <path id="Path_906290" data-name="Path 906290" d="M180.055,189.291a.764.764,0,0,1-.764-.764V187h-1.527a.764.764,0,0,0-.764.764v3.055a.764.764,0,0,0,.764.764H187.92v-2.291Z" transform="translate(-149.967 -146.577)" fill="#ffd064"/>
      <path id="Path_906291" data-name="Path 906291" d="M357.055,189.291a.764.764,0,0,1-.764-.764V187h-1.527a.764.764,0,0,0-.764.764v3.055a.764.764,0,0,0,.764.764h3.971v-2.291Z" transform="translate(-299.933 -146.577)" fill="#e15f78"/>
      <g id="Group_1118776" data-name="Group 1118776" transform="translate(29.077 49.749)">
        <path id="Path_906292" data-name="Path 906292" d="M217.936,262.708c-.089,0-.175,0-.259.01-1.139.1-2.5,2.071-2.5,2.827v-1.738a3.216,3.216,0,0,0-.624-2.029,3.278,3.278,0,0,0-2.631-1.186,3.1,3.1,0,0,0-2.1,1.29,3.16,3.16,0,0,0-.827,2.078c0-.169,0-.68,0-.863,0-.483,0-1.18,0-1.263a3.127,3.127,0,0,0-2.925-3.066,3.331,3.331,0,0,0-3.15,3.025V251.133a3.078,3.078,0,0,0-3.093-3.065c-1.218,0-2.785,1.175-2.785,3.57l-.305,10.822h-1.694a3.776,3.776,0,0,0-1.147.177c-1.541.491-2.506,2.4-2.506,4.118l.077,3.687a10.018,10.018,0,0,0,4.178,8.129l.606.446a6.332,6.332,0,0,1,2.483,4.372.446.446,0,0,0,.443.414l17.932-.075a.445.445,0,0,0,.445-.445,7.039,7.039,0,0,1,.391-1.686,8.623,8.623,0,0,1,1.373-3.083,8.637,8.637,0,0,0,1.586-4.991v-7.837A2.935,2.935,0,0,0,217.936,262.708Z" transform="translate(-191.228 -248.068)" fill="#f2d1a5"/>
        <g id="Group_1118775" data-name="Group 1118775">
          <path id="Path_906293" data-name="Path 906293" d="M199.989,362.111a.473.473,0,0,1-.445-.305,7.363,7.363,0,0,0-2.666-3.62l-.629-.465a7.928,7.928,0,0,1-3.208-6.37v-7.893a3.951,3.951,0,0,0-1.216.652,3.841,3.841,0,0,0-1.442,3.008v4.233a10.262,10.262,0,0,0,4.165,8.267l.606.445a6.2,6.2,0,0,1,2.51,4.294.447.447,0,0,0,.443.414h18.325a.445.445,0,0,0,.445-.445,11.607,11.607,0,0,1,.288-2.213Z" transform="translate(-190.382 -328.888)" fill="#f2bb88"/>
          <path id="Path_906294" data-name="Path 906294" d="M229.482,270.361a1.545,1.545,0,1,1-3.09,0V251.13a3.078,3.078,0,0,1,3.09-3.065v22.3Z" transform="translate(-220.892 -248.065)" fill="#f2bb88"/>
          <g id="Group_1118774" data-name="Group 1118774" transform="translate(11.676 10.7)">
            <path id="Path_906295" data-name="Path 906295" d="M269.934,325.795a1.263,1.263,0,0,1-1.263,1.263h-.58a1.263,1.263,0,0,1-1.263-1.265l.006-5.41a3.09,3.09,0,0,1,2.984-2.261l.116,0v7.67Z" transform="translate(-266.828 -318.123)" fill="#f2bb88"/>
            <path id="Path_906296" data-name="Path 906296" d="M309.815,335.922a1.263,1.263,0,0,1-1.263,1.263h-.558a1.263,1.263,0,0,1-1.263-1.263V332.9a3.1,3.1,0,0,1,3.084-2.853v5.876Z" transform="translate(-300.637 -328.225)" fill="#f2bb88"/>
            <path id="Path_906297" data-name="Path 906297" d="M349.672,343.994v3.758a1.251,1.251,0,0,1-2.5,0v-1.7A2.868,2.868,0,0,1,349.672,343.994Z" transform="translate(-334.899 -340.043)" fill="#f2bb88"/>
          </g>
        </g>
      </g>
    </g>
  </g>
</svg>
