<svg xmlns="http://www.w3.org/2000/svg" xmlns:xlink="http://www.w3.org/1999/xlink" width="129" height="128" viewBox="0 0 129 128">
  <defs>
    <clipPath id="clip-path">
      <rect id="Rectangle_400938" data-name="Rectangle 400938" width="120" height="120" fill="none"/>
    </clipPath>
    <clipPath id="clip-path-2">
      <rect id="Rectangle_400938-2" data-name="Rectangle 400938" width="113" height="113" transform="translate(0.211 0.211)" fill="none"/>
    </clipPath>
    <clipPath id="clip-path-3">
      <rect id="Rectangle_401073" data-name="Rectangle 401073" width="86.443" height="38.93" fill="#7d3a1b"/>
    </clipPath>
  </defs>
  <g id="Group_1118907" data-name="Group 1118907" transform="translate(-375.867 -2719)">
    <g id="Group_1118797" data-name="Group 1118797" transform="translate(0 -96)">
      <g id="Grupo_108927" data-name="Grupo 108927" transform="translate(-14.133 -1652)">
        <path id="Rectángulo_36179" data-name="Rectángulo 36179" d="M0,0H129V128H0Z" transform="translate(390 4467)" fill="#feebcf"/>
      </g>
      <g id="Group_1099433" data-name="Group 1099433" transform="translate(118.656 -2461.211)">
        <g id="Group_1099379" data-name="Group 1099379" transform="translate(265 5284)">
          <rect id="Rectangle_401103" data-name="Rectangle 401103" width="113" height="113" transform="translate(0.211 0.211)" fill="none"/>
          <g id="Group_1099348" data-name="Group 1099348">
            <g id="Group_1099282" data-name="Group 1099282">
              <g id="Group_1099281" data-name="Group 1099281" clip-path="url(#clip-path-3)">
                <path id="Path_873375" data-name="Path 873375" d="M70.12,8.532c-3.88,0-5.887-1.9-7.658-3.581C60.723,3.3,59.226,1.882,56.1,1.882S51.467,3.3,49.728,4.95c-1.771,1.679-3.775,3.581-7.658,3.581s-5.886-1.9-7.658-3.581C32.674,3.3,31.177,1.882,28.046,1.882S23.418,3.3,21.682,4.95C19.911,6.629,17.9,8.532,14.024,8.532S8.135,6.629,6.364,4.95C4.628,3.3,3.131,1.882,0,1.882V0C3.88,0,5.887,1.906,7.658,3.581,9.4,5.23,10.893,6.65,14.024,6.65s4.628-1.419,6.364-3.066C22.157,1.906,24.166,0,28.046,0s5.89,1.906,7.658,3.581C37.442,5.23,38.939,6.65,42.07,6.65S46.7,5.23,48.437,3.581C50.205,1.906,52.215,0,56.1,0s5.89,1.906,7.658,3.581C65.491,5.23,66.988,6.65,70.12,6.65s4.628-1.419,6.367-3.069C78.255,1.906,80.261,0,84.144,0V1.882c-3.131,0-4.628,1.422-6.367,3.069C76.006,6.629,74,8.532,70.12,8.532" transform="translate(2.299 30.399)" fill="#7d3a1b"/>
                <path id="Path_873376" data-name="Path 873376" d="M70.12,8.532c-3.88,0-5.889-1.9-7.658-3.584C60.723,3.3,59.226,1.882,56.1,1.882S51.467,3.3,49.728,4.947c-1.768,1.682-3.775,3.584-7.658,3.584s-5.889-1.9-7.658-3.584C32.674,3.3,31.177,1.882,28.046,1.882S23.418,3.3,21.682,4.947C19.911,6.629,17.9,8.532,14.025,8.532s-5.889-1.9-7.661-3.584C4.628,3.3,3.131,1.882,0,1.882V0C3.88,0,5.889,1.9,7.658,3.581,9.4,5.23,10.893,6.65,14.025,6.65s4.628-1.419,6.364-3.069C22.157,1.9,24.166,0,28.046,0s5.889,1.9,7.661,3.581C37.442,5.23,38.939,6.65,42.071,6.65S46.7,5.23,48.437,3.581C50.206,1.9,52.215,0,56.1,0s5.89,1.9,7.658,3.581C65.491,5.23,66.988,6.65,70.12,6.65s4.628-1.419,6.367-3.069C78.257,1.9,80.264,0,84.147,0V1.882c-3.131,0-4.631,1.422-6.37,3.066C76.006,6.629,74,8.532,70.12,8.532" transform="translate(1.533 20.266)" fill="#7d3a1b"/>
                <path id="Path_873377" data-name="Path 873377" d="M70.119,8.532c-3.88,0-5.889-1.9-7.658-3.584C60.723,3.3,59.226,1.882,56.1,1.882S51.467,3.3,49.728,4.947C47.96,6.629,45.95,8.532,42.071,8.532s-5.89-1.9-7.658-3.584C32.674,3.3,31.177,1.882,28.046,1.882S23.418,3.3,21.682,4.947C19.911,6.629,17.9,8.532,14.025,8.532s-5.89-1.9-7.661-3.584C4.628,3.3,3.131,1.882,0,1.882V0C3.88,0,5.889,1.9,7.658,3.581,9.393,5.23,10.893,6.65,14.025,6.65s4.628-1.419,6.364-3.069C22.156,1.9,24.166,0,28.046,0s5.89,1.9,7.661,3.581C37.442,5.23,38.939,6.65,42.071,6.65S46.7,5.23,48.437,3.581C50.205,1.9,52.215,0,56.1,0s5.889,1.9,7.658,3.581C65.491,5.23,66.988,6.65,70.119,6.65s4.628-1.419,6.367-3.069C78.257,1.9,80.261,0,84.147,0V1.882c-3.131,0-4.631,1.422-6.37,3.066C76.006,6.629,74,8.532,70.119,8.532" transform="translate(0.766 10.133)" fill="#7d3a1b"/>
                <path id="Path_873378" data-name="Path 873378" d="M70.12,8.529c-3.88,0-5.887-1.9-7.658-3.581C60.723,3.3,59.226,1.882,56.095,1.882S51.467,3.3,49.731,4.947C47.96,6.626,45.953,8.529,42.07,8.529s-5.887-1.9-7.658-3.581C32.674,3.3,31.177,1.882,28.046,1.882S23.418,3.3,21.682,4.944C19.914,6.626,17.9,8.529,14.024,8.529s-5.89-1.9-7.661-3.581C4.628,3.3,3.131,1.882,0,1.882V0C3.88,0,5.89,1.9,7.658,3.581,9.4,5.228,10.893,6.647,14.024,6.647s4.628-1.419,6.364-3.066C22.159,1.9,24.166,0,28.046,0s5.887,1.9,7.661,3.581c1.736,1.646,3.233,3.066,6.364,3.066S46.7,5.228,48.437,3.581C50.208,1.9,52.215,0,56.095,0s5.887,1.9,7.658,3.581c1.739,1.646,3.236,3.066,6.367,3.066s4.628-1.419,6.367-3.066C78.257,1.9,80.264,0,84.147,0V1.882c-3.134,0-4.631,1.419-6.37,3.066C76.006,6.626,74,8.529,70.12,8.529" transform="translate(0 0.003)" fill="#7d3a1b"/>
              </g>
            </g>
          </g>
          <path id="Path_873425" data-name="Path 873425" d="M47.337,0A47.337,47.337,0,1,1,0,47.337,47.337,47.337,0,0,1,47.337,0Z" transform="translate(14.061 16.873)" fill="#7d3a1b"/>
          <circle id="Ellipse_11503" data-name="Ellipse 11503" cx="49.5" cy="49.5" r="49.5" transform="translate(7.211 7.211)" fill="#fff"/>
        </g>
      </g>
      <g id="Group_1118642" data-name="Group 1118642" transform="translate(340.685 2843.5)">
        <g id="Group_1118627" data-name="Group 1118627" transform="translate(97.466 54.1)">
          <path id="Path_905879" data-name="Path 905879" d="M262.373,376.857v12.88l-11.293,6.52-2.18-5.011,6.556-5.14,2.888-6.924Z" transform="translate(-248.9 -376.857)" fill="#0573ce"/>
        </g>
        <g id="Group_1118628" data-name="Group 1118628" transform="translate(81.271 54.944)">
          <path id="Path_905880" data-name="Path 905880" d="M143.348,382.742l-7.265,4.195,10.194,7.731,8.181,2.878,7.265-4.195-5.15-6.64Z" transform="translate(-136.083 -382.742)" fill="#c0d6f2"/>
        </g>
        <g id="Group_1118629" data-name="Group 1118629" transform="translate(114.546 54.935)">
          <path id="Path_905881" data-name="Path 905881" d="M367.877,382.674l3.475,10.99,6.867-3.965v-6.451Z" transform="translate(-367.877 -382.674)" fill="#82aee3"/>
        </g>
        <g id="Group_1118630" data-name="Group 1118630" transform="translate(88.536 45.83)">
          <path id="Path_905882" data-name="Path 905882" d="M186.691,328.365V319.25l18.375,10.6v9.128Z" transform="translate(-186.691 -319.25)" fill="#82aee3"/>
        </g>
        <g id="Group_1118631" data-name="Group 1118631" transform="translate(81.271 59.139)">
          <path id="Path_905883" data-name="Path 905883" d="M136.083,411.961v3.752l18.375,10.609V422.57Z" transform="translate(-136.083 -411.961)" fill="#82aee3"/>
        </g>
        <g id="Group_1118632" data-name="Group 1118632" transform="translate(72.083 32.947)">
          <path id="Path_905884" data-name="Path 905884" d="M92.748,241.453,72.083,229.51v6.455l45.938,26.522V250.662Z" transform="translate(-72.083 -229.51)" fill="#c0d6f2"/>
        </g>
        <g id="Group_1118633" data-name="Group 1118633" transform="translate(115.7 26.335)">
          <path id="Path_905885" data-name="Path 905885" d="M385.1,183.447h-9.187l2.321,33.162,6.867-3.988Z" transform="translate(-375.917 -183.447)" fill="#0055a3"/>
        </g>
        <g id="Group_1118634" data-name="Group 1118634" transform="translate(72.083 3.777)">
          <path id="Path_905886" data-name="Path 905886" d="M118.021,82.032V48.869L72.083,26.312v29.17L92.748,67.425Z" transform="translate(-72.083 -26.312)" fill="#0573ce"/>
        </g>
        <g id="Group_1118635" data-name="Group 1118635" transform="translate(72.083)">
          <path id="Path_905887" data-name="Path 905887" d="M124.887,26.335,78.625,0,72.083,3.777,118.021,30.3Z" transform="translate(-72.083)" fill="#82aee3"/>
        </g>
        <g id="Group_1118636" data-name="Group 1118636" transform="translate(75.011 8.849)">
          <path id="Path_905888" data-name="Path 905888" d="M92.481,87.434V61.643l40.081,23.141V110.6Z" transform="translate(-92.481 -61.643)" fill="#60b7ff"/>
        </g>
        <g id="Group_1118637" data-name="Group 1118637" transform="translate(83.215 26.451)">
          <path id="Path_905889" data-name="Path 905889" d="M259.081,253.323a.732.732,0,0,1-.282-1.408l6.929-2.885a.732.732,0,0,1,.563,1.352l-6.929,2.885A.731.731,0,0,1,259.081,253.323Z" transform="translate(-242.742 -239.683)" fill="#d8ecfe"/>
          <path id="Path_905890" data-name="Path 905890" d="M211.412,202.9a.731.731,0,0,1-.618-.339l-6.318-9.926a.732.732,0,0,1,1.235-.786l6.318,9.926a.732.732,0,0,1-.617,1.125Z" transform="translate(-196.505 -190.472)" fill="#d8ecfe"/>
          <path id="Path_905891" data-name="Path 905891" d="M150.364,188.583a.732.732,0,0,1-.282-1.408l6.869-2.86a.732.732,0,1,1,.563,1.352l-6.869,2.86A.731.731,0,0,1,150.364,188.583Z" transform="translate(-149.632 -184.259)" fill="#d8ecfe"/>
        </g>
        <g id="Group_1118638" data-name="Group 1118638" transform="translate(79.871 26.635)">
          <ellipse id="Ellipse_11642" data-name="Ellipse 11642" cx="1.87" cy="3.238" rx="1.87" ry="3.238" transform="matrix(0.863, -0.505, 0.505, 0.863, 0, 1.888)" fill="#ffd15b"/>
        </g>
        <g id="Group_1118639" data-name="Group 1118639" transform="translate(87.824 23.321)">
          <ellipse id="Ellipse_11643" data-name="Ellipse 11643" cx="1.87" cy="3.238" rx="1.87" ry="3.238" transform="matrix(0.863, -0.505, 0.505, 0.863, 0, 1.888)" fill="#ffd15b"/>
        </g>
        <g id="Group_1118640" data-name="Group 1118640" transform="translate(95.782 35.815)">
          <ellipse id="Ellipse_11644" data-name="Ellipse 11644" cx="1.87" cy="3.238" rx="1.87" ry="3.238" transform="matrix(0.863, -0.505, 0.505, 0.863, 0, 1.888)" fill="#ffd15b"/>
        </g>
        <g id="Group_1118641" data-name="Group 1118641" transform="translate(103.736 32.5)">
          <ellipse id="Ellipse_11645" data-name="Ellipse 11645" cx="1.87" cy="3.238" rx="1.87" ry="3.238" transform="matrix(0.863, -0.505, 0.505, 0.863, 0, 1.888)" fill="#ffd15b"/>
        </g>
      </g>
    </g>
  </g>
</svg>
