<svg xmlns="http://www.w3.org/2000/svg" xmlns:xlink="http://www.w3.org/1999/xlink" width="145" height="145" viewBox="0 0 145 145">
  <defs>
    <clipPath id="clip-path">
      <rect id="Rectangle_400938" data-name="Rectangle 400938" width="145" height="145" transform="translate(0 -0.281)" fill="none"/>
    </clipPath>
    <clipPath id="clip-path-2">
      <rect id="Rectangle_401073" data-name="Rectangle 401073" width="110.228" height="49.642" fill="#7d3a1b"/>
    </clipPath>
  </defs>
  <g id="Group_1118787" data-name="Group 1118787" transform="translate(-938.289 -4171.154)">
    <g id="Group_1117912" data-name="Group 1117912" transform="translate(763.289 -5369.564)">
      <g id="Group_1099404" data-name="Group 1099404" transform="translate(175 9541)">
        <g id="Group_1099379" data-name="Group 1099379" transform="translate(0 0)">
          <rect id="Rectangle_401103" data-name="Rectangle 401103" width="145" height="145" transform="translate(0 -0.281)" fill="none"/>
          <g id="Group_1099348" data-name="Group 1099348" transform="translate(0.045 0.045)">
            <g id="Group_1099282" data-name="Group 1099282">
              <g id="Group_1099281" data-name="Group 1099281" clip-path="url(#clip-path-2)">
                <path id="Path_873375" data-name="Path 873375" d="M89.413,10.879c-4.947,0-7.506-2.426-9.765-4.567C77.431,4.213,75.522,2.4,71.529,2.4s-5.9,1.814-8.118,3.913c-2.259,2.141-4.814,4.567-9.765,4.567S46.14,8.453,43.881,6.312C41.664,4.213,39.755,2.4,35.763,2.4s-5.9,1.814-8.114,3.913c-2.259,2.141-4.818,4.567-9.765,4.567s-7.51-2.426-9.769-4.567C5.9,4.213,3.993,2.4,0,2.4V0C4.947,0,7.506,2.43,9.765,4.567c2.217,2.1,4.126,3.913,8.118,3.913S23.785,6.67,26,4.571C28.253,2.43,30.816,0,35.763,0s7.51,2.43,9.765,4.567c2.217,2.1,4.126,3.913,8.118,3.913s5.9-1.81,8.118-3.913C64.019,2.43,66.582,0,71.529,0s7.51,2.43,9.765,4.567c2.217,2.1,4.126,3.913,8.118,3.913s5.9-1.81,8.118-3.913C99.786,2.43,102.345,0,107.3,0V2.4c-3.993,0-5.9,1.814-8.118,3.913-2.259,2.141-4.818,4.567-9.765,4.567" transform="translate(2.932 38.763)" fill="#7d3a1b"/>
                <path id="Path_873376" data-name="Path 873376" d="M89.413,10.879c-4.947,0-7.51-2.426-9.765-4.571C77.431,4.209,75.522,2.4,71.529,2.4s-5.9,1.81-8.118,3.909c-2.255,2.145-4.814,4.571-9.765,4.571s-7.51-2.426-9.765-4.571C41.664,4.209,39.755,2.4,35.763,2.4s-5.9,1.814-8.115,3.909c-2.259,2.145-4.818,4.571-9.765,4.571s-7.51-2.426-9.769-4.571C5.9,4.209,3.993,2.4,0,2.4V0C4.947,0,7.51,2.426,9.765,4.567c2.217,2.1,4.126,3.913,8.118,3.913S23.785,6.67,26,4.567C28.253,2.426,30.816,0,35.763,0s7.51,2.426,9.769,4.567c2.213,2.1,4.122,3.913,8.115,3.913s5.9-1.81,8.118-3.913C64.019,2.426,66.582,0,71.529,0s7.51,2.426,9.765,4.567c2.217,2.1,4.126,3.913,8.118,3.913s5.9-1.81,8.118-3.913C99.79,2.426,102.349,0,107.3,0V2.4c-3.993,0-5.905,1.814-8.122,3.909-2.259,2.145-4.818,4.571-9.765,4.571" transform="translate(1.955 25.842)" fill="#7d3a1b"/>
                <path id="Path_873377" data-name="Path 873377" d="M89.412,10.879c-4.947,0-7.51-2.426-9.765-4.571C77.431,4.209,75.522,2.4,71.529,2.4s-5.9,1.81-8.118,3.909c-2.255,2.145-4.818,4.571-9.765,4.571s-7.51-2.426-9.765-4.571C41.664,4.209,39.755,2.4,35.763,2.4s-5.9,1.814-8.115,3.909c-2.259,2.145-4.818,4.571-9.765,4.571s-7.51-2.426-9.769-4.571C5.9,4.209,3.993,2.4,0,2.4V0C4.947,0,7.51,2.426,9.765,4.567c2.213,2.1,4.126,3.913,8.118,3.913S23.785,6.67,26,4.567C28.253,2.426,30.816,0,35.763,0s7.51,2.426,9.769,4.567c2.213,2.1,4.122,3.913,8.115,3.913s5.9-1.81,8.118-3.913C64.019,2.426,66.582,0,71.529,0s7.51,2.426,9.765,4.567c2.217,2.1,4.126,3.913,8.118,3.913s5.9-1.81,8.118-3.913C99.79,2.426,102.345,0,107.3,0V2.4c-3.993,0-5.905,1.814-8.122,3.909-2.259,2.145-4.818,4.571-9.765,4.571" transform="translate(0.977 12.921)" fill="#7d3a1b"/>
                <path id="Path_873378" data-name="Path 873378" d="M89.413,10.875c-4.947,0-7.506-2.426-9.765-4.567C77.431,4.209,75.522,2.4,71.529,2.4s-5.9,1.81-8.115,3.909c-2.259,2.141-4.818,4.567-9.769,4.567S46.14,8.449,43.881,6.308C41.664,4.209,39.755,2.4,35.763,2.4s-5.9,1.81-8.115,3.905c-2.255,2.145-4.818,4.571-9.765,4.571s-7.51-2.426-9.769-4.567C5.9,4.209,3.993,2.4,0,2.4V0C4.947,0,7.51,2.426,9.765,4.567c2.217,2.1,4.126,3.909,8.118,3.909s5.9-1.81,8.115-3.909C28.257,2.426,30.816,0,35.763,0s7.506,2.426,9.769,4.567c2.213,2.1,4.122,3.909,8.115,3.909s5.9-1.81,8.118-3.909C64.023,2.426,66.582,0,71.529,0s7.506,2.426,9.765,4.567c2.217,2.1,4.126,3.909,8.118,3.909s5.9-1.81,8.118-3.909C99.79,2.426,102.349,0,107.3,0V2.4c-4,0-5.905,1.81-8.122,3.909-2.259,2.141-4.818,4.567-9.765,4.567" transform="translate(0 0.004)" fill="#7d3a1b"/>
              </g>
            </g>
          </g>
          <path id="Path_873425" data-name="Path 873425" d="M60.362,0A60.362,60.362,0,1,1,0,60.362,60.362,60.362,0,0,1,60.362,0Z" transform="translate(17.974 21.56)" fill="#efb499"/>
          <circle id="Ellipse_11503" data-name="Ellipse 11503" cx="63" cy="63" r="63" transform="translate(9 9.719)" fill="#fef7eb"/>
        </g>
      </g>
    </g>
    <g id="Group_1118585" data-name="Group 1118585" transform="translate(969.88 4199.87)">
      <path id="Path_905802" data-name="Path 905802" d="M63.942,8.268H50.734a3.594,3.594,0,0,0-3.54-3.094H40.586A5.569,5.569,0,0,0,35.577,2a5.485,5.485,0,0,0-5.015,3.174h-6.6A3.607,3.607,0,0,0,20.4,8.268H7.169a4.6,4.6,0,0,0-4.582,4.61V80.987a4.587,4.587,0,0,0,4.582,4.582H63.942a4.587,4.587,0,0,0,4.582-4.582V46.3L80.712,26.1l.364.22a1.365,1.365,0,0,1,.462,1.872l-6.71,11.113a1.393,1.393,0,0,0,2.386,1.44l6.71-11.113a4.155,4.155,0,0,0-1.409-5.7l-.364-.22,1.331-2.206a5.932,5.932,0,0,0,.8-2.2s0,0,0,0a6.006,6.006,0,0,0-11.079-4l-4.682,7.757V12.878A4.6,4.6,0,0,0,63.942,8.268ZM50.786,13.745V11.053H63.942a1.813,1.813,0,0,1,1.8,1.825v14.8l-4.653,7.71V15.942a1.392,1.392,0,0,0-1.393-1.393h-9A3.561,3.561,0,0,0,50.786,13.745Zm14.684,32.22L58.5,57.516a3.216,3.216,0,1,1-5.509-3.322L59.964,42.64Zm-42.34-36.3V8.787a.828.828,0,0,1,.827-.827h7.594a1.394,1.394,0,0,0,1.359-1.084,2.7,2.7,0,0,1,2.666-2.09,2.734,2.734,0,0,1,2.666,2.09A1.394,1.394,0,0,0,39.6,7.96h7.593A.808.808,0,0,1,48,8.787v.84c0,.012-.007.022-.007.034v4.081a.8.8,0,0,1-.794.807H23.954a.826.826,0,0,1-.823-.807Zm.807,7.674.02,0H47.194l.02,0H58.3V40.006L50.605,52.754a5.951,5.951,0,0,0,.935,7.362l-1.447,2.4a1.393,1.393,0,0,0,2.386,1.44l1.442-2.388a5.9,5.9,0,0,0,1.81.3,6.071,6.071,0,0,0,2.568-.573V74.734H12.811v-57.4Zm41.8,63.652a1.8,1.8,0,0,1-1.8,1.8H7.169a1.8,1.8,0,0,1-1.8-1.8V12.878a1.813,1.813,0,0,1,1.8-1.825H20.345v2.692a3.542,3.542,0,0,0,.1.8H11.419a1.392,1.392,0,0,0-1.393,1.393V76.126a1.392,1.392,0,0,0,1.393,1.393H59.693a1.392,1.392,0,0,0,1.393-1.393v-17.5l4.653-7.71ZM75.59,16.75A3.219,3.219,0,0,1,81.529,18.9a3.144,3.144,0,0,1-.43,1.174l-1.333,2.21L74.26,18.955Zm-2.77,4.589,5.506,3.325L66.91,43.581,61.4,40.256Z" transform="translate(0 0)" fill="#6a4d23"/>
      <path id="Path_905803" data-name="Path 905803" d="M17.051,25.449a1.392,1.392,0,0,0,1.97,0l5.715-5.715a1.393,1.393,0,0,0-1.97-1.97l-4.731,4.731-2.431-2.431a1.393,1.393,0,0,0-1.97,1.97Z" transform="translate(4.18 6.032)" fill="#6a4d23"/>
      <path id="Path_905804" data-name="Path 905804" d="M25.428,22.193H44.076a1.393,1.393,0,0,0,0-2.786H25.428a1.393,1.393,0,1,0,0,2.786Z" transform="translate(8.425 6.838)" fill="#6a4d23"/>
      <path id="Path_905805" data-name="Path 905805" d="M17.051,33.967a1.392,1.392,0,0,0,1.97,0l5.715-5.715a1.393,1.393,0,1,0-1.97-1.97l-4.731,4.731-2.431-2.431a1.393,1.393,0,0,0-1.97,1.97Z" transform="translate(4.18 9.378)" fill="#6a4d23"/>
      <path id="Path_905806" data-name="Path 905806" d="M25.428,30.711H44.076a1.393,1.393,0,1,0,0-2.786H25.428a1.393,1.393,0,1,0,0,2.786Z" transform="translate(8.425 10.184)" fill="#6a4d23"/>
      <path id="Path_905807" data-name="Path 905807" d="M17.051,42.486a1.392,1.392,0,0,0,1.97,0l5.715-5.715a1.393,1.393,0,1,0-1.97-1.97l-4.731,4.731L15.605,37.1a1.393,1.393,0,1,0-1.97,1.97Z" transform="translate(4.18 12.725)" fill="#6a4d23"/>
      <path id="Path_905808" data-name="Path 905808" d="M25.428,39.23h13.1a1.393,1.393,0,1,0,0-2.786h-13.1a1.393,1.393,0,1,0,0,2.786Z" transform="translate(8.425 13.531)" fill="#6a4d23"/>
      <path id="Path_905809" data-name="Path 905809" d="M17.051,51a1.392,1.392,0,0,0,1.97,0l5.715-5.715a1.393,1.393,0,1,0-1.97-1.97L18.036,48.05l-2.431-2.431a1.393,1.393,0,0,0-1.97,1.97Z" transform="translate(4.18 16.071)" fill="#6a4d23"/>
      <path id="Path_905810" data-name="Path 905810" d="M25.428,47.749H37.086a1.393,1.393,0,1,0,0-2.786H25.428a1.393,1.393,0,1,0,0,2.786Z" transform="translate(8.425 16.877)" fill="#6a4d23"/>
    </g>
  </g>
</svg>
