<svg xmlns="http://www.w3.org/2000/svg" xmlns:xlink="http://www.w3.org/1999/xlink" width="129" height="128" viewBox="0 0 129 128">
  <defs>
    <clipPath id="clip-path">
      <rect id="Rectangle_400938" data-name="Rectangle 400938" width="120" height="120" fill="none"/>
    </clipPath>
    <clipPath id="clip-path-2">
      <rect id="Rectangle_400938-2" data-name="Rectangle 400938" width="113" height="113" transform="translate(0.211 0.211)" fill="none"/>
    </clipPath>
    <clipPath id="clip-path-3">
      <rect id="Rectangle_401073" data-name="Rectangle 401073" width="86.443" height="38.93" fill="#7d3a1b"/>
    </clipPath>
  </defs>
  <g id="Group_1118908" data-name="Group 1118908" transform="translate(-375.867 -2878)">
    <g id="Group_1118796" data-name="Group 1118796" transform="translate(0 -96)">
      <g id="Grupo_108927" data-name="Grupo 108927" transform="translate(-14.133 -1493)">
        <path id="Rectángulo_36179" data-name="Rectángulo 36179" d="M0,0H129V128H0Z" transform="translate(390 4467)" fill="#feebcf"/>
      </g>
      <g id="Group_1118519" data-name="Group 1118519" transform="translate(118.656 -2302.211)">
        <g id="Group_1099379" data-name="Group 1099379" transform="translate(265 5284)">
          <rect id="Rectangle_401103" data-name="Rectangle 401103" width="113" height="113" transform="translate(0.211 0.211)" fill="none"/>
          <g id="Group_1099348" data-name="Group 1099348">
            <g id="Group_1099282" data-name="Group 1099282">
              <g id="Group_1099281" data-name="Group 1099281" clip-path="url(#clip-path-3)">
                <path id="Path_873375" data-name="Path 873375" d="M70.12,8.532c-3.88,0-5.887-1.9-7.658-3.581C60.723,3.3,59.226,1.882,56.1,1.882S51.467,3.3,49.728,4.95c-1.771,1.679-3.775,3.581-7.658,3.581s-5.886-1.9-7.658-3.581C32.674,3.3,31.177,1.882,28.046,1.882S23.418,3.3,21.682,4.95C19.911,6.629,17.9,8.532,14.024,8.532S8.135,6.629,6.364,4.95C4.628,3.3,3.131,1.882,0,1.882V0C3.88,0,5.887,1.906,7.658,3.581,9.4,5.23,10.893,6.65,14.024,6.65s4.628-1.419,6.364-3.066C22.157,1.906,24.166,0,28.046,0s5.89,1.906,7.658,3.581C37.442,5.23,38.939,6.65,42.07,6.65S46.7,5.23,48.437,3.581C50.205,1.906,52.215,0,56.1,0s5.89,1.906,7.658,3.581C65.491,5.23,66.988,6.65,70.12,6.65s4.628-1.419,6.367-3.069C78.255,1.906,80.261,0,84.144,0V1.882c-3.131,0-4.628,1.422-6.367,3.069C76.006,6.629,74,8.532,70.12,8.532" transform="translate(2.299 30.399)" fill="#7d3a1b"/>
                <path id="Path_873376" data-name="Path 873376" d="M70.12,8.532c-3.88,0-5.889-1.9-7.658-3.584C60.723,3.3,59.226,1.882,56.1,1.882S51.467,3.3,49.728,4.947c-1.768,1.682-3.775,3.584-7.658,3.584s-5.889-1.9-7.658-3.584C32.674,3.3,31.177,1.882,28.046,1.882S23.418,3.3,21.682,4.947C19.911,6.629,17.9,8.532,14.025,8.532s-5.889-1.9-7.661-3.584C4.628,3.3,3.131,1.882,0,1.882V0C3.88,0,5.889,1.9,7.658,3.581,9.4,5.23,10.893,6.65,14.025,6.65s4.628-1.419,6.364-3.069C22.157,1.9,24.166,0,28.046,0s5.889,1.9,7.661,3.581C37.442,5.23,38.939,6.65,42.071,6.65S46.7,5.23,48.437,3.581C50.206,1.9,52.215,0,56.1,0s5.89,1.9,7.658,3.581C65.491,5.23,66.988,6.65,70.12,6.65s4.628-1.419,6.367-3.069C78.257,1.9,80.264,0,84.147,0V1.882c-3.131,0-4.631,1.422-6.37,3.066C76.006,6.629,74,8.532,70.12,8.532" transform="translate(1.533 20.266)" fill="#7d3a1b"/>
                <path id="Path_873377" data-name="Path 873377" d="M70.119,8.532c-3.88,0-5.889-1.9-7.658-3.584C60.723,3.3,59.226,1.882,56.1,1.882S51.467,3.3,49.728,4.947C47.96,6.629,45.95,8.532,42.071,8.532s-5.89-1.9-7.658-3.584C32.674,3.3,31.177,1.882,28.046,1.882S23.418,3.3,21.682,4.947C19.911,6.629,17.9,8.532,14.025,8.532s-5.89-1.9-7.661-3.584C4.628,3.3,3.131,1.882,0,1.882V0C3.88,0,5.889,1.9,7.658,3.581,9.393,5.23,10.893,6.65,14.025,6.65s4.628-1.419,6.364-3.069C22.156,1.9,24.166,0,28.046,0s5.89,1.9,7.661,3.581C37.442,5.23,38.939,6.65,42.071,6.65S46.7,5.23,48.437,3.581C50.205,1.9,52.215,0,56.1,0s5.889,1.9,7.658,3.581C65.491,5.23,66.988,6.65,70.119,6.65s4.628-1.419,6.367-3.069C78.257,1.9,80.261,0,84.147,0V1.882c-3.131,0-4.631,1.422-6.37,3.066C76.006,6.629,74,8.532,70.119,8.532" transform="translate(0.766 10.133)" fill="#7d3a1b"/>
                <path id="Path_873378" data-name="Path 873378" d="M70.12,8.529c-3.88,0-5.887-1.9-7.658-3.581C60.723,3.3,59.226,1.882,56.095,1.882S51.467,3.3,49.731,4.947C47.96,6.626,45.953,8.529,42.07,8.529s-5.887-1.9-7.658-3.581C32.674,3.3,31.177,1.882,28.046,1.882S23.418,3.3,21.682,4.944C19.914,6.626,17.9,8.529,14.024,8.529s-5.89-1.9-7.661-3.581C4.628,3.3,3.131,1.882,0,1.882V0C3.88,0,5.89,1.9,7.658,3.581,9.4,5.228,10.893,6.647,14.024,6.647s4.628-1.419,6.364-3.066C22.159,1.9,24.166,0,28.046,0s5.887,1.9,7.661,3.581c1.736,1.646,3.233,3.066,6.364,3.066S46.7,5.228,48.437,3.581C50.208,1.9,52.215,0,56.095,0s5.887,1.9,7.658,3.581c1.739,1.646,3.236,3.066,6.367,3.066s4.628-1.419,6.367-3.066C78.257,1.9,80.264,0,84.147,0V1.882c-3.134,0-4.631,1.419-6.37,3.066C76.006,6.626,74,8.529,70.12,8.529" transform="translate(0 0.003)" fill="#7d3a1b"/>
              </g>
            </g>
          </g>
          <path id="Path_873425" data-name="Path 873425" d="M47.337,0A47.337,47.337,0,1,1,0,47.337,47.337,47.337,0,0,1,47.337,0Z" transform="translate(14.061 16.873)" fill="#7d3a1b"/>
          <circle id="Ellipse_11503" data-name="Ellipse 11503" cx="49.5" cy="49.5" r="49.5" transform="translate(7.211 7.211)" fill="#fff"/>
        </g>
      </g>
      <g id="Group_1118646" data-name="Group 1118646" transform="translate(408.875 3009)">
        <path id="Path_905904" data-name="Path 905904" d="M224.224,171.412a1.01,1.01,0,0,1-.555-.165l-16.238-10.622a1.015,1.015,0,1,1,1.111-1.7l16.238,10.622a1.015,1.015,0,0,1-.557,1.865Zm0,0" transform="translate(-179.837 -137.946)" fill="#87e5e8"/>
        <path id="Path_905905" data-name="Path 905905" d="M58.262,87.418a22.228,22.228,0,0,1-3.359-44.2.416.416,0,0,1,.48.411v5.325a.418.418,0,0,1-.337.408A16.152,16.152,0,1,0,67.219,78.631a.418.418,0,0,1,.527.049l3.765,3.764a.417.417,0,0,1-.049.63A22.129,22.129,0,0,1,58.262,87.418Zm0,0" transform="translate(-31.311 -37.547)" fill="#fe6c56"/>
        <path id="Path_905906" data-name="Path 905906" d="M246.859,65.145a22.135,22.135,0,0,1-4.415,13.3.514.514,0,0,1-.775.056l-3.622-3.621a.51.51,0,0,1-.062-.648,16.152,16.152,0,0,0-10.38-24.959.51.51,0,0,1-.415-.5V43.649a.514.514,0,0,1,.587-.508A22.231,22.231,0,0,1,246.859,65.145Zm0,0" transform="translate(-197.406 -37.481)" fill="#f3c957"/>
        <path id="Path_905907" data-name="Path 905907" d="M246.859,65.145a22.135,22.135,0,0,1-4.415,13.3.514.514,0,0,1-.775.056l-3.622-3.621a.51.51,0,0,1-.062-.648,16.152,16.152,0,0,0-10.38-24.959.51.51,0,0,1-.415-.5V43.649a.514.514,0,0,1,.587-.508A22.231,22.231,0,0,1,246.859,65.145Zm0,0" transform="translate(-197.406 -37.481)" fill="#f3c957"/>
        <path id="Path_905908" data-name="Path 905908" d="M36.093,183.392a1.015,1.015,0,0,1-.772-1.674L56.774,156.55a1.015,1.015,0,1,1,1.545,1.317L36.866,183.035A1.013,1.013,0,0,1,36.093,183.392Zm0,0" transform="translate(-30.48 -135.716)" fill="#87e5e8"/>
        <path id="Path_905909" data-name="Path 905909" d="M86.092,291.316l-3.986,4.677q.7.741,1.46,1.416l3.954-4.639A16.284,16.284,0,0,1,86.092,291.316Zm0,0" transform="translate(-71.341 -253.124)" fill="#e24333"/>
        <g id="Group_1118645" data-name="Group 1118645" transform="translate(5.015 1.354)">
          <path id="Path_905910" data-name="Path 905910" d="M356.5,257.939a1.009,1.009,0,0,1-.555-.166l-5.7-3.732a1.015,1.015,0,1,1,1.111-1.7l5.705,3.732a1.015,1.015,0,0,1-.557,1.865Zm0,0" transform="translate(-308.94 -220.47)" fill="#87e5e8"/>
          <path id="Path_905911" data-name="Path 905911" d="M404.966,157.507a1.015,1.015,0,0,1-.895-1.492l9.865-18.524a1.015,1.015,0,1,1,1.792.954l-9.866,18.525A1.014,1.014,0,0,1,404.966,157.507Zm0,0" transform="translate(-356.007 -120.351)" fill="#87e5e8"/>
          <path id="Path_905912" data-name="Path 905912" d="M408.9,12.354h-5.816a1.015,1.015,0,0,1,0-2.03H408.9a1.015,1.015,0,1,1,0,2.03Zm0,0" transform="translate(-354.369 -10.324)" fill="#87e5e8"/>
          <path id="Path_905913" data-name="Path 905913" d="M365.515,12.354h-1.633a1.015,1.015,0,1,1,0-2.03h1.633a1.015,1.015,0,1,1,0,2.03Zm0,0" transform="translate(-320.309 -10.324)" fill="#87e5e8"/>
          <path id="Path_905914" data-name="Path 905914" d="M413.108,72.225h-4.164a1.015,1.015,0,1,1,0-2.03h4.164a1.015,1.015,0,1,1,0,2.03Zm0,0" transform="translate(-359.463 -62.346)" fill="#87e5e8"/>
          <path id="Path_905915" data-name="Path 905915" d="M382.055,72.225h-1.169a1.015,1.015,0,1,1,0-2.03h1.169a1.015,1.015,0,1,1,0,2.03Zm0,0" transform="translate(-335.083 -62.346)" fill="#87e5e8"/>
          <path id="Path_905916" data-name="Path 905916" d="M43.428,467.577H39.265a1.015,1.015,0,1,1,0-2.03h4.163a1.015,1.015,0,0,1,0,2.03Zm0,0" transform="translate(-38.25 -405.866)" fill="#87e5e8"/>
          <path id="Path_905917" data-name="Path 905917" d="M102.38,467.577H95.324a1.015,1.015,0,1,1,0-2.03h7.056a1.015,1.015,0,1,1,0,2.03Zm0,0" transform="translate(-86.959 -405.866)" fill="#87e5e8"/>
        </g>
        <path id="Path_905918" data-name="Path 905918" d="M458.9.945V3.792a.943.943,0,0,1-.943.944h-2.849a.944.944,0,0,1-.944-.944V.945A.944.944,0,0,1,455.108,0h2.849a.944.944,0,0,1,.943.945Zm0,0" transform="translate(-394.622)" fill="#75dbad"/>
        <path id="Path_905919" data-name="Path 905919" d="M450.823,65.945v1.5a.944.944,0,0,1-.944.945h-1.5a.944.944,0,0,1-.943-.945v-1.5a.944.944,0,0,1,.943-.945h1.5A.944.944,0,0,1,450.823,65.945Zm0,0" transform="translate(-388.773 -56.478)" fill="#75dbad"/>
        <path id="Path_905920" data-name="Path 905920" d="M23.519,461.3v1.5a.944.944,0,0,1-.943.944h-1.5a.945.945,0,0,1-.945-.944v-1.5a.945.945,0,0,1,.945-.945h1.5A.945.945,0,0,1,23.519,461.3Zm0,0" transform="translate(-17.49 -400.001)" fill="#75dbad"/>
        <path id="Path_905921" data-name="Path 905921" d="M89.824,421.128H84.562a1.015,1.015,0,1,1,0-2.03h5.262a1.015,1.015,0,0,1,0,2.03Zm0,0" transform="translate(-72.594 -364.152)" fill="#87e5e8"/>
        <path id="Path_905922" data-name="Path 905922" d="M153.25,421.128h-2.185a1.015,1.015,0,0,1,0-2.03h2.185a1.015,1.015,0,1,1,0,2.03Zm0,0" transform="translate(-130.379 -364.152)" fill="#87e5e8"/>
        <path id="Path_905923" data-name="Path 905923" d="M182.844,126.52a4.2,4.2,0,1,1-4.2-4.2A4.2,4.2,0,0,1,182.844,126.52Zm0,0" transform="translate(-151.582 -106.287)" fill="#76b1cb"/>
        <path id="Path_905924" data-name="Path 905924" d="M8.391,337.1a4.2,4.2,0,1,1-4.2-4.2A4.2,4.2,0,0,1,8.391,337.1Zm0,0" transform="translate(0 -289.258)" fill="#76b1cb"/>
        <path id="Path_905925" data-name="Path 905925" d="M177.566,126.52a4.2,4.2,0,0,1,2.639-3.9,4.2,4.2,0,1,0,0,7.792A4.2,4.2,0,0,1,177.566,126.52Zm0,0" transform="translate(-151.582 -106.287)" fill="#5ba1ba"/>
        <path id="Path_905926" data-name="Path 905926" d="M3.113,337.1a4.2,4.2,0,0,1,2.639-3.9,4.2,4.2,0,1,0,0,7.791A4.2,4.2,0,0,1,3.113,337.1Zm0,0" transform="translate(0 -289.258)" fill="#5ba1ba"/>
        <path id="Path_905927" data-name="Path 905927" d="M477.916,120.766a2.571,2.571,0,1,1-2.571-2.571A2.571,2.571,0,0,1,477.916,120.766Zm0,0" transform="translate(-410.791 -102.699)" fill="#76b1cb"/>
        <path id="Path_905928" data-name="Path 905928" d="M474.848,120.225a2.565,2.565,0,0,1,.942-1.989,2.57,2.57,0,1,0,1.184,4.519A2.571,2.571,0,0,1,474.848,120.225Zm0,0" transform="translate(-410.791 -102.699)" fill="#5ba1ba"/>
        <path id="Path_905929" data-name="Path 905929" d="M391.209,275.6a2.571,2.571,0,1,1-2.571-2.571A2.571,2.571,0,0,1,391.209,275.6Zm0,0" transform="translate(-335.452 -237.236)" fill="#76b1cb"/>
        <path id="Path_905930" data-name="Path 905930" d="M388.164,274.52a2.555,2.555,0,0,1,.477-1.488h0a2.571,2.571,0,1,0,2.094,4.06A2.572,2.572,0,0,1,388.164,274.52Zm0,0" transform="translate(-335.452 -237.236)" fill="#5ba1ba"/>
        <path id="Path_905931" data-name="Path 905931" d="M77.195,414.851v1.5a.944.944,0,0,1-.943.945h-1.5a.945.945,0,0,1-.945-.945v-1.5a.945.945,0,0,1,.945-.944h1.5A.944.944,0,0,1,77.195,414.851Zm0,0" transform="translate(-64.129 -359.642)" fill="#75dbad"/>
      </g>
    </g>
  </g>
</svg>
