<svg xmlns="http://www.w3.org/2000/svg" xmlns:xlink="http://www.w3.org/1999/xlink" width="139" height="139" viewBox="0 0 139 139">
  <defs>
    <clipPath id="clip-path">
      <rect id="Rectangle_400938" data-name="Rectangle 400938" width="139" height="139" transform="translate(-0.043 -0.043)" fill="none"/>
    </clipPath>
    <clipPath id="clip-path-2">
      <rect id="Rectangle_401073" data-name="Rectangle 401073" width="105.872" height="47.68" fill="#7d3a1b"/>
    </clipPath>
  </defs>
  <g id="Group_1118788" data-name="Group 1118788" transform="translate(-421.336 -3760.426)">
    <g id="Group_1099388" data-name="Group 1099388" transform="translate(156.379 -1523.531)">
      <g id="Group_1099379" data-name="Group 1099379" transform="translate(265 5284)">
        <rect id="Rectangle_401103" data-name="Rectangle 401103" width="139" height="139" transform="translate(-0.043 -0.043)" fill="none"/>
        <g id="Group_1099348" data-name="Group 1099348" transform="translate(0)">
          <g id="Group_1099282" data-name="Group 1099282">
            <g id="Group_1099281" data-name="Group 1099281" clip-path="url(#clip-path-2)">
              <path id="Path_873375" data-name="Path 873375" d="M85.879,10.449c-4.752,0-7.21-2.33-9.379-4.386C74.371,4.047,72.538,2.3,68.7,2.3s-5.668,1.742-7.8,3.758c-2.17,2.056-4.624,4.386-9.379,4.386s-7.21-2.33-9.379-4.386C40.018,4.047,38.184,2.3,34.349,2.3s-5.668,1.742-7.794,3.758c-2.17,2.056-4.627,4.386-9.379,4.386S9.963,8.119,7.794,6.063C5.668,4.047,3.835,2.3,0,2.3V0C4.752,0,7.21,2.334,9.379,4.386c2.129,2.02,3.963,3.758,7.8,3.758s5.668-1.738,7.794-3.755C27.136,2.334,29.6,0,34.349,0s7.213,2.334,9.379,4.386c2.129,2.02,3.963,3.758,7.8,3.758s5.668-1.738,7.8-3.758C61.489,2.334,63.951,0,68.7,0s7.213,2.334,9.379,4.386c2.129,2.02,3.963,3.758,7.8,3.758s5.668-1.738,7.8-3.758C95.843,2.334,98.3,0,103.056,0V2.3c-3.835,0-5.668,1.742-7.8,3.758-2.169,2.056-4.627,4.386-9.379,4.386" transform="translate(2.816 37.231)" fill="#7d3a1b"/>
              <path id="Path_873376" data-name="Path 873376" d="M85.879,10.449c-4.752,0-7.213-2.33-9.379-4.39C74.371,4.043,72.538,2.3,68.7,2.3s-5.668,1.738-7.8,3.755c-2.166,2.06-4.624,4.39-9.379,4.39s-7.213-2.33-9.379-4.39C40.018,4.043,38.184,2.3,34.349,2.3s-5.668,1.742-7.794,3.755c-2.17,2.06-4.627,4.39-9.379,4.39s-7.213-2.33-9.383-4.39C5.668,4.043,3.835,2.3,0,2.3V0C4.752,0,7.213,2.33,9.379,4.386c2.129,2.02,3.963,3.758,7.8,3.758s5.668-1.738,7.794-3.758C27.136,2.33,29.6,0,34.349,0s7.213,2.33,9.383,4.386c2.126,2.02,3.959,3.758,7.794,3.758s5.668-1.738,7.8-3.758C61.489,2.33,63.951,0,68.7,0s7.213,2.33,9.379,4.386c2.129,2.02,3.963,3.758,7.8,3.758s5.668-1.738,7.8-3.758C95.846,2.33,98.3,0,103.059,0V2.3c-3.835,0-5.672,1.742-7.8,3.755-2.169,2.06-4.628,4.39-9.379,4.39" transform="translate(1.877 24.821)" fill="#7d3a1b"/>
              <path id="Path_873377" data-name="Path 873377" d="M85.879,10.449c-4.752,0-7.213-2.33-9.379-4.39C74.371,4.043,72.538,2.3,68.7,2.3s-5.668,1.738-7.8,3.755c-2.166,2.06-4.627,4.39-9.379,4.39s-7.213-2.33-9.379-4.39C40.018,4.043,38.184,2.3,34.349,2.3s-5.668,1.742-7.794,3.755c-2.169,2.06-4.627,4.39-9.379,4.39s-7.213-2.33-9.383-4.39C5.668,4.043,3.835,2.3,0,2.3V0C4.752,0,7.213,2.33,9.379,4.386c2.126,2.02,3.963,3.758,7.8,3.758s5.668-1.738,7.794-3.758C27.136,2.33,29.6,0,34.349,0s7.213,2.33,9.383,4.386c2.126,2.02,3.959,3.758,7.794,3.758s5.668-1.738,7.8-3.758C61.489,2.33,63.951,0,68.7,0s7.213,2.33,9.379,4.386c2.129,2.02,3.963,3.758,7.8,3.758s5.668-1.738,7.8-3.758C95.846,2.33,98.3,0,103.059,0V2.3c-3.835,0-5.672,1.742-7.8,3.755-2.169,2.06-4.627,4.39-9.379,4.39" transform="translate(0.939 12.41)" fill="#7d3a1b"/>
              <path id="Path_873378" data-name="Path 873378" d="M85.879,10.445c-4.752,0-7.21-2.33-9.379-4.386C74.371,4.043,72.538,2.3,68.7,2.3s-5.668,1.738-7.794,3.755c-2.169,2.056-4.627,4.386-9.383,4.386s-7.21-2.33-9.379-4.386C40.018,4.043,38.184,2.3,34.349,2.3s-5.668,1.738-7.794,3.751c-2.166,2.06-4.627,4.39-9.379,4.39S9.963,8.115,7.794,6.059C5.668,4.043,3.835,2.3,0,2.3V0C4.752,0,7.213,2.33,9.379,4.386c2.129,2.016,3.963,3.755,7.8,3.755S22.845,6.4,24.971,4.386C27.14,2.33,29.6,0,34.349,0s7.21,2.33,9.383,4.386c2.126,2.016,3.959,3.755,7.794,3.755s5.668-1.738,7.8-3.755C61.493,2.33,63.951,0,68.7,0s7.21,2.33,9.379,4.386c2.129,2.016,3.963,3.755,7.8,3.755s5.668-1.738,7.8-3.755C95.846,2.33,98.3,0,103.059,0V2.3c-3.839,0-5.672,1.738-7.8,3.755-2.169,2.056-4.627,4.386-9.379,4.386" transform="translate(0 0.004)" fill="#7d3a1b"/>
            </g>
          </g>
        </g>
        <path id="Path_873425" data-name="Path 873425" d="M57.977,0A57.977,57.977,0,1,1,0,57.977,57.977,57.977,0,0,1,57.977,0Z" transform="translate(17.221 20.665)" fill="#ffe2b7"/>
        <circle id="Ellipse_11503" data-name="Ellipse 11503" cx="60.5" cy="60.5" r="60.5" transform="translate(8.957 8.957)" fill="#fff"/>
      </g>
    </g>
    <g id="Group_1118583" data-name="Group 1118583" transform="translate(447.276 3786.366)">
      <path id="Path_904302" data-name="Path 904302" d="M155.579,55.292H154.3V11.087A4.694,4.694,0,0,0,149.611,6.4H123.229V2.984A2.987,2.987,0,0,0,120.245,0H109.76a2.987,2.987,0,0,0-2.984,2.984V6.4h-9.02a1.279,1.279,0,1,0,0,2.557h51.854a2.134,2.134,0,0,1,2.131,2.131V55.292H131.6a1.279,1.279,0,0,0,0,2.557h23.975a.427.427,0,0,1,.426.426v2.988a.427.427,0,0,1-.426.426H87.371a1.279,1.279,0,0,0,0,2.557H94.8l-4.3,21.342A1.279,1.279,0,0,0,91.76,87.12H99.43a1.279,1.279,0,0,0,1.254-1.026l1.4-6.965H128l1.4,6.965a1.279,1.279,0,0,0,1.254,1.026h7.671a1.279,1.279,0,0,0,1.254-1.531l-4.3-21.342h20.3a2.987,2.987,0,0,0,2.984-2.984V58.276a2.987,2.987,0,0,0-2.983-2.984ZM109.334,2.984a.427.427,0,0,1,.426-.426h10.485a.427.427,0,0,1,.426.426V6.4H109.334ZM125,64.247l1.381,6.863H103.7l1.381-6.863ZM98.384,84.562H93.322L97.41,64.247h5.062Zm4.217-7.991.584-2.9H126.9l.584,2.9Zm34.163,7.991H131.7l-4.088-20.315h5.062Z" transform="translate(-71.443)" fill="#6a4d23"/>
      <path id="Path_904303" data-name="Path 904303" d="M10.813,92.893H2.984a.427.427,0,0,1-.426-.426V89.478a.427.427,0,0,1,.426-.426H55.046a1.279,1.279,0,1,0,0-2.557H6.82V42.29a2.134,2.134,0,0,1,2.131-2.131H21.2a1.279,1.279,0,1,0,0-2.557H8.952a4.694,4.694,0,0,0-4.688,4.688V86.494H2.984A2.987,2.987,0,0,0,0,89.478v2.988A2.987,2.987,0,0,0,2.984,95.45h7.83a1.279,1.279,0,1,0,0-2.557Z" transform="translate(0 -31.203)" fill="#6a4d23"/>
      <path id="Path_904304" data-name="Path 904304" d="M133.128,126.015a1.278,1.278,0,0,0-1.808.023l-4.152,4.257-1.744-1.7a1.279,1.279,0,1,0-1.783,1.833l2.659,2.586a1.279,1.279,0,0,0,1.807-.024l5.043-5.171A1.279,1.279,0,0,0,133.128,126.015Z" transform="translate(-102.282 -104.272)" fill="#6a4d23"/>
      <path id="Path_904305" data-name="Path 904305" d="M116.41,100.468a9.541,9.541,0,1,0-9.541,9.541A9.552,9.552,0,0,0,116.41,100.468Zm-9.541,6.984a6.984,6.984,0,1,1,6.984-6.984A6.992,6.992,0,0,1,106.868,107.452Z" transform="translate(-80.766 -75.455)" fill="#6a4d23"/>
      <path id="Path_904306" data-name="Path 904306" d="M136.975,236.887a1.279,1.279,0,0,0-1.808,0l-1.957,1.957-1.957-1.957a1.279,1.279,0,1,0-1.808,1.808l1.957,1.957-1.957,1.957a1.279,1.279,0,0,0,1.808,1.808l1.957-1.957,1.957,1.957a1.279,1.279,0,0,0,1.808-1.808l-1.957-1.957,1.957-1.957A1.279,1.279,0,0,0,136.975,236.887Z" transform="translate(-107.107 -196.269)" fill="#6a4d23"/>
      <path id="Path_904307" data-name="Path 904307" d="M366.157,236.887a1.279,1.279,0,0,0-1.808,0l-1.957,1.957-1.957-1.957a1.279,1.279,0,0,0-1.808,1.808l1.957,1.957-1.957,1.957a1.279,1.279,0,0,0,1.808,1.808l1.957-1.957,1.957,1.957a1.279,1.279,0,1,0,1.808-1.808l-1.957-1.957,1.957-1.957A1.279,1.279,0,0,0,366.157,236.887Z" transform="translate(-297.292 -196.269)" fill="#6a4d23"/>
      <path id="Path_904308" data-name="Path 904308" d="M248.542,131.938a1.279,1.279,0,0,0,1.808,0l1.957-1.957,1.957,1.957a1.279,1.279,0,1,0,1.808-1.808l-1.957-1.957,1.957-1.957a1.279,1.279,0,1,0-1.808-1.808l-1.957,1.957-1.957-1.957a1.279,1.279,0,1,0-1.808,1.808l1.957,1.957-1.957,1.957A1.279,1.279,0,0,0,248.542,131.938Z" transform="translate(-205.941 -102.927)" fill="#6a4d23"/>
      <path id="Path_904309" data-name="Path 904309" d="M240.658,234.42A5.418,5.418,0,1,0,246.076,229a5.424,5.424,0,0,0-5.418,5.418Zm8.279,0a2.861,2.861,0,1,1-2.861-2.861A2.864,2.864,0,0,1,248.937,234.42Z" transform="translate(-199.709 -190.036)" fill="#6a4d23"/>
      <path id="Path_904310" data-name="Path 904310" d="M224.354,128.846a1.279,1.279,0,0,0,1.03,1.486,33.331,33.331,0,0,0,5.485.423c4.207,0,10.034-.724,14.557-4.055,3.688-2.717,5.877-6.7,6.507-11.843a1.279,1.279,0,1,0-2.538-.311,14.061,14.061,0,0,1-5.477,10.088c-6.927,5.111-17.968,3.2-18.079,3.181A1.28,1.28,0,0,0,224.354,128.846Z" transform="translate(-186.162 -94.124)" fill="#6a4d23"/>
    </g>
  </g>
</svg>
