<svg xmlns="http://www.w3.org/2000/svg" xmlns:xlink="http://www.w3.org/1999/xlink" width="139" height="139" viewBox="0 0 139 139">
  <defs>
    <clipPath id="clip-path">
      <rect id="Rectangle_400938" data-name="Rectangle 400938" width="139" height="139" transform="translate(-0.043 -0.043)" fill="none"/>
    </clipPath>
    <clipPath id="clip-path-2">
      <rect id="Rectangle_401073" data-name="Rectangle 401073" width="105.872" height="47.68" fill="#7d3a1b"/>
    </clipPath>
  </defs>
  <g id="Group_1118789" data-name="Group 1118789" transform="translate(-1041.336 -3760.426)">
    <g id="Group_1099411" data-name="Group 1099411" transform="translate(776.379 -1523.531)">
      <g id="Group_1099379" data-name="Group 1099379" transform="translate(265 5284)">
        <rect id="Rectangle_401103" data-name="Rectangle 401103" width="139" height="139" transform="translate(-0.043 -0.043)" fill="none"/>
        <g id="Group_1099348" data-name="Group 1099348" transform="translate(0)">
          <g id="Group_1099282" data-name="Group 1099282">
            <g id="Group_1099281" data-name="Group 1099281" clip-path="url(#clip-path-2)">
              <path id="Path_873375" data-name="Path 873375" d="M85.879,10.449c-4.752,0-7.21-2.33-9.379-4.386C74.371,4.047,72.538,2.3,68.7,2.3s-5.668,1.742-7.8,3.758c-2.17,2.056-4.624,4.386-9.379,4.386s-7.21-2.33-9.379-4.386C40.018,4.047,38.184,2.3,34.349,2.3s-5.668,1.742-7.794,3.758c-2.17,2.056-4.627,4.386-9.379,4.386S9.963,8.119,7.794,6.063C5.668,4.047,3.835,2.3,0,2.3V0C4.752,0,7.21,2.334,9.379,4.386c2.129,2.02,3.963,3.758,7.8,3.758s5.668-1.738,7.794-3.755C27.136,2.334,29.6,0,34.349,0s7.213,2.334,9.379,4.386c2.129,2.02,3.963,3.758,7.8,3.758s5.668-1.738,7.8-3.758C61.489,2.334,63.951,0,68.7,0s7.213,2.334,9.379,4.386c2.129,2.02,3.963,3.758,7.8,3.758s5.668-1.738,7.8-3.758C95.843,2.334,98.3,0,103.056,0V2.3c-3.835,0-5.668,1.742-7.8,3.758-2.169,2.056-4.627,4.386-9.379,4.386" transform="translate(2.816 37.231)" fill="#7d3a1b"/>
              <path id="Path_873376" data-name="Path 873376" d="M85.879,10.449c-4.752,0-7.213-2.33-9.379-4.39C74.371,4.043,72.538,2.3,68.7,2.3s-5.668,1.738-7.8,3.755c-2.166,2.06-4.624,4.39-9.379,4.39s-7.213-2.33-9.379-4.39C40.018,4.043,38.184,2.3,34.349,2.3s-5.668,1.742-7.794,3.755c-2.17,2.06-4.627,4.39-9.379,4.39s-7.213-2.33-9.383-4.39C5.668,4.043,3.835,2.3,0,2.3V0C4.752,0,7.213,2.33,9.379,4.386c2.129,2.02,3.963,3.758,7.8,3.758s5.668-1.738,7.794-3.758C27.136,2.33,29.6,0,34.349,0s7.213,2.33,9.383,4.386c2.126,2.02,3.959,3.758,7.794,3.758s5.668-1.738,7.8-3.758C61.489,2.33,63.951,0,68.7,0s7.213,2.33,9.379,4.386c2.129,2.02,3.963,3.758,7.8,3.758s5.668-1.738,7.8-3.758C95.846,2.33,98.3,0,103.059,0V2.3c-3.835,0-5.672,1.742-7.8,3.755-2.169,2.06-4.628,4.39-9.379,4.39" transform="translate(1.877 24.821)" fill="#7d3a1b"/>
              <path id="Path_873377" data-name="Path 873377" d="M85.879,10.449c-4.752,0-7.213-2.33-9.379-4.39C74.371,4.043,72.538,2.3,68.7,2.3s-5.668,1.738-7.8,3.755c-2.166,2.06-4.627,4.39-9.379,4.39s-7.213-2.33-9.379-4.39C40.018,4.043,38.184,2.3,34.349,2.3s-5.668,1.742-7.794,3.755c-2.169,2.06-4.627,4.39-9.379,4.39s-7.213-2.33-9.383-4.39C5.668,4.043,3.835,2.3,0,2.3V0C4.752,0,7.213,2.33,9.379,4.386c2.126,2.02,3.963,3.758,7.8,3.758s5.668-1.738,7.794-3.758C27.136,2.33,29.6,0,34.349,0s7.213,2.33,9.383,4.386c2.126,2.02,3.959,3.758,7.794,3.758s5.668-1.738,7.8-3.758C61.489,2.33,63.951,0,68.7,0s7.213,2.33,9.379,4.386c2.129,2.02,3.963,3.758,7.8,3.758s5.668-1.738,7.8-3.758C95.846,2.33,98.3,0,103.059,0V2.3c-3.835,0-5.672,1.742-7.8,3.755-2.169,2.06-4.627,4.39-9.379,4.39" transform="translate(0.939 12.41)" fill="#7d3a1b"/>
              <path id="Path_873378" data-name="Path 873378" d="M85.879,10.445c-4.752,0-7.21-2.33-9.379-4.386C74.371,4.043,72.538,2.3,68.7,2.3s-5.668,1.738-7.794,3.755c-2.169,2.056-4.627,4.386-9.383,4.386s-7.21-2.33-9.379-4.386C40.018,4.043,38.184,2.3,34.349,2.3s-5.668,1.738-7.794,3.751c-2.166,2.06-4.627,4.39-9.379,4.39S9.963,8.115,7.794,6.059C5.668,4.043,3.835,2.3,0,2.3V0C4.752,0,7.213,2.33,9.379,4.386c2.129,2.016,3.963,3.755,7.8,3.755S22.845,6.4,24.971,4.386C27.14,2.33,29.6,0,34.349,0s7.21,2.33,9.383,4.386c2.126,2.016,3.959,3.755,7.794,3.755s5.668-1.738,7.8-3.755C61.493,2.33,63.951,0,68.7,0s7.21,2.33,9.379,4.386c2.129,2.016,3.963,3.755,7.8,3.755s5.668-1.738,7.8-3.755C95.846,2.33,98.3,0,103.059,0V2.3c-3.839,0-5.672,1.738-7.8,3.755-2.169,2.056-4.627,4.386-9.379,4.386" transform="translate(0 0.004)" fill="#7d3a1b"/>
            </g>
          </g>
        </g>
        <path id="Path_873425" data-name="Path 873425" d="M57.977,0A57.977,57.977,0,1,1,0,57.977,57.977,57.977,0,0,1,57.977,0Z" transform="translate(17.221 20.665)" fill="#efb499"/>
        <circle id="Ellipse_11503" data-name="Ellipse 11503" cx="60.5" cy="60.5" r="60.5" transform="translate(8.957 8.957)" fill="#fff"/>
      </g>
    </g>
    <g id="Group_1117312" data-name="Group 1117312" transform="translate(1052.352 3776.429)">
      <path id="Path_874543" data-name="Path 874543" d="M21.8,31.942a5.789,5.789,0,0,0,1.961-.342,8.7,8.7,0,0,0,10.573,0,5.8,5.8,0,1,0,2.251-11.247,8.7,8.7,0,0,0-15.075,0,5.8,5.8,0,0,0,.29,11.589Zm0-8.7a2.75,2.75,0,0,1,.384.026,1.449,1.449,0,0,0,1.535-.863,5.8,5.8,0,0,1,10.657,0,1.449,1.449,0,0,0,1.535.863,2.75,2.75,0,0,1,.384-.026,2.9,2.9,0,0,1,0,5.8,2.865,2.865,0,0,1-1.461-.4,1.449,1.449,0,0,0-1.749.208,5.793,5.793,0,0,1-8.075,0,1.45,1.45,0,0,0-1.749-.208,2.865,2.865,0,0,1-1.461.4,2.9,2.9,0,0,1,0-5.8Z" transform="translate(0)" fill="#6a4d23"/>
      <path id="Path_874544" data-name="Path 874544" d="M233.449,34.9a1.182,1.182,0,0,1,1.212.594,2.188,2.188,0,0,1,.238.855,1.45,1.45,0,0,0,2.9.015,2.18,2.18,0,0,1,.238-.87,1.181,1.181,0,0,1,1.212-.595,1.45,1.45,0,1,0,0-2.9,4.216,4.216,0,0,0-2.9,1.018,4.216,4.216,0,0,0-2.9-1.018,1.45,1.45,0,0,0,0,2.9Z" transform="translate(-176.864 -13.104)" fill="#6a4d23"/>
      <path id="Path_874545" data-name="Path 874545" d="M180.348,97.018a4.216,4.216,0,0,0-2.9-1.018,1.449,1.449,0,1,0,0,2.9,1.182,1.182,0,0,1,1.212.594,2.188,2.188,0,0,1,.238.855,1.45,1.45,0,0,0,2.9.015,2.18,2.18,0,0,1,.238-.87,1.181,1.181,0,0,1,1.212-.594,1.449,1.449,0,0,0,0-2.9A4.214,4.214,0,0,0,180.348,97.018Z" transform="translate(-131.011 -65.508)" fill="#6a4d23"/>
      <path id="Path_874546" data-name="Path 874546" d="M59.485,135.722A43.485,43.485,0,0,0,102.97,92.237a1.45,1.45,0,0,0-1.45-1.449h-11.6V84.382a10.5,10.5,0,0,0,3.538.608c5.242,0,9.507-3.8,9.507-8.474a7.83,7.83,0,0,0-1.727-4.877,6.8,6.8,0,0,0,.96-3.486A7.469,7.469,0,0,0,97,61.231a9.561,9.561,0,0,0-17.048,0,8.03,8.03,0,0,0-4.237,3.412A7.722,7.722,0,0,0,69.631,61.8a7.489,7.489,0,0,0-6.869,4.136,6.107,6.107,0,0,0-4.131,5.639,5.592,5.592,0,0,0,.684,2.685,6.389,6.389,0,0,0-1.28,3.82c0,3.811,3.462,6.912,7.717,6.912a8.547,8.547,0,0,0,2.43-.349v6.147H61.675l-9-12.443a5.04,5.04,0,0,0-7.9-.278l-4.147-5.476a5.527,5.527,0,0,0-8.667,0l-13.782,18.2H17.45A1.45,1.45,0,0,0,16,92.237a43.485,43.485,0,0,0,43.485,43.485ZM74.03,111.608c-1.146-4.974-4.126-8.821-8.176-10.557-5.842-2.5-8.594-5.493-9.832-7.365H80.994a9,9,0,0,1,4.874,4.135c1.118,2.241,1.051,5.068-.2,8.4-2.58,6.88-2.547,11.72.2,16.855a40.214,40.214,0,0,1-16.338,8.5C73.827,125.24,75.5,118,74.03,111.608Zm14.154,9.328-.1.1c-2.265-4.709-1.6-8.72.3-13.791,1.551-4.137,1.572-7.754.061-10.751a10.43,10.43,0,0,0-2.078-2.8h13.68A40.3,40.3,0,0,1,88.184,120.936Zm-9.623-48.13a1.449,1.449,0,0,0,.106-2,4.059,4.059,0,0,1-1.021-2.656A4.726,4.726,0,0,1,81.441,63.8a1.449,1.449,0,0,0,1.008-.973,6.586,6.586,0,0,1,12.052,0,1.449,1.449,0,0,0,1.008.973A4.725,4.725,0,0,1,99.3,68.154a4.059,4.059,0,0,1-1.021,2.656,1.45,1.45,0,0,0,.106,2,5.105,5.105,0,0,1,1.682,3.71c0,3.075-2.964,5.575-6.608,5.575a7.415,7.415,0,0,1-3.538-.873v-2.7l3.7-2.469a1.449,1.449,0,1,0-1.608-2.412l-2.095,1.4v-3.09a1.449,1.449,0,1,0-2.9,0v3.09l-2.095-1.4a1.449,1.449,0,0,0-1.608,2.412l3.7,2.469v2.7a7.415,7.415,0,0,1-3.538.873c-3.644,0-6.608-2.5-6.608-5.575a5.106,5.106,0,0,1,1.682-3.71ZM65.752,82.091c-2.657,0-4.818-1.8-4.818-4.013a3.649,3.649,0,0,1,1.207-2.651,1.449,1.449,0,0,0,.107-2,2.845,2.845,0,0,1-.718-1.858A3.358,3.358,0,0,1,64.244,68.5a1.449,1.449,0,0,0,1.009-.973,4.8,4.8,0,0,1,8.756,0,1.447,1.447,0,0,0,.746.871,6.8,6.8,0,0,0,.952,3.243,7.74,7.74,0,0,0,.157,9.936,5.564,5.564,0,0,1-2.354.517,5.48,5.48,0,0,1-2.43-.552v-6.7a1.45,1.45,0,0,0-2.9,0v2l-.8-.4a1.449,1.449,0,1,0-1.3,2.593l2.1,1.049v1.451a5.481,5.481,0,0,1-2.43.552Zm5.329,2.55a8.546,8.546,0,0,0,2.43.349,8.361,8.361,0,0,0,4.7-1.429,10.285,10.285,0,0,0,5.277,1.429,10.5,10.5,0,0,0,3.538-.608v6.406H71.081ZM48.614,79.192a2.079,2.079,0,0,1,1.71.853L58.1,90.788H39.131L46.9,80.045A2.079,2.079,0,0,1,48.614,79.192ZM34.271,74.341a2.632,2.632,0,0,1,4.045,0l4.672,6.17L35.553,90.788H21.815ZM52.7,93.687c.95,2.047,3.859,6.534,12.015,10.029,3.19,1.367,5.557,4.481,6.493,8.543,1.484,6.438-.733,13.936-5.932,20.155a41.181,41.181,0,0,1-5.788.409A40.586,40.586,0,0,1,18.924,93.686Z" transform="translate(-0.001 -32.755)" fill="#6a4d23"/>
    </g>
  </g>
</svg>
