<svg xmlns="http://www.w3.org/2000/svg" xmlns:xlink="http://www.w3.org/1999/xlink" width="129" height="128" viewBox="0 0 129 128">
  <defs>
    <clipPath id="clip-path">
      <rect id="Rectangle_400938" data-name="Rectangle 400938" width="120" height="120" fill="none"/>
    </clipPath>
    <clipPath id="clip-path-2">
      <rect id="Rectangle_400938-2" data-name="Rectangle 400938" width="113" height="113" transform="translate(0.211 0.211)" fill="none"/>
    </clipPath>
    <clipPath id="clip-path-3">
      <rect id="Rectangle_401073" data-name="Rectangle 401073" width="86.443" height="38.93" fill="#7d3a1b"/>
    </clipPath>
  </defs>
  <g id="Group_1118909" data-name="Group 1118909" transform="translate(-375.867 -3037)">
    <g id="Group_1118795" data-name="Group 1118795" transform="translate(0 -96)">
      <g id="Grupo_108927" data-name="Grupo 108927" transform="translate(-14.133 -1334)">
        <path id="Rectángulo_36179" data-name="Rectángulo 36179" d="M0,0H129V128H0Z" transform="translate(390 4467)" fill="#feebcf"/>
      </g>
      <g id="Group_1118522" data-name="Group 1118522" transform="translate(118.656 -2143.211)">
        <g id="Group_1099379" data-name="Group 1099379" transform="translate(265 5284)">
          <rect id="Rectangle_401103" data-name="Rectangle 401103" width="113" height="113" transform="translate(0.211 0.211)" fill="none"/>
          <g id="Group_1099348" data-name="Group 1099348">
            <g id="Group_1099282" data-name="Group 1099282">
              <g id="Group_1099281" data-name="Group 1099281" clip-path="url(#clip-path-3)">
                <path id="Path_873375" data-name="Path 873375" d="M70.12,8.532c-3.88,0-5.887-1.9-7.658-3.581C60.723,3.3,59.226,1.882,56.1,1.882S51.467,3.3,49.728,4.95c-1.771,1.679-3.775,3.581-7.658,3.581s-5.886-1.9-7.658-3.581C32.674,3.3,31.177,1.882,28.046,1.882S23.418,3.3,21.682,4.95C19.911,6.629,17.9,8.532,14.024,8.532S8.135,6.629,6.364,4.95C4.628,3.3,3.131,1.882,0,1.882V0C3.88,0,5.887,1.906,7.658,3.581,9.4,5.23,10.893,6.65,14.024,6.65s4.628-1.419,6.364-3.066C22.157,1.906,24.166,0,28.046,0s5.89,1.906,7.658,3.581C37.442,5.23,38.939,6.65,42.07,6.65S46.7,5.23,48.437,3.581C50.205,1.906,52.215,0,56.1,0s5.89,1.906,7.658,3.581C65.491,5.23,66.988,6.65,70.12,6.65s4.628-1.419,6.367-3.069C78.255,1.906,80.261,0,84.144,0V1.882c-3.131,0-4.628,1.422-6.367,3.069C76.006,6.629,74,8.532,70.12,8.532" transform="translate(2.299 30.399)" fill="#7d3a1b"/>
                <path id="Path_873376" data-name="Path 873376" d="M70.12,8.532c-3.88,0-5.889-1.9-7.658-3.584C60.723,3.3,59.226,1.882,56.1,1.882S51.467,3.3,49.728,4.947c-1.768,1.682-3.775,3.584-7.658,3.584s-5.889-1.9-7.658-3.584C32.674,3.3,31.177,1.882,28.046,1.882S23.418,3.3,21.682,4.947C19.911,6.629,17.9,8.532,14.025,8.532s-5.889-1.9-7.661-3.584C4.628,3.3,3.131,1.882,0,1.882V0C3.88,0,5.889,1.9,7.658,3.581,9.4,5.23,10.893,6.65,14.025,6.65s4.628-1.419,6.364-3.069C22.157,1.9,24.166,0,28.046,0s5.889,1.9,7.661,3.581C37.442,5.23,38.939,6.65,42.071,6.65S46.7,5.23,48.437,3.581C50.206,1.9,52.215,0,56.1,0s5.89,1.9,7.658,3.581C65.491,5.23,66.988,6.65,70.12,6.65s4.628-1.419,6.367-3.069C78.257,1.9,80.264,0,84.147,0V1.882c-3.131,0-4.631,1.422-6.37,3.066C76.006,6.629,74,8.532,70.12,8.532" transform="translate(1.533 20.266)" fill="#7d3a1b"/>
                <path id="Path_873377" data-name="Path 873377" d="M70.119,8.532c-3.88,0-5.889-1.9-7.658-3.584C60.723,3.3,59.226,1.882,56.1,1.882S51.467,3.3,49.728,4.947C47.96,6.629,45.95,8.532,42.071,8.532s-5.89-1.9-7.658-3.584C32.674,3.3,31.177,1.882,28.046,1.882S23.418,3.3,21.682,4.947C19.911,6.629,17.9,8.532,14.025,8.532s-5.89-1.9-7.661-3.584C4.628,3.3,3.131,1.882,0,1.882V0C3.88,0,5.889,1.9,7.658,3.581,9.393,5.23,10.893,6.65,14.025,6.65s4.628-1.419,6.364-3.069C22.156,1.9,24.166,0,28.046,0s5.89,1.9,7.661,3.581C37.442,5.23,38.939,6.65,42.071,6.65S46.7,5.23,48.437,3.581C50.205,1.9,52.215,0,56.1,0s5.889,1.9,7.658,3.581C65.491,5.23,66.988,6.65,70.119,6.65s4.628-1.419,6.367-3.069C78.257,1.9,80.261,0,84.147,0V1.882c-3.131,0-4.631,1.422-6.37,3.066C76.006,6.629,74,8.532,70.119,8.532" transform="translate(0.766 10.133)" fill="#7d3a1b"/>
                <path id="Path_873378" data-name="Path 873378" d="M70.12,8.529c-3.88,0-5.887-1.9-7.658-3.581C60.723,3.3,59.226,1.882,56.095,1.882S51.467,3.3,49.731,4.947C47.96,6.626,45.953,8.529,42.07,8.529s-5.887-1.9-7.658-3.581C32.674,3.3,31.177,1.882,28.046,1.882S23.418,3.3,21.682,4.944C19.914,6.626,17.9,8.529,14.024,8.529s-5.89-1.9-7.661-3.581C4.628,3.3,3.131,1.882,0,1.882V0C3.88,0,5.89,1.9,7.658,3.581,9.4,5.228,10.893,6.647,14.024,6.647s4.628-1.419,6.364-3.066C22.159,1.9,24.166,0,28.046,0s5.887,1.9,7.661,3.581c1.736,1.646,3.233,3.066,6.364,3.066S46.7,5.228,48.437,3.581C50.208,1.9,52.215,0,56.095,0s5.887,1.9,7.658,3.581c1.739,1.646,3.236,3.066,6.367,3.066s4.628-1.419,6.367-3.066C78.257,1.9,80.264,0,84.147,0V1.882c-3.134,0-4.631,1.419-6.37,3.066C76.006,6.626,74,8.529,70.12,8.529" transform="translate(0 0.003)" fill="#7d3a1b"/>
              </g>
            </g>
          </g>
          <path id="Path_873425" data-name="Path 873425" d="M47.337,0A47.337,47.337,0,1,1,0,47.337,47.337,47.337,0,0,1,47.337,0Z" transform="translate(14.061 16.873)" fill="#7d3a1b"/>
          <circle id="Ellipse_11503" data-name="Ellipse 11503" cx="49.5" cy="49.5" r="49.5" transform="translate(7.211 7.211)" fill="#fff"/>
        </g>
      </g>
      <g id="Group_1118626" data-name="Group 1118626" transform="translate(407.499 3162.5)">
        <g id="Group_1118618" data-name="Group 1118618" transform="translate(18.346 38.581)">
          <path id="Path_905870" data-name="Path 905870" d="M149.147,296.018l-6.619,6.621a1.978,1.978,0,1,1-2.8-2.8l6.619-6.621a1.98,1.98,0,0,1,2.8,0h0A1.978,1.978,0,0,1,149.147,296.018Z" transform="translate(-139.151 -292.642)" fill="#dfe7f4"/>
        </g>
        <path id="Path_905871" data-name="Path 905871" d="M152.956,299.836l-6.619,6.621a1.98,1.98,0,0,1-2.8,0l9.417-9.417A1.978,1.978,0,0,1,152.956,299.836Z" transform="translate(-124.614 -257.879)" fill="#c7cfe1"/>
        <g id="Group_1118620" data-name="Group 1118620" transform="translate(20.322 1.978)">
          <g id="Group_1118619" data-name="Group 1118619">
            <path id="Path_905872" data-name="Path 905872" d="M199.34,37.6a22.63,22.63,0,1,1-6.627-15.972A22.627,22.627,0,0,1,199.34,37.6Z" transform="translate(-154.139 -15)" fill="#7ed8f6"/>
          </g>
        </g>
        <path id="Path_905873" data-name="Path 905873" d="M242.931,81.252a22.6,22.6,0,0,1-38.582,15.982L236.3,65.28A22.523,22.523,0,0,1,242.931,81.252Z" transform="translate(-177.408 -56.674)" fill="#6aa9ff"/>
        <g id="Group_1118622" data-name="Group 1118622" transform="translate(26.256 7.911)">
          <g id="Group_1118621" data-name="Group 1118621">
            <path id="Path_905874" data-name="Path 905874" d="M199.149,76.678a1.978,1.978,0,0,0,3.955,0,12.727,12.727,0,0,1,12.713-12.713,1.978,1.978,0,1,0,0-3.955,16.687,16.687,0,0,0-16.668,16.668Z" transform="translate(-199.149 -60.01)" fill="#f0f7ff"/>
          </g>
        </g>
        <g id="Group_1118624" data-name="Group 1118624" transform="translate(18.344)">
          <g id="Group_1118623" data-name="Group 1118623">
            <path id="Path_905875" data-name="Path 905875" d="M181.089,7.207A24.567,24.567,0,1,0,188.3,24.577a24.5,24.5,0,0,0-7.206-17.369ZM163.718,45.2A20.612,20.612,0,1,1,184.34,24.577,20.5,20.5,0,0,1,163.718,45.2Z" transform="translate(-139.139)" fill="#334973"/>
          </g>
        </g>
        <path id="Path_905876" data-name="Path 905876" d="M235.706,72.039a24.576,24.576,0,0,1-41.957,17.381l2.8-2.8A20.617,20.617,0,1,0,225.7,57.466l2.8-2.8A24.5,24.5,0,0,1,235.706,72.039Z" transform="translate(-168.205 -47.463)" fill="#1f3259"/>
        <g id="Group_1118625" data-name="Group 1118625" transform="translate(0.001 42.404)">
          <path id="Path_905877" data-name="Path 905877" d="M24.517,330.609,8.97,346.158a1.978,1.978,0,0,1-2.8,0l-2.8-2.8-2.8-2.8a1.979,1.979,0,0,1,0-2.8l15.549-15.549a1.978,1.978,0,0,1,2.8,0l2.8,2.8,2.795,2.8A1.977,1.977,0,0,1,24.517,330.609Z" transform="translate(-0.001 -321.64)" fill="#334973"/>
        </g>
        <path id="Path_905878" data-name="Path 905878" d="M46.749,352.843,31.2,368.391a1.978,1.978,0,0,1-2.8,0l-2.8-2.8L43.954,347.25l2.795,2.8A1.977,1.977,0,0,1,46.749,352.843Z" transform="translate(-22.232 -301.47)" fill="#1f3259"/>
      </g>
    </g>
  </g>
</svg>
