<svg xmlns="http://www.w3.org/2000/svg" xmlns:xlink="http://www.w3.org/1999/xlink" width="145" height="145" viewBox="0 0 145 145">
  <defs>
    <clipPath id="clip-path">
      <rect id="Rectangle_400938" data-name="Rectangle 400938" width="145" height="145" transform="translate(0 -0.281)" fill="none"/>
    </clipPath>
    <clipPath id="clip-path-2">
      <rect id="Rectangle_401073" data-name="Rectangle 401073" width="110.228" height="49.642" fill="#7d3a1b"/>
    </clipPath>
  </defs>
  <g id="Group_1118783" data-name="Group 1118783" transform="translate(-1148.289 -3778.154)">
    <g id="Group_1117908" data-name="Group 1117908" transform="translate(973.289 -5762.564)">
      <g id="Group_1099404" data-name="Group 1099404" transform="translate(175 9541)">
        <g id="Group_1099379" data-name="Group 1099379" transform="translate(0 0)">
          <rect id="Rectangle_401103" data-name="Rectangle 401103" width="145" height="145" transform="translate(0 -0.281)" fill="none"/>
          <g id="Group_1099348" data-name="Group 1099348" transform="translate(0.045 0.045)">
            <g id="Group_1099282" data-name="Group 1099282">
              <g id="Group_1099281" data-name="Group 1099281" clip-path="url(#clip-path-2)">
                <path id="Path_873375" data-name="Path 873375" d="M89.413,10.879c-4.947,0-7.506-2.426-9.765-4.567C77.431,4.213,75.522,2.4,71.529,2.4s-5.9,1.814-8.118,3.913c-2.259,2.141-4.814,4.567-9.765,4.567S46.14,8.453,43.881,6.312C41.664,4.213,39.755,2.4,35.763,2.4s-5.9,1.814-8.114,3.913c-2.259,2.141-4.818,4.567-9.765,4.567s-7.51-2.426-9.769-4.567C5.9,4.213,3.993,2.4,0,2.4V0C4.947,0,7.506,2.43,9.765,4.567c2.217,2.1,4.126,3.913,8.118,3.913S23.785,6.67,26,4.571C28.253,2.43,30.816,0,35.763,0s7.51,2.43,9.765,4.567c2.217,2.1,4.126,3.913,8.118,3.913s5.9-1.81,8.118-3.913C64.019,2.43,66.582,0,71.529,0s7.51,2.43,9.765,4.567c2.217,2.1,4.126,3.913,8.118,3.913s5.9-1.81,8.118-3.913C99.786,2.43,102.345,0,107.3,0V2.4c-3.993,0-5.9,1.814-8.118,3.913-2.259,2.141-4.818,4.567-9.765,4.567" transform="translate(2.932 38.763)" fill="#7d3a1b"/>
                <path id="Path_873376" data-name="Path 873376" d="M89.413,10.879c-4.947,0-7.51-2.426-9.765-4.571C77.431,4.209,75.522,2.4,71.529,2.4s-5.9,1.81-8.118,3.909c-2.255,2.145-4.814,4.571-9.765,4.571s-7.51-2.426-9.765-4.571C41.664,4.209,39.755,2.4,35.763,2.4s-5.9,1.814-8.115,3.909c-2.259,2.145-4.818,4.571-9.765,4.571s-7.51-2.426-9.769-4.571C5.9,4.209,3.993,2.4,0,2.4V0C4.947,0,7.51,2.426,9.765,4.567c2.217,2.1,4.126,3.913,8.118,3.913S23.785,6.67,26,4.567C28.253,2.426,30.816,0,35.763,0s7.51,2.426,9.769,4.567c2.213,2.1,4.122,3.913,8.115,3.913s5.9-1.81,8.118-3.913C64.019,2.426,66.582,0,71.529,0s7.51,2.426,9.765,4.567c2.217,2.1,4.126,3.913,8.118,3.913s5.9-1.81,8.118-3.913C99.79,2.426,102.349,0,107.3,0V2.4c-3.993,0-5.905,1.814-8.122,3.909-2.259,2.145-4.818,4.571-9.765,4.571" transform="translate(1.955 25.842)" fill="#7d3a1b"/>
                <path id="Path_873377" data-name="Path 873377" d="M89.412,10.879c-4.947,0-7.51-2.426-9.765-4.571C77.431,4.209,75.522,2.4,71.529,2.4s-5.9,1.81-8.118,3.909c-2.255,2.145-4.818,4.571-9.765,4.571s-7.51-2.426-9.765-4.571C41.664,4.209,39.755,2.4,35.763,2.4s-5.9,1.814-8.115,3.909c-2.259,2.145-4.818,4.571-9.765,4.571s-7.51-2.426-9.769-4.571C5.9,4.209,3.993,2.4,0,2.4V0C4.947,0,7.51,2.426,9.765,4.567c2.213,2.1,4.126,3.913,8.118,3.913S23.785,6.67,26,4.567C28.253,2.426,30.816,0,35.763,0s7.51,2.426,9.769,4.567c2.213,2.1,4.122,3.913,8.115,3.913s5.9-1.81,8.118-3.913C64.019,2.426,66.582,0,71.529,0s7.51,2.426,9.765,4.567c2.217,2.1,4.126,3.913,8.118,3.913s5.9-1.81,8.118-3.913C99.79,2.426,102.345,0,107.3,0V2.4c-3.993,0-5.905,1.814-8.122,3.909-2.259,2.145-4.818,4.571-9.765,4.571" transform="translate(0.977 12.921)" fill="#7d3a1b"/>
                <path id="Path_873378" data-name="Path 873378" d="M89.413,10.875c-4.947,0-7.506-2.426-9.765-4.567C77.431,4.209,75.522,2.4,71.529,2.4s-5.9,1.81-8.115,3.909c-2.259,2.141-4.818,4.567-9.769,4.567S46.14,8.449,43.881,6.308C41.664,4.209,39.755,2.4,35.763,2.4s-5.9,1.81-8.115,3.905c-2.255,2.145-4.818,4.571-9.765,4.571s-7.51-2.426-9.769-4.567C5.9,4.209,3.993,2.4,0,2.4V0C4.947,0,7.51,2.426,9.765,4.567c2.217,2.1,4.126,3.909,8.118,3.909s5.9-1.81,8.115-3.909C28.257,2.426,30.816,0,35.763,0s7.506,2.426,9.769,4.567c2.213,2.1,4.122,3.909,8.115,3.909s5.9-1.81,8.118-3.909C64.023,2.426,66.582,0,71.529,0s7.506,2.426,9.765,4.567c2.217,2.1,4.126,3.909,8.118,3.909s5.9-1.81,8.118-3.909C99.79,2.426,102.349,0,107.3,0V2.4c-4,0-5.905,1.81-8.122,3.909-2.259,2.141-4.818,4.567-9.765,4.567" transform="translate(0 0.004)" fill="#7d3a1b"/>
              </g>
            </g>
          </g>
          <path id="Path_873425" data-name="Path 873425" d="M60.362,0A60.362,60.362,0,1,1,0,60.362,60.362,60.362,0,0,1,60.362,0Z" transform="translate(17.974 21.56)" fill="#efb499"/>
          <circle id="Ellipse_11503" data-name="Ellipse 11503" cx="63" cy="63" r="63" transform="translate(9 9.719)" fill="#fef7eb"/>
        </g>
      </g>
    </g>
    <path id="Path_905794" data-name="Path 905794" d="M29.881,64.419a1.1,1.1,0,0,1,.093,1.557L16.413,81.261a1.1,1.1,0,1,1-1.65-1.464L28.324,64.512A1.1,1.1,0,0,1,29.881,64.419Zm26.588-9.013a1.1,1.1,0,0,0-1.542.24L45.995,67.875a1.1,1.1,0,0,0,1.782,1.3l8.932-12.229A1.1,1.1,0,0,0,56.468,55.407ZM81.123,81.459a1.1,1.1,0,0,1-1.523-.337l-23.612-37-14.261,20.4a1.1,1.1,0,0,1-1.517.285L28.047,56.677,6.236,81.261A1.1,1.1,0,1,1,4.585,79.8l22.45-25.3a1.1,1.1,0,0,1,1.438-.185l12.064,8.065,14.389-20.58V1.1A1.1,1.1,0,0,1,56.03,0h24.5a1.1,1.1,0,0,1,.978,1.612L78.826,6.766l2.682,5.154a1.1,1.1,0,0,1-.978,1.612h-23.4V41.82L81.459,79.935A1.1,1.1,0,0,1,81.123,81.459ZM57.133,11.327H78.712L76.6,7.275a1.1,1.1,0,0,1,0-1.018l2.108-4.051H57.133Zm-24.2,42.719a1.1,1.1,0,0,0,1.1-1.1v-6.9a1.1,1.1,0,0,0-.563-.962L23,39.208a1.1,1.1,0,0,0-1.643.962V53.382a1.1,1.1,0,0,0,2.206,0V42.054l8.263,4.638v6.25A1.1,1.1,0,0,0,32.929,54.046ZM10.488,23.384c-1.245,1.532-2.342,3.2-3.483,4.813L2,35.259A1.1,1.1,0,0,1,.2,33.983L7.893,23.127a21.8,21.8,0,0,1,2.5-2.915c2.616-2.586,4.391-3.477,6.807-3.6l2.549-.028a9.058,9.058,0,0,1-2.327-6.239c0-4.1,2.46-6.648,6.421-6.648s6.42,2.547,6.42,6.648a9.087,9.087,0,0,1-2.248,6.149l8.954-.1a1.806,1.806,0,0,0,1.528-.8l5.454-7.7a3.933,3.933,0,0,1,5.475-.934A3.948,3.948,0,0,1,50.593,12.6l-6.807,9.61A5.4,5.4,0,0,1,39.4,24.537l-5.633.115a3.583,3.583,0,0,0-3.58,3.568v8.019l9.944,5.754a1.1,1.1,0,0,1,.551.954v9.995a1.1,1.1,0,1,1-2.206,0V43.584L28.529,37.83a1.1,1.1,0,0,1-.551-.954V28.22a5.79,5.79,0,0,1,5.763-5.774l5.61-.115a3.2,3.2,0,0,0,2.633-1.4l6.807-9.61a1.763,1.763,0,0,0-.647-2.568,1.727,1.727,0,0,0-2.4.41l-5.455,7.7A4.007,4.007,0,0,1,36.987,18.6l-19.721.213c-1.648.087-2.958.6-5.462,3.1a19.163,19.163,0,0,0-1.315,1.467Zm9.136-13.043c0,3.253,1.891,5.9,4.214,5.9s4.214-2.647,4.214-5.9c0-3.865-2.64-4.442-4.214-4.442s-4.214.577-4.214,4.442ZM15.463,61.1a1.1,1.1,0,0,0,1.1-1.1V26.328a1.1,1.1,0,0,0-1.778-.873,17.541,17.541,0,0,0-3.858,3.658l-5.881,8.3a1.1,1.1,0,0,0,1.8,1.275l5.881-8.3a8.792,8.792,0,0,1,1.629-1.813V60A1.1,1.1,0,0,0,15.463,61.1Z" transform="translate(1179.972 3809.825)" fill="#6a4d23"/>
  </g>
</svg>
