<svg xmlns="http://www.w3.org/2000/svg" xmlns:xlink="http://www.w3.org/1999/xlink" width="129" height="128" viewBox="0 0 129 128">
  <defs>
    <clipPath id="clip-path">
      <rect id="Rectangle_400938" data-name="Rectangle 400938" width="120" height="120" fill="none"/>
    </clipPath>
    <clipPath id="clip-path-2">
      <rect id="Rectangle_400938-2" data-name="Rectangle 400938" width="113" height="113" transform="translate(0.211 0.211)" fill="none"/>
    </clipPath>
    <clipPath id="clip-path-3">
      <rect id="Rectangle_401073" data-name="Rectangle 401073" width="86.443" height="38.93" fill="#7d3a1b"/>
    </clipPath>
  </defs>
  <g id="Group_1118911" data-name="Group 1118911" transform="translate(-375.867 -3374)">
    <g id="Group_1118793" data-name="Group 1118793" transform="translate(0 -96)">
      <g id="Grupo_108927" data-name="Grupo 108927" transform="translate(-14.133 -997)">
        <path id="Rectángulo_36179" data-name="Rectángulo 36179" d="M0,0H129V128H0Z" transform="translate(390 4467)" fill="#feebcf"/>
      </g>
      <g id="Group_1118525" data-name="Group 1118525" transform="translate(118.656 -1806.211)">
        <g id="Group_1099379" data-name="Group 1099379" transform="translate(265 5284)">
          <rect id="Rectangle_401103" data-name="Rectangle 401103" width="113" height="113" transform="translate(0.211 0.211)" fill="none"/>
          <g id="Group_1099348" data-name="Group 1099348">
            <g id="Group_1099282" data-name="Group 1099282">
              <g id="Group_1099281" data-name="Group 1099281" clip-path="url(#clip-path-3)">
                <path id="Path_873375" data-name="Path 873375" d="M70.12,8.532c-3.88,0-5.887-1.9-7.658-3.581C60.723,3.3,59.226,1.882,56.1,1.882S51.467,3.3,49.728,4.95c-1.771,1.679-3.775,3.581-7.658,3.581s-5.886-1.9-7.658-3.581C32.674,3.3,31.177,1.882,28.046,1.882S23.418,3.3,21.682,4.95C19.911,6.629,17.9,8.532,14.024,8.532S8.135,6.629,6.364,4.95C4.628,3.3,3.131,1.882,0,1.882V0C3.88,0,5.887,1.906,7.658,3.581,9.4,5.23,10.893,6.65,14.024,6.65s4.628-1.419,6.364-3.066C22.157,1.906,24.166,0,28.046,0s5.89,1.906,7.658,3.581C37.442,5.23,38.939,6.65,42.07,6.65S46.7,5.23,48.437,3.581C50.205,1.906,52.215,0,56.1,0s5.89,1.906,7.658,3.581C65.491,5.23,66.988,6.65,70.12,6.65s4.628-1.419,6.367-3.069C78.255,1.906,80.261,0,84.144,0V1.882c-3.131,0-4.628,1.422-6.367,3.069C76.006,6.629,74,8.532,70.12,8.532" transform="translate(2.299 30.399)" fill="#7d3a1b"/>
                <path id="Path_873376" data-name="Path 873376" d="M70.12,8.532c-3.88,0-5.889-1.9-7.658-3.584C60.723,3.3,59.226,1.882,56.1,1.882S51.467,3.3,49.728,4.947c-1.768,1.682-3.775,3.584-7.658,3.584s-5.889-1.9-7.658-3.584C32.674,3.3,31.177,1.882,28.046,1.882S23.418,3.3,21.682,4.947C19.911,6.629,17.9,8.532,14.025,8.532s-5.889-1.9-7.661-3.584C4.628,3.3,3.131,1.882,0,1.882V0C3.88,0,5.889,1.9,7.658,3.581,9.4,5.23,10.893,6.65,14.025,6.65s4.628-1.419,6.364-3.069C22.157,1.9,24.166,0,28.046,0s5.889,1.9,7.661,3.581C37.442,5.23,38.939,6.65,42.071,6.65S46.7,5.23,48.437,3.581C50.206,1.9,52.215,0,56.1,0s5.89,1.9,7.658,3.581C65.491,5.23,66.988,6.65,70.12,6.65s4.628-1.419,6.367-3.069C78.257,1.9,80.264,0,84.147,0V1.882c-3.131,0-4.631,1.422-6.37,3.066C76.006,6.629,74,8.532,70.12,8.532" transform="translate(1.533 20.266)" fill="#7d3a1b"/>
                <path id="Path_873377" data-name="Path 873377" d="M70.119,8.532c-3.88,0-5.889-1.9-7.658-3.584C60.723,3.3,59.226,1.882,56.1,1.882S51.467,3.3,49.728,4.947C47.96,6.629,45.95,8.532,42.071,8.532s-5.89-1.9-7.658-3.584C32.674,3.3,31.177,1.882,28.046,1.882S23.418,3.3,21.682,4.947C19.911,6.629,17.9,8.532,14.025,8.532s-5.89-1.9-7.661-3.584C4.628,3.3,3.131,1.882,0,1.882V0C3.88,0,5.889,1.9,7.658,3.581,9.393,5.23,10.893,6.65,14.025,6.65s4.628-1.419,6.364-3.069C22.156,1.9,24.166,0,28.046,0s5.89,1.9,7.661,3.581C37.442,5.23,38.939,6.65,42.071,6.65S46.7,5.23,48.437,3.581C50.205,1.9,52.215,0,56.1,0s5.889,1.9,7.658,3.581C65.491,5.23,66.988,6.65,70.119,6.65s4.628-1.419,6.367-3.069C78.257,1.9,80.261,0,84.147,0V1.882c-3.131,0-4.631,1.422-6.37,3.066C76.006,6.629,74,8.532,70.119,8.532" transform="translate(0.766 10.133)" fill="#7d3a1b"/>
                <path id="Path_873378" data-name="Path 873378" d="M70.12,8.529c-3.88,0-5.887-1.9-7.658-3.581C60.723,3.3,59.226,1.882,56.095,1.882S51.467,3.3,49.731,4.947C47.96,6.626,45.953,8.529,42.07,8.529s-5.887-1.9-7.658-3.581C32.674,3.3,31.177,1.882,28.046,1.882S23.418,3.3,21.682,4.944C19.914,6.626,17.9,8.529,14.024,8.529s-5.89-1.9-7.661-3.581C4.628,3.3,3.131,1.882,0,1.882V0C3.88,0,5.89,1.9,7.658,3.581,9.4,5.228,10.893,6.647,14.024,6.647s4.628-1.419,6.364-3.066C22.159,1.9,24.166,0,28.046,0s5.887,1.9,7.661,3.581c1.736,1.646,3.233,3.066,6.364,3.066S46.7,5.228,48.437,3.581C50.208,1.9,52.215,0,56.095,0s5.887,1.9,7.658,3.581c1.739,1.646,3.236,3.066,6.367,3.066s4.628-1.419,6.367-3.066C78.257,1.9,80.264,0,84.147,0V1.882c-3.134,0-4.631,1.419-6.37,3.066C76.006,6.626,74,8.529,70.12,8.529" transform="translate(0 0.003)" fill="#7d3a1b"/>
              </g>
            </g>
          </g>
          <path id="Path_873425" data-name="Path 873425" d="M47.337,0A47.337,47.337,0,1,1,0,47.337,47.337,47.337,0,0,1,47.337,0Z" transform="translate(14.061 16.873)" fill="#7d3a1b"/>
          <circle id="Ellipse_11503" data-name="Ellipse 11503" cx="49.5" cy="49.5" r="49.5" transform="translate(7.211 7.211)" fill="#fff"/>
        </g>
      </g>
      <g id="_x35_2_Marketing_Idea" transform="translate(356.968 3494.176)">
        <g id="Group_1118649" data-name="Group 1118649" transform="translate(51.74 1.665)">
          <path id="Path_905938" data-name="Path 905938" d="M230.681,443.482a5.427,5.427,0,1,1-5.428-5.416A5.427,5.427,0,0,1,230.681,443.482Z" transform="translate(-194.607 -372.591)" fill="#474747"/>
          <path id="Path_905939" data-name="Path 905939" d="M251.448,5.27a.8.8,0,0,1-.8-.8v-2a.8.8,0,0,1,1.607,0v2A.8.8,0,0,1,251.448,5.27Z" transform="translate(-220.802 -1.665)" fill="#474747"/>
          <path id="Path_905940" data-name="Path 905940" d="M123.256,104.334h16.583a23.535,23.535,0,0,1,6.871-12.081,21.968,21.968,0,1,0-30.325,0A23.533,23.533,0,0,1,123.256,104.334Z" transform="translate(-100.901 -46.48)" fill="#fdcf17"/>
          <path id="Path_905941" data-name="Path 905941" d="M238.573,98.332a21.543,21.543,0,0,1-9.754,8.754h12.369a23.52,23.52,0,0,1,6.868-12.078,21.962,21.962,0,0,0-10.568-37.379,22.1,22.1,0,0,1,12.058,19.1,21.857,21.857,0,0,1-6.8,16.382A24.713,24.713,0,0,0,238.573,98.332Z" transform="translate(-202.251 -49.232)" opacity="0.12"/>
          <g id="Group_1118648" data-name="Group 1118648" transform="translate(0 8.741)">
            <path id="Path_905942" data-name="Path 905942" d="M110.233,334.584a.8.8,0,0,1,0-1.136l1.413-1.413a.8.8,0,0,1,1.136,1.136l-1.413,1.413A.8.8,0,0,1,110.233,334.584Z" transform="translate(-101.257 -291.009)" fill="#474747"/>
            <path id="Path_905943" data-name="Path 905943" d="M439.033,202.177h-2a.8.8,0,0,1,0-1.607h2a.8.8,0,0,1,0,1.607Z" transform="translate(-378.544 -179.468)" fill="#474747"/>
            <path id="Path_905944" data-name="Path 905944" d="M54.542,202.182h-2a.8.8,0,0,1,0-1.607h2a.8.8,0,0,1,0,1.607Z" transform="translate(-51.74 -179.473)" fill="#474747"/>
            <path id="Path_905945" data-name="Path 905945" d="M383.522,334.584l-1.413-1.413a.8.8,0,0,1,1.136-1.136l1.413,1.413a.8.8,0,1,1-1.136,1.136Z" transform="translate(-332.341 -291.009)" fill="#474747"/>
            <path id="Path_905946" data-name="Path 905946" d="M111.641,62.709,110.227,61.3a.8.8,0,0,1,1.136-1.136l1.413,1.413a.8.8,0,1,1-1.136,1.136Z" transform="translate(-101.252 -59.925)" fill="#474747"/>
            <path id="Path_905947" data-name="Path 905947" d="M198.695,390.381v6.811a3.116,3.116,0,0,1-3.116,3.116H177.236a3.116,3.116,0,0,1-3.116-3.116v-6.811a3.116,3.116,0,0,1,3.116-3.116h18.343A3.116,3.116,0,0,1,198.695,390.381Z" transform="translate(-155.759 -338.153)" fill="#474747"/>
          </g>
          <path id="Path_905948" data-name="Path 905948" d="M198.7,392.161v6.819a3.1,3.1,0,0,1-3.106,3.107H177.249a3.11,3.11,0,0,1-3.12-3.107v-.48a17.9,17.9,0,0,0,6.424,1.172,18.152,18.152,0,0,0,16.378-10.307A3.08,3.08,0,0,1,198.7,392.161Z" transform="translate(-155.766 -331.196)" opacity="0.12"/>
          <path id="Path_905949" data-name="Path 905949" d="M182.653,109.587a16.438,16.438,0,1,1-16.438-16.438A16.436,16.436,0,0,1,182.653,109.587Z" transform="translate(-135.067 -79.423)" fill="#f14f4a"/>
          <path id="Path_905950" data-name="Path 905950" d="M198.854,125.829a16.442,16.442,0,0,1-30.017,9.269,16.441,16.441,0,0,0,22.855-22.839A16.411,16.411,0,0,1,198.854,125.829Z" transform="translate(-151.268 -95.666)" opacity="0.12"/>
          <path id="Path_905951" data-name="Path 905951" d="M188.761,144.59a12.456,12.456,0,1,1,12.458-12.453A12.47,12.47,0,0,1,188.761,144.59Z" transform="translate(-157.614 -101.973)" fill="#e8f1f8"/>
          <path id="Path_905952" data-name="Path 905952" d="M212.208,143.142a12.456,12.456,0,0,1-22.977,6.667,12.451,12.451,0,0,0,17.189-17.181A12.45,12.45,0,0,1,212.208,143.142Z" transform="translate(-168.602 -112.979)" opacity="0.12"/>
          <path id="Path_905953" data-name="Path 905953" d="M211.31,163.158a8.475,8.475,0,1,1,8.478-8.473A8.485,8.485,0,0,1,211.31,163.158Z" transform="translate(-180.163 -124.521)" fill="#f14f4a"/>
          <path id="Path_905954" data-name="Path 905954" d="M225.357,160.247a8.478,8.478,0,0,1-15.973,3.96,8.475,8.475,0,0,0,11.458-11.454,8.492,8.492,0,0,1,4.515,7.494Z" transform="translate(-185.732 -130.084)" opacity="0.12"/>
          <path id="Path_905955" data-name="Path 905955" d="M233.859,181.726a4.5,4.5,0,1,1,4.5-4.493A4.5,4.5,0,0,1,233.859,181.726Z" transform="translate(-202.712 -147.069)" fill="#e8f1f8"/>
          <path id="Path_905956" data-name="Path 905956" d="M241.262,180.154a4.5,4.5,0,0,1-8.483,2.083,4.494,4.494,0,0,0,6.075-6.063A4.5,4.5,0,0,1,241.262,180.154Z" transform="translate(-205.617 -149.992)" opacity="0.12"/>
          <path id="Path_905957" data-name="Path 905957" d="M379.639,31.644l3.807.9L378.893,37.1l-3.807-.9-.9-3.807,4.553-4.553Z" transform="translate(-325.808 -23.91)" fill="#f78721"/>
          <path id="Path_905958" data-name="Path 905958" d="M255.927,63.42a.8.8,0,0,1,0-1.136L279.809,38.4a.8.8,0,1,1,1.136,1.136L257.063,63.42A.8.8,0,0,1,255.927,63.42Z" transform="translate(-225.092 -32.69)" fill="#474747"/>
        </g>
      </g>
    </g>
  </g>
</svg>
