<svg xmlns="http://www.w3.org/2000/svg" xmlns:xlink="http://www.w3.org/1999/xlink" width="121" height="121" viewBox="0 0 121 121">
  <defs>
    <clipPath id="clip-path">
      <rect id="Rectangle_400938" data-name="Rectangle 400938" width="121" height="121" transform="translate(0 0)" fill="none"/>
    </clipPath>
    <clipPath id="clip-path-2">
      <rect id="Rectangle_401073" data-name="Rectangle 401073" width="92.219" height="41.532" fill="#efb499"/>
    </clipPath>
  </defs>
  <g id="Group_1118781" data-name="Group 1118781" transform="translate(6980 9793)">
    <g id="Group_1118374" data-name="Group 1118374" transform="translate(-7367.668 -15806)">
      <rect id="Rectangle_401103" data-name="Rectangle 401103" width="121" height="121" transform="translate(387.668 6013)" fill="none"/>
      <g id="Group_1099348" data-name="Group 1099348" transform="translate(387.668 6013)">
        <g id="Group_1099282" data-name="Group 1099282">
          <g id="Group_1099281" data-name="Group 1099281" clip-path="url(#clip-path-2)">
            <path id="Path_873375" data-name="Path 873375" d="M74.8,9.1c-4.139,0-6.28-2.03-8.17-3.821-1.855-1.756-3.452-3.274-6.792-3.274s-4.937,1.517-6.792,3.274C51.161,7.072,49.023,9.1,44.881,9.1s-6.28-2.03-8.169-3.821C34.857,3.525,33.26,2.007,29.92,2.007s-4.937,1.517-6.789,3.274C21.241,7.072,19.1,9.1,14.962,9.1S8.679,7.072,6.789,5.281C4.937,3.525,3.34,2.007,0,2.007V0C4.139,0,6.28,2.033,8.17,3.821c1.855,1.759,3.452,3.274,6.792,3.274S19.9,5.58,21.75,3.824C23.637,2.033,25.781,0,29.92,0s6.283,2.033,8.17,3.821c1.855,1.759,3.452,3.274,6.792,3.274s4.937-1.514,6.792-3.274C53.56,2.033,55.7,0,59.843,0s6.283,2.033,8.17,3.821C69.867,5.58,71.464,7.094,74.8,7.094S79.742,5.58,81.6,3.821C83.483,2.033,85.624,0,89.766,0V2.007c-3.34,0-4.937,1.517-6.792,3.274C81.084,7.072,78.943,9.1,74.8,9.1" transform="translate(2.453 32.43)" fill="#efb499"/>
            <path id="Path_873376" data-name="Path 873376" d="M74.8,9.1c-4.139,0-6.283-2.03-8.17-3.824-1.855-1.756-3.452-3.27-6.792-3.27s-4.937,1.514-6.792,3.27C51.164,7.072,49.023,9.1,44.881,9.1s-6.283-2.03-8.17-3.824c-1.855-1.756-3.452-3.27-6.792-3.27s-4.937,1.517-6.789,3.27C21.241,7.072,19.1,9.1,14.962,9.1S8.679,7.072,6.789,5.278C4.937,3.522,3.34,2.007,0,2.007V0C4.139,0,6.283,2.03,8.17,3.821c1.855,1.759,3.452,3.274,6.792,3.274S19.9,5.58,21.75,3.821C23.637,2.03,25.781,0,29.92,0S36.2,2.03,38.093,3.821c1.852,1.759,3.449,3.274,6.789,3.274s4.937-1.514,6.792-3.274C53.56,2.03,55.7,0,59.843,0s6.283,2.03,8.17,3.821C69.867,5.58,71.464,7.094,74.8,7.094S79.742,5.58,81.6,3.821C83.486,2.03,85.627,0,89.769,0V2.007c-3.34,0-4.94,1.517-6.8,3.27C81.084,7.072,78.943,9.1,74.8,9.1" transform="translate(1.635 21.62)" fill="#efb499"/>
            <path id="Path_873377" data-name="Path 873377" d="M74.8,9.1c-4.139,0-6.283-2.03-8.169-3.824-1.855-1.756-3.452-3.27-6.792-3.27s-4.937,1.514-6.792,3.27C51.164,7.072,49.02,9.1,44.881,9.1s-6.283-2.03-8.17-3.824c-1.855-1.756-3.452-3.27-6.792-3.27s-4.937,1.517-6.789,3.27C21.241,7.072,19.1,9.1,14.962,9.1S8.678,7.072,6.789,5.278C4.937,3.522,3.34,2.007,0,2.007V0C4.139,0,6.283,2.03,8.169,3.821c1.851,1.759,3.452,3.274,6.792,3.274S19.9,5.58,21.75,3.821C23.637,2.03,25.781,0,29.92,0S36.2,2.03,38.093,3.821c1.852,1.759,3.449,3.274,6.789,3.274s4.937-1.514,6.792-3.274C53.56,2.03,55.7,0,59.843,0s6.283,2.03,8.17,3.821C69.867,5.58,71.464,7.094,74.8,7.094S79.742,5.58,81.6,3.821C83.486,2.03,85.624,0,89.769,0V2.007c-3.34,0-4.941,1.517-6.8,3.27C81.084,7.072,78.943,9.1,74.8,9.1" transform="translate(0.818 10.81)" fill="#efb499"/>
            <path id="Path_873378" data-name="Path 873378" d="M74.8,9.1c-4.139,0-6.28-2.03-8.17-3.821-1.855-1.756-3.452-3.27-6.792-3.27s-4.937,1.514-6.789,3.27C51.164,7.069,49.023,9.1,44.881,9.1s-6.28-2.03-8.169-3.821c-1.855-1.756-3.452-3.27-6.792-3.27s-4.937,1.514-6.789,3.267C21.245,7.069,19.1,9.1,14.962,9.1S8.678,7.069,6.789,5.278C4.937,3.522,3.34,2.007,0,2.007V0C4.139,0,6.283,2.03,8.17,3.821c1.855,1.756,3.452,3.27,6.792,3.27S19.9,5.577,21.75,3.821C23.64,2.03,25.781,0,29.92,0s6.28,2.03,8.173,3.821c1.852,1.756,3.449,3.27,6.789,3.27s4.937-1.514,6.792-3.27C53.563,2.03,55.7,0,59.843,0s6.28,2.03,8.17,3.821c1.855,1.756,3.452,3.27,6.792,3.27s4.937-1.514,6.792-3.27C83.486,2.03,85.627,0,89.769,0V2.007c-3.344,0-4.941,1.514-6.8,3.27C81.084,7.069,78.943,9.1,74.8,9.1" transform="translate(0 0.003)" fill="#efb499"/>
          </g>
        </g>
      </g>
      <circle id="Ellipse_11504" data-name="Ellipse 11504" cx="50.5" cy="50.5" r="50.5" transform="translate(402.668 6031)" fill="#ffce73"/>
      <circle id="Ellipse_11503" data-name="Ellipse 11503" cx="52.5" cy="52.5" r="52.5" transform="translate(395.668 6021)" fill="#f3f9ff"/>
    </g>
    <g id="Group_1118576" data-name="Group 1118576" transform="translate(-6972.639 -9780.999)">
      <path id="Path_905743" data-name="Path 905743" d="M81.624,23.391H71.514a3.012,3.012,0,0,0-5.09,0H63.044l1.72-2.977a3.017,3.017,0,1,0-2.608-2.987,3,3,0,0,0,.641,1.852l-1.738,3.008H53.947V18.5h2.17a3.02,3.02,0,1,0,0-2.272H53.947V13.567A.568.568,0,0,0,53.379,13h-2.06a1.136,1.136,0,0,0-1.031.66l-1.709,3.7-3.022,1.25L41.735,17.2a1.136,1.136,0,0,0-1.2.263l-3.718,3.718a1.136,1.136,0,0,0-.263,1.2l.373,1.012H26.273a5.765,5.765,0,0,0-5.76,5.756V65.481a5.765,5.765,0,0,0,5.76,5.756h20L45.252,76.31h-3.7a4.83,4.83,0,0,0-4.353,3.3l-.286.918A1.136,1.136,0,0,0,38,82H69.892a1.136,1.136,0,0,0,1.086-1.469l-.283-.92a4.83,4.83,0,0,0-4.353-3.3h-3.7l-1.021-5.073h20a5.763,5.763,0,0,0,5.756-5.756V29.147a5.763,5.763,0,0,0-5.756-5.756Z" transform="translate(-0.001)" fill="#91dafa"/>
      <path id="Path_905744" data-name="Path 905744" d="M144.138,31.572a3.023,3.023,0,0,0-2.8,1.887h-9.636a6.249,6.249,0,0,0-.441-1.423h5.871a1.136,1.136,0,0,0,.983-.568L140.126,28a3.026,3.026,0,1,0-1.968-1.135l-1.677,2.9h-6.932a6.268,6.268,0,0,0-4.035-1.467h6.8a1.136,1.136,0,1,0,0-2.272h-6.8V24.559h7.767a1.136,1.136,0,0,0,.983-.568l2.067-3.577a3.017,3.017,0,1,0-2.608-2.987,3,3,0,0,0,.641,1.852l-1.738,3.008h-7.112V18.5h2.17a3.02,3.02,0,1,0,0-2.272h-2.171V13.567a.568.568,0,0,0-.568-.568h-2.06a1.136,1.136,0,0,0-1.031.66l-1.709,3.7-3.022,1.25L113.3,17.2a1.136,1.136,0,0,0-1.2.263l-3.718,3.718a1.136,1.136,0,0,0-.263,1.2l1.408,3.825-1.253,3.019-3.7,1.71a1.136,1.136,0,0,0-.659,1.031v5.26a1.136,1.136,0,0,0,.659,1.031l3.7,1.71,1.253,3.019-1.408,3.825a1.136,1.136,0,0,0,.263,1.2l3.718,3.718a1.136,1.136,0,0,0,1.2.263l3.821-1.408,3.022,1.25,1.709,3.7a1.136,1.136,0,0,0,1.031.66h2.06a.568.568,0,0,0,.568-.568V52.955h2.171a3.019,3.019,0,1,0,0-2.272h-2.171V46.9h7.112l1.738,3.008a3.018,3.018,0,1,0,2.382-1.167,3.032,3.032,0,0,0-.415.032l-2.067-3.577a1.136,1.136,0,0,0-.983-.568h-7.767V43.159h6.8a1.136,1.136,0,1,0,0-2.272h-6.8a6.27,6.27,0,0,0,4.036-1.467h6.931l1.677,2.9a3.065,3.065,0,1,0,1.967-1.136l-2-3.472a1.136,1.136,0,0,0-.984-.568h-5.87a6.235,6.235,0,0,0,.44-1.419h9.637a3.019,3.019,0,1,0,2.8-4.159Z" transform="translate(-71.568 0)" fill="#5fa7ee"/>
      <g id="Group_1118572" data-name="Group 1118572" transform="translate(20.512 23.391)">
        <path id="Path_905745" data-name="Path 905745" d="M268.48,86.193H265.1l-.347.6a1.136,1.136,0,0,1-.983.568H256v1.467h6.8a1.133,1.133,0,0,1,.4.075h5.008a2.982,2.982,0,0,1,.266-2.71Z" transform="translate(-222.568 -86.193)" fill="#809cad"/>
        <path id="Path_905746" data-name="Path 905746" d="M81.624,86.193H71.514a2.988,2.988,0,0,1,.267,2.71h9.842a3.046,3.046,0,0,1,3.046,3.046V119.3a3.046,3.046,0,0,1-3.046,3.046H26.269a3.046,3.046,0,0,1-3.046-3.046V91.949a3.051,3.051,0,0,1,3.05-3.046H37.928l-1-2.71H26.273a5.765,5.765,0,0,0-5.76,5.756v33.106H87.38V91.949a5.763,5.763,0,0,0-5.756-5.756Z" transform="translate(-20.513 -86.193)" fill="#809cad"/>
      </g>
      <path id="Path_905747" data-name="Path 905747" d="M20.512,359.916v3.229a5.765,5.765,0,0,0,5.76,5.756H81.623a5.763,5.763,0,0,0,5.756-5.756v-3.229Z" transform="translate(0 -297.663)" fill="#d3effd"/>
      <path id="Path_905748" data-name="Path 905748" d="M423.7,359.916v3.229a5.763,5.763,0,0,1-5.756,5.756h4.685a5.763,5.763,0,0,0,5.756-5.756v-3.229Z" transform="translate(-341.007 -297.663)" fill="#b2e5fb"/>
      <path id="Path_905749" data-name="Path 905749" d="M169.8,463.152l-.283-.92a4.83,4.83,0,0,0-4.353-3.3H140.376a4.83,4.83,0,0,0-4.353,3.3l-.286.918a1.136,1.136,0,0,0,1.084,1.474h31.891a1.136,1.136,0,0,0,1.086-1.469Z" transform="translate(-98.823 -382.622)" fill="#6f8c9b"/>
      <path id="Path_905750" data-name="Path 905750" d="M132.91,385.83h-.877a1.136,1.136,0,0,1,0-2.272h.877a1.136,1.136,0,0,1,0,2.272Z" transform="translate(-94.713 -317.949)" fill="#b2e5fb"/>
      <path id="Path_905751" data-name="Path 905751" d="M70.028,385.83H63.46a1.136,1.136,0,0,1,0-2.272h6.568a1.136,1.136,0,1,1,0,2.272Z" transform="translate(-35.876 -317.949)" fill="#b2e5fb"/>
      <path id="Path_905752" data-name="Path 905752" d="M452.369,105.354a5.72,5.72,0,0,1,.869,3.036v30.2a3.044,3.044,0,0,0,1.975-2.849V108.39a3.044,3.044,0,0,0-2.844-3.036Z" transform="translate(-370.544 -79.243)" fill="#75cff9"/>
      <path id="Path_905753" data-name="Path 905753" d="M422.63,86.193h-4.685a5.756,5.756,0,0,1,4.887,2.72,3.044,3.044,0,0,1,2.844,3.036V119.3a3.044,3.044,0,0,1-1.975,2.849v2.908h4.685V91.949a5.763,5.763,0,0,0-5.756-5.756Z" transform="translate(-341.007 -62.802)" fill="#6f8c9b"/>
      <path id="Path_905754" data-name="Path 905754" d="M212.151,428.272,211.13,423.2H195.776l-1.018,5.073Z" transform="translate(-149.507 -351.962)" fill="#809cad"/>
      <path id="Path_905755" data-name="Path 905755" d="M217.968,120.755a6.3,6.3,0,1,0,6.3,6.3A6.3,6.3,0,0,0,217.968,120.755Z" transform="translate(-164.023 -92.457)" fill="#23e8bf"/>
      <path id="Path_905756" data-name="Path 905756" d="M250.856,120.755a6.312,6.312,0,0,0-.852.059,6.294,6.294,0,0,1,0,12.472,6.295,6.295,0,1,0,.852-12.531Z" transform="translate(-196.91 -92.457)" fill="#1ed8ac"/>
      <path id="Path_905757" data-name="Path 905757" d="M368.939,143.815a3.021,3.021,0,1,0,3.019,3.023A3.025,3.025,0,0,0,368.939,143.815Z" transform="translate(-296.369 -112.243)" fill="#23e8bf"/>
      <path id="Path_905758" data-name="Path 905758" d="M316.844,28.959a3.019,3.019,0,1,0-3.023-3.019A3.023,3.023,0,0,0,316.844,28.959Z" transform="translate(-251.666 -8.513)" fill="#23e8bf"/>
      <path id="Path_905759" data-name="Path 905759" d="M340.55,79.343a3.019,3.019,0,1,0,3.019-3.019A3.023,3.023,0,0,0,340.55,79.343Z" transform="translate(-274.601 -54.334)" fill="#ff99c7"/>
      <path id="Path_905760" data-name="Path 905760" d="M272.733,22.5a3.021,3.021,0,1,0,3.019,3.019A3.023,3.023,0,0,0,272.733,22.5Z" transform="translate(-213.822 -8.149)" fill="#ff99c7"/>
      <path id="Path_905761" data-name="Path 905761" d="M316.844,264.738a3.019,3.019,0,1,0,3.019,3.019A3.025,3.025,0,0,0,316.844,264.738Z" transform="translate(-251.666 -215.998)" fill="#23e8bf"/>
      <path id="Path_905762" data-name="Path 905762" d="M272.733,265.163a3.019,3.019,0,1,0,3.019,3.019A3.023,3.023,0,0,0,272.733,265.163Z" transform="translate(-213.822 -216.363)" fill="#ff99c7"/>
      <path id="Path_905763" data-name="Path 905763" d="M343.569,211.334a3.019,3.019,0,1,0,3.019,3.019A3.023,3.023,0,0,0,343.569,211.334Z" transform="translate(-274.601 -170.176)" fill="#ff99c7"/>
      <path id="Path_905764" data-name="Path 905764" d="M175.353,90.729a6.3,6.3,0,0,1,6.293-6.3v-6.01a12.305,12.305,0,0,0,0,24.611v-6.01A6.3,6.3,0,0,1,175.353,90.729Z" transform="translate(-127.701 -56.135)" fill="#518fcc"/>
      <g id="Group_1118575" data-name="Group 1118575" transform="translate(53.945 16.231)">
        <g id="Group_1118573" data-name="Group 1118573" transform="translate(0.026 9.795)">
          <path id="Path_905765" data-name="Path 905765" d="M256.186,107.027h6.775a1.136,1.136,0,1,0,0-2.272h-6.775Z" transform="translate(-256.186 -104.755)" fill="#6f8c9b"/>
          <path id="Path_905766" data-name="Path 905766" d="M262.961,209.436h-6.775v2.272h6.775a1.136,1.136,0,1,0,0-2.272Z" transform="translate(-256.186 -194.574)" fill="#6f8c9b"/>
        </g>
        <g id="Group_1118574" data-name="Group 1118574" transform="translate(0 0)">
          <path id="Path_905767" data-name="Path 905767" d="M299.619,157.109a6.221,6.221,0,0,1,0,2.272h9.637a3,3,0,0,1,0-2.272Z" transform="translate(-293.426 -139.881)" fill="#6f8c9b"/>
          <path id="Path_905768" data-name="Path 905768" d="M293.035,188.279A3.016,3.016,0,0,1,295,187.143l-2-3.472a1.136,1.136,0,0,0-.984-.568h-5.87a6.328,6.328,0,0,1-1.717,2.272h6.931l1.677,2.9Z" transform="translate(-280.392 -162.184)" fill="#6f8c9b"/>
          <path id="Path_905769" data-name="Path 905769" d="M286.138,115.815h5.871a1.136,1.136,0,0,0,.983-.568L295,111.775a3.016,3.016,0,0,1-1.968-1.135l-1.677,2.9h-6.932A6.329,6.329,0,0,1,286.138,115.815Z" transform="translate(-280.386 -100.009)" fill="#6f8c9b"/>
          <path id="Path_905770" data-name="Path 905770" d="M257.948,36.9a3,3,0,0,1,.224-1.136H256v2.272h2.17A3.009,3.009,0,0,1,257.948,36.9Z" transform="translate(-256.001 -35.761)" fill="#6f8c9b"/>
          <path id="Path_905771" data-name="Path 905771" d="M257.948,279.565a3,3,0,0,1,.224-1.136H256V280.7h2.171A3,3,0,0,1,257.948,279.565Z" transform="translate(-256.001 -243.976)" fill="#6f8c9b"/>
          <path id="Path_905772" data-name="Path 905772" d="M264.752,61.944l2.067-3.577a3.021,3.021,0,0,1-1.967-1.135l-1.738,3.008H256v2.272h7.767a1.136,1.136,0,0,0,.983-.568Z" transform="translate(-256.002 -54.184)" fill="#6f8c9b"/>
          <path id="Path_905773" data-name="Path 905773" d="M264.85,241.049a3.02,3.02,0,0,1,1.967-1.135l-2.067-3.577a1.136,1.136,0,0,0-.983-.568H256v2.272h7.112l1.738,3.008Z" transform="translate(-256 -207.373)" fill="#6f8c9b"/>
        </g>
      </g>
    </g>
  </g>
</svg>
