<svg xmlns="http://www.w3.org/2000/svg" width="70" height="70" viewBox="0 0 70 70">
  <g id="Group_1072267" data-name="Group 1072267" transform="translate(-269 -958)">
    <circle id="Ellipse_5614" data-name="Ellipse 5614" cx="35" cy="35" r="35" transform="translate(269 958)" fill="#fff"/>
    <path id="Path_905979" data-name="Path 905979" d="M21.924,28.875a12.3,12.3,0,0,0,0-10.648H38.543a5.322,5.322,0,0,1,1.989,10.259l-.131,0a3.287,3.287,0,0,0-.78.1,3.23,3.23,0,0,0-2.839-1.7,3.33,3.33,0,0,0-.541.044,3.235,3.235,0,0,0-3.079-2.266,3.127,3.127,0,0,0-.393.024v-1.53a3.225,3.225,0,0,0-6.45,0v5.722H21.924ZM27.733,47.5v.483H40.862l.858-2.086a6.182,6.182,0,0,0,.491-2.475V31.709a1.81,1.81,0,0,0-3.619,0V30.1a1.81,1.81,0,0,0-3.619,0v-2.22a1.811,1.811,0,0,0-3.622,0V23.152a1.81,1.81,0,0,0-3.619,0V38.519l-2.669-4.624a1.81,1.81,0,0,0-3.136,1.81l4.935,8.546a6.217,6.217,0,0,1,.87,3.247Zm14.281,1.9H26a.5.5,0,0,0-.493.493v4a.5.5,0,0,0,.493.493H42.013a.493.493,0,0,0,.493-.493v-4A.494.494,0,0,0,42.014,49.395ZM21.72,23.551A10.86,10.86,0,1,1,10.861,12.69,10.882,10.882,0,0,1,21.72,23.551ZM17,19.483a1.546,1.546,0,0,0-2.188,0l-4.85,4.85-3.05-3.05a1.547,1.547,0,0,0-2.188,2.188l4.146,4.146a1.546,1.546,0,0,0,2.188,0L17,21.672a1.547,1.547,0,0,0,0-2.189Z" transform="translate(282.066 961.464)" fill="#6a4d23"/>
  </g>
</svg>
