<svg xmlns="http://www.w3.org/2000/svg" xmlns:xlink="http://www.w3.org/1999/xlink" width="145" height="145" viewBox="0 0 145 145">
  <defs>
    <clipPath id="clip-path">
      <rect id="Rectangle_400938" data-name="Rectangle 400938" width="145" height="145" transform="translate(0 -0.281)" fill="none"/>
    </clipPath>
    <clipPath id="clip-path-2">
      <rect id="Rectangle_401073" data-name="Rectangle 401073" width="110.228" height="49.642" fill="#7d3a1b"/>
    </clipPath>
  </defs>
  <g id="Group_1118784" data-name="Group 1118784" transform="translate(-728.289 -3778.154)">
    <g id="Group_1117907" data-name="Group 1117907" transform="translate(553.289 -5762.564)">
      <g id="Group_1099404" data-name="Group 1099404" transform="translate(175 9541)">
        <g id="Group_1099379" data-name="Group 1099379" transform="translate(0 0)">
          <rect id="Rectangle_401103" data-name="Rectangle 401103" width="145" height="145" transform="translate(0 -0.281)" fill="none"/>
          <g id="Group_1099348" data-name="Group 1099348" transform="translate(0.045 0.045)">
            <g id="Group_1099282" data-name="Group 1099282">
              <g id="Group_1099281" data-name="Group 1099281" clip-path="url(#clip-path-2)">
                <path id="Path_873375" data-name="Path 873375" d="M89.413,10.879c-4.947,0-7.506-2.426-9.765-4.567C77.431,4.213,75.522,2.4,71.529,2.4s-5.9,1.814-8.118,3.913c-2.259,2.141-4.814,4.567-9.765,4.567S46.14,8.453,43.881,6.312C41.664,4.213,39.755,2.4,35.763,2.4s-5.9,1.814-8.114,3.913c-2.259,2.141-4.818,4.567-9.765,4.567s-7.51-2.426-9.769-4.567C5.9,4.213,3.993,2.4,0,2.4V0C4.947,0,7.506,2.43,9.765,4.567c2.217,2.1,4.126,3.913,8.118,3.913S23.785,6.67,26,4.571C28.253,2.43,30.816,0,35.763,0s7.51,2.43,9.765,4.567c2.217,2.1,4.126,3.913,8.118,3.913s5.9-1.81,8.118-3.913C64.019,2.43,66.582,0,71.529,0s7.51,2.43,9.765,4.567c2.217,2.1,4.126,3.913,8.118,3.913s5.9-1.81,8.118-3.913C99.786,2.43,102.345,0,107.3,0V2.4c-3.993,0-5.9,1.814-8.118,3.913-2.259,2.141-4.818,4.567-9.765,4.567" transform="translate(2.932 38.763)" fill="#7d3a1b"/>
                <path id="Path_873376" data-name="Path 873376" d="M89.413,10.879c-4.947,0-7.51-2.426-9.765-4.571C77.431,4.209,75.522,2.4,71.529,2.4s-5.9,1.81-8.118,3.909c-2.255,2.145-4.814,4.571-9.765,4.571s-7.51-2.426-9.765-4.571C41.664,4.209,39.755,2.4,35.763,2.4s-5.9,1.814-8.115,3.909c-2.259,2.145-4.818,4.571-9.765,4.571s-7.51-2.426-9.769-4.571C5.9,4.209,3.993,2.4,0,2.4V0C4.947,0,7.51,2.426,9.765,4.567c2.217,2.1,4.126,3.913,8.118,3.913S23.785,6.67,26,4.567C28.253,2.426,30.816,0,35.763,0s7.51,2.426,9.769,4.567c2.213,2.1,4.122,3.913,8.115,3.913s5.9-1.81,8.118-3.913C64.019,2.426,66.582,0,71.529,0s7.51,2.426,9.765,4.567c2.217,2.1,4.126,3.913,8.118,3.913s5.9-1.81,8.118-3.913C99.79,2.426,102.349,0,107.3,0V2.4c-3.993,0-5.905,1.814-8.122,3.909-2.259,2.145-4.818,4.571-9.765,4.571" transform="translate(1.955 25.842)" fill="#7d3a1b"/>
                <path id="Path_873377" data-name="Path 873377" d="M89.412,10.879c-4.947,0-7.51-2.426-9.765-4.571C77.431,4.209,75.522,2.4,71.529,2.4s-5.9,1.81-8.118,3.909c-2.255,2.145-4.818,4.571-9.765,4.571s-7.51-2.426-9.765-4.571C41.664,4.209,39.755,2.4,35.763,2.4s-5.9,1.814-8.115,3.909c-2.259,2.145-4.818,4.571-9.765,4.571s-7.51-2.426-9.769-4.571C5.9,4.209,3.993,2.4,0,2.4V0C4.947,0,7.51,2.426,9.765,4.567c2.213,2.1,4.126,3.913,8.118,3.913S23.785,6.67,26,4.567C28.253,2.426,30.816,0,35.763,0s7.51,2.426,9.769,4.567c2.213,2.1,4.122,3.913,8.115,3.913s5.9-1.81,8.118-3.913C64.019,2.426,66.582,0,71.529,0s7.51,2.426,9.765,4.567c2.217,2.1,4.126,3.913,8.118,3.913s5.9-1.81,8.118-3.913C99.79,2.426,102.345,0,107.3,0V2.4c-3.993,0-5.905,1.814-8.122,3.909-2.259,2.145-4.818,4.571-9.765,4.571" transform="translate(0.977 12.921)" fill="#7d3a1b"/>
                <path id="Path_873378" data-name="Path 873378" d="M89.413,10.875c-4.947,0-7.506-2.426-9.765-4.567C77.431,4.209,75.522,2.4,71.529,2.4s-5.9,1.81-8.115,3.909c-2.259,2.141-4.818,4.567-9.769,4.567S46.14,8.449,43.881,6.308C41.664,4.209,39.755,2.4,35.763,2.4s-5.9,1.81-8.115,3.905c-2.255,2.145-4.818,4.571-9.765,4.571s-7.51-2.426-9.769-4.567C5.9,4.209,3.993,2.4,0,2.4V0C4.947,0,7.51,2.426,9.765,4.567c2.217,2.1,4.126,3.909,8.118,3.909s5.9-1.81,8.115-3.909C28.257,2.426,30.816,0,35.763,0s7.506,2.426,9.769,4.567c2.213,2.1,4.122,3.909,8.115,3.909s5.9-1.81,8.118-3.909C64.023,2.426,66.582,0,71.529,0s7.506,2.426,9.765,4.567c2.217,2.1,4.126,3.909,8.118,3.909s5.9-1.81,8.118-3.909C99.79,2.426,102.349,0,107.3,0V2.4c-4,0-5.905,1.81-8.122,3.909-2.259,2.141-4.818,4.567-9.765,4.567" transform="translate(0 0.004)" fill="#7d3a1b"/>
              </g>
            </g>
          </g>
          <path id="Path_873425" data-name="Path 873425" d="M60.362,0A60.362,60.362,0,1,1,0,60.362,60.362,60.362,0,0,1,60.362,0Z" transform="translate(17.974 21.56)" fill="#efb499"/>
          <circle id="Ellipse_11503" data-name="Ellipse 11503" cx="63" cy="63" r="63" transform="translate(9 9.719)" fill="#fef7eb"/>
        </g>
      </g>
    </g>
    <path id="Path_905795" data-name="Path 905795" d="M81.244,20.567A42.905,42.905,0,0,0,8,50.905a42.465,42.465,0,0,0,4.536,19.221A43.306,43.306,0,0,0,24.681,84.866a1.384,1.384,0,1,0,1.693-2.19,39.881,39.881,0,0,1-15.58-30.387H45.9a5.2,5.2,0,0,0,10.018,0h35.1A39.985,39.985,0,0,1,76.16,82.1a1.384,1.384,0,0,0,1.743,2.15,42.907,42.907,0,0,0,3.341-63.687Zm9.772,28.954H76.391a25.341,25.341,0,0,0-2.725-10.159l12.663-7.311a39.858,39.858,0,0,1,4.687,17.47ZM84.941,29.656,72.277,36.968a25.728,25.728,0,0,0-7.435-7.435l7.311-12.663A40.45,40.45,0,0,1,84.941,29.656ZM39.362,28.144,32.051,15.481a39.861,39.861,0,0,1,17.47-4.687V25.419A25.334,25.334,0,0,0,39.362,28.144ZM52.289,10.795a39.86,39.86,0,0,1,17.47,4.687L62.448,28.144a25.34,25.34,0,0,0-10.159-2.725ZM29.657,16.869l7.311,12.663a25.73,25.73,0,0,0-7.435,7.435L16.869,29.657A40.449,40.449,0,0,1,29.657,16.869ZM28.144,39.362a25.341,25.341,0,0,0-2.725,10.159H10.795a39.86,39.86,0,0,1,4.687-17.47ZM45.9,49.521h-17.7a22.755,22.755,0,0,1,45.425,0h-17.7a5.166,5.166,0,0,0-.49-1.178L61.1,42.666a1.384,1.384,0,1,0-1.957-1.957l-5.677,5.677A5.192,5.192,0,0,0,45.9,49.521Zm5.009,3.814a2.43,2.43,0,1,1,2.43-2.43A2.432,2.432,0,0,1,50.905,53.335Zm-2.645,18H42.086A1.384,1.384,0,0,0,40.7,72.72V92.427a1.384,1.384,0,0,0,1.384,1.384H48.26a1.384,1.384,0,0,0,1.384-1.384V72.72A1.384,1.384,0,0,0,48.26,71.336ZM46.876,91.042H43.47V74.1h3.406ZM59.725,73.909H53.551a1.384,1.384,0,0,0-1.384,1.384V92.427a1.384,1.384,0,0,0,1.384,1.384h6.174a1.384,1.384,0,0,0,1.384-1.384V75.293A1.384,1.384,0,0,0,59.725,73.909ZM58.341,91.042H54.935V76.677h3.406ZM71.189,63.237H65.015a1.384,1.384,0,0,0-1.384,1.384V92.426a1.384,1.384,0,0,0,1.384,1.384h6.174a1.384,1.384,0,0,0,1.384-1.384V64.621A1.384,1.384,0,0,0,71.189,63.237ZM69.8,91.042H66.4V66H69.8ZM36.8,78.98H30.622a1.384,1.384,0,0,0-1.384,1.384V92.426a1.384,1.384,0,0,0,1.384,1.384H36.8a1.384,1.384,0,0,0,1.384-1.384V80.364A1.384,1.384,0,0,0,36.8,78.98ZM35.412,91.042H32.006V81.748h3.406Zm20.81-26,8.2-8.267a1.383,1.383,0,0,1-.17-2.76l3.732-.327a1.384,1.384,0,0,1,1.5,1.533l-.416,3.723a1.383,1.383,0,0,1-2.758-.137L57.588,67.6a1.384,1.384,0,0,1-1.41.342L45.445,64.457,34.56,72.933a1.384,1.384,0,0,1-1.7-2.184l11.464-8.927A1.384,1.384,0,0,1,45.6,61.6Z" transform="translate(749.884 3799.749)" fill="#6a4d23"/>
  </g>
</svg>
