<svg xmlns="http://www.w3.org/2000/svg" xmlns:xlink="http://www.w3.org/1999/xlink" width="145" height="145" viewBox="0 0 145 145">
  <defs>
    <clipPath id="clip-path">
      <rect id="Rectangle_400938" data-name="Rectangle 400938" width="145" height="145" transform="translate(0 -0.281)" fill="none"/>
    </clipPath>
    <clipPath id="clip-path-2">
      <rect id="Rectangle_401073" data-name="Rectangle 401073" width="110.228" height="49.642" fill="#7d3a1b"/>
    </clipPath>
  </defs>
  <g id="Group_1118786" data-name="Group 1118786" transform="translate(-518.289 -4171.154)">
    <g id="Group_1117910" data-name="Group 1117910" transform="translate(343.289 -5369.564)">
      <g id="Group_1099404" data-name="Group 1099404" transform="translate(175 9541)">
        <g id="Group_1099379" data-name="Group 1099379" transform="translate(0 0)">
          <rect id="Rectangle_401103" data-name="Rectangle 401103" width="145" height="145" transform="translate(0 -0.281)" fill="none"/>
          <g id="Group_1099348" data-name="Group 1099348" transform="translate(0.045 0.045)">
            <g id="Group_1099282" data-name="Group 1099282">
              <g id="Group_1099281" data-name="Group 1099281" clip-path="url(#clip-path-2)">
                <path id="Path_873375" data-name="Path 873375" d="M89.413,10.879c-4.947,0-7.506-2.426-9.765-4.567C77.431,4.213,75.522,2.4,71.529,2.4s-5.9,1.814-8.118,3.913c-2.259,2.141-4.814,4.567-9.765,4.567S46.14,8.453,43.881,6.312C41.664,4.213,39.755,2.4,35.763,2.4s-5.9,1.814-8.114,3.913c-2.259,2.141-4.818,4.567-9.765,4.567s-7.51-2.426-9.769-4.567C5.9,4.213,3.993,2.4,0,2.4V0C4.947,0,7.506,2.43,9.765,4.567c2.217,2.1,4.126,3.913,8.118,3.913S23.785,6.67,26,4.571C28.253,2.43,30.816,0,35.763,0s7.51,2.43,9.765,4.567c2.217,2.1,4.126,3.913,8.118,3.913s5.9-1.81,8.118-3.913C64.019,2.43,66.582,0,71.529,0s7.51,2.43,9.765,4.567c2.217,2.1,4.126,3.913,8.118,3.913s5.9-1.81,8.118-3.913C99.786,2.43,102.345,0,107.3,0V2.4c-3.993,0-5.9,1.814-8.118,3.913-2.259,2.141-4.818,4.567-9.765,4.567" transform="translate(2.932 38.763)" fill="#7d3a1b"/>
                <path id="Path_873376" data-name="Path 873376" d="M89.413,10.879c-4.947,0-7.51-2.426-9.765-4.571C77.431,4.209,75.522,2.4,71.529,2.4s-5.9,1.81-8.118,3.909c-2.255,2.145-4.814,4.571-9.765,4.571s-7.51-2.426-9.765-4.571C41.664,4.209,39.755,2.4,35.763,2.4s-5.9,1.814-8.115,3.909c-2.259,2.145-4.818,4.571-9.765,4.571s-7.51-2.426-9.769-4.571C5.9,4.209,3.993,2.4,0,2.4V0C4.947,0,7.51,2.426,9.765,4.567c2.217,2.1,4.126,3.913,8.118,3.913S23.785,6.67,26,4.567C28.253,2.426,30.816,0,35.763,0s7.51,2.426,9.769,4.567c2.213,2.1,4.122,3.913,8.115,3.913s5.9-1.81,8.118-3.913C64.019,2.426,66.582,0,71.529,0s7.51,2.426,9.765,4.567c2.217,2.1,4.126,3.913,8.118,3.913s5.9-1.81,8.118-3.913C99.79,2.426,102.349,0,107.3,0V2.4c-3.993,0-5.905,1.814-8.122,3.909-2.259,2.145-4.818,4.571-9.765,4.571" transform="translate(1.955 25.842)" fill="#7d3a1b"/>
                <path id="Path_873377" data-name="Path 873377" d="M89.412,10.879c-4.947,0-7.51-2.426-9.765-4.571C77.431,4.209,75.522,2.4,71.529,2.4s-5.9,1.81-8.118,3.909c-2.255,2.145-4.818,4.571-9.765,4.571s-7.51-2.426-9.765-4.571C41.664,4.209,39.755,2.4,35.763,2.4s-5.9,1.814-8.115,3.909c-2.259,2.145-4.818,4.571-9.765,4.571s-7.51-2.426-9.769-4.571C5.9,4.209,3.993,2.4,0,2.4V0C4.947,0,7.51,2.426,9.765,4.567c2.213,2.1,4.126,3.913,8.118,3.913S23.785,6.67,26,4.567C28.253,2.426,30.816,0,35.763,0s7.51,2.426,9.769,4.567c2.213,2.1,4.122,3.913,8.115,3.913s5.9-1.81,8.118-3.913C64.019,2.426,66.582,0,71.529,0s7.51,2.426,9.765,4.567c2.217,2.1,4.126,3.913,8.118,3.913s5.9-1.81,8.118-3.913C99.79,2.426,102.345,0,107.3,0V2.4c-3.993,0-5.905,1.814-8.122,3.909-2.259,2.145-4.818,4.571-9.765,4.571" transform="translate(0.977 12.921)" fill="#7d3a1b"/>
                <path id="Path_873378" data-name="Path 873378" d="M89.413,10.875c-4.947,0-7.506-2.426-9.765-4.567C77.431,4.209,75.522,2.4,71.529,2.4s-5.9,1.81-8.115,3.909c-2.259,2.141-4.818,4.567-9.769,4.567S46.14,8.449,43.881,6.308C41.664,4.209,39.755,2.4,35.763,2.4s-5.9,1.81-8.115,3.905c-2.255,2.145-4.818,4.571-9.765,4.571s-7.51-2.426-9.769-4.567C5.9,4.209,3.993,2.4,0,2.4V0C4.947,0,7.51,2.426,9.765,4.567c2.217,2.1,4.126,3.909,8.118,3.909s5.9-1.81,8.115-3.909C28.257,2.426,30.816,0,35.763,0s7.506,2.426,9.769,4.567c2.213,2.1,4.122,3.909,8.115,3.909s5.9-1.81,8.118-3.909C64.023,2.426,66.582,0,71.529,0s7.506,2.426,9.765,4.567c2.217,2.1,4.126,3.909,8.118,3.909s5.9-1.81,8.118-3.909C99.79,2.426,102.349,0,107.3,0V2.4c-4,0-5.905,1.81-8.122,3.909-2.259,2.141-4.818,4.567-9.765,4.567" transform="translate(0 0.004)" fill="#7d3a1b"/>
              </g>
            </g>
          </g>
          <path id="Path_873425" data-name="Path 873425" d="M60.362,0A60.362,60.362,0,1,1,0,60.362,60.362,60.362,0,0,1,60.362,0Z" transform="translate(17.974 21.56)" fill="#efb499"/>
          <circle id="Ellipse_11503" data-name="Ellipse 11503" cx="63" cy="63" r="63" transform="translate(9 9.719)" fill="#fef7eb"/>
        </g>
      </g>
    </g>
    <g id="Group_1118584" data-name="Group 1118584" transform="translate(548.296 4206.939)">
      <path id="Path_905796" data-name="Path 905796" d="M124.457,292.676a1.662,1.662,0,1,0-2.27-.608A1.663,1.663,0,0,0,124.457,292.676Zm0,0" transform="translate(-101.694 -241.449)" fill="#6a4d23"/>
      <path id="Path_905797" data-name="Path 905797" d="M15.952,81.338l8.369,14.5a6.648,6.648,0,1,0,11.514-6.647L30.85,80.551l4.318-2.493a1.662,1.662,0,0,0,.608-2.27l-2.161-3.743L65.448,65.8a4.985,4.985,0,0,0,4.041-7.47l-5.523-9.567,3.53-5.346a1.663,1.663,0,0,0,.053-1.747l-3.324-5.757a1.665,1.665,0,0,0-1.539-.828l-6.394.384L50.159,24.848A4.942,4.942,0,0,0,45.9,22.356H45.84a4.942,4.942,0,0,0-4.2,2.3L19.932,52.312,5.818,60.46A11.634,11.634,0,0,0,15.952,81.338Zm17.006,9.513A3.324,3.324,0,0,1,27.2,94.174l-8.31-14.395,5.757-3.324Zm-3.77-13.179-1.662-2.879L30.4,73.131l1.662,2.879ZM61.859,38.465l2.3,3.978-2.048,3.1-3.959-6.858ZM44.422,26.477a1.661,1.661,0,0,1,2.858.033L66.611,59.992a1.661,1.661,0,0,1-1.4,2.492,6.1,6.1,0,0,0-.911.155L43.853,27.221C44.282,26.669,44.337,26.616,44.422,26.477Zm-2.781,3.562L60.853,63.315,31.858,69l-8.816-15.27ZM4.438,74.69A8.3,8.3,0,0,1,7.48,63.339L20.433,55.86l8.31,14.393L15.789,77.732A8.32,8.32,0,0,1,4.438,74.69Zm0,0" transform="translate(0 -18.64)" fill="#6a4d23"/>
      <path id="Path_905798" data-name="Path 905798" d="M53.2,310.4a1.662,1.662,0,0,0-2.27-.608l-2.879,1.662a1.664,1.664,0,0,1-2.27-.608,1.662,1.662,0,1,0-2.879,1.662,4.992,4.992,0,0,0,6.811,1.825l2.879-1.662A1.662,1.662,0,0,0,53.2,310.4Zm0,0" transform="translate(-35.589 -258.123)" fill="#6a4d23"/>
      <path id="Path_905799" data-name="Path 905799" d="M446.39,42.691l-9.261,5.153a1.662,1.662,0,0,0,1.617,2.9l9.26-5.153a1.662,1.662,0,0,0-1.616-2.9Zm0,0" transform="translate(-363.768 -35.421)" fill="#6a4d23"/>
      <path id="Path_905800" data-name="Path 905800" d="M448.577,138.4l-6.421-1.72a1.662,1.662,0,1,0-.86,3.21l6.422,1.72a1.662,1.662,0,1,0,.86-3.21Zm0,0" transform="translate(-366.927 -113.915)" fill="#6a4d23"/>
      <path id="Path_905801" data-name="Path 905801" d="M385.272,1.232,383.55,7.654a1.662,1.662,0,1,0,3.211.861l1.722-6.422a1.662,1.662,0,1,0-3.21-.861Zm0,0" transform="translate(-319.758 0)" fill="#6a4d23"/>
    </g>
  </g>
</svg>
