<svg xmlns="http://www.w3.org/2000/svg" width="70" height="70" viewBox="0 0 70 70">
  <g id="Group_1072266" data-name="Group 1072266" transform="translate(-269 -958)">
    <circle id="Ellipse_5614" data-name="Ellipse 5614" cx="35" cy="35" r="35" transform="translate(269 958)" fill="#fff"/>
    <g id="Layer_2" data-name="Layer 2" transform="translate(280.7 969.7)">
      <path id="Path_905978" data-name="Path 905978" d="M2.25,39.493a4.858,4.858,0,0,0,4.858,4.858H39.493a4.858,4.858,0,0,0,4.858-4.858V16.284H2.25ZM28.7,23.3a1.619,1.619,0,0,1,2.936-.928l2.461,3.5,2.461-3.5a1.619,1.619,0,0,1,2.936.928V34.1a1.619,1.619,0,1,1-3.239,0V28.439l-.842,1.187a1.662,1.662,0,0,1-2.634,0l-.842-1.187V34.1a1.619,1.619,0,1,1-3.239,0ZM17.363,28.719V23.3a1.641,1.641,0,0,1,1.619-1.619h3.26A4.577,4.577,0,0,1,27.079,26a4.448,4.448,0,0,1-3.757,4.318L26.5,32.951a1.619,1.619,0,0,1-1.036,2.764,1.684,1.684,0,0,1-1.036-.367l-3.821-3.2V34.1a1.619,1.619,0,1,1-3.239,0ZM7.108,25.092a3.411,3.411,0,0,1,3.411-3.411h3.606a1.619,1.619,0,0,1,0,3.239H10.519a.194.194,0,0,0-.173.173V32.3a.194.194,0,0,0,.173.173h3.606a1.619,1.619,0,0,1,0,3.239H10.519A3.411,3.411,0,0,1,7.108,32.3Zm15.113,1.986H20.58V24.92h1.641c.95,0,1.6.561,1.6,1.1s-.518,1.058-1.576,1.058ZM39.493,2.25H7.108A4.858,4.858,0,0,0,2.25,7.108v5.937h42.1V7.108A4.858,4.858,0,0,0,39.493,2.25ZM11.426,9.807H9.267a1.619,1.619,0,0,1,0-3.239h2.159a1.619,1.619,0,1,1,0,3.239Zm6.477,0H15.744a1.619,1.619,0,1,1,0-3.239H17.9a1.619,1.619,0,1,1,0,3.239Z" transform="translate(0 0)" fill="#6a4d23"/>
    </g>
  </g>
</svg>
