<svg xmlns="http://www.w3.org/2000/svg" xmlns:xlink="http://www.w3.org/1999/xlink" width="129" height="128" viewBox="0 0 129 128">
  <defs>
    <clipPath id="clip-path">
      <rect id="Rectangle_400938" data-name="Rectangle 400938" width="120" height="120" fill="none"/>
    </clipPath>
    <clipPath id="clip-path-2">
      <rect id="Rectangle_400938-2" data-name="Rectangle 400938" width="113" height="113" transform="translate(0.211 0.211)" fill="none"/>
    </clipPath>
    <clipPath id="clip-path-3">
      <rect id="Rectangle_401073" data-name="Rectangle 401073" width="86.443" height="38.93" fill="#7d3a1b"/>
    </clipPath>
  </defs>
  <g id="Group_1118910" data-name="Group 1118910" transform="translate(-375.867 -3215)">
    <g id="Group_1118794" data-name="Group 1118794" transform="translate(0 -96)">
      <g id="Grupo_108927" data-name="Grupo 108927" transform="translate(-14.133 -1156)">
        <path id="Rectángulo_36179" data-name="Rectángulo 36179" d="M0,0H129V128H0Z" transform="translate(390 4467)" fill="#feebcf"/>
      </g>
      <g id="Group_1118523" data-name="Group 1118523" transform="translate(118.656 -1965.211)">
        <g id="Group_1099379" data-name="Group 1099379" transform="translate(265 5284)">
          <rect id="Rectangle_401103" data-name="Rectangle 401103" width="113" height="113" transform="translate(0.211 0.211)" fill="none"/>
          <g id="Group_1099348" data-name="Group 1099348">
            <g id="Group_1099282" data-name="Group 1099282">
              <g id="Group_1099281" data-name="Group 1099281" clip-path="url(#clip-path-3)">
                <path id="Path_873375" data-name="Path 873375" d="M70.12,8.532c-3.88,0-5.887-1.9-7.658-3.581C60.723,3.3,59.226,1.882,56.1,1.882S51.467,3.3,49.728,4.95c-1.771,1.679-3.775,3.581-7.658,3.581s-5.886-1.9-7.658-3.581C32.674,3.3,31.177,1.882,28.046,1.882S23.418,3.3,21.682,4.95C19.911,6.629,17.9,8.532,14.024,8.532S8.135,6.629,6.364,4.95C4.628,3.3,3.131,1.882,0,1.882V0C3.88,0,5.887,1.906,7.658,3.581,9.4,5.23,10.893,6.65,14.024,6.65s4.628-1.419,6.364-3.066C22.157,1.906,24.166,0,28.046,0s5.89,1.906,7.658,3.581C37.442,5.23,38.939,6.65,42.07,6.65S46.7,5.23,48.437,3.581C50.205,1.906,52.215,0,56.1,0s5.89,1.906,7.658,3.581C65.491,5.23,66.988,6.65,70.12,6.65s4.628-1.419,6.367-3.069C78.255,1.906,80.261,0,84.144,0V1.882c-3.131,0-4.628,1.422-6.367,3.069C76.006,6.629,74,8.532,70.12,8.532" transform="translate(2.299 30.399)" fill="#7d3a1b"/>
                <path id="Path_873376" data-name="Path 873376" d="M70.12,8.532c-3.88,0-5.889-1.9-7.658-3.584C60.723,3.3,59.226,1.882,56.1,1.882S51.467,3.3,49.728,4.947c-1.768,1.682-3.775,3.584-7.658,3.584s-5.889-1.9-7.658-3.584C32.674,3.3,31.177,1.882,28.046,1.882S23.418,3.3,21.682,4.947C19.911,6.629,17.9,8.532,14.025,8.532s-5.889-1.9-7.661-3.584C4.628,3.3,3.131,1.882,0,1.882V0C3.88,0,5.889,1.9,7.658,3.581,9.4,5.23,10.893,6.65,14.025,6.65s4.628-1.419,6.364-3.069C22.157,1.9,24.166,0,28.046,0s5.889,1.9,7.661,3.581C37.442,5.23,38.939,6.65,42.071,6.65S46.7,5.23,48.437,3.581C50.206,1.9,52.215,0,56.1,0s5.89,1.9,7.658,3.581C65.491,5.23,66.988,6.65,70.12,6.65s4.628-1.419,6.367-3.069C78.257,1.9,80.264,0,84.147,0V1.882c-3.131,0-4.631,1.422-6.37,3.066C76.006,6.629,74,8.532,70.12,8.532" transform="translate(1.533 20.266)" fill="#7d3a1b"/>
                <path id="Path_873377" data-name="Path 873377" d="M70.119,8.532c-3.88,0-5.889-1.9-7.658-3.584C60.723,3.3,59.226,1.882,56.1,1.882S51.467,3.3,49.728,4.947C47.96,6.629,45.95,8.532,42.071,8.532s-5.89-1.9-7.658-3.584C32.674,3.3,31.177,1.882,28.046,1.882S23.418,3.3,21.682,4.947C19.911,6.629,17.9,8.532,14.025,8.532s-5.89-1.9-7.661-3.584C4.628,3.3,3.131,1.882,0,1.882V0C3.88,0,5.889,1.9,7.658,3.581,9.393,5.23,10.893,6.65,14.025,6.65s4.628-1.419,6.364-3.069C22.156,1.9,24.166,0,28.046,0s5.89,1.9,7.661,3.581C37.442,5.23,38.939,6.65,42.071,6.65S46.7,5.23,48.437,3.581C50.205,1.9,52.215,0,56.1,0s5.889,1.9,7.658,3.581C65.491,5.23,66.988,6.65,70.119,6.65s4.628-1.419,6.367-3.069C78.257,1.9,80.261,0,84.147,0V1.882c-3.131,0-4.631,1.422-6.37,3.066C76.006,6.629,74,8.532,70.119,8.532" transform="translate(0.766 10.133)" fill="#7d3a1b"/>
                <path id="Path_873378" data-name="Path 873378" d="M70.12,8.529c-3.88,0-5.887-1.9-7.658-3.581C60.723,3.3,59.226,1.882,56.095,1.882S51.467,3.3,49.731,4.947C47.96,6.626,45.953,8.529,42.07,8.529s-5.887-1.9-7.658-3.581C32.674,3.3,31.177,1.882,28.046,1.882S23.418,3.3,21.682,4.944C19.914,6.626,17.9,8.529,14.024,8.529s-5.89-1.9-7.661-3.581C4.628,3.3,3.131,1.882,0,1.882V0C3.88,0,5.89,1.9,7.658,3.581,9.4,5.228,10.893,6.647,14.024,6.647s4.628-1.419,6.364-3.066C22.159,1.9,24.166,0,28.046,0s5.887,1.9,7.661,3.581c1.736,1.646,3.233,3.066,6.364,3.066S46.7,5.228,48.437,3.581C50.208,1.9,52.215,0,56.095,0s5.887,1.9,7.658,3.581c1.739,1.646,3.236,3.066,6.367,3.066s4.628-1.419,6.367-3.066C78.257,1.9,80.264,0,84.147,0V1.882c-3.134,0-4.631,1.419-6.37,3.066C76.006,6.626,74,8.529,70.12,8.529" transform="translate(0 0.003)" fill="#7d3a1b"/>
              </g>
            </g>
          </g>
          <path id="Path_873425" data-name="Path 873425" d="M47.337,0A47.337,47.337,0,1,1,0,47.337,47.337,47.337,0,0,1,47.337,0Z" transform="translate(14.061 16.873)" fill="#7d3a1b"/>
          <circle id="Ellipse_11503" data-name="Ellipse 11503" cx="49.5" cy="49.5" r="49.5" transform="translate(7.211 7.211)" fill="#fff"/>
        </g>
      </g>
      <g id="Group_1118647" data-name="Group 1118647" transform="translate(337.994 3333.895)">
        <path id="Path_905932" data-name="Path 905932" d="M208.21,371.041l-1.964-2.946a1.347,1.347,0,0,1-.084-1.349l1-1.994L179.714,363s-2.174,2.517-1.739,2.909a35.473,35.473,0,0,0,4.782,3.364c2.856,1.83,6,3.7,7.287,7.029a20.19,20.19,0,0,0,.643,2.446,21.749,21.749,0,0,0,3.566-.221c1.691-.222,3.385-.439,5.073-.681,1.168-.168,2.488-.278,3.413.611a3.68,3.68,0,0,1,.615,3.807.781.781,0,0,1-.6.542c-.1.311-.217.618-.331.924-.063.17-.12.328-.164.477a9.461,9.461,0,0,0,2.248,1.26c.539.195,1.77-.6,1.77-.6l2.142-12.854A1.347,1.347,0,0,0,208.21,371.041Z" transform="translate(-88.312 -304.155)" fill="#e5646e"/>
        <path id="Path_905933" data-name="Path 905933" d="M181.5,389.052l.958-1.916a3.427,3.427,0,0,0-3.065-4.96H169.214l-.592-2.37a5.388,5.388,0,0,0-2.137-3.106L157,370.058l-4.241-.725-1.741,1.153a2.693,2.693,0,0,1,2.4.349l11.531,8.072a2.693,2.693,0,0,1,1.068,1.553l.847,3.39a1.347,1.347,0,0,0,1.306,1.02H179.39a.734.734,0,0,1,.656,1.062l-1.56,3.12a1.347,1.347,0,0,0,.6,1.807l3,1.5a.98.98,0,0,0,1.4-.715l.245-1.471Z" transform="translate(-65.77 -309.461)" fill="#db4655"/>
        <path id="Path_905934" data-name="Path 905934" d="M161.557,39.713a4.04,4.04,0,0,1-.129-2.07l.814-4.07a1.347,1.347,0,0,0-1.321-1.611h-8.41a1.347,1.347,0,0,1-1.12-.6l-1.894-2.84a1.347,1.347,0,0,0-1.12-.6h-8.863a1.347,1.347,0,0,1-1.336-1.18l-1.052-8.413a1.347,1.347,0,0,0-1.336-1.18h-.335a1.347,1.347,0,0,1-1.12-2.093l5.916-8.875A8.082,8.082,0,0,1,142.126,4.2l.688-.516-.416-2.5a6.7,6.7,0,0,0-5.425,2.17c-1.6,1.784-2.792,3.733-5.126,4.658-1.991.789-4.019.352-6.075.662-2.165.327-3.507,2.691-4.351,4.524a15.491,15.491,0,0,0-.63,1.638,4.036,4.036,0,0,1-.446,1.442c-.623,2.08-1.261,4.16-2.994,5.616a4.7,4.7,0,0,1-2.031,1.034,5.152,5.152,0,0,1-1.3.1,3.346,3.346,0,0,1-.569-.055c-.111-.024-.248,0-.231-.025-.794.452-1.078,2.274-1.232,3.018a7.153,7.153,0,0,0,.228,3.764,18.123,18.123,0,0,1,1.25,5.613,10.824,10.824,0,0,1,.284,3.969c-.091,1.553-.38,3.112-.426,4.67a3.321,3.321,0,0,1,.016.4q2.327.466,4.627,1.054a.724.724,0,0,1,.53.458,3.868,3.868,0,0,1,.908.56,4.01,4.01,0,0,0,2.027.854,31,31,0,0,0,5.06.108c6.569-.084,13.152-.077,19.715-.365l16.8-2.972Z" transform="translate(-32.945 -0.991)" fill="#ffe07d"/>
        <path id="Path_905935" data-name="Path 905935" d="M134.442,0h-2.366a4.04,4.04,0,0,0-2.856,1.183L124.853,5.55A4.039,4.039,0,0,1,122,6.733H118.61a4.039,4.039,0,0,0-2.857,1.183l-2.068,2.068a2.693,2.693,0,0,0-.789,1.9V13.4a4.04,4.04,0,0,1-.885,2.524L108.191,20.7a1.346,1.346,0,0,1-1.654.363l-.41-.205a1.347,1.347,0,0,0-1.852.7l-1.7,4.251a2.693,2.693,0,0,0,.092,2.2l1.3,2.6a8.08,8.08,0,0,1,.853,3.613v8.347q0,.259-.02.516l2.289.564.41-.567q.014-.256.015-.513V34.225a10.83,10.83,0,0,0-1.137-4.818l-1.3-2.6,1.2-3.009a4.034,4.034,0,0,0,4.016-1.423l3.821-4.776A6.758,6.758,0,0,0,115.59,13.4V11.888l2.068-2.068a1.338,1.338,0,0,1,.952-.394H122a6.688,6.688,0,0,0,4.761-1.972l4.367-4.367a1.338,1.338,0,0,1,.952-.394h2.815l.359-.269A1.347,1.347,0,0,0,134.442,0Z" transform="translate(-25.022)" fill="#ffd064"/>
        <path id="Path_905936" data-name="Path 905936" d="M137.509,278.162l-1.977-5.931a2.693,2.693,0,0,1,.146-2.056l.349-.7a2.693,2.693,0,0,0,.146-2.056l-.545-1.635-47.594-.006c-1.378,1.732-1.566,3.812-3.57,4.6-.128.2-.258.4-.387.606a33.867,33.867,0,0,1-1.953,3.032,22.823,22.823,0,0,1-2,2.009c-.412.4-1.244,1.048-.887,1.683a3.69,3.69,0,0,0,1.741,1.238c.755.349,1.552.6,2.336.878a9.933,9.933,0,0,1,4.647,3.082l.005.006h0c.043.054.086.108.127.164a.647.647,0,0,1,.122.536c.461.26.685.153,1.231-.149a5.059,5.059,0,0,1,3.517-.865c.628.122,3.818.693,3.818.693h27.622l1.045-2.091a1.346,1.346,0,0,0,0-1.2l-.182-.364a1.347,1.347,0,0,1,1.056-1.941l7.244-.8a1.346,1.346,0,0,1,1.4.841l.473,1.189a1.1,1.1,0,0,0,2.066-.755Z" transform="translate(-5.56 -222.696)" fill="#6987eb"/>
        <path id="Path_905937" data-name="Path 905937" d="M79.089,273.575l2.057-3.428a9.436,9.436,0,0,0,1.329-4.331h-2.7a6.74,6.74,0,0,1-.94,2.946l-2.057,3.428a16.152,16.152,0,0,1-2.43,3.112l-1.436,1.436a1.346,1.346,0,0,0,.238,2.094L81.413,284a2.693,2.693,0,0,0,2.279.271l1.551-.517a8.261,8.261,0,0,1,2.632-.428h3.35l-2.042-1.429a5.387,5.387,0,0,0-4.792-.7l-1.551.517-6.826-4.266.239-.239a18.87,18.87,0,0,0,2.835-3.631Z" transform="translate(0 -222.725)" fill="#5069d2"/>
      </g>
    </g>
  </g>
</svg>
