<svg xmlns="http://www.w3.org/2000/svg" xmlns:xlink="http://www.w3.org/1999/xlink" width="90" height="90" viewBox="0 0 90 90">
  <defs>
    <clipPath id="clip-path">
      <rect id="Rectangle_409062" data-name="Rectangle 409062" width="46.613" height="53.439" fill="none"/>
    </clipPath>
  </defs>
  <g id="Group_1118818" data-name="Group 1118818" transform="translate(-830.156 -2098)">
    <g id="Group_1117143" data-name="Group 1117143" transform="translate(830.156 2098.311)">
      <g id="Ellipse_11510" data-name="Ellipse 11510" transform="translate(0 -0.311)" fill="#fff" stroke="#ffce73" stroke-width="5">
        <circle cx="45" cy="45" r="45" stroke="none"/>
        <circle cx="45" cy="45" r="42.5" fill="none"/>
      </g>
    </g>
    <g id="Group_1118670" data-name="Group 1118670" transform="translate(853.262 2115)">
      <g id="Group_1118669" data-name="Group 1118669" clip-path="url(#clip-path)">
        <path id="Path_906085" data-name="Path 906085" d="M4.454,55.878h39.52V14.83L33.6,4.454H4.454Z" transform="translate(-3.446 -3.446)" fill="#eef8ff"/>
        <path id="Path_906086" data-name="Path 906086" d="M133.249,4.454V14.731h10.376Z" transform="translate(-103.098 -3.446)" fill="#c7bae2"/>
        <path id="Path_906087" data-name="Path 906087" d="M76.06,89.665a11.6,11.6,0,1,1-16.41,0,11.6,11.6,0,0,1,16.41,0" transform="translate(-43.523 -66.746)" fill="#fff"/>
        <path id="Path_906088" data-name="Path 906088" d="M64.429,107.051a12.609,12.609,0,1,1,8.917-21.523h0a12.606,12.606,0,0,1-8.917,21.523m0-23.2a10.587,10.587,0,1,0,7.492,3.1,10.564,10.564,0,0,0-7.492-3.1" transform="translate(-40.097 -63.321)" fill="#3a2f49"/>
        <path id="Path_906089" data-name="Path 906089" d="M164.762,194.777h0a2.28,2.28,0,0,1-3.225,0l-6-6a2.28,2.28,0,0,1,3.225-3.225l6,6a2.28,2.28,0,0,1,0,3.225" transform="translate(-119.823 -143.046)" fill="#8acdff"/>
        <path id="Path_906090" data-name="Path 906090" d="M159.71,193.006a3.266,3.266,0,0,1-2.325-.963l-6-6a3.288,3.288,0,0,1,4.65-4.65l6,6a3.288,3.288,0,0,1-2.325,5.613m-6-10.563a1.272,1.272,0,0,0-.9,2.172l6,6a1.273,1.273,0,0,0,1.8,0h0a1.274,1.274,0,0,0,0-1.8l-6-6a1.268,1.268,0,0,0-.9-.372" transform="translate(-116.384 -139.6)" fill="#3a2f49"/>
        <path id="Path_906091" data-name="Path 906091" d="M144.681,175.7a1,1,0,0,1-.713-.3l-2.834-2.834a1.008,1.008,0,0,1,1.425-1.425l2.834,2.834a1.008,1.008,0,0,1-.713,1.72" transform="translate(-108.97 -132.193)" fill="#3a2f49"/>
        <path id="Path_906092" data-name="Path 906092" d="M35.936,53.439H1.008A1.008,1.008,0,0,1,0,52.431V1.008A1.008,1.008,0,0,1,1.008,0H30.151a1.008,1.008,0,0,1,.713.3L41.24,10.671a1.009,1.009,0,0,1,.3.713V36.969a1.008,1.008,0,1,1-2.015,0V11.8L29.734,2.015H2.016V51.423h33.92a1.008,1.008,0,1,1,0,2.016" fill="#3a2f49"/>
        <path id="Path_906093" data-name="Path 906093" d="M140.08,12.293H129.8a1.008,1.008,0,0,1-1.008-1.008V1.008a1.008,1.008,0,0,1,2.016,0v9.27h9.269a1.008,1.008,0,1,1,0,2.015" transform="translate(-99.652)" fill="#3a2f49"/>
        <path id="Path_906094" data-name="Path 906094" d="M35.984,24.725H26.166a1.008,1.008,0,0,1,0-2.016h9.818a1.008,1.008,0,1,1,0,2.016" transform="translate(-19.465 -17.57)" fill="#3a2f49"/>
        <path id="Path_906095" data-name="Path 906095" d="M43.8,54.277H26.165a1.008,1.008,0,0,1,0-2.016H43.8a1.008,1.008,0,0,1,0,2.016" transform="translate(-19.465 -40.435)" fill="#3a2f49"/>
        <path id="Path_906096" data-name="Path 906096" d="M83.451,129.5a1.006,1.006,0,0,1-.673-.258l-4.67-4.191a1.008,1.008,0,1,1,1.346-1.5l3.981,3.572,6.2-5.831a1.008,1.008,0,1,1,1.381,1.468l-6.875,6.466a1,1,0,0,1-.69.274" transform="translate(-60.175 -93.633)" fill="#3a2f49"/>
      </g>
    </g>
  </g>
</svg>
