<svg xmlns="http://www.w3.org/2000/svg" width="90.184" height="90.184" viewBox="0 0 90.184 90.184">
  <g id="Group_1118914" data-name="Group 1118914" transform="translate(-757.156 -4762)">
    <g id="Group_1099368" data-name="Group 1099368" transform="translate(757.156 4762)">
      <g id="Group_1073526" data-name="Group 1073526" transform="translate(0 0)">
        <g id="Group_1072785" data-name="Group 1072785" transform="translate(0 0)">
          <path id="Path_608385" data-name="Path 608385" d="M45.092,0A45.092,45.092,0,1,1,0,45.092,45.092,45.092,0,0,1,45.092,0Z" transform="translate(0 0)" fill="none"/>
        </g>
        <g id="Group_1073383" data-name="Group 1073383" transform="translate(0 0)">
          <path id="Path_608385-2" data-name="Path 608385" d="M45.092,0A45.092,45.092,0,1,1,0,45.092,45.092,45.092,0,0,1,45.092,0Z" transform="translate(0 0)" fill="#fff"/>
        </g>
      </g>
    </g>
    <g id="Group_1118728" data-name="Group 1118728" transform="translate(758.401 4762)">
      <g id="Group_1118710" data-name="Group 1118710" transform="translate(16 16)">
        <g id="Group_1118691" data-name="Group 1118691" transform="translate(0 0)">
          <path id="Path_906156" data-name="Path 906156" d="M53.01,19.8H16.949A.949.949,0,0,1,16,18.847v-1.9A.949.949,0,0,1,16.949,16H53.01a.949.949,0,0,1,.949.949v1.9A.949.949,0,0,1,53.01,19.8Z" transform="translate(-16 -16)" fill="#faa019"/>
        </g>
        <g id="Group_1118692" data-name="Group 1118692" transform="translate(26.571 0)">
          <path id="Path_906157" data-name="Path 906157" d="M240.949,19.8h9.49a.949.949,0,0,0,.949-.949v-1.9a.949.949,0,0,0-.949-.949h-9.49a.949.949,0,0,0-.949.949v1.9A.949.949,0,0,0,240.949,19.8Z" transform="translate(-240 -16)" fill="#f06423"/>
        </g>
        <g id="Group_1118693" data-name="Group 1118693" transform="translate(1.898 3.796)">
          <path id="Path_906158" data-name="Path 906158" d="M32,48H66.163V87.857H32Z" transform="translate(-32 -48)" fill="#a5c3dc"/>
        </g>
        <g id="Group_1118694" data-name="Group 1118694" transform="translate(1.898 5.694)">
          <path id="Path_906159" data-name="Path 906159" d="M32,64H56.673v37.959H32Z" transform="translate(-32 -64)" fill="#d7e6f0"/>
        </g>
        <g id="Group_1118697" data-name="Group 1118697" transform="translate(5.694 17.081)">
          <g id="Group_1118695" data-name="Group 1118695">
            <path id="Path_906160" data-name="Path 906160" d="M70.643,167.592H64.949a.949.949,0,0,1-.949-.949v-5.694a.949.949,0,0,1,.949-.949h5.694a.949.949,0,0,1,.949.949v5.694A.949.949,0,0,1,70.643,167.592Z" transform="translate(-64 -160)" fill="#5ad7ff"/>
          </g>
          <g id="Group_1118696" data-name="Group 1118696">
            <path id="Path_906161" data-name="Path 906161" d="M65.9,166.643v-5.694a.949.949,0,0,1,.949-.949h-1.9a.949.949,0,0,0-.949.949v5.694a.949.949,0,0,0,.949.949h1.9A.949.949,0,0,1,65.9,166.643Z" transform="translate(-64 -160)" fill="#23aae6"/>
          </g>
        </g>
        <g id="Group_1118700" data-name="Group 1118700" transform="translate(15.184 17.081)">
          <g id="Group_1118698" data-name="Group 1118698" transform="translate(0)">
            <path id="Path_906162" data-name="Path 906162" d="M150.643,167.592h-5.694a.949.949,0,0,1-.949-.949v-5.694a.949.949,0,0,1,.949-.949h5.694a.949.949,0,0,1,.949.949v5.694A.949.949,0,0,1,150.643,167.592Z" transform="translate(-144 -160)" fill="#5ad7ff"/>
          </g>
          <g id="Group_1118699" data-name="Group 1118699" transform="translate(0)">
            <path id="Path_906163" data-name="Path 906163" d="M145.9,166.643v-5.694a.949.949,0,0,1,.949-.949h-1.9a.949.949,0,0,0-.949.949v5.694a.949.949,0,0,0,.949.949h1.9A.949.949,0,0,1,145.9,166.643Z" transform="translate(-144 -160)" fill="#23aae6"/>
          </g>
        </g>
        <g id="Group_1118703" data-name="Group 1118703" transform="translate(5.694 7.592)">
          <g id="Group_1118701" data-name="Group 1118701">
            <path id="Path_906164" data-name="Path 906164" d="M70.643,87.592H64.949A.949.949,0,0,1,64,86.643V80.949A.949.949,0,0,1,64.949,80h5.694a.949.949,0,0,1,.949.949v5.694A.949.949,0,0,1,70.643,87.592Z" transform="translate(-64 -80)" fill="#5ad7ff"/>
          </g>
          <g id="Group_1118702" data-name="Group 1118702">
            <path id="Path_906165" data-name="Path 906165" d="M65.9,86.643V80.949A.949.949,0,0,1,66.847,80h-1.9a.949.949,0,0,0-.949.949v5.694a.949.949,0,0,0,.949.949h1.9A.949.949,0,0,1,65.9,86.643Z" transform="translate(-64 -80)" fill="#23aae6"/>
          </g>
        </g>
        <g id="Group_1118706" data-name="Group 1118706" transform="translate(15.184 7.592)">
          <g id="Group_1118704" data-name="Group 1118704" transform="translate(0)">
            <path id="Path_906166" data-name="Path 906166" d="M150.643,87.592h-5.694a.949.949,0,0,1-.949-.949V80.949a.949.949,0,0,1,.949-.949h5.694a.949.949,0,0,1,.949.949v5.694A.949.949,0,0,1,150.643,87.592Z" transform="translate(-144 -80)" fill="#5ad7ff"/>
          </g>
          <g id="Group_1118705" data-name="Group 1118705" transform="translate(0)">
            <path id="Path_906167" data-name="Path 906167" d="M145.9,86.643V80.949a.949.949,0,0,1,.949-.949h-1.9a.949.949,0,0,0-.949.949v5.694a.949.949,0,0,0,.949.949h1.9A.949.949,0,0,1,145.9,86.643Z" transform="translate(-144 -80)" fill="#23aae6"/>
          </g>
        </g>
        <g id="Group_1118707" data-name="Group 1118707" transform="translate(0 39.857)">
          <path id="Path_906168" data-name="Path 906168" d="M16,352H72.938v3.8H16Z" transform="translate(-16 -352)" fill="#555a6e"/>
        </g>
        <g id="Group_1118708" data-name="Group 1118708" transform="translate(5.694 26.571)">
          <path id="Path_906169" data-name="Path 906169" d="M79.184,240H65.9a1.9,1.9,0,0,0-1.9,1.9v11.071H81.081V241.9A1.9,1.9,0,0,0,79.184,240Z" transform="translate(-64 -240)" fill="#5ad7ff"/>
        </g>
        <g id="Group_1118709" data-name="Group 1118709" transform="translate(5.694 26.571)">
          <path id="Path_906170" data-name="Path 906170" d="M67.8,240H65.9a1.9,1.9,0,0,0-1.9,1.9v11.071h1.9V241.9A1.9,1.9,0,0,1,67.8,240Z" transform="translate(-64 -240)" fill="#23aae6"/>
        </g>
      </g>
      <g id="Group_1118711" data-name="Group 1118711" transform="translate(46.367 27.388)">
        <path id="Path_906171" data-name="Path 906171" d="M296.673,140.469H272V113.9a1.9,1.9,0,0,1,1.9-1.9h20.877a1.9,1.9,0,0,1,1.9,1.9Z" transform="translate(-272 -112)" fill="#a5c3dc"/>
      </g>
      <g id="Group_1118712" data-name="Group 1118712" transform="translate(46.367 27.388)">
        <path id="Path_906172" data-name="Path 906172" d="M289.081,140.469H272V113.9a1.9,1.9,0,0,1,1.9-1.9h13.286a1.9,1.9,0,0,1,1.9,1.9Z" transform="translate(-272 -112)" fill="#d7e6f0"/>
      </g>
      <g id="Group_1118721" data-name="Group 1118721" transform="translate(48.265 31.184)">
        <g id="Group_1118713" data-name="Group 1118713" transform="translate(0 0)">
          <path id="Path_906173" data-name="Path 906173" d="M292.745,149.694h-3.8a.949.949,0,0,1-.949-.949v-3.8a.949.949,0,0,1,.949-.949h3.8a.949.949,0,0,1,.949.949v3.8A.949.949,0,0,1,292.745,149.694Z" transform="translate(-288 -144)" fill="#5ad7ff"/>
        </g>
        <g id="Group_1118714" data-name="Group 1118714" transform="translate(0 0)">
          <path id="Path_906174" data-name="Path 906174" d="M289.9,148.745v-3.8a.949.949,0,0,1,.949-.949h-1.9a.949.949,0,0,0-.949.949v3.8a.949.949,0,0,0,.949.949h1.9A.949.949,0,0,1,289.9,148.745Z" transform="translate(-288 -144)" fill="#23aae6"/>
        </g>
        <g id="Group_1118715" data-name="Group 1118715" transform="translate(7.592 0)">
          <path id="Path_906175" data-name="Path 906175" d="M356.745,149.694h-3.8a.949.949,0,0,1-.949-.949v-3.8a.949.949,0,0,1,.949-.949h3.8a.949.949,0,0,1,.949.949v3.8A.949.949,0,0,1,356.745,149.694Z" transform="translate(-352 -144)" fill="#5ad7ff"/>
        </g>
        <g id="Group_1118716" data-name="Group 1118716" transform="translate(7.592 0)">
          <path id="Path_906176" data-name="Path 906176" d="M353.9,148.745v-3.8a.949.949,0,0,1,.949-.949h-1.9a.949.949,0,0,0-.949.949v3.8a.949.949,0,0,0,.949.949h1.9A.949.949,0,0,1,353.9,148.745Z" transform="translate(-352 -144)" fill="#23aae6"/>
        </g>
        <g id="Group_1118717" data-name="Group 1118717" transform="translate(0 7.592)">
          <path id="Path_906177" data-name="Path 906177" d="M292.745,213.694h-3.8a.949.949,0,0,1-.949-.949v-3.8a.949.949,0,0,1,.949-.949h3.8a.949.949,0,0,1,.949.949v3.8A.949.949,0,0,1,292.745,213.694Z" transform="translate(-288 -208)" fill="#5ad7ff"/>
        </g>
        <g id="Group_1118718" data-name="Group 1118718" transform="translate(0 7.592)">
          <path id="Path_906178" data-name="Path 906178" d="M289.9,212.745v-3.8a.949.949,0,0,1,.949-.949h-1.9a.949.949,0,0,0-.949.949v3.8a.949.949,0,0,0,.949.949h1.9A.949.949,0,0,1,289.9,212.745Z" transform="translate(-288 -208)" fill="#23aae6"/>
        </g>
        <g id="Group_1118719" data-name="Group 1118719" transform="translate(7.592 7.592)">
          <path id="Path_906179" data-name="Path 906179" d="M356.745,213.694h-3.8a.949.949,0,0,1-.949-.949v-3.8a.949.949,0,0,1,.949-.949h3.8a.949.949,0,0,1,.949.949v3.8A.949.949,0,0,1,356.745,213.694Z" transform="translate(-352 -208)" fill="#5ad7ff"/>
        </g>
        <g id="Group_1118720" data-name="Group 1118720" transform="translate(7.592 7.592)">
          <path id="Path_906180" data-name="Path 906180" d="M353.9,212.745v-3.8a.949.949,0,0,1,.949-.949h-1.9a.949.949,0,0,0-.949.949v3.8a.949.949,0,0,0,.949.949h1.9A.949.949,0,0,1,353.9,212.745Z" transform="translate(-352 -208)" fill="#23aae6"/>
        </g>
      </g>
      <g id="Group_1118727" data-name="Group 1118727" transform="translate(24.541 36.877)">
        <g id="Group_1118722" data-name="Group 1118722" transform="translate(0)">
          <path id="Path_906181" data-name="Path 906181" d="M125.516,206.423a2.348,2.348,0,0,1-2.194-1.514q-.152-.4-.327-.786a2.351,2.351,0,0,1,.476-2.631h0a2.349,2.349,0,0,0,0-3.322l-1.778-1.778a2.342,2.342,0,0,0-1.661-.688h-3.8a2.341,2.341,0,0,0-1.661.688h0q-.066.066-.136.125a2.347,2.347,0,0,1-1.457-2.169A2.349,2.349,0,0,0,110.627,192h-5.854a2.349,2.349,0,0,0-2.349,2.349,2.347,2.347,0,0,1-1.457,2.169q-.07-.06-.136-.125h0a2.342,2.342,0,0,0-1.661-.688H95.831a2.341,2.341,0,0,0-1.661.688l-1.778,1.778a2.349,2.349,0,0,0,0,3.322h0a2.351,2.351,0,0,1,.476,2.631q-.175.387-.327.786a2.348,2.348,0,0,1-2.194,1.514A2.349,2.349,0,0,0,88,208.771v2.515a2.349,2.349,0,0,0,2.349,2.349,2.348,2.348,0,0,1,2.194,1.514q.152.4.327.786a2.351,2.351,0,0,1-.476,2.631h0a2.349,2.349,0,0,0,0,3.322l1.778,1.778a2.342,2.342,0,0,0,1.661.688H99.17a2.341,2.341,0,0,0,1.661-.688h0q.066-.066.136-.125a2.347,2.347,0,0,1,1.457,2.169,2.349,2.349,0,0,0,2.349,2.349h5.653a2.528,2.528,0,0,0,2.549-2.349,2.347,2.347,0,0,1,1.457-2.169q.07.06.136.125h0a2.342,2.342,0,0,0,1.661.688h3.8a2.341,2.341,0,0,0,1.661-.688l1.778-1.778a2.349,2.349,0,0,0,0-3.322h0a2.351,2.351,0,0,1-.476-2.631q.175-.387.327-.786a2.348,2.348,0,0,1,2.194-1.514,2.349,2.349,0,0,0,2.349-2.349v-2.515a2.349,2.349,0,0,0-2.349-2.349Z" transform="translate(-88 -191.998)" fill="#f06423"/>
        </g>
        <g id="Group_1118724" data-name="Group 1118724" transform="translate(0)">
          <g id="Group_1118723" data-name="Group 1118723">
            <path id="Path_906182" data-name="Path 906182" d="M124.061,211.286v-2.515a2.349,2.349,0,0,0-2.349-2.349,2.348,2.348,0,0,1-2.194-1.514q-.152-.4-.327-.786a2.351,2.351,0,0,1,.476-2.631h0a2.349,2.349,0,0,0,0-3.322l-1.778-1.778a2.349,2.349,0,0,0-3.322,0h0a2.351,2.351,0,0,1-2.631.476q-.387-.175-.786-.327a2.348,2.348,0,0,1-1.514-2.194A2.349,2.349,0,0,0,107.288,192h-2.515a2.349,2.349,0,0,0-2.349,2.349,2.348,2.348,0,0,1-1.514,2.194q-.4.152-.786.327a2.351,2.351,0,0,1-2.631-.476h0a2.349,2.349,0,0,0-3.322,0l-1.778,1.778a2.349,2.349,0,0,0,0,3.322h0a2.351,2.351,0,0,1,.476,2.631q-.175.387-.327.786a2.348,2.348,0,0,1-2.194,1.514A2.349,2.349,0,0,0,88,208.771v2.515a2.349,2.349,0,0,0,2.349,2.349,2.348,2.348,0,0,1,2.194,1.514q.152.4.327.786a2.351,2.351,0,0,1-.476,2.631h0a2.349,2.349,0,0,0,0,3.322l1.778,1.778a2.349,2.349,0,0,0,3.322,0h0a2.351,2.351,0,0,1,2.631-.476q.387.175.786.327a2.348,2.348,0,0,1,1.514,2.194,2.349,2.349,0,0,0,2.349,2.349h2.515a2.349,2.349,0,0,0,2.349-2.349,2.348,2.348,0,0,1,1.514-2.194q.4-.152.786-.327a2.351,2.351,0,0,1,2.631.476h0a2.349,2.349,0,0,0,3.322,0l1.778-1.778a2.349,2.349,0,0,0,0-3.322h0a2.351,2.351,0,0,1-.476-2.631q.175-.387.327-.786a2.348,2.348,0,0,1,2.194-1.514,2.349,2.349,0,0,0,2.349-2.349Z" transform="translate(-88 -191.998)" fill="#faa019"/>
          </g>
        </g>
        <g id="Group_1118725" data-name="Group 1118725" transform="translate(8.503 8.504)">
          <circle id="Ellipse_11649" data-name="Ellipse 11649" cx="9.527" cy="9.527" r="9.527" fill="#d7e6f0"/>
        </g>
        <g id="Group_1118726" data-name="Group 1118726" transform="translate(10.439 12.337)">
          <path id="Path_906183" data-name="Path 906183" d="M180.745,307.388a1.892,1.892,0,0,1-1.342-.556l-2.847-2.847a1.9,1.9,0,0,1,2.684-2.684l1.5,1.5,6.25-6.25a1.9,1.9,0,0,1,2.684,2.684l-7.592,7.592A1.892,1.892,0,0,1,180.745,307.388Z" transform="translate(-176 -296)" fill="#91c83c"/>
        </g>
      </g>
    </g>
  </g>
</svg>
