<svg xmlns="http://www.w3.org/2000/svg" width="90.184" height="90.184" viewBox="0 0 90.184 90.184">
  <g id="Group_1118915" data-name="Group 1118915" transform="translate(-1178.156 -4762)">
    <g id="Group_1099463" data-name="Group 1099463" transform="translate(1178.156 4762)">
      <g id="Group_1073526" data-name="Group 1073526" transform="translate(0 0)">
        <g id="Group_1072785" data-name="Group 1072785" transform="translate(0 0)">
          <path id="Path_608385" data-name="Path 608385" d="M45.092,0A45.092,45.092,0,1,1,0,45.092,45.092,45.092,0,0,1,45.092,0Z" transform="translate(0 0)" fill="none"/>
        </g>
        <g id="Group_1073383" data-name="Group 1073383" transform="translate(0 0)">
          <path id="Path_608385-2" data-name="Path 608385" d="M45.092,0A45.092,45.092,0,1,1,0,45.092,45.092,45.092,0,0,1,45.092,0Z" transform="translate(0 0)" fill="#fff"/>
        </g>
      </g>
    </g>
    <g id="Group_1118729" data-name="Group 1118729" transform="translate(1185.521 4721.294)">
      <path id="Path_906184" data-name="Path 906184" d="M145.314,148.911A12.792,12.792,0,1,0,158.106,161.7,12.785,12.785,0,0,0,145.314,148.911Z" transform="translate(-106.715 -74.256)" fill="#b0d013"/>
      <path id="Path_906185" data-name="Path 906185" d="M61.767,69.165H51.835l-2.783-4.911a3.292,3.292,0,0,0-2.981-1.493H31.128a3.221,3.221,0,0,0-2.981,1.493l-2.783,4.911s-8.8.019-10.791.019c-4.531,0-5.859,3.6-5.859,6.385V98.9c0,5.75,2.936,8.685,8.685,8.685H59.873c5.75,0,8.685-2.935,8.685-8.685V77.85c0-5.75-1.041-8.685-6.79-8.685ZM15.539,78.276a3.2,3.2,0,1,1,3.2-3.2A3.2,3.2,0,0,1,15.539,78.276ZM38.6,103.512A16.065,16.065,0,1,1,54.664,87.447,16.059,16.059,0,0,1,38.6,103.512Z" fill="#01a177"/>
      <path id="Path_906186" data-name="Path 906186" d="M167.542,181.611s1.8,1.459,7.24,2.607c4.77,1.007,6.019,5.992,6.34,8.855a16.374,16.374,0,0,0-7.017-4.888.414.414,0,0,0-.257.786,15.434,15.434,0,0,1,7.381,5.7,11.338,11.338,0,0,1,1.333,2.993.413.413,0,0,1-.222.486.405.405,0,0,1-.064.024.414.414,0,0,1-.511-.286,10.232,10.232,0,0,0-1.133-2.578c-16.69,5.613-13.092-13.7-13.092-13.7Z" transform="translate(-136.617 -102.441)" fill="#fff"/>
    </g>
  </g>
</svg>
